<?xml version="1.0" encoding="utf-8"?>
<!-- Generator: Adobe Illustrator 19.0.0, SVG Export Plug-In . SVG Version: 6.00 Build 0)  -->
<svg version="1.1" id="Layer_1" xmlns="http://www.w3.org/2000/svg" xmlns:xlink="http://www.w3.org/1999/xlink" x="0px" y="0px"
	 viewBox="0 0 680.3 303.6" style="enable-background:new 0 0 680.3 303.6;" xml:space="preserve">
<style type="text/css">
	.st0{opacity:0.37;fill:#6E6E6E;}
	.st1{opacity:0.37;fill:#929292;}
	.st2{opacity:0.37;fill:#666666;}
	.st3{opacity:0.37;fill:#7D7D7D;}
	.st4{opacity:0.37;fill:#606060;}
	.st5{opacity:0.37;fill:#7E7E7E;}
	.st6{opacity:0.37;fill:#6C6C6C;}
	.st7{opacity:0.37;fill:#6B6B6B;}
	.st8{opacity:0.37;fill:#676767;}
	.st9{opacity:0.37;fill:#787878;}
	.st10{opacity:0.37;fill:#818181;}
	.st11{opacity:0.37;fill:#3F3F3F;}
	.st12{opacity:0.37;fill:#1A1A1A;}
	.st13{opacity:0.37;fill:#868686;}
	.st14{opacity:0.37;fill:#8C8C8C;}
	.st15{opacity:0.37;fill:#8F8F8F;}
	.st16{opacity:0.37;fill:#252525;}
	.st17{opacity:0.37;fill:#747474;}
	.st18{opacity:0.37;fill:#202020;}
	.st19{opacity:0.37;fill:#191919;}
	.st20{opacity:0.37;fill:#2F2F2F;}
	.st21{opacity:0.37;fill:#A2A2A2;}
	.st22{opacity:0.37;fill:#323232;}
	.st23{opacity:0.37;fill:#131313;}
	.st24{fill:#040404;}
	.st25{fill:#B9B9B9;}
	.st26{fill:#060606;}
	.st27{fill:#969696;}
	.st28{fill:#A5A5A5;}
	.st29{fill:#B7B7B7;}
	.st30{fill:#525252;}
	.st31{opacity:8.000000e-002;fill:#606060;}
	.st32{fill:#787878;}
	.st33{fill:#515151;}
	.st34{fill:#464646;}
	.st35{fill:#B5B5B5;}
	.st36{fill:#080808;}
	.st37{fill:#7D7D7D;}
	.st38{fill:#161616;}
	.st39{fill:#5A5A5A;}
	.st40{fill:#050505;}
	.st41{fill:#434343;}
	.st42{opacity:0.37;fill:#949494;}
	.st43{opacity:0.37;fill:#1D1D1D;}
	.st44{opacity:0.37;fill:#424242;}
	.st45{opacity:0.37;fill:#2B2B2B;}
	.st46{opacity:0.37;fill:#313131;}
	.st47{opacity:0.37;fill:#8A8A8A;}
	.st48{opacity:0.37;fill:#8B8B8B;}
	.st49{opacity:0.37;fill:#8D8D8D;}
	.st50{fill:#070707;}
	.st51{fill:#383838;}
	.st52{opacity:0.37;fill:#262626;}
	.st53{fill:#797979;}
	.st54{fill:#353535;}
	.st55{opacity:8.000000e-002;fill:#8D8D8D;}
	.st56{fill:#B0B0B0;}
	.st57{fill:#C9C9C9;}
	.st58{fill:#555555;}
</style>
<path id="XMLID_851_" class="st0" d="M325.4,291c-7.2-0.3-14.3-0.6-21.5-0.8c-5-0.1-10.1,0-15.1,0c0-0.2,0-0.5,0-0.7
	c1.2-0.9,2.5-1.8,3.7-2.6c0.3-0.2,0.8-0.4,1.3-0.3c6.3,0.1,12.7,0,19,0.5c7.7,0.6,15.4,1.9,23.1,2.6c4.6,0.4,9.2,0.2,13.8,0.5
	c8.1,0.4,16.1,0.9,24.2,1.4"/>
<path id="XMLID_9_" class="st1" d="M627,291.8c1.7-0.1,3.2-0.2,4.7-0.3"/>
<path id="XMLID_844_" class="st2" d="M680.3,224.7c-12.8-0.2-25.6-0.9-38.3-0.2c-7.8,0.4-15.4-1-23.1-0.6c-0.4,0-0.8-0.6-1.3-0.9
	c0.4-0.2,0.7-0.6,1-0.6c3.1,0.5,6,0.5,9.2-0.4c3.2-0.9,6.8-0.7,10.1-0.2c14,1.9,28.2,1.5,42.2,1.5
	C680.3,223.8,680.3,224.2,680.3,224.7z"/>
<path id="XMLID_838_" class="st3" d="M0,264.7c4.1,0.1,8.1,0.2,12.2,0.3c1.2,0,2.3,0.2,3.5,0.3c0,0.3,0,0.5,0,0.8
	c-5.2,0-10.4,0-15.6,0C0,265.6,0,265.1,0,264.7z"/>
<path id="XMLID_8_" class="st4" d="M0,302.9c0-0.5,0-0.9,0-1.4c1.6,0,3.2-0.1,4.7,0.2c0.7,0.1,1.2,1.2,1.8,1.9"/>
<path id="XMLID_832_" class="st5" d="M378.7,239.6c6.9,0.1,13.8,0.3,20.7,0.4c0.6,0,1.3,0.3,1.9,0.5c-4.4,0-8.7,0-13.1,0
	c-2.6,0-5.1,0-7.7,0c0,0.3,0,0.6,0,0.9c2.6,0,5.1,0,7.7,0c5.7,0.2,11.5,0.3,17.2,0.5c-0.5,0.4-0.9,0.9-1.9,1.8
	c2.3-0.6,3.9-1,5.6-1.4c0.3,0,0.6,0,0.9,0c1.7,0.4,3.4,1.2,5.1,1.2c4.2,0.2,8.5,0.2,12.8,0.1c6.8-0.1,13.5-0.3,20.3-0.5
	c0.6,0,1.2,0,1.8,0c2.2,0.3,4.1,2.6,6.5,0.7c0.1-0.1,0.6,0.2,0.8,0.2c0.9,0.1,1.7,0.4,2.6,0.3c2.2-0.2,4.3-0.8,6.5-0.6
	c3.2,0.2,6.3,0.9,9.5,1.4c0.4,0.1,0.9,0,1.4,0c2.4,0,4.9,0,7.3,0c0,0.2,0,0.4,0,0.7c-0.7,0.1-1.3,0.3-2,0.3
	c-6.5,0-13.1-0.1-19.6-0.1c-2.9,0-5.7,0-8.6,0c-2.2,0-4.7,0.7-6.3-1.8c0-0.1-0.3,0-0.6,0c0.1,0.5,0.2,0.9,0.4,1.6
	c-2.4,0.1-4.6-2-7-0.5c-0.1,0.1-0.5-0.4-0.7-0.5c-0.7-0.1-1.4-0.4-2-0.2c-4.5,1.6-9,0.1-13.5,0.1c-3.8,0-7.5,0-11.3,0
	c0,0.3,0,0.5,0,0.8c2.2,0,4.5,0,6.7,0c0,0.2,0,0.4,0.1,0.7c-0.5,0.2-1.1,0.5-1.6,0.5c-5.1,0-10.2,0.1-15.3,0c-0.9,0-1.8-0.8-2.7-1.2
	c0.1-0.3,0.2-0.6,0.3-0.8c2.2,0.2,4.3,0.3,6.5,0.5c0-0.3,0-0.5,0.1-0.8c-2.4-0.1-4.8-0.2-7.2-0.3c-0.2,0-0.5,0.2-0.5,0.4
	c-0.1,2.6-2,1.6-3.3,1.7c-1.7,0.1-3.5-0.1-5.2,0c-4.3,0.2-8.5,0.6-12.7,0.9c-0.4,0-0.7,0.2-1.2,0.3c0.4,0.4,0.6,0.7,0.9,1
	c-2.6,0.6-2.7,0.5-3.2-1.4c-2.4,0.7-5.4-1.2-7.5,1.6c-0.1,0.2-1.1,0.1-1.2-0.1c-1.1-1.8-2.4-0.8-3.7-0.5c-0.5,0.1-1.1,0.1-1.7,0
	c-0.8-0.1-1.6-0.2-2.4-0.3c-0.1,0.2-0.1,0.5-0.2,0.7c0.9,0.3,1.7,0.8,2.6,0.9c1.9,0.3,3.9,0.3,5.9,0.5c0.2,0,0.3,0.6,0.4,0.9
	c-3.5,0-7.1-0.1-10.6-0.1c-1.7,0-3.5,0.3-5.2,0.5c-2.5-0.3-5.1-0.8-7.6-1c-2.2-0.2-4.4-0.3-6.7-0.4c-0.6,0-1.2,0.1-1.8,0.1
	c-3.1,0.1-6.2,0.3-9.3,0.2c-1.2-0.1-2.3-1-3.7-1.7c-0.9,0.4-2.2,1-3.8,1.7c1.7,0.6,3.2,1.1,4.6,1.6c-6.5-0.1-12.9-0.3-19.4-0.4
	c-1,0-1.9,0.2-2.9,0.2c-0.9,0-2,0.2-2.6-0.2c-1.7-1.5-3.4-1.3-5.4-0.9c-1.4,0.3-3.1,0.7-3.7-1.6c-0.1-0.4-1.1-0.6-1.9-1
	c0.8-0.3,1.3-0.6,1.9-0.8c0-0.2-0.1-0.4-0.1-0.6c-1.3,0.2-2.6,0.4-4.4,0.7c-2.5-3-5,0.6-7.8,1c-1,0.1-2,0.4-3,0.6
	c-0.3-1.9-0.5-3.5-0.8-5.3c-1.8-0.1-3-0.9-2.1-3.3c-0.8-0.1-1.4-0.2-2.1-0.3c-0.3-0.3-0.6-0.6-0.9-0.8c4.1-0.3,8.2-0.6,12.3-0.7
	c1.3-0.1,2.7,0.2,4,0.3c0.7,0.4,1.4,0.7,2.4,1.2c0.5-0.2,1.3-0.7,2.3-0.8c2.2-0.2,4.5-0.2,6.7-0.3c0.8,0,1.7-0.3,2.5-0.3
	c3.5,0.2,7,0.7,10.4,0.8c4,0.2,7.9-0.2,11.9,0.2c3.1,0.3,6.2,0.7,9.3-0.2c0.9-0.3,2,0.3,3.1,0.4c3.2,0.4,6.5,0.7,9.7,1.1
	c0.2,0,0.4-0.1,1.1-0.3c-1.4-0.4-2-0.6-2.3-0.7c6.3,0,12.8,0,19.3,0c0,0.2,0,0.3,0,0.5c-0.5,0.1-0.9,0.3-1.4,0.4c0,0.2,0,0.3,0,0.5
	c4.4,0,8.9,0,13.3,0c0-0.2,0-0.4,0-0.5c-0.7-0.1-1.4-0.2-2.1-0.3c0-0.1,0-0.3,0-0.4C373.7,239.6,376.2,239.6,378.7,239.6z"/>
<path id="XMLID_829_" class="st6" d="M323.4,251.5c-1.4-0.5-2.8-1-4.6-1.6c1.5-0.7,2.9-1.3,3.8-1.7c1.4,0.7,2.5,1.7,3.7,1.7
	c3.1,0.2,6.2-0.1,9.3-0.2c0.6,0,1.2-0.1,1.8-0.1c2.2,0.1,4.4,0.2,6.7,0.4c2.5,0.3,5.1,0.7,7.6,1c1,0.3,2,0.7,3,0.8
	c3.1,0.2,6.2,0.2,9.3,0.3c0.5,0,1.1,0.1,1.6-0.1c0.7-0.4,1.3-1,2-1.5c-0.1-0.3-0.3-0.9-0.4-0.9c-2-0.2-3.9-0.3-5.9-0.5
	c-0.9-0.1-1.7-0.6-2.6-0.9c0.1-0.2,0.1-0.5,0.2-0.7c0.8,0.1,1.6,0.2,2.4,0.3c0.6,0,1.1,0.1,1.7,0c1.3-0.3,2.7-1.2,3.7,0.5
	c0.1,0.2,1.1,0.3,1.2,0.1c2.1-2.8,5-0.9,7.5-1.6c0.5,2,0.6,2,3.2,1.4c-0.3-0.3-0.6-0.6-0.9-1c0.5-0.1,0.8-0.3,1.2-0.3
	c4.2-0.3,8.5-0.7,12.7-0.9c1.7-0.1,3.5,0.1,5.2,0c1.3,0,3.2,1,3.3-1.7c0-0.1,0.3-0.4,0.5-0.4c2.4,0.1,4.8,0.2,7.2,0.3
	c0,0.3,0,0.5-0.1,0.8c-2.2-0.2-4.3-0.3-6.5-0.5c-0.1,0.3-0.2,0.6-0.3,0.8c0.9,0.4,1.8,1.2,2.7,1.2c5.1,0.1,10.2,0.1,15.3,0
	c0.5,0,1.1-0.3,1.6-0.5c0-0.2,0-0.4-0.1-0.7c-2.2,0-4.5,0-6.7,0c0-0.3,0-0.5,0-0.8c3.8,0,7.5,0,11.3,0c4.5,0,9,1.5,13.5-0.1
	c0.6-0.2,1.3,0.1,2,0.2c0.3,0.1,0.6,0.5,0.7,0.5c2.4-1.4,4.5,0.6,7,0.5c-0.1-0.7-0.2-1.1-0.4-1.6c0.3,0,0.5-0.1,0.6,0
	c1.6,2.5,4.1,1.7,6.3,1.8c2.9,0.1,5.7,0,8.6,0c6.5,0,13.1,0.1,19.6,0.1c0.7,0,1.3-0.2,2-0.3c0-0.2,0-0.4,0-0.7c-2.4,0-4.9,0-7.3,0
	c-0.5,0-0.9,0.1-1.4,0c-3.2-0.5-6.3-1.2-9.5-1.4c-2.1-0.1-4.3,0.5-6.5,0.6c-0.9,0.1-1.7-0.2-2.6-0.3c-0.3,0-0.7-0.3-0.8-0.2
	c-2.4,1.9-4.4-0.5-6.5-0.7c0.6-1.7,1.7-2.7,3.6-2.7c2.9,0,5.8-0.3,8.6,0c2.5,0.2,5,1.4,7.5,1.6c5.6,0.5,11.2,0.6,16.9,0.9
	c0.6,0,1.2,0,1.8,0.1c4,1.3,8.1,1.5,12.3,1.1c0.7-0.1,1.4,0,2,0.1c1,0.1,1.9,0.4,2.9,0.4c3.6,0.1,7.1,0,11.1-0.2
	c-0.6-0.2-1.1-0.4-1.7-0.6c0.1-0.3,0.3-0.5,0.4-0.8c2.5,0.2,5,0.2,7.5,0.8c1.9,0.4,3.7,1.7,5.6,2.1c2.1,0.5,4.3,0.4,6.4,0.6
	c0.5,0,1,0,1.5,0c0,0.2,0,0.4,0,0.6c-1.4,0-2.9-0.1-4.3,0c-4.8,0.4-9.6,1-14.4,1.2c-4.9,0.2-9.8,0-14.8,0.1c-0.7,0-1.4,0.1-2.1,0.2
	c0,0.2,0,0.4,0,0.6c0.9,0,1.9,0.1,2.8,0.1c10.3,0.1,20.5,0.1,30.8,0.4c0.9,0,2.4,1.1,2.6,1.9c0.3,1.3-0.4,2.7-2.2,2.8
	c-3.1,0.1-6.2,0.3-9.2,0.3c-0.6,0-1.1-0.7-1.7-1.1c0.6-0.3,1.2-0.8,1.8-0.8c2.4,0.1,4.8,0.5,7.2,0.6c0.7,0,1.5-0.7,2.3-1.1
	c-0.7-0.5-1.4-0.9-2.1-1.3c-0.3-0.2-0.7-0.2-1.1-0.1c-6.1,0.2-12.2,0.4-18.3,0.5c-1.5,0-2.9-0.3-4.4-0.6c-0.3,0-0.6-0.3-0.9-0.3
	c-3.9,0.1-7.8,0.2-11.7,0.2c-1.1,0-2.2-0.1-3.3-0.2c-3.5-0.4-6.9-0.8-10.9-1.3c0.5,1.3,0.8,2.1,1.2,2.9c-3.2,1.9-16,1.5-18.1-0.7
	c-2.2,2.7-5.1,0.8-7.8,1.3c-1.2,0.3-2.6,0.2-3.8,0c-1.3-0.2-2.6-0.8-3.9-1.2c-0.9-0.2-2.3-0.7-2.8-0.3c-2.1,1.5-4.3,1.7-6.7,1.6
	c-2.7-0.1-5.3,0-8,0c0-0.2,0-0.4,0-0.6c1.6-0.3,3.1-0.6,5.1-0.9c-2.8-1.3-5.2-0.8-7.7,0.1c-0.7,0.3-1.4,0.6-2.1,0.6
	c-6.4-0.2-12.8-0.5-19.2-0.8c-0.3,0-0.7,0-0.9,0.1c-2.3,1.3-3.9,1.4-5-1.6c-0.4-1.2-5.7-1.4-7.3-0.7c-0.6,0.2-1.4-0.1-2.1-0.1
	c0-0.5,0.1-1,0.2-1.6c-2.5,0.7-5-1.4-7.5,0.4c0.9,0.5,1.6,0.8,2.3,1.2c-0.6,0.7-1.2,1.4-2.1,2.4c-1.5-2.1-3.6-0.8-5.7-0.8
	c-3.3-0.1-6.5,2-9.8,0.5c-0.3-0.1-0.8,0.1-1.2,0.2c0,0.3,0,0.5,0,0.8c3.4,0,6.7,0,10.1,0c0,0.4,0,0.7,0,1.1c-3,0-6.1,0-9.1,0
	c-3.7,0.1-7.5,0.2-11.2,0.3c-3.9,0.1-7.8,0.2-11.7,0c-7.3-0.3-14.6-0.7-21.9-1.2C325.2,252.3,324.3,251.8,323.4,251.5z M516.7,247.6
	c0-0.1,0-0.3,0-0.4c-4.8,0-9.5,0-14.3,0c0,0.1,0,0.3,0,0.4C507.2,247.6,511.9,247.6,516.7,247.6z"/>
<path id="XMLID_825_" class="st7" d="M152.1,258.3c0.1-1.7-1.2-1.5-2.2-1.5c-4.2,0-8.3,0.2-12.5,0.1c-3.5-0.1-7-0.5-10.5-0.8
	c0-0.3,0-0.5-0.1-0.8c2-0.3,3.9-0.7,5.9-0.8c2.1-0.1,4.3,0.1,6.4,0c0.6,0,1.2-0.5,1.8-0.8c-0.2-1.5-3.8,1-2.2-2.2
	c-0.6-0.7-1.3-1.5-2-2.3c2.2,0.3,4.4,0.5,7,0.9c-0.7-1-1.2-1.8-1.7-2.5c3.4-1.4,4-1.4,4.4-0.3c1.5-0.1,2.8-0.3,4.2-0.3
	c4.9,0,9.7,0.1,14.6,0.2c1.9,0,3.8-0.1,5.7-0.1c0.5,0,1,0.5,2,1.2c-2,0.2-3.4,0.4-4.8,0.6c0,0.2,0,0.5,0.1,0.7
	c2.3-0.1,4.5-0.2,7.1-0.3c-0.5-0.9-0.9-1.4-1.2-2c3.7,0,7.4,0,11.1,0c0,0.2,0,0.4,0.1,0.7c-2.6,1.3-5.7,0.1-8.5,1c0,0.3,0,0.6,0,0.9
	c0.9,0,1.9,0.3,2.8,0.1c1.7-0.5,3.3-1.1,4.7,0.6c0.2,0.2,1.4,0.1,1.5-0.1c0.7-1.8,2-1.1,3.2-1c1.4,0.2,2.9,0.2,4.9,0.3
	c-0.9-1-1.3-1.5-2.1-2.3c1.6,0.1,2.7,0.1,3.8,0.2c0.3,3.7,3,1.3,4.4,2c1.3,0.7,3,1.2,1.4,3.1c0.7,0.9,1.4,1.7,2,2.6
	c0.3,0.5,0.6,0.9,0.8,1.4c0.3,0.5,0.4,1.5,0.7,1.5c0.8,0.1,1.6-0.1,2.4-0.2c-1.6-2.1-2.8-3.8-4.1-5.5c0.6-0.2,1.3-0.6,1.9-0.6
	c1.6,0,3.2,0.2,4.7,0.2c0-0.1,0-0.2,0-0.3c-1.6-0.7-3.2-1.3-4.9-2c3.3,0,6.7,0,10,0c0.9,2.1,2.4,0.6,3.7,0.7c0.3,0,0.6-0.5,1-0.8
	c-0.5-0.6-0.9-1.1-1.6-1.8c0.9,0.1,1.4,0.1,1.9,0.1c0.9-0.1,1.8-0.3,2.7-0.4c-0.2,2.4,1.6,1.8,2.9,1.7c0,0.9,0,1.7,0,2.5
	c-1.4,0.3-2.6,0.5-3.9,0.8c-0.1,0.4-0.3,0.9-0.4,1.3c-3.2,0-6.4,0-9.6,0c0,0.1,0,0.3,0,0.4c0.6,0.2,1.2,0.3,1.9,0.5
	c0.9,0.3,1.8,0.7,2.7,1c0.9,0.3,1.7,0.6,2.6,0.8c0,0.3,0,0.6,0,0.9c-1.9,0.3-3.8,0.5-5.6,0.8c0,0.1,0,0.2,0,0.4
	c9.7,0.7,19.4,1.3,29.1,2c0,0.1,0,0.2,0,0.4c-0.6,0.1-1.2,0.2-1.8,0.2c-6-0.2-11.9-0.3-17.9-0.6c-1.9-0.1-4.1,0.8-5.8-0.8
	c-0.2-0.1-0.9,0.2-1.2,0.4c-1.4,1.2-2.7,1.4-3.7-0.7c-1.9,2.6-4.6,1.8-6.8,1.5c-1.5-0.2-3.9,0.7-4.7-1.8c0-0.1-0.4-0.2-0.6-0.2
	c-2.2,0.1-4.5-0.1-6.7,0.3c-2.3,0.5-4.4,1.3-6.5-0.3c-0.1-0.1-0.4,0-0.7,0c-4.5,0.9-8.6,0.2-12.5-2.2c-0.4-0.3-1.4-0.4-1.6-0.1
	c-2.1,2-4.5,0.9-6.8,1c0-0.2-0.1-0.4-0.1-0.6c0.8-0.1,1.5-0.4,2.3-0.3c0.8,0,1.7,0.2,2.5,0.3c0-0.2,0-0.5,0.1-0.7c-2.6,0-5.3,0-8,0
	c0.4,0.2,0.8,0.4,1.2,0.6c-0.1,0.2-0.2,0.5-0.2,0.7c-2.7,0.6-5.4,1.3-8,1.9c0,0.2,0,0.4,0,0.7C153.6,259.9,152.9,259.1,152.1,258.3z
	 M177.8,256.7c0,0.2,0,0.4,0,0.7c1.2,0.2,2.7,1,3.7,0.6c3.3-1.3,6.3-0.6,9.5,0.2c1.8,0.5,3.8,0.4,5.6,0.4c1.6,0,3.3-0.3,4.9-0.5
	c0-0.3,0-0.6,0-1c-0.7-0.1-1.4-0.1-2.1-0.2c-2.1-0.2-4,1.1-6.4,0.1C188,254.8,182.9,256.8,177.8,256.7z"/>
<path id="XMLID_824_" class="st5" d="M292,226.5c-0.5,0.4-1,0.7-1.7,1.2c5,2.1,9.6,4.3,15.2,2.7c0.6-1.4,1.7-1.8,3.6-0.7
	c1.4,0.8,3.1,1.3,4.7,1.5c0.9,0.1,2-0.5,3-0.9c1-0.4,2-1.2,3-1.4c1.2-0.2,2.6-0.2,3.8,0.1c0.7,0.1,1.4,0.8,2,1.4
	c1.8,0,3.9-1.3,5.4,1.2c0.1,0.1,0.6,0,0.8-0.1c3.6-2,7.4-1.1,11.1-1c2.3,0,4.6,0.5,6.9,0.6c0.8,0,1.7-0.6,2.9-1
	c3.9,1.7,6.7,1.5,8.4-0.8c1.1,1.8,2.5,2.1,4.6,1.7c1.6-0.3,3.5,0.5,5.7,0.8c0,0,0.7-0.8,1.1-0.7c2.7,0.8,5.4-0.8,8.1,0.5
	c0.9,0.4,2.3-0.3,3.5-0.3c4.2,0,8.4,0,12.5,0.1c1.3,0,2.5,0.3,3.8,0.4c-1.4,2.1-3.7,1.5-5.7,2c1.3,0.4,2.6,0.4,3.8,0.7
	c0.6,0.1,1,0.9,1.4,1.4c-3.6,0.2-7.3,0.3-10.9,0.5c-1.4-0.9-3.8-0.8-3-4.2c-1.1,0.9-1.6,1.3-2.2,1.6c-1.6,0.9-3.1,2.4-4.8,2.6
	c-1.9,0.2-3.8-0.9-5.8-1.1c-2-0.2-4.2-0.5-6,0.1c-4.7,1.4-9.4,0.3-14.1,0.5c-3.7,0.2-7.4-0.3-11-0.5c-0.9-0.1-1.9-0.2-2.8-0.2
	c-4.1,0-8.2,0.2-12.3,0.2c-8.1-0.1-16.1-0.2-24.2-0.5c-4.1-0.1-8.2-0.3-12.3-0.6c-1.5-0.1-3.2-0.5-4.1-2c0.1-0.2,0.1-0.5,0.2-0.7
	c1.9,0.3,3.8,0.5,5.7,0.8c-1.2-0.9-2.5-1.3-3.8-1.8c-1.6-0.7-3.1-1.1-3.8,1.2c-0.1,0.3-0.7,0.6-1,0.7c-2.1,0.3-4.3,0.6-6.4,0.8
	c-1.4,0-3,0.7-3.9-1.2c0.7-0.3,1.3-0.6,2.1-1c-1.5-0.7-2.7-1.2-3.9-1.7c0.1-0.2,0.1-0.4,0.2-0.5c0.7,0.1,1.3,0.1,2,0.2
	c0-0.1,0.1-0.2,0.1-0.4c-1.1-0.4-2.2-0.8-3.9-1.5c1.9-0.4,3.5-1.3,4.3-0.9c1.1,0.6,1.5,0.2,2.3,0c1.1-0.4,2.5-1.1,3.3-0.8
	c1.8,0.8,3.1,0.4,4.6-0.6c1.1-0.8,2.3-1.3,3.7-2c0.4,0.7,1.1,1.3,1.2,1.9C289.8,226.5,290.9,226.5,292,226.5z"/>
<path id="XMLID_821_" class="st6" d="M562.7,230.1c-9.1-0.2-18.1-0.3-27.2-0.5c-7.9-0.2-15.9-0.7-23.8-0.4c-8.4,0.3-16.7,0-25-1
	c-1.9-0.2-3.9-0.2-5.8-0.3c-2.3-0.2-4.6-0.5-7-0.5c-1,0-2,0.6-3,1c0,0,0,0,0,0c-1.2-0.3-2.5-0.6-1.4-2.2c4.7,0.2,9.3,0.5,14,0.7
	c3.4,0.1,6.8,0,10.2-0.2c3.1-0.1,6.2-0.4,9.3-0.4c3.8,0,7.6,0.4,11.5,0.5c6.9,0.2,13.8,0.6,20.7,0.6c5.9,0,11.7-0.6,17.6-0.6
	c5.3-0.1,10.7,0.3,16,0.4c4,0.1,8-0.1,12-0.1c6,0,11.9,0.1,17.9,0.3c4,0.1,7.9,0.6,11.9,0.5c3.4-0.1,6.7-0.7,10.1-1
	c3.2-0.2,6.5-0.3,9.7-0.4c0.6,0,1.3,0.3,1.9,0.5c-0.9,0.3-1.8,0.5-3.5,1c1.2,0.4,1.7,0.6,2.3,0.8c0.1,0,0.1,0,0.2,0.1
	c0.1,0,0.1,0.1,0.2,0.1c-0.3,0.3-0.6,0.6-0.8,0.9c0.6,0.7,1.1,1.2,1.6,1.7c-0.3,0.6-0.6,1.1-0.9,1.7c-0.3,0.2-0.6,0.3-0.9,0.5
	c-0.6,0.1-1.2,0.2-1.9,0.3c0,0.5,0,1,0,1.5c-3.8-2.6-7.8-2.7-12.3-2c-4.8,0.8-9.8,0.4-14.7,0.6c-1.8,0.1-3.6,0-5.4,0.4
	c-6.1,1.1-12,0.9-17.8-1.3c-1-0.4-2.2-0.3-3.4-0.4c2.7-0.1,5.5-0.3,8.2-0.3c4.1,0,8.2,0,12.1,0c-2-0.8-4.1-1.6-6.3-2.4
	c3.8,0,7.5,0,11.3,0c0-0.3,0-0.5,0-0.8c-3.4-0.1-6.8-0.3-10.3-0.3c-0.3,0-0.7,0.8-1,1.2c-4.5,0.1-9.1,0.3-13.6,0.4
	c1-0.3,1.9-0.7,2.9-0.8c2.8-0.1,5.6,0,8.4,0c0-0.3,0.1-0.7,0.1-1c-1.3-0.3-2.5-0.8-3.8-0.8c-6.2,0.1-12.3,0.2-18.5,0.5
	C563.9,228.5,563.3,229.5,562.7,230.1z M606.9,230.1c0,0.2,0,0.4,0,0.7c6.5,0,12.9,0,19.5,0C625.1,229,609.4,228.6,606.9,230.1z"/>
<path id="XMLID_819_" class="st8" d="M277.5,233.4c2.1-0.3,4.3-0.5,6.4-0.8c0.4-0.1,0.9-0.4,1-0.7c0.7-2.3,2.1-1.9,3.8-1.2
	c1.3,0.5,2.6,0.9,3.8,1.8c-1.9-0.3-3.8-0.5-5.7-0.8c-0.1,0.2-0.1,0.5-0.2,0.7c0.9,1.5,2.6,1.8,4.1,2c4.1,0.4,8.2,0.5,12.3,0.6
	c8.1,0.2,16.1,0.4,24.2,0.5c4.1,0,8.2-0.1,12.3-0.2c0.9,0,1.9,0.2,2.8,0.2c3.7,0.2,7.4,0.7,11,0.5c4.7-0.3,9.4,0.8,14.1-0.5
	c1.9-0.5,4-0.3,6-0.1c2,0.2,3.9,1.3,5.8,1.1c1.7-0.2,3.2-1.6,4.8-2.6c0.6-0.3,1-0.8,2.2-1.6c-0.8,3.4,1.6,3.3,3,4.2
	c-1.8,0.3-3.7,0.5-5.5,0.8c-2.5,0.5-5.1,1-7.8,1.6c1,0.3,1.9,0.5,2.8,0.8c-2.5,0-5.1,0-7.6,0c0,0.1,0,0.3,0,0.4
	c0.7,0.1,1.4,0.2,2.1,0.3c0,0.2,0,0.4,0,0.5c-4.4,0-8.9,0-13.3,0c0-0.2,0-0.3,0-0.5c0.5-0.1,0.9-0.3,1.4-0.4c0-0.2,0-0.3,0-0.5
	c-6.5,0-13,0-19.3,0c0.3,0.1,0.9,0.3,2.3,0.7c-0.7,0.2-0.9,0.3-1.1,0.3c-3.3-0.4-6.5-0.7-9.7-1.1c-1-0.1-2.2-0.7-3.1-0.4
	c-3.1,0.9-6.1,0.5-9.3,0.2c-3.9-0.4-7.9,0-11.9-0.2c-3.5-0.1-7-0.6-10.4-0.8c-0.8-0.1-1.6,0.2-2.5,0.3c-2.2,0.1-4.5,0.1-6.7,0.3
	c-0.9,0.1-1.8,0.6-2.3,0.8c-1-0.5-1.7-0.9-2.4-1.2c1-1.6,0.6-2.5-1.3-2.7c-2.1-0.2-4.2-0.4-6.4-0.7
	C277.1,234.4,277.3,233.9,277.5,233.4z"/>
<path id="XMLID_816_" class="st9" d="M221.6,252.9c1.2-0.3,2.5-0.5,3.9-0.8c0-0.8,0-1.5,0-2.5c-1.3,0.1-3.1,0.6-2.9-1.7
	c-0.1-0.6-0.2-1.1-0.2-1.3c1.7,0.7,3.5,1.4,5.2,2c0.1-0.2,0.3-0.5,0.4-0.7c-0.7-0.6-1.4-1.1-2.1-1.7c0.9-1.5,4.8-2.6,6.6-1.6
	c-0.5,0.5-1,0.8-2,1.7c4.6-0.8,8.8,0.9,12.9-1.5c-0.2,0.3-0.4,0.7-0.6,1.1c1,0.3,1.9,0.7,3.4,1.2c-1.3,0.5-2,0.7-2.8,1
	c0,0.2,0,0.3,0.1,0.5c4.9,0,9.9,0,14.8,0c0-0.3,0-0.6,0-0.8c-2.2,0-4.5-0.2-6.7,0.1c-2.5,0.3-4.4-0.2-6-3c1.7,0,3.3-0.3,4.6,0.1
	c1.3,0.4,2.1,1.9,3.5-0.1c0.4-0.5,2-0.3,3.1-0.3c1.5,0,3,0.1,4.5,0.2c0.1,0.1,0.2,0.3,0.3,0.4c0.6,0.6,1.2,1.1,1.9,1.6
	c-0.7,0.7-1.4,1.4-2.2,2c-1.5,1-3.1,2.1-4.8,2.8c-1.2,0.5-2.7,0.3-4.4,0.5c0.5,0.9,0.8,1.5,1.4,2.6c-3.8-1.8-7.4-0.8-11-0.9
	C235.4,253.5,228.5,253.1,221.6,252.9z M237.1,251.8c0,0.2,0,0.4,0,0.5c2.9,0,5.8,0,8.7,0c0-0.2,0-0.4,0-0.5
	C242.9,251.8,240,251.8,237.1,251.8z"/>
<path id="XMLID_7_" class="st10" d="M411.5,291.9c-8.9-0.4-17.8-0.6-26.7-0.9c-5.3-0.2-10.5-0.6-15.8-0.9c-0.6,0-1.3-0.1-1.9-0.2
	c0-0.2,0-0.4,0-0.6c3.4,0,6.8,0,10.2,0c1.7,0,3.5,0.3,5.2,0.3c7.6,0.2,15.2-0.2,22.7,0.6c11.4,1.2,22.8,0.1,34.2,0.9"/>
<path id="XMLID_814_" class="st11" d="M266.1,250.6c0.6,0.6,1.2,1.1,1.7,1.6c1.7-0.3,3.2-0.5,5-0.7c0.3,1.1-0.7,3.4,2.7,3
	c-1.1,0.8-1.6,1.3-2.4,1.8c2.4,1.4,2.5,2.8,0.3,4.4c-0.3,0.3-0.1,1.4,0.1,2.1c0.1,0.4,0.7,0.7,0.7,1.6c-0.7-0.1-1.3-0.2-2.3-0.4
	c0.8,1.3,1.4,2.4,2.2,3.6c-0.6,0.3-1.2,0.6-1.8,0.9c0.5,0.6,1.1,1.2,1.9,2c-0.9,0.4-1.5,0.8-2.1,1.1c0.8,2-0.6,2-1.9,2.1
	c0.3-1,0.6-2,0.9-3c0.3-0.1,0.7-0.3,1.4-0.6c-3.3-0.5-6.2-1-9.2-1.4c0-0.3-0.1-0.6-0.1-0.9c0.6-0.4,1.2-0.9,1.9-1.4
	c-0.9-0.5-1.9-1.1-3.1-1.9c1.9-0.4,3.3-0.7,4.7-1c0-0.1,0-0.3,0-0.4c-1.1-0.1-2.2-0.2-3.4-0.2c0.2-3.2-2.8-1.3-4.3-3
	c2.9-0.4,5.5-0.7,8.1-1c0-0.1,0-0.1,0-0.2c-1.8-0.2-3.5-0.3-5.3-0.5c-0.2-1-0.4-1.9-0.7-2.9c1.4-0.2,2.9-0.5,4.4-0.7
	c0-0.2,0-0.3,0.1-0.5c-1.2-0.5-2.3-1-3.9-1.6C263.6,251.8,264.8,251.2,266.1,250.6L266.1,250.6z"/>
<path id="XMLID_6_" class="st10" d="M259.8,289.9c-20.2-0.9-40.4-1.8-60.6-2.7c0-0.3,0-0.5,0-0.8c2.4-0.1,4.7-0.2,7.1-0.2
	c2,0,3.9,0.2,5.9,0.3c13.3,0.3,26.6,0.5,39.9,1.1c3.2,0.1,6.1-0.2,9.1-1.7c-0.8-0.6-1.6-1.2-2.6-1.9c0.9-0.7,1.7-1.3,2.9-2.2
	c-0.4-0.7-0.8-1.7-1.4-2.4c-0.7-0.9-1.5-1.7-2.2-2.6c0.2-0.2,0.4-0.4,0.6-0.6c0.9,0.4,1.8,0.8,2.8,1.2c0.5,0.1,1,0.2,1.5,0.4
	c-1,2.1,1.4,1.5,2.2,2.5c-0.9,0.4-1.6,0.7-2.7,1.2c0.9,0.2,1.4,0.3,2.1,0.5c-0.6,1.5-3.5,2.8,0,4.4c-1.2,0.3-2,0.5-2.8,0.7
	c0.3,0.3,0.6,0.6,0.9,0.8c1.5,0.6,3.1,1.3,4.6,1.9c-1.4,0.6-2.8,1.2-4.1,1.8c-0.1,0.3-0.3,0.6-0.4,0.9"/>
<path id="XMLID_812_" class="st1" d="M631.7,277c-0.4-0.2-0.8-0.4-1.2-0.7c-2.3-1.3-2.3-1.8-0.1-3.4c-0.3-0.6-0.7-1.2-1-1.8
	c0.3-0.1,0.7-0.3,1.2-0.5c-1.2-1-2.1-1.7-3-2.5c0.5-2,1-4,1.6-6.5c-7.8-0.3-15.4-0.7-23.1-1c0-0.1,0-0.2,0-0.3c7.1,0,14.2,0,21.6,0
	c-0.3-0.8-0.6-1.5-1.1-2.6c1.5,0.2,2.7,0.4,4,0.6c-0.5,1.5,0.5,2,1.7,2.2c1.1,0.1,2.2,0,3.3,0c1.2,0.1,2.4,0.3,3.6,0.4
	c0,0.1,0,0.2,0,0.4c-1.3,0.2-2.7,0.4-4,0.6c-1.3,0-2.5,0-4.3,0c0.5,1.3,0.9,2.3,1.3,3.6c0,0-0.5,0.2-1,0.4c0.5,0.7,0.9,1.2,1.3,1.7
	c-0.7,0.1-1.3,0.2-2.3,0.4c1.2,1.1,1.9,1.8,2.7,2.5c-0.3,0.4-0.6,0.8-0.9,1.3c1.3,0.2,2.5,0.4,3.6,0.5c0,0.3,0,0.6,0,1
	c-0.9,0.4-1.9,0.8-2.8,1.2c-0.5,0.2-0.9,0.5-1.4,0.7C631.7,275.8,631.7,276.4,631.7,277z"/>
<path id="XMLID_809_" class="st6" d="M448.2,243.3c-6.8,0.2-13.5,0.4-20.3,0.5c-4.3,0.1-8.5,0.1-12.8-0.1c-1.7-0.1-3.4-0.8-5.1-1.2
	c1.6-0.2,3.8,0.3,4.7-0.6c1.7-1.7,3.2-0.7,4.8-0.8c1.8,0,3.6,0,5.5,0c-0.9,0.3-1.8,0.5-2.7,0.8c0,0.1,0,0.2,0,0.4c2.3,0,4.5,0,6.7,0
	c-0.7-0.4-1.5-0.8-2.2-1.1c2,0,3.9,0,5.9,0c1.2,0.1,2.3,0.1,3.5,0.2c0,0.2,0,0.3,0,0.5c-0.8,0.2-1.7,0.3-2.8,0.5
	c0.5,0.3,0.7,0.5,0.8,0.5c2.7-0.6,5.7,1.1,8.2-1.1c0.1-0.1,0.5-0.1,0.6-0.1C444.8,242.2,446.5,242.7,448.2,243.3z"/>
<path id="XMLID_808_" class="st12" d="M261.5,286.9c0.8-0.2,1.6-0.4,2.8-0.7c-3.5-1.6-0.6-2.9,0-4.4c-0.7-0.2-1.2-0.3-2.1-0.5
	c1.1-0.5,1.8-0.8,2.7-1.2c-0.8-0.9-3.2-0.3-2.2-2.5c-0.5-0.1-1-0.2-1.5-0.4c0.9-0.2,1.8-0.6,2.8-0.6c2.1-0.1,4.3,0,6.3,0
	c-1,0.9-2.3,2.2,0.2,3.8c-1.2,1.4-2.3,2.7-3.4,4.1c0.6,0.1,1.5,0.4,2.8,0.6c-0.6,0.6-1.1,1-1.5,1.4
	C266.2,286.6,263.9,286.7,261.5,286.9z"/>
<path id="XMLID_807_" class="st5" d="M429.2,232.4c-2.2,1.2-4.4,2.7-7.1,0.9c-0.3-0.2-0.8-0.2-1.1-0.1c-3.3,2-6.9,0.5-10.2,0.4
	c-2-0.1-3.9,0.4-6.2,0.1c0.4,0.7,0.7,1.3,1,1.8c-0.4,0-0.9,0-1.3,0c-0.5-0.4-1-0.9-1.4-1.4c-0.4-0.5-0.6-1.1-1-1.6
	c0.1-0.1,0.3-0.3,0.4-0.4c-0.4-0.1-0.9-0.2-1.3-0.3c2.9-0.5,5.7-1.3,8.6-0.5c0.6,0.2,1.2,0.2,1.8,0.1c5.4,0,10.8-0.1,16.2,0
	C428.1,231.5,428.7,232.1,429.2,232.4z"/>
<path id="XMLID_805_" class="st13" d="M598.9,259.6c-24.8-0.6-49.5-1.2-74.3-1.8c0-0.3,0-0.6,0-0.9c2.2,0,4.5,0,6.7,0
	c9.4,0.1,18.8,0.2,28.1,0.5c3.8,0.1,7.6,1,11.5,1.1c8.5,0.2,16.9,0.2,25.4,0.2c0.9,0,1.8,0,2.7,0C598.9,259,598.9,259.3,598.9,259.6
	z"/>
<path id="XMLID_804_" class="st14" d="M531.3,291c2.4,0.2,4.9,0.4,7.3,0.7c0,0.2,0,0.5,0,0.7c-3.8,0-7.6,0-11.4,0
	c-11.6-0.5-23.2-1.1-34.8-1.6C505.4,289.6,518.4,290.7,531.3,291z"/>
<path id="XMLID_803_" class="st8" d="M448.2,243.3c-1.7-0.6-3.4-1.1-5.1-1.7c-0.2-0.1-0.5-0.1-0.6,0.1c-2.5,2.2-5.5,0.5-8.2,1.1
	c-0.1,0-0.3-0.2-0.8-0.5c1.1-0.2,2-0.4,2.8-0.5c0-0.2,0-0.3,0-0.5c-1.2-0.1-2.3-0.1-3.5-0.2c-0.6-0.4-1.2-0.8-1.8-1.2
	c0-0.1,0-0.3,0-0.4c2.8,0.2,5.6,0.5,8.5,0.7c0.7,0.1,1.5,0,2.2,0.1c4,0.1,8.1,0.3,12.1,0.4c-1.9,0-3,1-3.6,2.7
	C449.5,243.3,448.8,243.3,448.2,243.3z"/>
<path id="XMLID_802_" class="st15" d="M395.6,275.4c-19-0.6-38.1-1.3-57.1-1.9c0-0.2,0-0.5,0-0.7c19,0.5,38.1,1,57.1,1.6
	C395.6,274.7,395.6,275,395.6,275.4z"/>
<path id="XMLID_801_" class="st8" d="M419.6,241c-1.6,0.1-3.1-0.9-4.8,0.8c-0.9,0.9-3.1,0.4-4.7,0.6c-0.3,0-0.6,0-0.9,0
	c-0.5-0.7-1-1.4-1.5-2.2c-0.7,0.6-1.4,1.2-2.1,1.7c-5.7-0.2-11.5-0.3-17.2-0.5c0-0.3,0-0.6,0-0.9c4.4,0,8.7,0,13.1,0
	c3.8-1,7.6-1.7,11.5-0.8c0.9,0.2,2-0.3,2.9-0.1C417.1,240,418.4,240.6,419.6,241z"/>
<path id="XMLID_800_" class="st16" d="M634,241.9c0.3,0.2,0.7,0.3,1,0.5c0.2,2.1,0.5,4.2,0.6,6.3c0.1,1.3-0.1,2.7-1.9,2.8
	c-1.6,0.1-2.3-0.7-2.4-2.3c0-2,0-3.9-0.1-5.9C631.6,241.8,632.8,241.8,634,241.9z"/>
<path id="XMLID_799_" class="st17" d="M268.4,238.8c0.3,0.3,0.6,0.6,0.9,0.8c-0.3,0.3-0.8,0.8-0.9,0.8c-2-1.3-3.3-0.3-4.7,1.1
	c-0.3,0.4-0.9,0.6-1.3,0.9c-1.5-0.3-2.9-0.5-4.4-0.8c0.6-1.4,1.1-2.5,1.7-3.7c0,0,0.1-0.1,0.1-0.1c1.3-0.2,3.1-1.1,3.9-0.6
	c1.7,1.2,3.2,1.3,5.2,0.4C268.6,238.2,268.5,238.5,268.4,238.8z"/>
<path id="XMLID_798_" class="st8" d="M453.7,238.3c-1.5-0.6-2.9-1.2-4.4-1.6c-0.3-0.1-0.8,0.4-1.2,0.6c0,0.3,0,0.5,0.1,0.8
	c-1-0.6-1.9-1.2-2.9-1.8c0-0.1,0-0.3,0.1-0.4c1.2,0,2.3,0,3.5,0c0.8,0,1.9,0.6,1.9-1c0,0,1.4-0.3,1.6-0.1c2.2,2.2,4.8,2.6,7.7,2.1
	c0.8-0.1,1.7,0.4,2.6,0.6c0,0.1,0,0.3,0,0.4c-1.1,0.3-2.1,0.6-3.2,0.9C457.6,238.6,455.7,238.5,453.7,238.3z"/>
<path id="XMLID_5_" class="st18" d="M262.5,292.3"/>
<path id="XMLID_796_" class="st19" d="M271.1,270.7c-0.3,1-0.6,2-0.9,3c-0.7,0.4-1.4,0.9-2.2,1.3c0.1,0.2,0.1,0.4,0.2,0.7
	c-2-0.3-3.9-0.6-5.9-0.8c0-0.2,0-0.3,0-0.5c1.3-0.2,2.7-0.4,4.3-0.7c-1.1-0.9-2-1.5-2.8-2.2c0-0.2,0.1-0.5,0.1-0.7
	C266.3,270.7,268.7,270.7,271.1,270.7z"/>
<path id="XMLID_795_" class="st14" d="M631.2,243.3c0,2,0,3.9,0.1,5.9c-0.6,0.6-1.2,1.3-2.3,2.5c-0.5-1.9-1-3.3-1.2-4.8
	c-0.1-1.3,0.1-2.7,0.2-4c0.1-0.6,0.5-1.1,0.8-1.7c0.5,0,1-0.1,1.5-0.1C630.7,241.8,630.9,242.6,631.2,243.3z"/>
<path id="XMLID_794_" class="st6" d="M401,232c0.4,0.1,0.9,0.2,1.3,0.3c-0.1,0.1-0.3,0.3-0.4,0.4c0.3,0.5,0.6,1.1,1,1.6
	c0.4,0.5,0.9,0.9,1.4,1.4c-1.4,0.1-2.7,0.3-4.1,0.4c-0.5-0.5-0.9-1.2-1.4-1.4c-1.2-0.3-2.5-0.3-3.8-0.7c2-0.5,4.4,0.1,5.7-2
	C400.7,231.9,400.9,231.9,401,232z"/>
<path id="XMLID_793_" class="st20" d="M635.7,260.5c-1.1,0-2.2,0.1-3.3,0c-1.2-0.1-2.1-0.7-1.7-2.2c0.7-0.2,1.3-0.5,2.2-0.8
	c-0.7-0.2-1.2-0.4-1.7-0.6c0.8-0.1,1.5-0.3,2.3-0.4C635.5,257.1,635.6,258.8,635.7,260.5z"/>
<path id="XMLID_792_" class="st21" d="M630.4,241.1c-0.5,0-1,0.1-1.5,0.1c-0.2-0.9-0.3-1.8-0.5-2.7c-0.1,0-0.2,0-0.2,0.1
	c0.1-1,0.2-1.9,0.3-2.9c0-0.5,0-1,0-1.5c0.7-0.1,1.3-0.2,1.9-0.3c-0.3,1.5,1.8,3.1-0.2,4.5c0.4,0.5,0.7,1,1.1,1.5
	C630.9,240.1,630.7,240.6,630.4,241.1z"/>
<path id="XMLID_791_" class="st1" d="M633.5,256.6c-0.8,0.1-1.5,0.3-2.3,0.4c-2.1,1.3-2.2-0.8-3-1.8c1.5-1.5,3.2-2.1,5.3-1.6
	c-0.8,0.6-1.5,1.1-2.3,1.7c0,0.2,0.1,0.4,0.1,0.7c1.4,0,2.7,0,4.1,0c1.2,0,2.4,0,3.7,0C637.2,256.2,635.3,256.4,633.5,256.6z"/>
<path id="XMLID_790_" class="st8" d="M421.5,237.9c-0.3-0.3-0.6-0.6-1-0.9c0-0.2,0.1-0.5,0.1-0.7c4.4,0.2,8.7,0.4,13.1,0.6
	c0,0.2,0,0.3,0,0.5c-2.9,0-5.9-0.1-8.8,0c-0.9,0-1.7,0.6-2.6,0.8C422.1,238.1,421.8,238,421.5,237.9z"/>
<path id="XMLID_789_" class="st18" d="M262.9,291.4c1.4-0.6,2.8-1.2,4.1-1.8c1,0,2,0,3.1,0c0,0.3,0,0.6,0,0.9
	C267.9,292,265.5,292.2,262.9,291.4z"/>
<path id="XMLID_788_" class="st5" d="M388.8,249.2c-0.7-0.4-1.4-0.7-2.3-1.2c2.5-1.8,5,0.2,7.5-0.4c-0.1,0.7-0.1,1.1-0.2,1.6
	C392.1,249.2,390.4,249.2,388.8,249.2z"/>
<path id="XMLID_787_" class="st6" d="M459.6,238.8c1.1-0.3,2.1-0.6,3.2-0.9c3.5,0.2,7,0.3,10.5,0.5c0,0.1,0,0.3,0,0.4
	C468.7,238.8,464.2,238.8,459.6,238.8z"/>
<path id="XMLID_786_" class="st22" d="M635.3,256c-1.4,0-2.7,0-4.1,0c0-0.2-0.1-0.4-0.1-0.7c0.8-0.6,1.5-1.1,2.3-1.7
	c0.8,0.2,1.7,0.4,2.5,0.6C635.8,254.8,635.6,255.4,635.3,256z"/>
<path id="XMLID_785_" class="st9" d="M213.4,255.1c-0.6-0.2-1.2-0.3-1.9-0.5c0-0.1,0-0.3,0-0.4c3.2,0,6.4,0,9.6,0
	c0.8,0.2,1.5,0.5,2.9,0.9C220.1,255.1,216.8,255.1,213.4,255.1z"/>
<path id="XMLID_784_" class="st11" d="M266.1,250.6c1.9-1.1,3.7-2.3,6.2-2C270.7,251.2,268.3,250.4,266.1,250.6
	C266.1,250.6,266.1,250.6,266.1,250.6z"/>
<path id="XMLID_783_" class="st8" d="M426.9,241c0.8,0.4,1.5,0.8,2.2,1.1c-2.2,0-4.4,0-6.7,0c0-0.1,0-0.2,0-0.4
	c0.9-0.3,1.8-0.5,2.7-0.8C425.7,241,426.3,241,426.9,241z"/>
<path id="XMLID_782_" class="st8" d="M439.6,238.3c1-0.8,2-1.5,3.5-2.7c0.1,1.4,0.1,2.1,0.2,2.7C442,238.3,440.8,238.3,439.6,238.3z
	"/>
<path id="XMLID_781_" class="st23" d="M261.5,286.9c2.3-0.1,4.6-0.3,7-0.4c-0.8,1.7-2.3,1.3-3.7,1.3c-0.8,0-1.6,0-2.4-0.1
	C262.1,287.4,261.8,287.2,261.5,286.9z"/>
<path id="XMLID_778_" class="st24" d="M320.8,8.6c0.2-0.2,0.5-0.5,0.7-0.7c2.2-2,4.3-4.1,6.5-6.1c0.6-0.5,1.2-1,2-1.8
	c0,0.8,0.1,1.3,0.1,1.8c-4.3,4.2-8.6,8.5-12.9,12.7c-0.2,0.2-0.5,0.4-0.7,0.6c-13.9,13-27.8,26-41.6,39.1c-2,1.9-2.8,4.6-1.9,7.5
	c1.6,5,3.3,10,5,15c0.3,0.9,0.6,1.9,0.9,2.8c0.6,2.1,1.2,4.2,1.9,6.3c0.5,2.1,0.9,4.3,1.4,6.4c0.6,2.4,1.2,4.8,1.8,7.2
	c0.2,1.1,0.3,2.3,0.6,3.3c3.4,12.5,6.8,25.1,10.2,37.6c0.2,0.8,0.4,1.5,0.6,2.3c-0.2,0.1-0.4,0.1-0.6,0.2c-0.7-2-1.4-4-2.1-6.1
	c-3.4-10.3-6.7-20.5-10.1-30.8c-1.8-5.4-3.6-10.7-5.3-16.1c-0.9-3.2-1.9-6.3-2.8-9.5c-0.1-0.7-0.2-1.3-0.3-2
	c-1.4-5.6-2.8-11.1-4.2-16.7c-0.2-0.9,0-1.8,0-3.1c-0.4-0.6-1.2-1.6-2-2.6c0,0.2-0.1,0.4-0.1,0.6c-1.1-0.4-2.3-0.7-3.4-1.1
	c-1.5-0.7-3-1.5-5.1-2.5c0.6,1.1,0.8,1.5,1,2c-4.5-1.7-9.1-3.1-13.5-5.2c-5.7-2.8-11.1-6.1-16.7-9.2c-5.2-2.8-10.5-5.6-15.7-8.4
	c-2.6-1.2-5.2-2.5-7.8-3.7c-0.6-0.3-1.2-0.6-1.7-0.8c-3.2-1.4-6.5-2.8-9.6-4.4c-1-0.5-1.8-1.5-2.6-2.3c3.9,1.4,7.9,2.6,11.6,4.2
	c17.6,7.6,35.1,15.3,52.7,23c3,1.3,5.8,2.8,8.7,4.3c2.3,1.2,5.4,0.9,6.8-1.2c6.8-10,16.5-16.9,25.6-24.5c0.3-0.2,0.5-0.5,0.8-0.8
	c0.6-0.2,1.2-0.3,1.7-0.6c3.5-2.7,6.9-5.4,10.3-8.1c1-0.9,2-1.7,3.1-2.6C316.2,12.7,318.5,10.6,320.8,8.6z"/>
<path id="XMLID_777_" class="st25" d="M261,212c-0.5-1.1-1-2.1-1.4-3.2c-0.1-0.2,0.2-0.8,0.4-0.9c0.4-0.1,0.9,0.1,1.1,0.1
	c0-5.1,0-10.3,0-15.6c0-4.4,0-8.8,0-13.1c0.2-19.4,0.3-38.7,0.6-58.1c0.2-13.2,0.8-26.3,1.3-39.5c0.1,1.2,0.4,2.4,0.4,3.6
	c0.1,5.2,0,10.4,0,15.6c0,0.6,0.1,1.2,0.1,1.8c-0.2,33.9-0.4,67.8-0.6,101.7c0,1.3-0.2,2.5-0.3,4c2.5,0.2,4.8,0.3,7.1,0.5
	c0,0.1,0,0.3-0.1,0.4c-0.4,0-0.9,0.1-1.3,0.1c-2.5-1.2-3.2,2.3-5.5,2.1c0.1,1.2,0.2,2.5,0.3,3.8c0,1.4,0.6,2.3,2.2,2.3
	c1.5-0.1,3.5,0.7,4-1.8c0.1-0.5,0.5-0.9,0.8-1.3c-0.1,1.2-0.3,2.3-0.4,3.5c-2.8,0.2-5.7,0.4-8.5,0.6
	C261.1,216.3,261.1,214.1,261,212z"/>
<path id="XMLID_776_" class="st26" d="M165.8,205.2c0,3.8,0.7,4.8,3.7,4.9c-0.6,0.3-1.3,0.8-1.9,0.7c-1.8-0.1-3.6-0.5-5.5-0.8l0,0
	c0-0.1,0-0.3-0.1-0.4c0.1-0.7,0.2-1.5,0.2-2.2c0.4-22.7,0.8-45.5,1.2-68.2c0-0.6,0.1-1.3,0.2-2.4c0.6,0.7,0.9,1.1,1.2,1.5
	c0.1,1,0.4,2.1,0.4,3.1c0.2,16.3,0.3,32.6,0.5,49c0,0.8,0.1,1.7,0.1,2.5C165.8,197.1,165.8,201.2,165.8,205.2z"/>
<path id="XMLID_775_" class="st26" d="M170.8,108c0.4-1.1,0.9-2.1,1.3-3.2c1.6-5.3,3.2-10.7,4.8-16c0.1,0,0.2,0,0.4,0.1
	c-0.9,4.4-1.8,8.8-2.9,13.1c-2.2,9-4.5,18-6.8,27.1c-0.5,2-0.1,3.7,1.5,5.2c5.2,5,10.3,10,15.4,15.1c4,4,7.9,8.1,11.8,12.2
	c0.5,0.5,1,1.1,1.2,1.9c-3.7-3.3-7.4-6.6-11-10c-5.4-5.1-10.8-10.4-16.2-15.5c-1.8-1.7-3.7-3.3-5.5-5c-0.2-0.6-0.3-1.3-0.5-1.9
	c1.8-1.6,2-3.6,1.4-5.8c1.5-5.2,3-10.3,4.5-15.5C170.4,109.2,170.6,108.6,170.8,108z"/>
<path id="XMLID_774_" class="st27" d="M263.5,100.9c0-5.2,0-10.4,0-15.6c0-1.2-0.3-2.4-0.4-3.6c0.1-4.9,0.2-9.8,0.3-14.7
	c0,4.1,0,8.3,0,12.4c0.4-0.4,0.5-0.8,0.5-1.3c0-4.9,0-9.8,0.1-14.7c0-0.6,0.6-1.2,0.9-1.9c0.5,0.4,1.1,0.8,1.6,1.3
	c0.2,0.2,0.3,0.7,0.5,1c0.3,4.2,0.8,8.4,1,12.6c0.3,7.5,0.4,15.1,0.6,22.6c0,1.9,0,3.7-0.1,5.6c-0.6-4.6-1.2-9.1-1.9-13.7
	c-0.5-2.9-1.2-5.8-1.8-8.6c-0.3,0-0.6,0.1-0.8,0.1c0,1.1,0,2.2,0,3.3C263.8,90.9,263.6,95.9,263.5,100.9z"/>
<path id="XMLID_773_" class="st28" d="M164.9,133c1.8,1.7,3.7,3.3,5.5,5c-0.9-0.6-1.7-1.2-2.6-1.8c-0.7-0.6-1.4-1.2-2.5-2.1
	c-0.2,1.8-0.3,3.1-0.4,4.4c-0.3-0.4-0.6-0.8-1.2-1.5c-0.1,1.1-0.2,1.7-0.2,2.4c-0.4,22.7-0.8,45.5-1.2,68.2c0,0.8-0.1,1.5-0.2,2.2
	c-0.3-1.1-0.8-2.1-0.8-3.2c0-5.6,0.2-11.2,0.3-16.8c0-2.6,0-5.1,0-7.7c0.4-15.1,0.8-30.2,1.2-45.4c0-0.8-0.4-1.5-0.7-2.3
	C163,133.9,163.9,133.4,164.9,133z"/>
<path id="XMLID_771_" class="st29" d="M267,64c-0.2-0.3-0.2-0.8-0.5-1c-0.5-0.5-1.1-0.9-1.6-1.3c-0.3,0.6-0.9,1.2-0.9,1.9
	c-0.1,4.9-0.1,9.8-0.1,14.7c0,0.4,0,0.8-0.5,1.3c0-4.1,0-8.3,0-12.4c0-1.1,0.2-2.2,0-3.2c-0.2-0.9-0.9-1.6-1.3-2.5
	c-0.5-1-1-2.1-1.2-3.2c-0.1-0.8,0.2-1.7,0.4-2.8c0.3,0.5,0.6,0.8,0.7,1.1c0.8-0.4,1.5-0.7,2.3-1.1c1.1,0.4,2.3,0.7,3.4,1.1
	c0-0.2,0.1-0.4,0.1-0.6c0.8,1,1.6,2.1,2,2.6c0,1.3-0.2,2.3,0,3.1c1.3,5.6,2.8,11.1,4.2,16.7c0.2,0.7,0.2,1.3,0.3,2
	c-0.1,0-0.3,0-0.4-0.1c-1.8-6.4-3.7-12.8-5.5-19.1c-0.2,0-0.5,0-0.7,0C267.5,62.1,267.2,63,267,64z"/>
<path id="XMLID_770_" class="st30" d="M165.8,205.2c0-4.1,0-8.2,0-12.2c0.1,0,0.2,0,0.3-0.1C166,197,165.9,201.1,165.8,205.2z"/>
<path id="XMLID_760_" class="st17" d="M256.6,233.3c-0.3-2.8-0.3-2.8-2.7-1.6c-0.3,0.2-0.7,0.2-1.1,0.1c-2.3-0.5-4.5-1.1-7.4-1.9
	c4.1-0.3,8.4,0.9,11-3.8c-1.3-0.1-2.3-0.3-3.4-0.4c0,0.3-0.1,0.5-0.1,0.8c0.3,0.3,0.6,0.5,1,0.8c-0.2,0.1-0.4,0.4-0.6,0.3
	c-1.7-0.2-3.4-0.4-5.1-0.6c-1.1-0.1-2.2-0.3-3.3-0.2c-1.6,0.2-2.8,1-1.9,3.2c-1,0.1-1.7,0.2-2.7,0.3c0.3-0.5,0.4-0.6,0.5-0.8
	c0.4-0.9,0.7-1.7,1-2.6c-0.9-0.2-1.8-0.7-2.7-0.7c-3.2,0-6.5,0-9.7,0.2c-1,0.1-2,0.6-2.9,0.4c-1.3-0.2-2.6-0.6-3.8-0.7
	c-4.9-0.3-9.9-0.6-14.8-0.8c-1.3,0-2.6,0.5-4.3,0.8c-3-1.7-6.7,0-10.3-0.2c-5.1-0.3-10.2-0.7-15.3-0.9c-1.7-0.1-3.4,0.2-5.1,0.4
	c-0.9,0.1-1.8,0.2-3.1,0.3c0,1.6-1.4,1.5-2.9,1.1c-1.3-0.3-1.9,0.1-2.4,1.4c-0.8,2-0.9,2-3.7,1.3c0.9-0.4,1.6-0.8,2.3-1.1
	c-0.8-2.4-1.9-3-4-2.6c-0.3,0.1-0.7-0.2-1-0.3c-1.4-0.3-2.8-0.7-4.2-0.8c-3.9-0.2-7.8-0.2-11.8-0.2c-2.3,0-4.6,0.4-7,0.5
	c-1.5,0-3.1-0.2-4.6-0.5c-0.5-0.1-0.8-1-1.2-1.5c0.6-0.3,1.2-0.6,1.8-0.9c0.3,0.5,0.5,1.1,0.9,1.9c0.1,0,0.9-0.1,1.1-0.4
	c0.9-1.8,2.5-1.8,4.1-1.9c0.8-0.1,1.6,0.4,2.4,0.6c1.3,0.2,2.6,0.7,3.9,0.6c3.4-0.3,6.8-1.6,10-1.1c2.4,0.4,4.8,0.4,7.2,0.5
	c1.7,0.1,3.4-0.5,5-0.8c0.4-0.1,0.9-0.2,1.3-0.1c3.4,0.6,6.9,1.4,10.3,1.7c1.7,0.2,3.4-0.6,5.1-0.9c0.4-0.1,0.8-0.4,1.1-0.2
	c1.8,1,3.5,0.6,5.1-0.6c0.3-0.2,0.8,0,1.2,0.1c1.5,0.4,2.7,0.1,3.3-1.5c0.5-1.3,1.5-1.4,2.2-0.4c1,1.4,2.2,1.2,3.6,0.9
	c2.2-0.5,2.9,0.4,2.6,2.8c1.4-1.3,2.8-2.6,4.2-3.9c0-0.3-0.1-0.6-0.1-0.8c-1.4-0.1-2.7-0.1-4.1-0.2c-2.8-0.1-5.6-0.1-8.4-0.2
	c0-0.3-0.1-0.6-0.1-1c0.5-0.2,1.1-0.5,1.6-0.5c4.1,0,8.1,0.1,12.2,0.1c4.3,0,8.6-0.3,12.9-0.2c4.5,0.1,9,0.6,13.5,1
	c0.3,0,0.6,0,0.9,0c4.3-0.4,8.8-0.4,13-1.4c2.5-0.6,4.7,0.3,7,0.2c1.7-0.1,3.4-0.6,4.9-1.2c0.5-0.2,0.3-1.7,0.5-2.3
	c1.2-0.7,2.4-1.5,3.6-2.2c2.1,0.4,2.5,1,1.8,3.4c1.9,0.2,3.8,0.4,5-1.6c0.8,0.4,1.5,0.9,2.3,1.3c-0.2,0.2-0.3,0.5-0.4,0.5
	c-3.6-0.4-6,3.7-9.9,2.6c-0.7-0.2-1.5,0.3-2.2,0.5c0.3,1.6,0.5,3,0.8,4.7c0.2,0.1,0.8,0.3,1.7,0.6c-1.1,0.9-2,1.6-3.4,2.7
	c1.7,0.2,3.1-0.1,4,0.5c1.8,1,0.3,1.9-0.9,2.7c1.4,0.2,2.5,0.3,3.5,0.5c0,0.2,0,0.4,0,0.5c-1.5,0.2-2.9,0.3-4.9,0.5
	c1.3,0.6,2,0.9,2.7,1.2c0,0.2-0.1,0.3-0.1,0.5c-0.4,0.1-0.9,0.1-1.3,0.2c0.3,0.5,0.5,0.9,0.7,1.4
	C260.2,233.3,258.4,233.3,256.6,233.3L256.6,233.3z M238.1,218.6c0.1,2.8,2.7,0.4,3.6,1.6c0.2,0.2,1.1,0,1.7-0.2
	c0.2-0.1,0.3-0.9,0.2-1.1c-0.3-0.4-0.9-0.8-1.4-0.8C240.8,218,239.5,218.3,238.1,218.6z M216.7,219.5c-0.6-0.3-1-0.8-1.6-0.9
	c-0.7-0.1-1.4,0-2.1,0c0.4,0.8,0.5,1.8,1.1,2.2C215.3,221.6,216.1,220.9,216.7,219.5z M228.2,221.5c1.5-0.4,2.5-0.6,4.2-1.1
	c-1.5-0.6-2.4-1-3.5-1.4C228.7,219.9,228.5,220.5,228.2,221.5z M204.7,221.8c0,0.3,0.1,0.6,0.1,0.9c1.3-0.2,2.5-0.4,3.8-0.6
	c0-0.2-0.1-0.5-0.1-0.7C207.2,221.6,205.9,221.7,204.7,221.8z"/>
<path id="XMLID_759_" class="st17" d="M259.7,237.9c-5.2-0.3-10.4-0.7-15.6-0.8c-2.1-0.1-4.3,0.6-6.4,0.6c-2,0.1-4-0.7-5.7,1.1
	c-0.3,0.3-1.2-0.1-2.2-0.1c1.3-0.7,2.1-1.2,3-1.6c-8.4,0.8-16.5-0.2-24.8-1.1c-0.3,0.4-0.6,0.9-1,1.4c-0.3,0-0.5,0.1-0.6,0
	c-1.6-1.5-3.2-1.4-5.1-0.7c-1.8,0.6-3.8,0.5-6,0.7c0.3-0.9,0.5-1.4,0.7-2.1c-3.8-0.3-7.5,0.8-11.1-0.6c0,0.3-0.1,0.6-0.1,0.9
	c1,0.2,2,0.3,3.6,0.6c-1.7,1.1-2.9,0.9-4,0.2c-1.1-0.7-2-1.2-3.3-0.3c-0.4,0.3-1.3,0-1.8-0.2c-1.2-0.7-2-0.4-2.3,1
	c-1.3-0.4-2.6-0.7-4.5-1.2c-2.6,2.4-6.4,1.1-10.1,1.1c-2.8,0-5.6,0-8.4-0.1c-1,0-2-0.3-3.2-0.5c0.7-1.2,1.1-1.9,1.6-2.8
	c-0.6-0.4-1.1-0.8-1.8-1.3c2.7-0.2,5.1,2.4,7.4-0.5c0.9,2,2,2.1,3.6,1.3c0.8-0.4,2.2,0,3.3,0.1c0.8,0.1,1.6,0.4,3.1,0.7
	c-0.8-0.7-1-0.9-1.3-1.1c0.1-0.2,0.1-0.4,0.2-0.7c1.8,0.3,3.5,0.8,5.3,0.9c1,0.1,2.1-0.3,3.2-0.5c0.6-0.1,1.3,0,1.9,0
	c1.1,0.1,2.2,0.1,3.3,0.2c1.3,0.2,2.6,0.7,4,0.9c0.6,0.1,1.2,0,1.8,0c-0.2-0.4-0.3-0.8-0.5-1.4c3.6,0.3,7.2,2,11,0.9
	c3.8-1.1,7.9,1.5,11.5-1.1c2.1,1.2,4.1,2,6.3,0.4c0.3-0.2,0.9-0.4,1.3-0.3c1.7,0.4,3.3,0.9,4.9,1.3c0.7,0.2,1.8,0.7,2.1,0.4
	c1.8-1.6,3.6-0.4,5.5-0.3c2.8,0.1,5.7-0.4,8.6-0.5c2.5-0.1,5,0.1,7.5,0.2c4,0.1,7.9,0.2,11.9,0.4c0,0,0.1,0.1,0.1,0.1
	c1.4,0.4,2.7,0.9,4.4,1.4c-4.2,0.2-8,0.4-11.9,0.6c0,0.3,0,0.6,0,0.9c0.6,0,1.3,0.1,1.9,0.1c2.5,0.1,5,0.1,7.5,0.2
	C259.3,236.6,260.5,236.3,259.7,237.9L259.7,237.9z"/>
<path id="XMLID_758_" class="st9" d="M204.8,250.1c1.6,0.7,3.2,1.3,4.9,2c0,0.1,0,0.2,0,0.3c-1.6-0.1-3.2-0.3-4.7-0.2
	c-0.7,0-1.3,0.4-1.9,0.6c-0.6,0-1.2,0-1.8,0c1.6-1.9,0-2.5-1.4-3.1c0.4-0.7,0.4-0.7-0.7-1.7c0.9,0,1.9,0,2.8,0
	c1.5-0.1,3.3,1.5,4.4-1c0.2-0.4,1.5-0.4,2.3-0.4c3.2,0,6.4,0.1,9.6,0c1.5-0.1,1.7,0.6,1.5,1.7c-0.5,0-1-0.1-1.9-0.1
	c0.7,0.8,1.1,1.2,1.6,1.8c-0.4,0.3-0.7,0.9-1,0.8c-1.2-0.1-2.8,1.4-3.7-0.7c-0.1-0.2-0.2-0.6-0.3-0.6c-3.2-0.1-6.4-0.1-9.5-0.1
	C204.9,249.4,204.9,249.9,204.8,250.1z"/>
<path id="XMLID_757_" class="st31" d="M269.8,224.3c-1.2,2-3.1,1.8-5,1.6c0.6-2.4,0.3-3.1-1.8-3.4c-1.3-0.9-2.6-1.7-3.9-2.6
	c0.7-0.5,1.4-1,2.1-1.5c2.8-0.2,5.7-0.4,8.5-0.6c0.8,0,1.5,0.1,2.3,0.1c-0.5,1-1.2,2-1.6,3C270,222,270,223.2,269.8,224.3z"/>
<path id="XMLID_756_" class="st32" d="M228,214.3c1.9-2.2,3.6-2.2,4.5,0C231,214.3,229.5,214.3,228,214.3z"/>
<path id="XMLID_752_" class="st33" d="M328,1.8c-2.2,2-4.3,4.1-6.5,6.1c0.4-0.7,0.9-1.4,1.3-2C324.6,4.5,326.3,3.2,328,1.8z"/>
<path id="XMLID_744_" class="st33" d="M310.8,17.2c-3.4,2.7-6.8,5.4-10.3,8.1c-0.4,0.3-1.1,0.4-1.7,0.6c0.9-0.8,1.8-1.6,2.7-2.4
	c2.3-1.8,4.7-3.5,7-5.2C309.2,17.9,310,17.6,310.8,17.2z"/>
<path id="XMLID_742_" class="st34" d="M206.6,28.5c2.6,1.2,5.2,2.5,7.8,3.7C211.8,30.9,209.2,29.7,206.6,28.5z"/>
<path id="XMLID_735_" class="st35" d="M627.5,213.4c-1.1-3.7,0.2-7.3,0-11c-0.2-3.8-0.3-7.5-0.4-11.3c-0.1-4.8-0.2-9.7-0.3-14.5
	c0-11.5-0.1-22.9-0.1-34.4c0-5.4,0.1-10.8,0.1-16.2c0.1-5.6,0.2-11.3,0.3-16.9c0-1.7-0.2-3.4-0.3-5.1l0,0c-3.4-1.3-1.2-4.2-2.2-6.3
	c0.2-0.2,0.3-0.3,0.5-0.5c0.8,0.3,1.7,0.6,2.9,1.1c-1.1,0.7-1.7,1-2.3,1.3c0.1,0.2,0.2,0.4,0.2,0.5c1.5-0.5,3-1,4.6-1.6
	c-0.4-0.8-0.7-1.3-1-1.9c0.1-0.1,0.2-0.1,0.3-0.2c0.8,0.7,1.6,1.3,2.4,2c1,1.1,2,2.2,3,3.3c0,0.1,0,0.2,0.1,0.2
	c-0.6,0-1.1-0.1-2.1-0.1c0.1,2.7,0.2,5.4,0.4,8c0,1.4,0,2.9,0,4.3c-0.1,0-0.3,0-0.4,0c-0.3-3.6-0.7-7.2-1.1-10.9
	c-2.8,0.3-2,2.1-2.2,3.4c-0.5,4.7-0.9,9.4-1.4,14.1c-0.1,0.7-0.3,1.5-0.3,2.2c0,4.9,0,9.8,0.1,14.8c0.4,22.7,0.7,45.4,1.1,68.1
	c0,0.9,0.3,1.7,0.4,2.6c1.2,0.2,2.3,0.4,3.4,0.6c-1.1,0.6-2.3,1.2-3.5,1.8c0.1,0.5,0,1.3,0.3,1.7c0.6,0.8,1.4,1.4,2.1,2.2
	c0.6-0.7,1.2-1.4,1.8-2.1c0,0,0-0.1,0.1-0.2c0.1,0.2,0.2,0.3,0.4,0.5c0,0.7-0.1,1.5-0.1,2.2c-1.8,0.1-3.6,0.2-5.4,0.2
	C628.5,214.7,628,214,627.5,213.4z"/>
<path id="XMLID_734_" class="st36" d="M397.3,179.3c-0.1,1-0.3,2.1-0.4,3.1c-0.1-0.7-0.4-1.4-0.4-2.1c0.5-7,1.1-14,1.7-20.9
	c0-2.6,0.1-5.1,0.1-7.7c0-0.7,0-1.9,0.2-1.9c1.5-0.4,1.1-1.8,1.7-2.6c0.3,0.9,0.8,1.8,0.8,2.7c-0.2,3.5-0.5,7-0.8,10.5
	c0.2,3.8,0.3,7.6,0.5,11.4c0,1.8,0,3.6,0,5.5c0,6.1,0,12.2,0,18.3c0,3,0.2,6,0.3,9c0,1.6,0,3.2,0,4.8c-0.1,0.3-0.2,0.7-0.4,1
	c-0.7,0-1.4-0.1-2.1-0.1c0-13.3,0-26.6,0-39.9c-0.1,0-0.2,0-0.3-0.1c-0.2,1.9-0.5,3.7-0.7,5.6C397.4,176.9,397.3,178.1,397.3,179.3z
	"/>
<path id="XMLID_733_" class="st4" d="M631,228.7c-0.6-0.2-1.1-0.4-2.3-0.8c1.6-0.4,2.5-0.7,3.5-1c1,0,2.1,0,3.1,0
	c2,0.3,3.9,0.8,5.9,0.9c3.7,0.2,7.5,0.3,11.2,0.4c1.1,0,2.1,0,3.3,0.3c-2.8,3-6.7,0.2-9.8,2.6c2.5,0.2,4.9,0.5,7.4,0.7
	c-1.2,1.8-5.1,3.1-7.5,2.5c-2.5-0.6-3.4,0.1-4.2,2.6c-0.2,0.7-1.3,1.5-2.2,1.6c-1.5,0.3-3.2,0.1-4.7,0c0.2-2,0.4-4,0.6-6.5
	c-1.5,0.4-2.8,0.7-4.1,1c0.3-0.6,0.6-1.1,0.9-1.7c1-0.1,2.1-0.1,3.1-0.2c0.2-1,0.3-1.9,0.5-3.1C634.1,228.4,632.6,228.5,631,228.7z"
	/>
<path id="XMLID_732_" class="st37" d="M629,215.4c1.8-0.1,3.6-0.2,5.4-0.2c3.6,0.8,7.2,1.4,10.7,2.4c1.5,0.4,2.8,1.6,4.7,2.7
	c-5.1,2.3-10.7-1.1-14.7,3.2c-0.1-0.2-0.2-0.5-0.4-1.2c-0.6,0.8-1.1,1.5-1.8,2.4c-1.1-3.5-4.7-2.5-7.3-4.1c1.1-0.3,1.8-0.4,2.9-0.7
	c-1.2-0.7-2.1-1.3-3.1-1.8C626.8,217,627.9,216.2,629,215.4z"/>
<path id="XMLID_731_" class="st38" d="M566.7,200.8c0,2.3,0.1,4.7,0,7c0,0.7-0.5,1.4-0.8,2.1c-0.3,0-0.6-0.1-0.9-0.1
	c-0.2-15-0.4-30-0.6-45c0.1-2.6,0.2-5.1,0.3-7.7c0.2,0,0.4,0,0.6,0c0.1,0.6,0.1,1.1,0.2,1.7c0.3,8.6,0.6,17.2,0.8,25.8
	C566.5,190,566.6,195.4,566.7,200.8z"/>
<path id="XMLID_730_" class="st39" d="M400.6,210.3c0.1-0.3,0.2-0.7,0.4-1c0.3-0.5,0.7-1.1,1.2-1.8c0.4,1,0.7,2,1.1,3
	c-0.7,0.2-1.5,0.5-2.2,0.7C400.9,210.8,400.7,210.6,400.6,210.3z"/>
<path id="XMLID_729_" class="st37" d="M401,213.8c0.4,0.2,0.7,0.5,1.1,0.7c-0.1,0.2-0.2,0.4-0.2,0.6c-1.5,0.2-3,0.3-4.6,0.5
	c-0.1-0.2-0.1-0.4-0.2-0.6c0.8-0.4,1.7-0.8,2.5-1.2C400.1,213.9,400.5,213.8,401,213.8z"/>
<path id="XMLID_728_" class="st39" d="M401,213.8c-0.4,0-0.9,0.1-1.3,0.1c-0.4-0.5-0.7-1.1-1.1-1.6c0.8-0.4,1.6-0.8,2.4-1.2
	c0,0.2,0.1,0.3,0.1,0.5C401.1,212.3,401,213.1,401,213.8z"/>
<path id="XMLID_726_" class="st40" d="M632.2,98.5c-1-1-2.1-2-3-3.1c-1.2-1.3-2.5-2.5-3.3-3.9c-4.4-7.7-8.6-15.5-12.8-23.2
	c-0.7-1.2-1.4-2.3-2.1-3.5c-1.3-1.9-2.5-3.8-3.8-5.8c0.2-0.1,0.3-0.3,0.5-0.4c8.2,12.3,16.5,24.6,24.7,36.9c1.8,2.7,2.7,2.5,5.5,0.9
	c3.7-2.2,7.7-4,11.8-5.6c7.6-3,15.3-5.7,22.9-8.5c0.2-0.1,0.4-0.1,0.8,0.3c-4.5,2.3-9,4.6-13.5,6.9c-7.2,3.3-14.5,6.6-21.7,10.1
	c-1.1,0.5-2,1.5-3,2.3C634.2,100.7,633.2,99.6,632.2,98.5z"/>
<path id="XMLID_724_" class="st41" d="M604,54c0.4,0.3,0.9,0.6,1.3,0.9c0.8,1.2,1.5,2.4,2.3,3.7c-0.2,0.1-0.3,0.3-0.5,0.4
	C606.2,57.3,603.6,56.6,604,54z"/>
<path id="XMLID_722_" class="st40" d="M164.9,133c-0.9,0.5-1.8,0.9-2.7,1.4c-3.1,1.1-6,2.4-9.2,3.1c-9,2-18,3.6-27.2,5.3
	c2-0.7,3.9-1.4,5.9-2.1c4.7-1.5,9.4-2.9,14.1-4.4c3-0.8,6-1.6,9-2.4c3.2-0.9,6.4-1.9,9.5-2.8C164.5,131.7,164.7,132.3,164.9,133z"/>
<path id="XMLID_720_" class="st33" d="M320.8,8.6c-2.3,2-4.7,4-7,6.1C316.2,12.7,318.5,10.6,320.8,8.6z"/>
<path id="XMLID_719_" class="st42" d="M631.2,282.8c-0.4-0.3-0.8-0.5-1.3-0.8c0.1-0.2,0.2-0.4,0.2-0.6c-7.6,0-15.1,0-22.7,0
	c0-0.3-0.1-0.6-0.1-0.9c0.8-0.1,1.5-0.3,2.3-0.3c5.6,0.1,11.2,0.2,16.7,0.3c1.4,0,2.4-0.4,2.8-2c0.2-0.6,1.6-0.9,2.5-1.3
	c0.3,0.2,0.5,0.4,0.8,0.6c-0.5,0.2-1,0.3-1.9,0.7c1.3,0.3,1.9,0.5,3.1,0.8c-1.2,0.5-1.9,0.8-3.2,1.3c3.1,0.2,5.5,0.3,7.9,0.4
	c0.1,0,0.2,0,0.2,0.1c0.1,0.1,0.1,0.2,0.1,0.3c-1.5,0.1-3.1,0.1-4.6,0.4C633.2,281.9,632.2,282.4,631.2,282.8z"/>
<path id="XMLID_718_" class="st4" d="M632.6,277.8c-0.3-0.2-0.5-0.4-0.8-0.6c0-0.1,0-0.2,0-0.2c0-0.6-0.1-1.1-0.1-1.7
	c2.7,1.3,5.5,2,8.8,0.7c-2.7-0.5-5.1-0.9-7.4-1.4c0.9-0.4,1.9-0.8,2.8-1.2c1.3,0,2.7-0.1,4,0c2.2,0.1,2.7,0.8,2.1,2.9
	c0.1,0.1,0.2,0.3,0.3,0.3c0.8,0.2,1.5,0.4,2.3,0.7c-0.8,0.4-1.6,1.2-2.4,1.2c-1.7,0-3.4-0.3-5.1-0.5
	C635.6,277.8,634.1,277.8,632.6,277.8z"/>
<path id="XMLID_717_" class="st43" d="M631.3,233.3c1.3-0.3,2.6-0.7,4.1-1c-0.2,2.4-0.4,4.4-0.6,6.5c-0.2,1,1.4,2.4-0.7,2.8
	c-0.7-0.2-1.4-0.3-2.1-0.5c0.1-0.2,0.3-0.5,0.4-0.7c-0.4-0.2-0.7-0.4-1.1-0.6c-0.4-0.5-0.7-1-1.1-1.5c2-1.4-0.1-3,0.2-4.5
	C630.7,233.6,631,233.4,631.3,233.3z"/>
<path id="XMLID_716_" class="st44" d="M632.7,267.5c-0.4-0.5-0.8-1.1-1.3-1.7c0.5-0.2,1-0.4,1-0.4c-0.4-1.2-0.8-2.3-1.3-3.6
	c1.7,0,3,0,4.3,0c0.1,0.4,0,1,0.2,1.3c0.9,1.4,0.5,2.4-0.9,3.3c-0.3,0.2-0.5,0.7-0.8,1.1C633.5,267.5,633.1,267.5,632.7,267.5z"/>
<path id="XMLID_715_" class="st45" d="M632.7,267.5c0.4,0,0.8-0.1,1.3-0.1c1.6,1.2,2.8,2.7,1.8,4.9c-1.1-0.2-2.2-0.3-3.6-0.5
	c0.3-0.5,0.6-0.9,0.9-1.3c-0.7-0.7-1.5-1.5-2.7-2.5C631.4,267.8,632,267.6,632.7,267.5z"/>
<path id="XMLID_714_" class="st46" d="M632.6,277.8c1.5,0,3,0,4.5,0c-0.6,0.1-1.3,0.2-2.1,0.3c1.3,2.5,3.3,2,5.7,1.6
	c-1,0.6-1.6,1-2.1,1.3c-2.4-0.1-4.9-0.2-7.9-0.4c1.3-0.6,2-0.8,3.2-1.3c-1.2-0.3-1.8-0.5-3.1-0.8
	C631.6,278.1,632.1,277.9,632.6,277.8z"/>
<path id="XMLID_713_" class="st44" d="M641.5,264.4c-2.6,2-3.3-0.5-4.9-1.2C638.9,261.4,639.9,263.3,641.5,264.4z"/>
<path id="XMLID_712_" class="st4" d="M631.2,239.7c0.4,0.2,0.7,0.4,1.1,0.6c-0.1,0.2-0.3,0.5-0.4,0.7c0.7,0.2,1.4,0.3,2.1,0.5
	c0,0.1,0,0.2,0,0.4c-1.2-0.1-2.4,0-2.8,1.4c-0.3-0.8-0.5-1.5-0.8-2.3C630.7,240.6,630.9,240.1,631.2,239.7z"/>
<path id="XMLID_4_" class="st47" d="M559.9,292.4c-0.8-0.2-1.6-0.4-2.4-0.4c-3.6-0.1-7.1,0-10.7-0.1c-0.8,0-1.7-0.2-2.5-0.3
	c0-0.3,0-0.5,0.1-0.8c11.6-0.5,23.1,0.7,34.7,0.7"/>
<path id="XMLID_708_" class="st4" d="M573.1,283.5c-11.9-0.1-23.9-0.7-35.8,0.3c0,0.3,0,0.5,0,0.8c2.9,0.2,5.9,0.4,8.8,0.6
	c0,0.2,0,0.4-0.1,0.6c-5.9,0.1-11.8,0.7-17.5-1.2c0-0.2,0-0.4,0-0.6c0.8-0.1,1.6-0.2,2.4-0.2c0-0.1,0-0.3,0-0.4
	c-7-0.4-13.9-0.8-20.9-1.1c0-0.1,0-0.3,0-0.4c21,0.3,42,0.6,63,0.9C573.1,283,573.1,283.3,573.1,283.5z"/>
<path id="XMLID_707_" class="st48" d="M597.2,286c1.6,0.1,3.1,0.4,4.7,0.4c6.2,0,12.5,0,18.8,0c0,0.3,0.1,0.6,0.1,0.8
	c-1.2,0.2-2.5,0.5-3.7,0.5c-5.4,0-10.9-0.1-16.3-0.3c-5.6-0.1-11.1-0.4-16.7-0.6c-9.4-0.3-18.8-0.6-28.2-1c2.2-0.4,4.4-1,6.7-1.1
	c2.6-0.1,5.2,0.4,7.8,0.6C579.3,285.7,588.3,285.8,597.2,286z"/>
<path id="XMLID_705_" class="st4" d="M555.9,286c9.4,0.3,18.8,0.6,28.2,1c0.5,0.2,0.9,0.4,1.4,0.7c0,0.2-0.1,0.5-0.1,0.7
	c-2.6-0.1-5.2-0.2-7.7-0.4c-1.5-0.1-3-0.5-4.5-0.5c-5.1-0.2-10.3-0.3-15.4-0.5C557.1,286.8,556.5,286.3,555.9,286z"/>
<path id="XMLID_704_" class="st4" d="M597.2,286c-8.9-0.2-17.9-0.3-26.8-0.5c-0.9-0.2-1.9-0.4-3.4-0.8c6.7,0,12.8-0.1,18.9,0
	c2.9,0,5.8,0.3,8.7,0.6C595.5,285.4,596.3,285.8,597.2,286z"/>
<path id="XMLID_702_" class="st4" d="M525.9,284.6c-3.1,0.7-6.2,0.8-9.2-0.1c0-0.2,0-0.4,0-0.7c3.1,0,6.2,0,9.2,0
	C525.9,284.1,525.9,284.4,525.9,284.6z"/>
<path id="XMLID_701_" class="st4" d="M529.1,280.7c2.7,0,5.3,0,8,0c0,0.1,0,0.3,0,0.4c-2.6,0-5.3,0-7.9,0
	C529.1,281,529.1,280.9,529.1,280.7z"/>
<path id="XMLID_700_" class="st4" d="M536.8,268.8c2,0.2,3.9,0.4,5.9,0.6c0,0.3-0.1,0.5-0.1,0.8c-2-0.1-4-0.2-5.9-0.3
	C536.7,269.5,536.8,269.1,536.8,268.8z"/>
<path id="XMLID_699_" class="st26" d="M633.6,109.8c-0.1-2.6-0.2-5.2-0.4-8c0.9,0.1,1.5,0.1,2.1,0.1c0.3,7.2,0.6,14.3,1,21.5
	c0.4,6.6,0.8,13.2,1.2,19.9c0.1,1,0.3,1.9,0.4,2.9c0.3,5,0.7,10,1,15c-0.1,0-0.3,0-0.4,0c-0.5-4.4-1-8.8-1.5-13.1
	c-0.9-9.5-1.9-18.9-2.8-28.4C634,116.5,633.8,113.1,633.6,109.8z"/>
<path id="XMLID_695_" class="st4" d="M42.9,289.8c1-0.1,2.1-0.2,3.1-0.2c5.6,0,11.1-0.1,16.7-0.1c0.5,0,1-0.1,1.3,0.1
	c0.4,0.2,0.7,0.6,1.1,1c-0.4,0.3-0.7,0.9-1.1,1c-2.2,0.2-4.4,0.6-6.5,0.3c-3.7-0.5-7.4-1.5-11.2-0.7c-1.1,0.2-2.4-0.4-3.6-0.7
	C42.8,290.3,42.9,290.1,42.9,289.8z"/>
<path id="XMLID_3_" class="st4" d="M32.5,291.9"/>
<path id="XMLID_1_" class="st4" d="M121.7,291.8c2.2-0.2,4.5-0.1,6.7-0.1"/>
<path id="XMLID_690_" class="st4" d="M69.5,290.7c2.2-1.4,4.4-1.2,6.6-0.8c0.4,0.1,0.7,1,0.9,1.6c0,0.2-0.6,0.8-0.9,0.8
	c-2-0.1-3.9-0.3-5.8-0.5C70,291.7,69.8,291.2,69.5,290.7z"/>
<path id="XMLID_685_" class="st49" d="M12.6,251.5c7.1,0.3,14.1,0.6,21.7,0.9c-0.9-0.5-1.2-0.7-1.7-1c3.2,0.3,6.2,0.6,9.2,0.8
	c0.1,0.1,0.1,0.3,0.2,0.4c-0.8,0.4-1.6,1-2.4,1.1c-3.9,0.2-7.7,0.3-11.6,0.3c-0.7,0-1.4,0.1-2-0.2c-1.7-0.9-2.8-0.3-3.7,1.5
	c-1.6-0.8-3-1.5-4.5-2.2c-0.6-0.2-1.4-0.4-2-0.2C14,253.8,13.3,252.5,12.6,251.5z"/>
<path id="XMLID_684_" class="st4" d="M108.1,257.7c-1.5,2.2,1.4,1.4,1.5,2.7c-1.4,0.4-2.5,0.5-3.7-1c-0.7-0.8-2.7-0.7-4.1-0.9
	c-0.5-0.1-1.1,0.4-2,0.7C100.7,257.3,103,256.9,108.1,257.7z"/>
<path id="XMLID_683_" class="st49" d="M98.8,252.7c-3.6-0.8-6.8-1.5-10.4-2.3c2.3-0.1,4.4,0,6.3-0.5
	C97.2,249.4,97.4,251.4,98.8,252.7z"/>
<path id="XMLID_682_" class="st4" d="M119.8,253.4c-1.5,0.6-3.3,1.3-5.1,2C115.8,253,116.2,252.9,119.8,253.4z"/>
<path id="XMLID_681_" class="st50" d="M628.6,120.8c0.5-4.7,0.9-9.4,1.4-14.1c0.2,0.7,0.5,1.4,0.5,2.1c0.5,9.9,0.8,19.7,1.3,29.6
	c0.2,4.3,0.5,8.6,0.8,12.8c0.2,11,0.4,22,0.6,33c0,0.7,0.2,1.3,0.3,2c0,7.3,0,14.5,0,22c-0.7,0-1.4,0.1-2.1,0.1
	c-0.2-1.4-0.4-2.9-0.5-4.3c-0.5-13-1-26.1-1.3-39.1c-0.3-11.6-0.4-23.3-0.6-34.9C628.9,127,628.7,123.9,628.6,120.8z"/>
<path id="XMLID_679_" class="st51" d="M628.6,120.8c0.1,3.1,0.4,6.2,0.4,9.3c0.2,11.6,0.3,23.3,0.6,34.9c0.3,13,0.8,26.1,1.3,39.1
	c0.1,1.4,0.3,2.9,0.5,4.3c-0.5,0-1,0.1-1.4,0.1c-0.2-0.9-0.4-1.7-0.4-2.6c-0.4-22.7-0.8-45.4-1.1-68.1c-0.1-4.9-0.1-9.8-0.1-14.8
	C628.2,122.3,628.4,121.5,628.6,120.8z"/>
<path id="XMLID_677_" class="st4" d="M272,213.8c1.1,0.2,2.1,0.3,3.2,0.5c-0.7,2.2-0.2,2.7,2.4,2.9c1.6,0.1,3.2,0.8,4.7,1.2
	c0,0.2-0.1,0.5-0.1,0.7c-0.7,0.3-1.4,0.6-2.1,0.9c0,0.2,0,0.4,0,0.5c1.6,0.3,3.2,0.5,5.1,0.9c-0.1-1-0.2-1.7-0.4-2.9
	c2.3,0.9,3.7,4.2,6.8,1.9c0,2,0,3.4,0,4.7c0.4,0.5,0.8,1,1.2,1.5c-0.3,0-0.6,0-0.9,0.1c-1.2-0.1-2.3,0-2.3-1.7
	c0-0.6-0.7-1.2-1.2-1.9c-1.4,0.7-2.6,1.3-3.7,2c-1.5,1.1-2.7,1.4-4.6,0.6c-0.8-0.4-2.2,0.4-3.3,0.8c-0.8,0.3-1.3,0.7-2.3,0
	c-0.8-0.5-2.4,0.4-4.3,0.9c1.7,0.7,2.8,1.1,3.9,1.5c0,0.1-0.1,0.2-0.1,0.4c-0.7-0.1-1.3-0.1-2-0.2c-0.1,0.2-0.1,0.4-0.2,0.5
	c1.2,0.5,2.4,1.1,3.9,1.7c-0.8,0.4-1.4,0.6-2.1,1c0.9,1.9,2.5,1.2,3.9,1.2c-0.2,0.5-0.3,1.1-0.5,1.6c2.3,0.2,4.4,0.5,6.4,0.7
	c1.9,0.2,2.4,1.1,1.3,2.7c-1.3-0.1-2.7-0.3-4-0.3c-4.1,0.2-8.2,0.5-12.3,0.7c0.1-0.3,0.2-0.5,0.5-1.1c-1.9,0.9-3.5,0.7-5.2-0.4
	c-0.8-0.5-2.6,0.3-3.9,0.6c0.7-1.5-0.6-1.3-1.3-1.3c-2.5-0.1-5-0.1-7.5-0.2c-0.6,0-1.3-0.1-1.9-0.1c0-0.3,0-0.6,0-0.9
	c3.8-0.2,7.7-0.4,11.9-0.6c-1.7-0.5-3-0.9-4.4-1.4c1.8,0,3.6,0,5.6,0c-0.2-0.4-0.4-0.8-0.7-1.4c0.5-0.1,0.9-0.1,1.3-0.2
	c0-0.2,0.1-0.3,0.1-0.5c-0.7-0.3-1.4-0.6-2.7-1.2c1.9-0.2,3.4-0.4,4.9-0.5c0-0.2,0-0.4,0-0.5c-1-0.1-2.1-0.3-3.5-0.5
	c1.2-0.8,2.7-1.6,0.9-2.7c-0.9-0.5-2.3-0.3-4-0.5c1.4-1.1,2.3-1.8,3.4-2.7c-0.9-0.3-1.4-0.5-1.7-0.6c-0.3-1.7-0.6-3.1-0.8-4.7
	c0.7-0.2,1.5-0.7,2.2-0.5c3.8,1.1,6.3-2.9,9.9-2.6C271.7,214.3,271.9,213.9,272,213.8z"/>
<path id="XMLID_676_" class="st4" d="M367.4,250.6c-0.6,0.5-1.2,1.1-2,1.5c-0.4,0.2-1,0.1-1.6,0.1c-3.1-0.1-6.2-0.1-9.3-0.3
	c-1-0.1-2-0.5-3-0.8c1.7-0.2,3.5-0.5,5.2-0.5C360.3,250.5,363.9,250.6,367.4,250.6z"/>
<path id="XMLID_675_" class="st6" d="M405.5,242c0.7-0.6,1.4-1.2,2.1-1.7c0.5,0.7,1,1.4,1.5,2.2c-1.6,0.4-3.3,0.8-5.6,1.4
	C404.6,242.8,405.1,242.4,405.5,242z"/>
<path id="XMLID_674_" class="st6" d="M388.3,240.6c0,0.3,0,0.6,0,0.9c-2.6,0-5.1,0-7.7,0c0-0.3,0-0.6,0-0.9
	C383.2,240.6,385.7,240.6,388.3,240.6z"/>
<path id="XMLID_673_" class="st4" d="M516.7,247.6c-4.8,0-9.5,0-14.3,0c0-0.1,0-0.3,0-0.4c4.8,0,9.5,0,14.3,0
	C516.7,247.3,516.7,247.5,516.7,247.6z"/>
<path id="XMLID_672_" class="st4" d="M562.7,230.1c0.6-0.6,1.2-1.6,1.8-1.6c6.2-0.3,12.3-0.4,18.5-0.5c1.3,0,2.5,0.5,3.8,0.8
	c0,0.3-0.1,0.7-0.1,1c-2.8,0-5.6-0.1-8.4,0c-1,0-1.9,0.5-2.9,0.8C571.2,230.4,567,230.2,562.7,230.1z"/>
<path id="XMLID_671_" class="st5" d="M441.9,232.4c-0.7,0.4-1.4,1.1-2,1.1c-2.1-0.1-4.1-0.4-6.2-0.7
	C435.2,231.2,439,231,441.9,232.4z"/>
<path id="XMLID_670_" class="st5" d="M471,228.3c1-0.3,2-1,3-1c2.3,0,4.6,0.3,7,0.5c-0.3,0.3-0.7,0.9-1,0.8
	C477,228.2,473.9,230.1,471,228.3z"/>
<path id="XMLID_669_" class="st4" d="M177.8,256.7c5.1,0,10.3-1.9,15.2,0.3c2.4,1,4.3-0.2,6.4-0.1c0.7,0.1,1.4,0.1,2.1,0.2
	c0,0.3,0,0.6,0,1c-1.6,0.2-3.3,0.4-4.9,0.5c-1.9,0-3.8,0.1-5.6-0.4c-3.2-0.9-6.2-1.5-9.5-0.2c-1,0.4-2.4-0.4-3.7-0.6
	C177.8,257.2,177.8,256.9,177.8,256.7z"/>
<path id="XMLID_668_" class="st4" d="M201.2,252.8c0.6,0,1.2,0,1.8,0c1.3,1.7,2.6,3.4,4.1,5.5c-0.8,0.1-1.6,0.3-2.4,0.2
	c-0.3-0.1-0.4-1-0.7-1.5c-0.2-0.5-0.5-1-0.8-1.4C202.5,254.6,201.9,253.7,201.2,252.8z"/>
<path id="XMLID_667_" class="st49" d="M204.8,250.1c0-0.3,0.1-0.7,0.1-0.7c3.2,0,6.4,0.1,9.5,0.1c0.1,0,0.2,0.4,0.3,0.6
	C211.5,250.1,208.2,250.1,204.8,250.1z"/>
<path id="XMLID_666_" class="st4" d="M606.9,230.1c2.5-1.5,18.2-1.1,19.5,0.7c-6.6,0-13.1,0-19.5,0
	C606.9,230.6,606.9,230.3,606.9,230.1z"/>
<path id="XMLID_665_" class="st52" d="M631,228.7c1.5-0.2,3.1-0.3,4.7-0.5c-0.2,1.2-0.3,2.1-0.5,3.1c-1,0.1-2.1,0.1-3.1,0.2
	c-0.5-0.5-1-1-1.6-1.7c0.2-0.3,0.5-0.6,0.8-0.9c-0.1,0-0.1-0.1-0.2-0.1C631.2,228.7,631.1,228.7,631,228.7z"/>
<path id="XMLID_664_" class="st4" d="M589,230.2c0.3-0.4,0.7-1.2,1-1.2c3.4,0,6.8,0.2,10.3,0.3c0,0.3,0,0.5,0,0.8
	C596.5,230.2,592.8,230.2,589,230.2C589,230.2,589,230.2,589,230.2z"/>
<path id="XMLID_663_" class="st4" d="M237.1,251.8c2.9,0,5.8,0,8.7,0c0,0.2,0,0.4,0,0.5c-2.9,0-5.8,0-8.7,0
	C237.1,252.1,237.1,252,237.1,251.8z"/>
<path id="XMLID_662_" class="st46" d="M633,274.5c2.4,0.4,4.7,0.9,7.4,1.4c-3.3,1.3-6.1,0.6-8.8-0.7
	C632.1,275,632.5,274.8,633,274.5z"/>
<path id="XMLID_653_" class="st53" d="M277.1,89.8c-1.1-3.2-2.1-6.4-3.2-9.6c0.1,0,0.3,0,0.4,0.1C275.2,83.5,276.2,86.7,277.1,89.8z
	"/>
<path id="XMLID_652_" class="st40" d="M268.5,104.8c0.3,5,0.7,9.9,0.8,14.9c0.3,11,0.4,22,0.6,33c0,10,0,19.9,0,29.9
	c0,2.7,0,5.4-0.1,8.1c0,4.4,0,8.8,0,13.2c0,1.7,0,3.3,0,5c-2.3-0.2-4.6-0.3-7.1-0.5c0.1-1.5,0.3-2.8,0.3-4
	c0.2-33.9,0.4-67.8,0.6-101.7c0-0.6,0-1.2-0.1-1.8c0.2-5,0.4-10,0.5-15c0-1.1,0-2.2,0-3.3c0.3,0,0.6-0.1,0.8-0.1
	c0.6,2.9,1.3,5.7,1.8,8.6C267.3,95.7,267.9,100.2,268.5,104.8z"/>
<path id="XMLID_651_" class="st54" d="M269.7,209.2c0.8,0,1.6,0,2.6,0c-0.2-0.9-0.3-1.4-0.4-2c0.1-0.1,0.3-0.2,0.4-0.3
	c0.5,0.5,0.9,1.2,1.5,1.6c0.5,0.3,1.3,0.2,2.6,0.4c-3,1.4-5.4,1-7.9,0.4C268.9,209.3,269.3,209.3,269.7,209.2z"/>
<path id="XMLID_650_" class="st55" d="M238.1,230.4c1.5-0.2,2.8-0.5,4.1-0.6c0.5,0,1.1,0.4,1.4,0.8c0.2,0.2,0,1-0.2,1.1
	c-0.5,0.2-1.4,0.5-1.7,0.2C240.7,230.9,238.2,233.3,238.1,230.4z"/>
<path id="XMLID_649_" class="st55" d="M216.7,231.4c-0.5,1.4-1.4,2.1-2.6,1.3c-0.6-0.4-0.7-1.5-1.1-2.2c0.7,0,1.4-0.1,2.1,0
	C215.6,230.7,216.1,231.1,216.7,231.4z"/>
<path id="XMLID_648_" class="st49" d="M228.2,233.4c0.3-1,0.5-1.7,0.7-2.5c1.1,0.4,2,0.8,3.5,1.4C230.7,232.8,229.7,233,228.2,233.4
	z"/>
<path id="XMLID_647_" class="st49" d="M204.7,221.8c1.3-0.1,2.5-0.2,3.8-0.3c0,0.2,0.1,0.5,0.1,0.7c-1.3,0.2-2.5,0.4-3.8,0.6
	C204.8,222.5,204.7,222.1,204.7,221.8z"/>
<path id="XMLID_644_" class="st56" d="M563.1,185.7c0-0.9,0-1.8,0-2.8c0-1.8,0-3.6,0-5.4c0.1-6.3,0.3-12.5,0.3-18.8
	c0-0.8-0.4-1.7-0.7-2.5c-0.6-1.3,0.1-2.6,1.7-2.7c1.5,1,2,2.3,1.8,4.1c-0.1,1.3,0,2.7,0.1,4c-0.3-0.9-0.6-1.9-0.8-2.8
	c-0.1-0.6-0.1-1.1-0.2-1.7c-0.2,0-0.4,0-0.6,0c-0.1,2.6-0.2,5.1-0.3,7.7c-0.1,1.3-0.4,2.7-0.4,4c0.1,12.2,0.3,24.5,0.4,36.7
	c0,0.9,0,1.9,0,2.8c-0.2,0-0.4,0-0.6,0c-0.2-5.4-0.4-10.9-0.7-16.3C563.1,189.9,563.1,187.8,563.1,185.7z"/>
<path id="XMLID_642_" class="st57" d="M397.3,179.3c0.1-1.2,0.1-2.3,0.2-3.5c0.1,0.7,0.4,1.3,0.4,2c0,9.9,0,19.8,0,29.7
	c0,0.2-0.1,0.4-0.5,0.6C397.3,198.5,397.3,188.9,397.3,179.3z"/>
<path id="XMLID_641_" class="st58" d="M269.7,203.9c0-4.4,0-8.8,0-13.2c0,1.4,0,2.7,0.1,4.1c0.1,1.1,0.4,2.2,0.7,3.5
	C268.9,199.7,270.1,201.9,269.7,203.9z"/>
<path id="XMLID_640_" class="st49" d="M454.3,225.7c-0.9-0.7-1.9-1.4-2.8-2.2c0-0.2,0-0.4,0.1-0.6c0.9,0.1,1.9,0,2.7,0.4
	c0.4,0.2,0.5,1.3,0.7,1.9C454.7,225.4,454.5,225.6,454.3,225.7z"/>
<path id="XMLID_639_" class="st55" d="M399.6,229.3c-0.2,0.7-0.3,1.4-0.5,2.1c-0.7-0.2-1.4-0.4-2.1-0.6c0-0.2,0-0.4,0-0.6
	C397.9,229.9,398.8,229.6,399.6,229.3C399.7,229.3,399.6,229.3,399.6,229.3z"/>
<path id="XMLID_636_" class="st41" d="M626.8,126c0-7.3,0-14.7,0-22c0.1,1.7,0.3,3.4,0.3,5.1C627,114.7,626.9,120.3,626.8,126z"/>
<path id="XMLID_632_" class="st29" d="M400.6,146.2c-0.1,0.3-0.3,0.6-0.4,0.9c-0.6,0.8-0.2,2.2-1.7,2.6c-0.2,0.1-0.2,1.3-0.2,1.9
	c-0.1,2.6-0.1,5.1-0.1,7.7c-0.2,0.3-0.5,0.5-0.7,0.8c0.1-3.5,0.2-7,0.3-10.5c0-0.6,0.1-1.4-0.2-1.7c-1.1-1.1-1-1.8,0.1-2.7
	c0.4-0.3,0.4-1.1,0.6-1.7C399.1,144.3,399.8,145.3,400.6,146.2z"/>
<path id="XMLID_631_" class="st26" d="M400.6,146.2c-0.8-0.9-1.5-1.8-2.3-2.8c-1.4-1.2-3.1-2.2-4.2-3.7c-4.5-6.1-8.7-12.4-13.1-18.7
	c2.3,2.5,4.5,5,6.8,7.5c4,4.9,8,9.8,12.2,14.6c0.6,0.7,2.4,1.1,3.2,0.7c5.4-2.6,11.4-3,17.1-4.3c3.9-0.9,7.8-2,11.6-2.9
	c0.3-0.1,0.7-0.1,1.1,0.2c-0.7,0.3-1.5,0.6-2.2,0.9c-8.6,2.4-17.1,4.9-25.7,7.3C403.6,145.5,402.1,145.8,400.6,146.2z"/>
<path id="XMLID_630_" class="st36" d="M564.5,153.5c-1.4-0.7-2.7-1.3-4.1-2c-1.3-1.3-2.7-2.6-4-4c-1.4-1.5-2.8-3.1-4.1-4.6
	c-1.8-1.8-3.6-3.6-5.4-5.4c0.7,0.3,1.4,0.4,1.9,0.9c5.2,4.5,10.3,9.1,15.5,13.6c2.1,1.9,2.5,1.9,4.7,0c0.5-0.4,0.9-0.8,1.4-1.1
	c6.3-3.3,12.5-6.5,18.8-9.7c0.1,0.1,0.3,0.3,0.4,0.4c-0.5,0.4-1,0.8-1.4,1.2c-4.3,2.6-8.7,5.2-13,7.8c-1.9,1.1-3.8,2.2-5.7,3.2
	c-1.5,0.8-2.2,2-2.1,3.7c0.5,6.2,1,12.5,1.5,18.7c0,0.3,0.2,0.6,0.3,0.9c0.2,2.8,0.5,5.7,0.7,8.5c-0.1,0-0.3,0-0.4,0.1
	c-0.5-4-1.1-8-1.6-11.9c-0.5-4-0.9-8.1-1.4-12.1c0-1.3-0.2-2.7-0.1-4C566.5,155.9,566,154.5,564.5,153.5z"/>
<g id="XMLID_36_">
</g>
<g id="XMLID_37_">
</g>
<g id="XMLID_38_">
</g>
<g id="XMLID_39_">
</g>
<g id="XMLID_40_">
</g>
<g id="XMLID_41_">
</g>
</svg>
