<?xml version="1.0" encoding="utf-8"?>
<!-- Generator: Adobe Illustrator 19.0.0, SVG Export Plug-In . SVG Version: 6.00 Build 0)  -->
<svg version="1.1" id="Layer_1" xmlns="http://www.w3.org/2000/svg" xmlns:xlink="http://www.w3.org/1999/xlink" x="0px" y="0px"
	 viewBox="0 0 354.9 239.3" style="enable-background:new 0 0 354.9 239.3;" xml:space="preserve">
<style type="text/css">
	.st0{fill:#E3E3E3;}
	.st1{fill:#FAFAFA;}
	.st2{fill:#F1F1F1;}
	.st3{fill:#EAEAEA;}
	.st4{fill:#E5E5E5;}
	.st5{fill:#FCFCFC;}
	.st6{fill:#8C8C8C;}
	.st7{fill:#232323;}
	.st8{fill:#FEFEFE;}
	.st9{fill:#ABABAB;}
	.st10{fill:#8D8D8D;}
	.st11{fill:#F4F4F4;}
	.st12{fill:#A2A2A2;}
	.st13{fill:#D2D2D2;}
	.st14{fill:#A9A9A9;}
	.st15{fill:#DCDCDC;}
	.st16{fill:#B7B7B7;}
	.st17{fill:#9E9E9E;}
	.st18{fill:#B6B6B6;}
	.st19{fill:#AEAEAE;}
	.st20{fill:#B4B4B4;}
	.st21{fill:#E8E8E8;}
	.st22{fill:#ACACAC;}
	.st23{fill:#AFAFAF;}
	.st24{fill:#B5B5B5;}
	.st25{fill:#AAAAAA;}
	.st26{fill:#C9C9C9;}
	.st27{fill:#B0B0B0;}
	.st28{fill:#2C2C2C;}
	.st29{fill:#F5F5F5;}
	.st30{fill:#E1E1E1;}
	.st31{fill:#F0F0F0;}
	.st32{fill:#888888;}
	.st33{fill:#8A8A8A;}
	.st34{fill:#393939;}
	.st35{fill:#1F1F1F;}
	.st36{fill:#9F9F9F;}
	.st37{fill:#D1D1D1;}
	.st38{fill:#DFDFDF;}
	.st39{fill:#DBDBDB;}
	.st40{fill:#FBFBFB;}
	.st41{fill:#E9E9E9;}
	.st42{fill:#D0D0D0;}
	.st43{fill:#B8B8B8;}
	.st44{fill:#C1C1C1;}
	.st45{fill:#CACACA;}
	.st46{fill:#8B8B8B;}
	.st47{fill:#626262;}
	.st48{fill:#C8C8C8;}
	.st49{fill:#7A7A7A;}
	.st50{fill:#696969;}
	.st51{fill:#E2E2E2;}
	.st52{fill:#D4D4D4;}
	.st53{fill:#A6A6A6;}
	.st54{fill:#BBBBBB;}
	.st55{fill:#FDFDFD;}
	.st56{fill:#CBCBCB;}
	.st57{fill:#A3A3A3;}
	.st58{fill:#EBEBEB;}
	.st59{fill:#E6E6E6;}
	.st60{fill:#D9D9D9;}
	.st61{fill:#C2C2C2;}
	.st62{fill:#ECECEC;}
	.st63{fill:#7E7E7E;}
	.st64{fill:#878787;}
	.st65{fill:#939393;}
	.st66{fill:#A7A7A7;}
	.st67{fill:#1B1B1B;}
	.st68{fill:#ADADAD;}
	.st69{fill:#292929;}
	.st70{fill:#828282;}
	.st71{fill:#7D7D7D;}
	.st72{fill:#979797;}
	.st73{fill:#999999;}
	.st74{fill:#818181;}
	.st75{fill:#CCCCCC;}
	.st76{fill:#E4E4E4;}
	.st77{fill:#D6D6D6;}
	.st78{fill:#A8A8A8;}
	.st79{fill:#212121;}
	.st80{fill:#9A9A9A;}
	.st81{fill:#6F6F6F;}
	.st82{fill:#BFBFBF;}
	.st83{fill:#B2B2B2;}
	.st84{fill:#D8D8D8;}
	.st85{fill:#D7D7D7;}
	.st86{fill:#DADADA;}
	.st87{fill:#B1B1B1;}
	.st88{fill:#D5D5D5;}
	.st89{fill:#434343;}
	.st90{fill:#424242;}
	.st91{fill:#C3C3C3;}
	.st92{fill:#404040;}
	.st93{fill:#444444;}
	.st94{fill:#C6C6C6;}
	.st95{fill:#B9B9B9;}
	.st96{fill:#E0E0E0;}
	.st97{fill:#F7F7F7;}
	.st98{fill:#C5C5C5;}
	.st99{fill:#F6F6F6;}
	.st100{fill:#F8F8F8;}
</style>
<g id="XMLID_2_">
	<path id="XMLID_807_" class="st0" d="M134.3,212.3c-1.3,0.1-2.1-0.5-2.2-1.8c-0.1-1.2-0.1-2.3-0.7-3.5c-0.4-0.7-0.4-2,0.7-2.6
		c-0.2-2.4,0.7-4.6,1.4-6.9c1.3-4.2-1.7-7.7-6.2-7.6c-1.4,0-3-0.6-4.3,0.4c-1.2,0.9-3-0.5-4.1,1c-2.8-0.6-5,1.2-7.6,1.6
		c-2.5,0.4-5.1,0.9-7.6,1.5c-1.9,0.5-4.1,0-5.7,0.7c-2,1-3.9,0.5-5.8,0.6c-3.7,0.2-6.8-1.5-9.6-3.9c-4.2-3.7-6.9-8.5-9.9-13.1
		c-3.6-5.6-7.9-10.5-14.8-12.3c-0.7-0.2-1.3-0.5-2-0.6c-3.9-0.5-8-0.1-11.6,0.9c-3.2,0.9-6.5,0.8-9.6,2c-1.2,0.5-3,0.5-4,0
		c-1.6-0.9-3.1-0.7-4.6-0.6c-3.4,0.1-6.2-1.3-9-2.9c-4.4-2.6-7.5-6.6-9.9-10.9c-1.9-3.3-3.5-7-4.3-11c-0.5-2.3-1-4.8-1.9-7.1
		c-0.2-0.5-0.2-1.2-0.2-1.8c-0.1-2.2,0.2-4.3-0.7-6.5c-0.4-1,0.2-2.4,0.3-3.5c0.1-0.5,0.4-0.9,0.3-1.4c-0.3-3.3,1.1-6.2,2-9.3
		c1.4-5,3.2-9.7,5.6-14.2c1.5-2.9,3.5-5.6,5.1-8.4c2.9-5.1,6.8-9.5,10.3-14.1C26.8,73,30,69,33,64.8c2.3-3.2,4.9-6.3,6.5-10
		c1.8-4.3,1.1-7.9-1.7-11.5c-1.9-2.6-4.2-4.8-6.4-7.1C29,33.7,28,30.6,27,27.5c-0.8-2.4-0.9-4.8-0.6-7.2c0.3-3,1-5.9,2.1-8.9
		c1.6-4.3,4.4-7.7,6.8-11.4c8.8,0,17.5,0,26.3,0c-0.8,1.2-1.6,2.3-2.4,3.5c-2.5,3.8-3.8,8.1-4.2,12.4c-0.4,3.7-0.5,7.5,0.5,11.3
		c0.7,3,1.7,5.8,2.7,8.7c1.4,3.9,3,7.8,1.2,12c-1.1,2.6-1.8,5.2-3.8,7.4c-2.3,2.5-4.3,5.4-5.8,8.4c-1.4,2.9-3.9,5-4.8,8.1
		c-1.7,0.7-1.3,2.7-2.3,4c-2,2.6-2.8,6.1-5,8.7c-0.4,3.9-3.3,6.8-4.2,10.6c-0.8,3.2-3.3,5.9-3.3,9.5c-2,2.8-2.6,6.2-3.4,9.4
		c-0.9,3.6-2.2,7.1-1.9,10.9c0.2,1.6,0.2,3.3,0,4.9c-0.3,3.2,1.3,5.8,2.9,8.2c1.8,2.7,4.4,5.2,7.7,6.5c1.2,0.5,2.2,1.4,3.4,1.8
		c2,0.6,3.9,1.9,6.1,1.6c0.5-0.1,1.1,0.2,1.7,0.3c4.4,1,8.8,2.2,13.1,1.8c0.5-0.7,0.9-1.1,1.2-1.5c0.1,0.6-0.4,1.4,0.8,1.5
		c0.5,0,1,0,1.5,0c0.1,0.7-0.3,1.5,1,1.5c2.2,0.1,4,1.3,5.5,3c3.3,3.7,6.7,7.2,10,10.8c1.3,1.4,2.8,2.8,3.6,4.5
		c1.4,2.9,3.7,5,5.9,7.3c3,3,6.5,4.8,10.8,4.5c0.7-0.1,1.5,0,2.2,0c1.2-0.1,2.5,0.1,3.6-0.3c4.3-1.5,8.8-2.3,13.2-3.5
		c1.5-0.4,2.9-0.7,4.3-1.3c1.3-0.5,2.6-1.2,4.1-1c0.6,0.1,1.3-0.4,2-0.5c2.4-0.6,4.7-1.4,7.2-1.6c2.9-0.3,5.9-0.1,8.6-0.1
		c3.3,2.6,4.9,5.7,4.3,9.7c-0.1,1,0.1,2-0.1,3c-0.1,0.8-0.4,1.6-0.7,2.3c-1.3,2.4-1.9,4.9-2.6,7.5c-1,3.4,1.2,7.2,4.9,8.2
		c-0.2,0.3-0.3,0.6-0.6,0.7C144.8,207.1,139.8,210.2,134.3,212.3z M134.6,175.9c-1.5,0.8-2.2,1.7-1.7,2.7c0.4,0.7,1.4,1.2,2.2,1.3
		c1.2,0.2,2.4,0.1,4,0.1C138,177.7,135.4,177.9,134.6,175.9z"/>
	<path id="XMLID_806_" class="st1" d="M91.6,0c-1.5,2.6-3.8,4.8-5,7.6c-0.9,2.2-1.6,4.4-1.8,6.8c-0.4,4.5,0.4,8.9,1.6,13.2
		c0.7,2.4,1.5,4.8,2.3,7.3c0.5,1.5,0.6,3.2,1.4,4.7c0.9,1.6,0.6,3.3,0.8,4.9c0.1,1,0.9,2.2,0.6,3c-0.9,2.9-0.6,6.1-2.1,8.8
		c-1.5,2.7-3.2,5.2-5,7.7c-2.6,3.5-5.6,6.5-8.1,10.1c-1.4,2-3.1,3.7-4.7,5.5c-1.7,1.9-3.4,3.8-5,5.8C66,86.1,66,87,65.7,87.8
		c-0.7-0.7-1.3-1.3-2.1-0.2c-0.5,0.7-1.2,1.4-1.3,2.1c-0.1,1.8-1.2,3-2.1,4.4c-1.3,1.9-2.2,4.1-3.2,6.1c-0.6,1.2-1.2,2.5-1.5,3.9
		c-0.9,4.2,0.3,10.6,3,14.1c1.7,2.2,4.1,3.7,6.6,4.8c2.2,1,4.6,1.6,6.9,2.3c1.2,0.4,2.6,0.4,3.8,0.8c0.6,0.2,1,0.9,1.4,1.4
		c-0.5,0.3-0.9,0.7-1.4,1c-0.5,0.2-1.1,0.3-1.6,0.5c-1,0.5-2,1-3.1,1.6c-0.3-0.2-0.5-0.5-0.8-0.6c-1.2-0.4-2.3-1.5-3.6-0.9
		c-1,0.5-1.6,1.5-2.3,2.5c-1.1,1.7-2.7,3.4-5.1,3.4c-1.2-0.8-2.8-1-3.8-2.3c-1.7-1-1.7-1-2.5,0.7c-1.4,0-2.7,0-3.5,0
		c-1.7-1.6-2.1-3.7-4.4-4c-2.1-0.3-2.3-2.6-3.7-3.7c0,0,0.1-0.4,0.2-0.5c0.6-0.8,0.4-1.4,0-2.3c-0.9-2-1.8-4-2.4-6.1
		c-0.9-3.1-2.3-6.3-1.6-9.4c0.5-2.2,0.7-4.4,1.2-6.6c1-4.2,2.2-8.3,4.1-12.2c4.3-8.5,8.5-17.1,14-24.9c2-2.9,3.7-6,5.7-8.8
		c2.1-3,4.4-5.9,6.5-9c2.6-3.7,4.5-7.6,4.5-12.4c0-3.2-1-6-2.1-8.9c-1.4-3.8-2.8-7.6-2.5-11.7c0-0.6-0.3-1.1-0.4-1.7
		c-0.1-0.6-0.5-1.4-0.3-1.7C69.6,8.1,69,6.5,69,4.9c0-1.7,1.3-3.2,0.8-4.9C77.1,0,84.3,0,91.6,0z"/>
	<path id="XMLID_803_" class="st2" d="M69.8,0c0.5,1.8-0.7,3.2-0.8,4.9c0,1.5,0.6,3.2-0.7,4.6c-0.2,0.3,0.2,1.1,0.3,1.7
		c0.1,0.6,0.4,1.1,0.4,1.7c-0.2,4.1,1.1,7.9,2.5,11.7c1.1,2.9,2.1,5.7,2.1,8.9c0,4.8-1.9,8.7-4.5,12.4c-2.1,3-4.4,6-6.5,9
		c-2,2.9-3.7,6-5.7,8.8c-5.5,7.9-9.7,16.4-14,24.9c-1.9,3.8-3.1,8-4.1,12.2c-0.5,2.2-0.7,4.4-1.2,6.6c-0.7,3.1,0.7,6.3,1.6,9.4
		c0.6,2.1,1.4,4.1,2.4,6.1c0.4,0.9,0.6,1.5,0,2.3c-0.1,0.2-0.3,0.5-0.2,0.5c1.4,1.1,1.6,3.4,3.7,3.7c2.4,0.3,2.8,2.4,4.4,4
		c0.8,0,2.1,0,3.5,0c0.9-1.7,0.9-1.7,2.5-0.7c-0.4,0-1-0.1-1.1,0c-0.4,1.8-1.8,1.5-3,1.5c-0.6,0-1.2,0.1-1.8,0.2
		c1.1,0.7,2.2,1,3.3,1.3c0.3,0.1,0.9,0.1,1,0.3c0.4,2.2,2.1,0.9,3.2,1.2c1,0,2,0,3,0c-0.6,1.8-2.6,1.7-3.4,2.4c0,0.8,0.3,1.7,0.1,2
		c-0.7,0.9-1.7,1.6-2.6,2.4c-1.1,0.3-1,1-0.3,1.5c0.6,0.4,1.5,0.3,2.5,0.5c0.5-0.5,1.2-1.2,1.9-1.9c2.1,0,2.1,0,3.4,1.5
		c1,0.2,0.9,0.8,0.4,1.4c-0.4,0.5-0.8,1.1-1.2,1.6c-0.3,0.4-0.7,0.8-1.2,1.5c-4.3,0.3-8.7-0.8-13.1-1.8c-0.6-0.1-1.2-0.4-1.7-0.3
		c-2.3,0.3-4.1-1-6.1-1.6c-1.2-0.4-2.2-1.3-3.4-1.8c-3.3-1.3-5.9-3.7-7.7-6.5c-1.5-2.3-3.2-5-2.9-8.2c0.2-1.6,0.2-3.3,0-4.9
		c-0.4-3.8,1-7.3,1.9-10.9c0.8-3.2,1.4-6.6,3.4-9.4c0-3.6,2.5-6.3,3.3-9.5c0.9-3.8,3.8-6.7,4.2-10.6c2.2-2.6,3-6.1,5-8.7
		c1-1.3,0.6-3.2,2.3-4c1-3.1,3.4-5.2,4.8-8.1c1.5-3,3.6-5.9,5.8-8.4c2-2.2,2.7-4.9,3.8-7.4c1.8-4.2,0.2-8.1-1.2-12
		c-1-2.8-2-5.7-2.7-8.7c-0.9-3.8-0.8-7.6-0.5-11.3c0.4-4.3,1.8-8.6,4.2-12.4c0.8-1.2,1.6-2.3,2.4-3.5C64.3,0,67.1,0,69.8,0z"/>
	<path id="XMLID_802_" class="st3" d="M158.3,207c6.5-3.3,12.9-6.5,19.4-9.8c1.1-0.6,2.2-1.4,3.3-2c0.4-0.2,0.9-0.2,1.4-0.3
		c0,0.1,0,0.3,0,0.4c2.3,1.1,5,1.7,7.4,1.8c6,0.1,11.9,1.4,17.9,0.9c1.3-0.1,2.6-0.1,3.9-0.1c0-0.6,0-1,0-1.4c0.8,0,1.5,0,2.3,0
		c1,0,2,0,3,0c0,0.1,0,0.3,0,0.4c2.4,0.7,4.8,1.4,7.4,1.1c2.9-0.3,5.3,0.6,7.7,2.2c2.8,2,5,4.2,4.5,8c-0.1,0.7-0.1,1.5,0,2.2
		c0.3,3.2-1.7,5.8-2.2,8.8c-0.2,1.3-1.3,1.7-1.8,2.6c-0.3,0.5-0.4,1.1-0.5,1.6c-0.1,0.5,0,1-0.3,1.4c-3.2,4-5.5,8.8-8.9,12.7
		c-0.3,0.4-0.4,1.1-0.5,1.6c-3.8,0-7.5,0-11.3,0c0.2-1-0.2-2.1,0.5-3.2c1.3-2.1,1.2-4.7,1.8-7.1c0.4-1.6-0.6-3-0.7-4.5
		c-0.1-3-1-5.6-3.1-7.7c-1.1-1.1-2.4-2.3-3.8-2.9c-3.8-1.6-7.9-2.7-12.1-2.3c-1.5,0.1-3,0.7-4.5,0.7c-3.6,0.1-7.2,0.2-10.8,0
		c-2-0.1-4.2-0.2-5.9-1c-1.5-0.7-3,0.1-4.5-1c-1.1-0.9-3.2-0.5-4.8-0.9C161.2,208.7,159.1,209.1,158.3,207z"/>
	<path id="XMLID_801_" class="st4" d="M158.3,207c0.8,2.1,2.9,1.7,4.5,2.2c1.6,0.5,3.7,0,4.8,0.9c1.5,1.1,3,0.3,4.5,1
		c1.7,0.8,3.9,0.9,5.9,1c3.6,0.3,7.2,0.1,10.8,0c1.5,0,3-0.6,4.5-0.7c4.2-0.4,8.3,0.7,12.1,2.3c1.4,0.6,2.7,1.8,3.8,2.9
		c2,2.1,3,4.7,3.1,7.7c0.1,1.5,1.1,2.9,0.7,4.5c-0.6,2.4-0.4,5-1.8,7.1c-0.7,1.1-0.2,2.1-0.5,3.2c-2,0-4,0-6,0
		c-0.4-1.3,0.3-2.5,0.9-3.3c0.9-1.3,1-2.9,0.4-3.8c-1-1.4-1-3.4-3.2-4.3c-3.5-1.5-7-3-10.8-2.7c-2.8,0.2-5.5-0.9-8.3-0.8
		c-2.9,0-5.8,0.5-8.5-0.1c-3.7-0.9-7.3-0.3-10.9-0.6c-2.7-0.3-5.5-0.7-8.2-1c-0.4-1.8-0.7-3.6-1.2-5.7c-0.4,0-0.8,0-1.3,0
		c-1.1-0.5-2,0.8-3.2,0.3c-1-0.5-2.1-0.7-3.2-1c-0.1,0-0.2,0-0.4,0c-0.2-0.3-0.4-0.7-0.6-0.7c-1.2-0.1-2.4,0-3.9,0
		c2.3-2.5,5.5-2.8,8-4.4C153,209.3,155.6,208.1,158.3,207z"/>
	<path id="XMLID_800_" class="st5" d="M222.1,239.3c0.2-0.5,0.2-1.2,0.5-1.6c3.4-3.9,5.7-8.7,8.9-12.7c0.3-0.3,0.2-0.9,0.3-1.4
		c0.1-0.6,0.2-1.2,0.5-1.6c0.5-0.9,1.6-1.3,1.8-2.6c0.5-3,2.5-5.6,2.2-8.8c-0.1-0.7-0.1-1.5,0-2.2c0.5-3.8-1.7-6-4.5-8
		c-2.3-1.7-4.8-2.5-7.7-2.2c-2.6,0.3-5-0.5-7.4-1.1c0,0,0-0.2,0-0.4c4.3-3.1,6.5-3.9,10.2-3.8c2,0.1,8.1,2.5,9.9,4.1
		c2.1,1.8,3.1,4.5,4.5,6.7c-0.5,2.7,2,5.3,0.1,8c-0.5,5.6-2.4,10.7-5.3,15.4c-2.3,3.7-3.9,7.9-7.2,10.9c-0.3,0.3-0.2,0.9-0.3,1.4
		C226.6,239.3,224.3,239.3,222.1,239.3z"/>
	<path id="XMLID_799_" class="st6" d="M150.1,94.5c3.3-0.8,6.1-2.6,9-4.2c1.5-0.8,3.1-1.6,4.5-2.5c0.7-0.5,1.3-1.2,2.3-2.2
		c0,0,0.9,1.9,1.4,0c1-0.3,2-0.5,2.9-1.1c1.1-0.7,2-0.7,2.8,0.4c0.8,1.1,0.5,2.8-0.6,3.5c-1.7,1-3.4,1.9-5,2.7c0,0.7,0,1.3,0,2
		c-0.6,0.3-0.9-1.4-1.7-0.2c-0.4,0.6-1.3,0.9-2.2,1.5c1.1,0.8,2.1,1.8,3.3,2.2c2.3,0.9,4.3,2.2,6.5,3.3c12.7,6.4,25.5,12.7,38.2,19
		c2,1,3.1,2.4,3.1,4.5c-1,0.5-2.1,0.9-2.8,1.5c-0.9,0.7-1.8,1-2.8,1.4c-1,0.4-1.8,1.6-3.2,1.3c-0.3-0.1-0.7,0.2-0.9,0.4
		c-2.2,2.1-5.1,2.7-7.7,4.1c-2.8,1.5-5.7,2.5-8.5,3.9c-1.7,0.9-3.3,2.1-5.2,2.8c-2,0.7-3.5,2.5-5.8,2.3c-0.2,0-0.3,0.9-0.6,1.1
		c-1.8,0.8-3.4,2.3-5.6,1.9c-1,1.9-2.8,2.7-4.7,2.9c-1.5,0.2-2.7,0.6-4,1.3c-2.7,1.5-5.5,2.9-8.4,4.4c0.7,0.5,1.2,0.8,1.7,1.2
		c1.5-0.5,2,1.1,3.1,1.6c3.2,1.3,6.2,2.9,9.3,4.5c0.6,0.3,1.2,0.8,1.9,0.7c1.7,1.5,3.8,2.4,6,3c0,0.1,0,0.3,0,0.4
		c6.6,3.3,13.1,6.7,19.7,10c0.1,0,0.3-0.4,0.5-0.6c0.3,0,0.5,0,0.8,0c0.3-0.3,0.5-0.5,0.8-0.7c0.3-0.3,0.5-0.5,0.8-0.8
		c0.4,0,0.7,0,1.1,0c1.2-0.1,2.2,0.1,2.6,1.3c0.4,1.2-0.1,2.4-1.4,3.2c-0.8,0.5-1.5,1-2.3,1.5c-1.5-0.5-1.4,0.8-2,1.6
		c-5.8-2.9-11.7-5.9-17.6-8.8c-0.9-0.4-1.7-1.4-2.9-1.1c-0.9-1.3-2.6-1.4-3.8-2.3c-0.2-1.6-1.6-0.7-2.3-1.1
		c-7.1-3.8-14.4-7.3-21.5-10.9c-0.7-0.4-1.4-0.9-2-1.5c-0.7-0.7-0.7-1.6,0-2.3c0.8-0.8,1.7-1.5,2.6-2.2c2.9-1,5.6-2.4,8.3-3.8
		c0.2,0,0.6,0.1,0.7,0c3.7-2.6,7.9-4.3,12-6.3c3.1-1.5,5.9-3.7,9.5-4.3c1.8-2.4,5-2.5,7.3-4.1c1.8-1.2,4-1.8,5.9-2.9
		c1.8-1,4-1.7,6-2.7c2.5-1.2,4.9-2.6,7.8-4c-2.5-1-4.6-1.9-6.5-3.1c-3.3-2-7.1-2.9-10.2-5.1c-0.2-0.1-0.4-0.4-0.6-0.5
		c-2.9-0.3-4.7-3.2-7.7-3.2c-2.3-2.4-5.7-2.7-8.3-4.5c-1.4-1-3-1.7-4.6-2.4c-1.6-0.7-2.9-2-4.8-1.9c-1-1.7-3.3-1.3-4.5-2.8
		c-0.3-0.4-2.1-1-2.7,0.5c-0.8-0.2-1.6-0.3-2.4-0.5c-1.6-0.3-2.6-1.9-4.4-1.8C150.1,95.5,150.1,95,150.1,94.5z"/>
	<path id="XMLID_798_" class="st7" d="M299.3,36.8c2.3,0,4.5,0.3,6.2,2.1c3.9,0.7,6.9,3.3,10.4,4.7c2,0.8,3.9,2,5.9,3
		c-0.1,3.2,0,3.2-2.6,4.4c-1.2,0.6-2.7,0.9-3.8,1.6c-2.5,1.7-5.7,2.3-7.9,4.5c-0.7,0.3-1.9-0.7-2.3,0.8c-0.5,0.1-1,0.1-1.4,0.3
		c-4.5,2.3-9.1,4.6-13.6,6.9c0,20.9,0,41.9,0,62.8c0,1.8-0.2,3.4-1.8,4.1c-2.5,1.1-4.6,2.7-7,3.9c-4.2,2.2-8.6,4-12.7,6.2
		c-2.6,1.4-5.5,2.2-7.7,4.3c-0.7-0.1-1.6,0.3-1.5-0.9c0-0.2-0.5-0.4-0.7-0.6c-0.1-0.5-0.1-0.9-0.3-1.4c-0.1-0.6-0.3-1.1-0.5-1.6
		c1.5-0.6,3-1.1,4.5-1.9c6.4-3.3,12.7-6.7,19.1-10c1.4-0.8,2.9-1.6,4.3-2.3c0-22.2,0-44,0-65.8c3.5-1.6,6.8-3.2,10.1-4.9
		c0.5-0.2,0.7-0.9,1.1-1.4c1.6-0.1,4.1-1.1,6-2.3c3.5-1.6,7-3.3,10.5-4.9c-0.4-0.4-0.7-0.9-1.1-1.1c-3.7-1.8-7.5-3.5-11.2-5.3
		c-0.6-0.3-1.2-0.8-1.9-0.7C298.3,39.8,298.3,38.3,299.3,36.8z"/>
	<path id="XMLID_797_" class="st8" d="M139.6,84c1.4-0.1,2.3,0.7,3.4,1.5c0.7,0.5,1.3,1,1.9,1.5c0.7,2.2,1.2,4.5,0.3,7.3
		c-0.7-0.9-1.1-1.5-1.6-2c-1.7,2.2-3.8,3.5-6.6,3.7c-0.4,0-0.8,0.5-1.2,0.7c-3,0-6,0-8.9,0c-0.8,0-1.6-0.3-2.4-0.5
		c-2.7-0.6-5.2-1.8-7.2-4.3c0,1.9,0,3.3,0,4.9c3.9-0.6,7.5,0.3,11.1,1.4c1,0.8,2,1.5,3,2.3c-1.7,1.4-3.4,2.7-4.4,4.8
		c-0.7,1.5-1.5,2.8-2.3,4.2c-1.3-0.4-2.2,0.6-3.4,0.8c-2.9,0.5-5.7-0.6-8.6-0.9c-1.5-0.2-2.8-1.7-4.3-2c-1.4-0.3-1.4-1.6-2.2-2.2
		c-0.1,0.2-0.2,0.2-0.2,0.3c0,2.4,0,4.7,0,7.1c-0.3-0.2-0.7-0.4-0.7-0.6c0-3.1-0.1-6.2,0-9.3c0.1-1.9,1.2-3.4,2.8-4.3
		c1.2-0.7,2.7-0.8,3.8-1.6c1.3-1,3.5,0.1,4.2-1.5c0.6-1.4,0.4-3.1,0.4-4.7c0-2.4,1.1-4.1,3.3-5c1-0.4,1.8-1,2.7-1.5
		c2-1,4.3-1.2,6.4-1.4C132.4,82.1,136,83.1,139.6,84z"/>
	<path id="XMLID_793_" class="st4" d="M167.3,93c0-0.6,0-1.2,0-2c1.7-0.9,3.4-1.8,5-2.7c1.1-0.6,1.4-2.4,0.6-3.5
		c-0.8-1.1-1.7-1-2.8-0.4c-0.9,0.5-1.9,0.7-2.9,1.1c-0.3-1.6-0.6-3.3-0.7-4.9c-0.1-1.6,0-3.2-0.5-4.8c-0.2,0.7-0.3,1.5-0.5,2.2
		c-0.1,0-0.3,0-0.4,0c-0.1-1.1-0.1-2.3-0.2-3.3c2.1-1.5,3.9-2.9,6-4.1c1.6-1,3.3-1.9,5.3-1.6c0.8,0.2,1.8,0.3,2.6-0.1
		c0.7-0.3,1.2-1.2,1.2,0.4c0,0.2,0.3,0.4,0.5,0.4c2.5-0.2,3.7,2,5.5,3c0.2,0.5,0.4,0.9,0.7,1.7c-1.1-0.4-1.9-0.7-3.2-1.2
		c3.2,3.8,4,5.6,4,9.3c0,0.3,0,0.5,0,0.8c-2.5-0.2-4.9-0.1-5.6,3.4c-0.9-4.1-1.7-5.6-3.8-7.3c0.6,1,1,1.5,1.1,2
		c0.7,2.6,2.7,5.1,0.9,8c-0.3,0.4,0,1.2,0,1.8c0,0.1,0.3,0.1,0.5,0.2c0.1-0.7,0.2-1.4,0.4-2.2c0.3,0.3,0.5,0.4,0.7,0.6
		c0.2,0.1,0.4,0.2,0.6,0.3c0.6,1.7,2.1,2.3,3.8,2.5c-1.4,1.8,0.3,1,0.7,1.3c-0.3,0.5-0.6,1.1-1.1,1.4c-1.9,1-3.9,2-5.8,2.8
		c-0.6,0.3-1.4,0.2-2.1,0.3c-0.4-0.3-0.8-0.6-1.2-0.7C173.1,96.8,170.2,94.8,167.3,93z"/>
	<path id="XMLID_792_" class="st2" d="M258.1,141.8c0.2,0.5,0.4,1.1,0.5,1.6c0.1,0.4,0.2,0.9,0.3,1.4c0,9.2,0,18.3,0,27.3
		c-0.8,1.3-2.7,1.1-3,2.7c-1,0-1.8-0.1-2.7,0.7c-1,0.9-2.3,1.6-3.6,2.2c-6.7,3.3-13.5,6.5-20.2,9.9c-2.7,1.4-5.7,2.3-8,4.4
		c-0.8,1.3-2.4,1.8-3.6,2.1c-1.7,0.4-2.6,1.5-3.9,2.4c-0.8,0-1.5,0-2.3,0c-1-0.5-2-1-3-1.5c-0.5-0.5-0.8-1.2-1.4-1.5
		c-1-0.5-2.2-0.8-3.2-1.3c-2.3-1.1-4.5-2.4-6.7-3.5c0-1,0-1.9,0-2.7c0.5,0.1,1.4-0.3,1.5,0.6c0,1.4,0.5,2,1.9,2.5
		c2.2,0.9,4.3,2.2,6.4,3.3c1.6,0.8,3.4,1.5,5.2,1.8c0.6-0.1,1.4,0.4,1.5-0.8c0.5-0.1,1-0.1,1.4-0.3c5.7-2.9,11.3-5.8,17-8.7
		c5.3-2.8,10.7-5.5,16-8.3c2.8-1.5,5.9-2.4,8.4-4.5c1,0,0.7-0.8,0.7-1.3c0-3.3,0-6.6,0-9.9c0-5.6,0-11.2,0-16.8
		c-1.3-1.6-2.9-2.6-5.1-2.8c-1.3-0.1-2.6-0.9-3.9-1.4c0-0.4,0.1-1,0-1.1c-2.2-1.1-4.4-3-6.9-0.6c-14.5,7.2-28.9,14.4-43.3,21.5
		c0,4.4,0,8.8,0,13.2c-0.2,0.3-0.5,0.5-0.8,0.8c0-4,0-8,0-12c0-3.2,0-3.2,2.6-4.5c13.7-6.8,27.4-13.5,41-20.3c2.3-1.1,4.2-2.2,6.3,0
		c0.2,0.2,0.7,0,1.1,0c1.8,0.6,3.2,2.3,5.3,2.3c0.6,0.3,1.3,0.5,1.9,0.8c0.5,0.2,1.1,0.4,1.5,0.8
		C257.4,140.7,257.7,141.3,258.1,141.8z"/>
	<path id="XMLID_791_" class="st9" d="M261.1,146.3c2.2-2.1,5.2-2.9,7.7-4.3c4.1-2.3,8.5-4.1,12.7-6.2c2.4-1.2,4.5-2.8,7-3.9
		c1.6-0.7,1.8-2.3,1.8-4.1c-0.1-21,0-41.9,0-62.8c4.5-2.3,9.1-4.6,13.6-6.9c0.4-0.2,0.9-0.2,1.4-0.3c0.5,0.8,1,1.5,1.5,2.3
		c-2.1-0.2-3.9,0.3-5.8,1.4c-2.7,1.6-5.6,2.8-8.5,4.1c0,17,0.1,34,0,51c0,4.8-0.5,9.5-0.7,14.3c-0.1,1.2-0.9,1.4-1.8,1.9
		c-8.9,5.2-18.3,9.5-27.5,14.2c-0.5,0.3-1,0.7-1.5,1c0,8.3,0,16.6,0,24.8c-1.6,1.8-3.6,3-6,3.4c0.2-0.5,0.5-1,0.8-1.5
		c2-0.1,3.3-1.3,4.5-2.6c0-7.5,0-15,0-22.4C260.3,148.5,260.2,147.3,261.1,146.3z"/>
	<path id="XMLID_789_" class="st10" d="M74.3,129c0.5-0.2,1.1-0.3,1.6-0.5c0.5-0.3,0.9-0.7,1.4-1c2.3-1.2,4.7-2.5,7-3.7
		c2.6-1.3,5.2-2.4,7.6-4c2.5-1.6,5.3-2.4,7.6-4.3c1.1-0.9,2.8-1.3,4-2.3c0.7-0.3,1.9,0.7,2.3-0.8c1.3-0.7,2.6-1.4,3.9-2
		c1.6-0.7,2.8,0.2,2.8,1.9c0.1,1.7-1.3,2.2-2.3,3.2c-0.9,0.9-2.5-0.1-2.9,1.4c-0.2,0.1-0.4,0.2-0.6,0.2c0.2,0.2,0.4,0.3,0.6,0.5
		c-3,2.3-6.5,3.8-10,5.1c-1.4,0.6-2.6,1-3.6,2.1c-0.6,0.7-1.2,1.3-2.2,1c-0.8-0.2-1.4,0.2-1.9,0.8c-0.7,0.7-1.4,1.4-2.1,2.1
		c-4.1-0.2-6.9,2.5-10.3,4c0.4,0.5,0.6,0.7,0.9,1c-1.9,0-1.9,0-1.6-1.5c0.2-1.1,0-1.9-0.9-2.6C75.2,129.6,74.7,129.3,74.3,129z"/>
	<path id="XMLID_788_" class="st11" d="M307.6,93.8c0.8-0.8,1.5-1.5,2.3-2.3c1.4-0.8,2.8-1.6,4.3-2.4c1.5-0.8,3.2-1.4,4.7-2.1
		c1.5-0.3,3-0.7,4.5-0.7c4-0.1,7.9,0,11.9,0c0.7,0,5.4,1.2,6.1,1.5c2.5-0.1,4.6,1.2,6.8,2.3c0.6,0.7,1.1,1.6,1.9,2.2
		c2,1.7,2.6,3.9,2.6,6.4c0,4.7,0.1,9.5,0,14.2c0,1.9-0.6,3.7-2.1,5.1c-1.8,1.8-3.9,3-6.2,4c-3.5,1.4-7.1,2.4-11,2.5
		c-1.6,0-3.2,0-4.9,0c-2.2,0-4.4,0-6.6,0c0-0.7,0-1.1,0-1.5c0.8,0,1.5,0,2.3,0c1,0.2,2.1-0.3,3.2,0.5c0.6,0.4,2,0.6,2.4,0.2
		c1-1,2.1-0.7,3.1-0.6c4.6,0.2,8.8-1.2,12.9-3.2c3.6-1.8,5.6-4.6,5.5-8.9c-0.1-4.2,0-8.5,0-12.7c0-0.7,0.1-1.4,0-2.1
		c-0.1-0.3-0.5-0.6-0.7-0.9c-1.4-2.4-3.6-3.8-6-4.9c-2.4-1-9.1-2.6-11.3-2.6c-2.1,0-4.2,0.1-6.4,0c-3.2-0.1-6.1,0.7-9.1,1.5
		c-4,1.1-6.3,2.6-8.5,5.2c-1.2,1.2-2.3,2.4-0.8,4.2c0.3,0.3,0,1.2,0,1.8c0,4.2,0,8.5,0,12.7c0,2.4,1,4,3,5.3c1.3,0.9,3.1,1.3,3.8,3
		c-3.8,0-5.6-2.8-7.5-5.4c-0.6-0.8-0.8-1.7-0.8-2.7c0-5.7,0.1-11.4,0-17.1C306.7,95.4,307.2,94.6,307.6,93.8z"/>
	<path id="XMLID_787_" class="st12" d="M321.8,123c0,0.4,0,0.7,0,1.5c2.2,0,4.4,0,6.6,0c1.6,0,3.2,0,4.9,0c3.8-0.1,7.4-1.1,11-2.5
		c2.4-1,4.4-2.2,6.2-4c1.5-1.4,2-3.2,2.1-5.1c0.1-4.7,0-9.5,0-14.2c0-2.5-0.6-4.7-2.6-6.4c-0.7-0.6-1.3-1.5-1.9-2.2
		c0.6,0.2,1.2,0.2,1.6,0.6c1.5,1.3,2.8,2.8,4.1,4.1c1.5,4.9,0.7,9.9,1,14.7c0.2,2.4-0.4,4.6-0.9,6.8c-0.4,2-1.9,3.4-3.6,4.7
		c-2.6,1.9-5.6,2.8-8.6,3.7c-1.8,0.6-3.8,0.2-5.2,0.9c-1.9,0.9-3.6,0.5-5.4,0.5c-2.4,0-4.8,0.4-7.2-0.6c-1.3-0.5-3-0.2-4.5,0.6
		c-7.8,4.1-15.6,8-23.5,12c-0.4,0.2-0.8,0.4-1.3,0.5c-1.3,0.5,0.2,1.1-0.2,1.9c-1.1-0.5-2.2-1-3.6-1.7c4.4-3.2,9.1-5,13.4-7.3
		c5.3-2.9,10.7-5.4,16.1-8C320.8,123.1,321.3,123.1,321.8,123z"/>
	<path id="XMLID_786_" class="st13" d="M306.8,60c-0.5-0.7-1-1.5-1.5-2.3c0.4-1.4,1.5-0.5,2.3-0.8c0.9,0.7,1.7,2,2.6,2.1
		c2.4,0.4,4.3,1.8,6.4,2.8c2.2,1,4.2,2.5,6.5,3.3c1.7,0.5,0.9,1.3,1,2.1c-4.2,2-8.4,3.9-12.6,5.8c-1.6,0.7-3.1,1.5-4.8,2.1
		c-1.7,0.6-4,1.3-4.9,3.5c2,1,3.6,2.5,5.9,2.3c0.5,0.3,1,0.5,1.5,0.8c0.4,0.5,0.7,1.3,1.1,1.4c2.2,0.2,3.8,1.6,5.8,2.4
		c0.3,0.1,0.6,0.6,0.9,0.9c-1.8,1.4-3.1,0.2-4.5-0.3c-1.8-0.8-3.3-2.3-5.5-2.1c-3.2-1.6-6.5-3.2-9.7-4.9c-0.1-1.5,0.2-2.7,2.1-2.7
		c0.3,0,0.6-0.5,0.9-0.7c0.7-0.1,1.5,0,2.1-0.3c4.6-2.5,9.4-4.3,14.1-6.5c1.4-0.7,2.7-1.6,4.2-2.4c-0.5-0.5-0.8-1-1.2-1.2
		c-3.3-1.6-6.7-3.1-9.9-4.8C308.4,60,307.6,60.1,306.8,60z"/>
	<path id="XMLID_785_" class="st14" d="M307.6,81c-2.3,0.2-3.9-1.4-5.9-2.3c0.9-2.3,3.2-2.9,4.9-3.5c1.7-0.6,3.2-1.4,4.8-2.1
		c4.2-1.9,8.4-3.8,12.6-5.8c-0.1-0.8,0.7-1.6-1-2.1c-2.3-0.7-4.3-2.3-6.5-3.3c-2.1-0.9-3.9-2.4-6.4-2.8c-1-0.1-1.7-1.4-2.6-2.1
		c2.3-2.1,5.4-2.7,7.9-4.5c1.1-0.8,2.5-1,3.8-1.6c2.5-1.2,2.5-1.3,2.6-4.4c2.3,0.7,1.3,2.6,1.5,4.1c-4.4,2.2-8.9,4.4-13.6,6.8
		c4.9,2.4,9.7,4.8,14.4,7.1c0.7,0.4,1.5,0.7,2.1,1.2c1.2,0.9,1,2.9-0.4,3.3c-3.6,0.8-6.4,3.3-9.8,4.4c-3.4,1.1-6.3,3-9.4,4.4
		c-0.2,0.1-0.4,0.2-0.6,0.2c-0.5,0.1-1.4-0.3-1.4,0.6c-0.1,1.3,1,0.6,1.6,0.9C306.7,79.9,307.1,80.5,307.6,81z"/>
	<path id="XMLID_784_" class="st15" d="M228.8,29.3c0.4,0,1.1,0,1.1,0c0.2-1.6,1.7-1.3,2.6-1.8c1.1-0.5,2.1-0.8,3-1.9
		c0.6-0.7,2.2-0.5,3.3-0.9c0.5-0.2,0.7-0.8,1.1-1.2c0.7,1.2,1.1-0.4,1.7-0.3c0.6,0.1,1.3-0.4,1.9-0.7c1.3-0.6,3-0.7,3.4-2.6
		c0.1-0.3,1.2-1.3,2.2-0.6c0.1,0.1,0.3,0,0.5,0c-0.2-1.6,1.1-0.6,1.6-0.8c0.1,0,0-0.2,0-0.4c0.5,0,0.9,0,1.5,0c0-1.3,0-2.4,0-3.5
		c0-1.2,0.4-2.2,1.5-4c0.3,0,0.5,0,0.8,0c0,0.3,0,0.5,0,0.8c-1,0-0.7,0.7-0.7,1.3c0,1.2,0.1,2.4,0,3.6c-0.1,1.1-0.5,2.2-0.7,3.3
		c-0.4,0.2-0.8,0.5-1.2,0.7c-3.5,1.8-7,3.5-10.5,5.3c-3.5,1.8-7,3.5-10.5,5.2c-3.5,1.7-7,3.6-10.5,5.2c-0.8,0.4-1.5,0.7-1.7,1.6
		c-0.8,0.5-1.5,1-2.3,1.5c-1.2,0.2-1.7-0.3-1.5-1.5c-0.1-0.7,0.3-1.5-0.9-1.5c-0.9,0-0.5-0.9-0.6-1.5c1.5-0.5,1.9,1.4,3,1.5
		c3.1-1.5,6.1-3,9.1-4.5C226.9,30.9,228.4,30.8,228.8,29.3z"/>
	<path id="XMLID_782_" class="st14" d="M303.1,53.3c-1.9,1.2-4.4,2.1-6,2.3c-0.6-0.1-1.4,0.4-1.5-0.8c-0.3-0.5-0.5-1-0.8-1.5
		c0.3-1.2,1.6-1.8,1.6-3.5c-0.2-9.4-0.1-18.9-0.1-28.3c0-1.1-0.4-1.8-0.8-2.7c1.5,0.4,1.5,0.4,3,1.9c0,4.9,0,9.9,0,14.8
		c0,0.5-0.3,1.3,0.7,1.3c-1,1.5-1,3,0,4.5c-0.3,0.3-0.7,0.6-0.7,1c-0.1,3.3,0,6.7,0,9.9C300,53.2,301.5,53.4,303.1,53.3z"/>
	<path id="XMLID_781_" class="st16" d="M135.8,96.8c0.4-0.3,0.8-0.7,1.2-0.7c2.8-0.2,4.9-1.5,6.6-3.7c0.4,0.6,0.9,1.1,1.6,2
		c0.8-2.9,0.3-5.1-0.3-7.3c1.1-0.2,1.9,0.4,2.2,1.4c0.4,1.3,0.7,2.7,0.7,4.1c0.1,1.6,0.9,2.1,2.3,2.1c0,0.5,0,1,0,1.5
		c-0.7-0.3-1.4-0.7-2.2-1c-2.1-0.9-2.7-0.7-3.8,1.4c-0.6,1.2-1.3,2.3-2,3.4c-1.6-0.6-2.9-1.2-4.3-1.8c-1.2,2-2.2,3.8-3.4,5.7
		c-1.1-0.4-2.1-0.8-3-1.2c0.3-0.8,1.5-1.5-0.1-2c-1-0.8-2-1.5-3-2.3c0.3-0.3,0.6-0.7,1-0.7c1.9-0.1,3.7,0,5.6-0.1
		C135.2,97.5,135.5,97,135.8,96.8z"/>
	<path id="XMLID_780_" class="st17" d="M255.8,174.8c-0.3,0.5-0.5,1-0.8,1.5c-2.2,2.1-5.2,2.9-7.8,4.3c-4.7,2.5-9.6,4.5-14.3,7
		c-2.2,1.1-4.2,2.5-6.4,3.5c-1.7,0.8-3.4,1-5.2,1c2.3-2.1,5.3-3,8-4.4c6.6-3.5,13.5-6.6,20.2-9.9c1.2-0.6,2.5-1.3,3.6-2.2
		C254,174.6,254.8,174.8,255.8,174.8z"/>
	<path id="XMLID_778_" class="st15" d="M213.8,34.5c0.1,0.5-0.3,1.4,0.6,1.5c1.3,0.1,0.9,0.9,0.9,1.5c-0.9,1-1.8,1.9-2.7,2.9
		c-0.6-1.1-1.4-1.7-2-1.4c-2,1-3.9,2.1-5.5,3c-0.9,2.9,0.9,5.9-1.7,8.7c-0.4-1.1-0.8-1.9-0.8-2.7c-0.1-2.5,0-5,0-7.5
		c1.4-1.2,3.2-1.7,4.5-3c0.3-0.3,0.5-0.5,0.8-0.7c0.3-0.3,0.5-0.5,0.8-0.8c1,0,2,0.3,2.7-0.8c0.4-0.6,1-1,1.6-1.4
		C213,33.7,213.5,34.3,213.8,34.5z"/>
	<path id="XMLID_777_" class="st18" d="M307.6,93.8c-0.4,0.8-0.8,1.6-0.8,2.7c0.1,5.7,0.1,11.4,0,17.1c0,1,0.2,1.9,0.8,2.7
		c1.9,2.6,3.7,5.3,7.5,5.4c2.2-1.1,4.4-2.2,6.7-3.2c0.7-0.3,1.6-0.3,2.3-0.5c-0.4,0.5-0.6,1.3-1.1,1.4c-3.3,0.9-6.2,2.4-9,4.5
		c-0.6,0.5-1.7,0.5-2.5,0.7c-0.7-1.4,0.6-1.2,1.2-1.5c-0.1-0.2-0.1-0.4-0.3-0.5c-1.2-1-2.4-2-3.6-2.9c-2.6-2-3.2-5-3.4-7.9
		c-0.3-4.3-0.1-8.7,0-13c0-1.5,0.5-3,0.9-4.5c0.1-0.3,0.7-0.6,1-0.8c0,0,0.2,0.1,0.2,0.3C307.6,93.5,307.6,93.6,307.6,93.8z"/>
	<path id="XMLID_776_" class="st18" d="M105.8,112.5c-0.4,1.4-1.5,0.5-2.3,0.8c0-3.1,0.2-6.2,0-9.3c-0.2-3,1.3-5.1,3.5-6.3
		c1.9-1.1,4-2.3,6.5-2.4c0.7,0,1.4-0.6,2.5-1.1c-2.7-2.3,0.6-4.5-0.6-6.5c1.9-2.3,4-3.8,6.9-4.4c0,0.3,0,0.5,0,0.8
		c-0.9,0.5-1.8,1.1-2.7,1.5c-2.2,1-3.3,2.6-3.3,5c0,1.6,0.2,3.3-0.4,4.7c-0.7,1.6-2.8,0.5-4.2,1.5c-1.1,0.8-2.6,0.9-3.8,1.6
		c-1.6,0.9-2.7,2.4-2.8,4.3c-0.1,3.1,0,6.2,0,9.3C105.1,112.1,105.6,112.3,105.8,112.5z"/>
	<path id="XMLID_775_" class="st19" d="M306.8,60c0.8,0.1,1.6,0,2.4,0.5c3.2,1.7,6.6,3.2,9.9,4.8c0.4,0.2,0.7,0.7,1.2,1.2
		c-1.4,0.8-2.7,1.7-4.2,2.4c-4.7,2.3-9.5,4.1-14.1,6.5c-0.6,0.3-1.4,0.2-2.1,0.3c2.1-2.5,5.4-2.9,8-4.4c3.4-1.9,7.1-3.2,11-4.9
		c-4.2-2-8.1-3.9-12-5.8C306.9,60.5,306.9,60.2,306.8,60z"/>
	<path id="XMLID_774_" class="st9" d="M262.6,5.3c0.5-1.1,1.6-1.4,2.5-1.4c0.9,0,2,0.6,2.8,1.2c1,0.7,1.7,1.8,2.6,2.8
		c2.3-2.1,3.7,0.2,5.5,0.7c0.7,0.2,1.2,1.2,2,1.9c1.6,0.2,3.7-0.5,4.9,1.5c-0.3,0-0.5,0-0.8,0c-2.7-0.7-2.7-0.7-6.6,0.8
		c-0.1-1.1-0.2-2.1-0.3-3.1c-0.6,0-1,0-1.3,0c-0.8-0.3-1.5-0.5-2.3-0.8c0-0.1,0-0.3,0-0.4c0-0.1-0.2-0.3-0.3-0.3
		c-1.1,0.2-2.1,0.5-3.3,0.8c-0.1-0.7-0.1-1.1-0.1-1.4c-0.2-2.2-0.5-2.5-2.6-2.5C264.3,5.2,263.4,5.3,262.6,5.3z"/>
	<path id="XMLID_773_" class="st20" d="M186.8,72c0.9-1.3,2.6-1.3,3.7-2.2c0.5-0.4,1-0.6,1.6-1c-0.3-1.9,0.5-3.8-0.8-5.6
		c-0.2-0.2,0-0.7,0-1.1c0-5.2,0-10.4,0-15.6c0-1.1,0.4-1.8,1.5-2.1c-0.2,0.8-0.6,1.5-0.7,2.3c-0.1,1-0.1,2,0,3
		c0.1,0.9,0.7,1.8,0.7,2.7c0.1,5.5,0.1,10.9,0,16.4c0,0.5-0.4,1.4-0.8,1.5c-1.6,0.5-2.7,2-4.4,1.9C187.3,72,187.1,72,186.8,72z"/>
	<path id="XMLID_772_" class="st21" d="M262.6,5.3c0.9,0,1.7,0,2.6,0c2.2,0,2.4,0.3,2.6,2.5c0,0.4,0.1,0.7,0.1,1.4
		c1.2-0.3,2.3-0.6,3.3-0.8c0.1,0,0.2,0.1,0.3,0.3c0,0.1,0,0.2,0,0.4c-0.1,0.4,0,1.2-0.2,1.3c-1.4,0.4-2.8,0.7-4.3,1
		c0-1.5,0-2.9,0-4.3c-2.1-0.5-3.7,0.1-5.3,0.9c-2.1,1.1-4.4,2-6.7,2.6c-0.3,0-0.5,0-0.8,0c0.6-0.5,1.2-1,1.7-1.5
		c1-1,2.7-0.9,3.6-2.2C260.8,6.8,261.8,6.2,262.6,5.3z"/>
	<path id="XMLID_771_" class="st19" d="M306.8,84c2.2-0.3,3.7,1.3,5.5,2.1c1.3,0.6,2.7,1.7,4.5,0.3c-0.3-0.3-0.6-0.8-0.9-0.9
		c-1.9-0.8-3.6-2.2-5.8-2.4c-0.4,0-0.7-0.9-1.1-1.4c0.5,0,1.1-0.2,1.5,0c2.7,1.6,5.9,2.3,8.3,4.5c0,0.3,0,0.5,0,0.8
		c-1.6,0.7-3.2,1.4-4.7,2.1c-1.5,0.7-2.8,1.6-4.3,2.4c-0.2-0.2-0.4-0.4-0.6-0.5c1.3-1,2.6-1.9,4.1-3c-0.7-0.5-1.5-1.3-2.5-1.7
		C309.4,85.7,308,85.1,306.8,84z"/>
	<path id="XMLID_770_" class="st12" d="M282.1,12c0.3,0,0.5,0,0.8,0c0.6,0.6,1.3,1.2,2.4,2.2c2.4-0.3,4.6,1.1,6.4,3.8
		c1,0,2.2,0,3.4,0c0.2,0,0.4,0.5,0.6,0.7c-1,0-2,0-3,0c-1.5,0.5-2.7,1.9-4.5,1.5c0.1-1.6,0.1-3.2-1.2-4.5c-0.6,0-1.2,0-1.8,0
		c-0.2-0.2-0.4-0.6-0.5-0.6c-0.5,0.2-0.9,0.4-1.5,0.7C282.7,14.4,282.4,13.2,282.1,12z"/>
	<path id="XMLID_769_" class="st16" d="M318.8,87c0-0.3,0-0.5,0-0.8c4.6-1.3,9.2-1.9,13.9-1.5c2.7,0.2,5.3,0.9,8,1.5
		c0.9,0.2,0.5,1,0.6,1.5c-0.7-0.3-5.4-1.5-6.1-1.5c-4,0-7.9-0.1-11.9,0C321.8,86.3,320.3,86.8,318.8,87z"/>
	<path id="XMLID_767_" class="st22" d="M288.3,141.1c1.1,0.3,2.4,0.3,3.3,0.9c5.7,4,12.5,6,19,10.3c-1.4,0-2.2,0.2-2.6,0
		c-5-3.8-11-5.5-16.3-8.7c-1.2-0.7-2.5-1.3-3.7-1.9C288.1,141.4,288.2,141.2,288.3,141.1z"/>
	<path id="XMLID_765_" class="st23" d="M213.8,34.5c-0.3-0.2-0.8-0.8-0.9-0.7c-0.6,0.4-1.2,0.9-1.6,1.4c-0.7,1-1.7,0.7-2.7,0.8
		c0-0.2-0.1-0.6,0-0.7c1.2-1.7,4.3-2.6,6.1-1.8c2.6,1.1,2.6,1.1,5.4-0.3c2.5-1.2,4.9-2.5,7.4-3.7c0.4-0.2,0.9-0.2,1.4-0.3
		c-0.4,1.6-1.9,1.6-3,2.2c-2.9,1.6-6,3-9.1,4.5C215.7,35.9,215.3,34,213.8,34.5z"/>
	<path id="XMLID_764_" class="st24" d="M207.8,36.8c-0.3,0.3-0.5,0.5-0.8,0.8c-2.6-0.4-4.4,0.8-6,2.7c0,0.9,0,1.7,0,2.6
		c0,2.8,0,2.8-3,2.2c-0.5-0.3-0.9-0.7-1.4-1c-0.5-0.2-1.1-0.3-1.6-0.5c-0.3,0.3-0.5,0.5-0.8,0.8c-0.5,0-1,0-1.5,0
		c0.9-2.3,2.7-1.5,4.3-1.3c0.7,0.1,1.4,0.8,2.3,1.3c0.1-1.4,0.2-2.8,0.2-4.2c1.4-1.7,3.1-3,5.1-3.7
		C205.9,35.9,206.9,35.6,207.8,36.8z"/>
	<path id="XMLID_763_" class="st25" d="M302.8,143.8c5.6,2.8,11.1,5.7,16.7,8.3c1.2,0.5,0.5,1.7,1.5,2.1c-0.8-0.1-1.8,1.1-2.2-0.7
		c-0.1-0.6-1.2-1-1.9-1.4c-4.3-2.2-8.6-4.5-12.9-6.7c-0.6-0.3-1.1-0.7-1.6-1.1C302.4,144.2,302.6,144,302.8,143.8z"/>
	<path id="XMLID_762_" class="st20" d="M324.1,123c-0.8,0-1.5,0-2.3,0c1.7-1.2,3-2.8,5.3-3.1c0.9-0.1,1.6-1.3,2.5-2
		c-0.8-0.7-0.6-2.3-2.2-1c-0.8,0.7-2.2,0.6-3.4,0.9c1-2.1,2.8-2.3,4.8-2.2c1.6,0.1,2.5,1.4,1.8,2.7c-0.4,0.8-0.7,1.7-2,2.2
		C327.1,121,325.3,121.6,324.1,123z"/>
	<path id="XMLID_759_" class="st16" d="M122.3,84c0-0.3,0-0.5,0-0.8c1.2-1.2,2.7-1.5,4.4-1.5c2.8,0,5.7-0.1,8.5,0
		c1.4,0.1,2.7,0.5,4.1,0.9c0.2,0.1,0.2,0.9,0.3,1.3c-3.6-0.9-7.1-1.9-10.8-1.4C126.6,82.8,124.3,83,122.3,84z"/>
	<path id="XMLID_758_" class="st26" d="M186.8,72c0.3,0,0.5,0,0.8,0c0.2,0.4,0.7,0.7,0.7,1.1c-0.1,1.3,0.8,1.2,1.6,1.2
		c0,0.3,0,0.5,0,0.8c-0.7,0-1.4,0-2.6,0c1.5,2.4,1,4.7,1.1,6.9c0,0.2-0.5,0.4-0.7,0.6c0-3.6-0.8-5.5-4-9.3c1.3,0.5,2.1,0.8,3.2,1.2
		c-0.3-0.8-0.5-1.2-0.7-1.7C186.3,72.5,186.6,72.3,186.8,72z"/>
	<path id="XMLID_756_" class="st27" d="M259.6,6.8C258.7,8.1,257,8,256,9c-0.5,0.5-1.1,1-1.7,1.5c-1.1,1.8-1.5,2.8-1.5,4
		c0,1.1,0,2.2,0,3.5c-0.6,0-1,0-1.5,0c1-1.1,0.9-2.5,0.7-3.8c-0.4-3.4,1.4-5.4,4.2-6.7C257.2,7.1,258.3,6.4,259.6,6.8z"/>
	<path id="XMLID_727_" class="st28" d="M134.3,212.3c5.5-2,10.5-5.1,15.9-7.5c0.3-0.1,0.4-0.5,0.6-0.7c0.5-0.1,1-0.1,1.4-0.3
		c5.4-2.6,10.8-5.2,16.1-8c2.2-1.2,4.7-1.9,6.5-3.7c2.2-0.6,4.3-1.5,6-3c0.2,0,0.5,0.1,0.7,0c1.2-0.5,2.3-1,3.4-1.6
		c1.2-0.6,2.4-1.4,3.6-2.1c1.1-0.6,2.3-1.1,3.4-1.6c1.2-0.6,2.8-0.9,3.6-1.9c0.9-1.1,2.5-0.6,3.2-1.9c0.8-0.2,1.7-0.3,2.3-0.8
		c1-0.7,2-0.9,3.1-0.6c0.5,0.1,1.1,0.9,1.3,1.5c0.1,0.4-0.2,1.2-0.5,1.6c-0.2,0.3-0.8,0.4-1.2,0.6c-2,1.5-4.6,1.9-6.5,3.7
		c-0.5,0.3-1,0.5-1.5,0.7c-3.2,1.5-6.3,3.1-9.6,4.4c-1.1,0.4-0.8,0.9-0.9,1.6c-0.8,0.3-1.5,0.5-2.3,0.8c-0.7,0.1-1.5,0-2.1,0.3
		c-15.1,7.5-30.2,15.1-45.2,22.7c-0.2,0.1-0.4,0.2-0.6,0.3c-0.2,0.1-0.4,0.2-0.6,0.3c-2.5,1.1-4.6,3.2-7.6,2.7
		c-1-2.2-0.9-3.6,1.2-4.4c2-0.8,3.7-2.4,6.1-2.5C134.1,212.9,134.2,212.5,134.3,212.3z"/>
	<path id="XMLID_726_" class="st29" d="M183.1,193.5c0.8-0.3,1.5-0.5,2.3-0.8c0.8-0.4,1.6-0.8,2.7-0.8c3,0.1,5.9,0.2,8.9,0
		c2.8-0.2,5.4,0.4,7.8,1.7c1.2,0.6,2.6,0.9,3.9,1.3c1,0.5,2,1,3,1.5c0,0.4,0,0.7,0,1.4c-1.3,0-2.6,0-3.9,0.1
		c-6,0.5-11.9-0.8-17.9-0.9c-2.4,0-5.1-0.6-7.4-1.8c0,0,0-0.2,0-0.4C182.6,194.5,182.8,194,183.1,193.5z"/>
	<path id="XMLID_719_" class="st30" d="M141.1,218.3c2.1,0,4.1-0.1,6.2,0c0.7,0,1.5,0.5,2.1,0.8c-0.4,0.6-0.6,1-0.8,1.4
		c-0.9,1.4-2.3,0.8-3.5,0.6c-1.9-0.4-3.7-1.1-5.5-1.7C140.1,219,140.6,218.6,141.1,218.3z"/>
	<path id="XMLID_716_" class="st13" d="M74.3,129c0.4,0.3,0.9,0.6,1.3,0.9c0.9,0.6,1.2,1.5,0.9,2.6c-0.3,1.5-0.3,1.5,1.6,1.5
		c-0.3-0.3-0.5-0.5-0.9-1c3.4-1.5,6.3-4.2,10.3-4c0.7-0.7,1.4-1.4,2.1-2.1c0.5-0.6,1.1-1,1.9-0.8c1,0.2,1.6-0.4,2.2-1
		c1-1.1,2.3-1.5,3.6-2.1c3.5-1.4,7-2.8,10-5.1c1.8-0.2,2.7,1.2,3.8,2.3c0,0.1,0,0.3,0,0.4c3,1,6,2.2,9.3,1.9c1-0.1,2.2,0.4,3.1-0.7
		c0.2-0.2,1.3-0.1,1.7,0.2c0.8,0.7,1.6,0.4,2.4,0.5c2.2,1.3,4.6,2.4,6.8,3.8c0.7,0.3,1.4,0.8,2.2,1c1.9,0.7,3.7,1.3,5.2,2.7
		c0.4,0.4,1,0.7,1.5,0.7c1.5-0.1,2.5,1.1,3.8,1.5c2.8,2,2.8,2,5.4,0.3c0.2-0.1,0.4-0.2,0.6-0.3c6-2.8,11.4-6.5,17.5-9
		c1.3-0.5,2.4-1.6,3.2-2.2c0.7-3.2-0.6-6.2,1-9c0.2-0.3,0.2-0.9,0-1.1c-0.9-1.2-2-2.3-3-3.4c-1.2-1-2.2-2.4-3.6-2.9
		c-3.4-1.4-6.6-3.3-10-4.6c-0.6-0.2-0.9-1-1.4-1.5c0.6-1.6,2.4-0.9,2.7-0.5c1.2,1.5,3.5,1.1,4.5,2.8c1.9-0.1,3.2,1.2,4.8,1.9
		c1.6,0.7,3.2,1.4,4.6,2.4c2.6,1.8,6,2.1,8.3,4.5c3,0,4.8,2.9,7.7,3.2c0.2,0,0.4,0.3,0.6,0.5c3.2,2.2,7,3.1,10.2,5.1
		c2,1.2,4,2.1,6.5,3.1c-2.8,1.5-5.2,2.8-7.8,4c-2,0.9-4.1,1.6-6,2.7c-1.9,1.1-4.1,1.7-5.9,2.9c-2.4,1.6-5.5,1.7-7.3,4.1
		c-3.5,0.6-6.4,2.8-9.5,4.3c-4.1,2-8.3,3.7-12,6.3c-0.2,0.1-0.5,0-0.7,0c0.2-0.4,0.5-0.8,0.7-1.2c-2.2-1.1-4.6-1.2-7-1.1
		c-1.9,0.1-3.7-0.1-5.6,0c-1.8,0.1-3.5,0.4-5.3,0.7c-0.4,0.1-0.8,0.6-1.2,0.7c-4.3,0.9-8.3,2.7-12.4,4.3c-3.5,1.3-7.1,2.2-10.8,1.7
		c-1.9-0.3-4.1-0.6-5.7-1.5c-2.6-1.6-5.3-3.1-7.5-5.6c-2.7-3.1-5.9-5.8-8.6-8.8c-2-2.2-4.5-3.5-7.1-4.7c-0.6-0.3-1.7-0.4-2-0.1
		c-1.7,1.9-4.6,2-6.3,3.9c0.6,0.6,1.3,1.2,1.8,1.9c0.3,0.4,0.6,1.4,0.4,1.6c-0.6,0.8-1.5,1.5-2.4,2c-0.4,0.2-1.3,0.3-1.3-0.7
		c0.2-0.1,0.4-0.2,0.6-0.3c0,0,0-0.2,0-0.2c-1-0.3-1.9-0.6-3-1c-0.7,0.7-1.4,1.4-2,2.1c0.3,1,0.5,2,0.8,3.2c-1.4,0-2.3,0-3.3,0
		c-0.2,0-0.4,0.5-0.6,0.7c-0.5,0.1-1.2,0-1.3,0.3c-0.4,0.9-0.9,1.9-0.9,2.9c0,1-0.8,2.1-1.2,2c-1.7-0.4-2.2,1.3-3.4,1.6
		c-0.5,0-1,0-1.5,0c0.8-1,1.7-2,2.5-3.1c0.3,0.3,0.6,0.5,0.9,0.8c1.6-1.7,2.2-3.6,1.7-5.7c-1.5,0.2-2.9,0.5-4,0.6
		c-0.4,1.1-0.8,1.9-1.1,2.8c-1.3-1.4-1.3-1.4-3.4-1.5c-0.7,0.7-1.4,1.4-1.9,1.9c-0.9-0.2-1.8-0.1-2.5-0.5c-0.8-0.4-0.9-1.2,0.3-1.5
		c0.3,0.3,0.8,0.8,0.9,0.7c0.9-0.5,1.8-1,2.6-1.7c0.5-0.4,0.6-0.5,1.1,0c1.1,0.9,2-0.5,1.9-0.8c-0.4-2.1,1.5-2.4,2.4-3.4
		c1.6-0.1,3,0.2,4.4,1c1.3,0.8,2.8,1.4,4.9,2.4c-0.5-1.5-0.8-2.3-1-2.8c1-1.1,1.8-2,2.7-3.1c1.1,0,2.2,0,3.3,0
		c-0.6-1.2-1.1-1.5-3.1-2.5c0.2-0.8,0.5-1.6,0.8-2.8c-0.8,0.2-1.3,0.2-1.4,0.5c-1.2,1.8-2.6,1.4-4,0.5c-0.3-0.2-0.6-0.5-0.9-0.6
		c-0.9-0.2-1.5-0.4-2.2,0.9c-0.8,1.4-2,3-4,3.6c-0.8,0.2-1.3,1.1-1.1,2.1c-0.5-0.3-1-0.5-1.5-0.8c-1,0-2,0-3,0
		c0.3-0.3,0.7-0.7,0.9-0.7c1.3,0.1,1.4-0.5,1.3-1.5c2.4-0.1,4-1.7,5.1-3.4c0.7-1,1.2-2.1,2.3-2.5c1.3-0.6,2.4,0.5,3.6,0.9
		c0.3,0.1,0.5,0.4,0.8,0.6C72.3,130,73.3,129.5,74.3,129z"/>
	<path id="XMLID_715_" class="st3" d="M174.8,192c-1.8,1.8-4.3,2.5-6.5,3.7c-5.3,2.8-10.7,5.4-16.1,8c-0.4,0.2-0.9,0.2-1.4,0.3
		c-3.7-1.1-5.9-4.8-4.9-8.2c0.7-2.6,1.3-5.2,2.6-7.5c0.4-0.7,0.6-1.5,0.7-2.3c0.1-1-0.1-2,0.1-3c0.6-4-1-7.1-4.3-9.7
		c-2.7,0-5.7-0.2-8.6,0.1c-2.4,0.2-4.8,1-7.2,1.6c-0.7,0.2-1.4,0.6-2,0.5c-1.5-0.2-2.8,0.5-4.1,1c-1.4,0.5-2.9,0.9-4.3,1.3
		c-4.4,1.1-8.9,1.9-13.2,3.5c-1.1,0.4-2.4,0.2-3.6,0.3c0-0.5,0-0.9,0-1.1c-1.7-0.5-3.1-0.9-4.6-1.3c1.1-1.2,2-1.8,3.3-0.8
		c0.8,0.6,2.1-0.3,1.8-1.1c-0.8-1.9-1.4-3.7-1.3-5.8c-1.6-1-1.4-3-2.2-4.3c-1.8-2.7-2.5-5.6-2.2-8.8c2.6,1.8,5.1,3.8,7.9,5.2
		c2.2,1.1,4.7,1.8,6.9,3.1c0.4,0.2,1.2,0.2,1.4,0c1.3-1.3,2.5,0,4.4,0.1c-1.3-1.3-2.1-2.1-2.8-2.8c0.4-0.9,0.6-1.8,1.1-2.4
		c1-1-1-1.3-0.3-2.1c0.3-0.3,0.3-1,0.6-1.2c1.4-0.9,2.8-1.9,4.5-1.1c2.4,1.2,4,0.2,5.4-1.8c0.1-0.2,0.2-0.6,0.3-0.6
		c3.1-0.1,5.9-1.6,8.6-2.8c3.8-1.7,7.9-2,11.7-3.3c1-0.3,1.8,0.4,2.7,0.7c-0.9,0.7-1.8,1.4-2.6,2.2c-0.7,0.7-0.7,1.6,0,2.3
		c0.6,0.6,1.3,1.1,2,1.5c7.2,3.6,14.4,7.2,21.5,10.9c0.8,0.4,2.2-0.5,2.3,1.1c-0.5,0-0.9,0-1.5,0c0,2.5,0.1,4.8-0.7,7
		c-0.3,0.9-0.6,1.8-0.7,2.7c-0.2,1,0.1,2-0.2,2.9c-1.2,3-0.8,5.8,1,8.4C171.4,189.9,172.4,191.8,174.8,192z"/>
	<path id="XMLID_714_" class="st31" d="M96.8,158.3c-0.3,3.2,0.4,6.1,2.2,8.8c0.9,1.3,0.6,3.3,2.2,4.3c-0.2,2.1,0.4,4,1.3,5.8
		c0.3,0.7-1,1.6-1.8,1.1c-1.4-1-2.2-0.4-3.3,0.8c1.5,0.4,2.9,0.8,4.6,1.3c0,0.2,0,0.7,0,1.1c-0.7,0-1.5-0.1-2.2,0
		c-4.4,0.4-7.9-1.4-10.8-4.5c-2.2-2.2-4.4-4.3-5.9-7.3c-0.8-1.7-2.3-3-3.6-4.5c-3.3-3.6-6.7-7.1-10-10.8c-1.5-1.7-3.2-2.9-5.5-3
		c-1.3-0.1-0.9-0.9-1-1.5c1.2-0.3,1.7-2,3.4-1.6c0.4,0.1,1.1-1,1.2-2c0-1,0.5-2,0.9-2.9c0.1-0.2,0.9-0.2,1.3-0.3
		c1.1,0.1,0.6,0.9,0.8,1.5c-0.7,2.8-0.7,2.8,0.2,3.8c1,1.1,0.4,3.2,3.2,4.2c-1.4-2.5,0.3-3.6,1.2-5c-0.6-0.9-1.1-1.5-1.6-2.2
		c0.1-0.5,0-1.2,0.3-1.3c1.6-1,1.2-2.5,1.2-3.9c0.6,0.3,1.3,0.5,1.9,0.7c1.1,0.4,2.4,0.5,3.2,1.1c2.6,1.9,5.4,3.6,6.9,6.7
		c0.4,0.8,1.4,1.3,2.2,1.9c0.5,0.9,1.1,1.8,1.5,2.7c0.5,1.3,1.6,1.4,2.6,1.8c0.9,0.4,1.8,1.1,2.6,1.8
		C96.3,157.4,96.5,157.9,96.8,158.3z"/>
	<path id="XMLID_713_" class="st6" d="M61.6,145.5c0.3-0.8,0.7-1.7,1.1-2.8c1.1-0.2,2.5-0.4,4-0.6c0.5,2.1-0.1,4-1.7,5.7
		c-0.3-0.3-0.6-0.5-0.9-0.8c-0.8,1-1.7,2-2.5,3.1c-1.1-0.1-0.6-0.9-0.8-1.5c0.4-0.5,0.8-1,1.2-1.6C62.5,146.3,62.6,145.7,61.6,145.5
		z"/>
	<path id="XMLID_712_" class="st3" d="M134.6,175.9c0.9,2,3.4,1.8,4.6,4.1c-1.6,0-2.8,0.2-4-0.1c-0.8-0.2-1.9-0.7-2.2-1.3
		C132.4,177.7,133.1,176.8,134.6,175.9z"/>
	<path id="XMLID_711_" class="st32" d="M59.3,135c0.1,1,0,1.7-1.3,1.5c-0.3,0-0.6,0.5-0.9,0.7c-1.1-0.4-2.8,1-3.2-1.2
		c0-0.1-0.6-0.2-1-0.3c-1.1-0.3-2.2-0.6-3.3-1.3c0.6-0.1,1.2-0.2,1.8-0.2c1.3,0,2.6,0.3,3-1.5c0-0.1,0.7,0,1.1,0
		C56.5,134,58.1,134.2,59.3,135z"/>
	<path id="XMLID_710_" class="st33" d="M60.1,137.3c0.5,0.3,1,0.5,1.5,0.8c0.5,0.3,1,0.5,1.5,0.8c-0.9,1-2.8,1.4-2.4,3.4
		c0,0.3-0.9,1.7-1.9,0.8c-0.5-0.4-0.6-0.3-1.1,0c-0.8,0.7-1.7,1.2-2.6,1.7c-0.1,0.1-0.6-0.5-0.9-0.7c0.9-0.8,1.9-1.5,2.6-2.4
		c0.3-0.3,0-1.1-0.1-2C57.5,138.9,59.5,139.1,60.1,137.3z"/>
	<path id="XMLID_8_" class="st34" d="M35.3,126c0,1.5,0,3,0,4.5"/>
	<path id="XMLID_7_" class="st35" d="M39,128.9c-0.1,0.3-0.5,0.6-0.7,0.9"/>
	<path id="XMLID_701_" class="st13" d="M167.3,93c2.9,1.8,5.8,3.8,9.3,4.5c0.4,0.1,0.8,0.5,1.2,0.7c0.1,0.2,0.1,0.6,0.3,0.6
		c1.9,0.3,3.8,0.3,5.5-0.8c3-1.9,6.7-2.7,8.7-5.7c0.6,0.3,1,0.4,1.3,0.6c0.1,0.5,0,1.1,0.3,1.3c1.2,0.9,2.5,1.7,3.8,2.4
		c3.2,1.6,6.4,3,9.7,4.5c0.6,0.3,1.1,0.5,2,0.9c0-1.4,0-2.4,0-3.4c0-0.2,0.5-0.4,0.7-0.6c0,2-0.1,4,0.1,5.9c0.1,1.3,1.1,2.6,1.1,3.9
		c0.1,3.1,2,4.5,4.7,5.4c0.9,0.3,1.6,0.8,2.4,1.3c1.6,1.6,3.4,2,5.5,0.9c2.1-1.1,4.3-1.8,5.9-3.6c0.2-0.3,0.9-0.2,1.3-0.3
		c11.3,4.8,21.9,10.9,33.1,16.1c-5.4,2.7-10.6,5.3-15.8,7.9c-2.6-1.6-5-2.2-7.8-0.2c-1.9,1.4-4.4,2.1-6.5,3.2
		c-11.9,6-23.7,12-35.7,17.9c-1.4,0.7-1.8,1.3-1.7,2.7c0,4.6,0,9.2,0,13.9c-0.2,0.2-0.5,0.6-0.5,0.6c-6.6-3.3-13.2-6.6-19.7-10
		c-0.1,0,0-0.2,0-0.4c0.3-0.3,0.7-0.7,0.7-0.9c-0.1-0.7-0.7-1.3-0.6-1.9c0.2-1.4-0.6-2.5-1-3.7c-1.2-3.2-3.7-5.3-6-7.5
		c-1.9-1.9-3.8-1.9-6.1-0.2c-0.6,0.5-1.1,0.9-1.9,0.7c-1.3,0.8-2.6,1.4-3.9,2.3c-0.5,0.4-0.9,1-1.4,1.5c-0.5-0.3-1-0.7-1.7-1.2
		c2.9-1.5,5.7-2.9,8.4-4.4c1.3-0.7,2.5-1.1,4-1.3c1.9-0.2,3.7-1,4.7-2.9c2.2,0.4,3.8-1.1,5.6-1.9c0.3-0.1,0.4-1.1,0.6-1.1
		c2.4,0.2,3.8-1.6,5.8-2.3c1.9-0.7,3.5-1.9,5.2-2.8c2.7-1.4,5.7-2.4,8.5-3.9c2.5-1.4,5.5-2,7.7-4.1c0.2-0.2,0.7-0.4,0.9-0.4
		c1.4,0.3,2.2-0.9,3.2-1.3c1-0.4,1.9-0.7,2.8-1.4c0.8-0.7,1.8-1,2.8-1.5c0-2.1-1.1-3.5-3.1-4.5c-12.8-6.3-25.5-12.6-38.2-19
		c-2.2-1.1-4.2-2.4-6.5-3.3c-1.2-0.5-2.2-1.4-3.3-2.2c0.9-0.6,1.7-0.9,2.2-1.5C166.4,91.6,166.7,93.3,167.3,93z M189.1,147.8
		c-0.8-0.1-1.3,0.3-1.9,0.7c-0.6,0.3-1.6,0.1-2.4,0.1c-0.2,4.5-0.2,4.5,4,4.5c0.1,0,0.2,0,0.4,0c0.5-0.5,1-1.1,1.4-1.6
		c1,0.6,1.8,1.2,3.2,2.1c-0.7-1.5-1.2-2.3-0.6-3.4c0.7-1.4,0.1-2.2-1.4-2.3C190.8,147.7,189.9,147.8,189.1,147.8z M194.4,152.8
		c3.1,0.3,3.6,0.2,4.1-0.5c0.5-0.8,0.5-3.1-0.1-3.7c-1.2-1.4-2.7-0.5-4-0.7C194.4,149.6,194.4,151.2,194.4,152.8z"/>
	<path id="XMLID_700_" class="st36" d="M197.3,186c1.8-1.8,4.4-2.3,6.5-3.7c0.4-0.3,1-0.3,1.2-0.6c0.3-0.4,0.7-1.2,0.5-1.6
		c-0.2-0.6-0.8-1.3-1.3-1.5c-1-0.2-2.1-0.1-3.1,0.6c-0.6,0.5-1.5,0.5-2.3,0.8c0-0.8,0-1.5,0-2.3c0.8-0.5,1.5-1,2.3-1.5
		c1.3-0.8,1.9-2,1.4-3.2c-0.4-1.2-1.5-1.4-2.6-1.3c-0.4,0-0.7,0-1.1,0c0-4,0-7.9,0-12.4c3,1,5.2,2.8,7.8,4.3c0.5-0.4,1.1-0.8,2-1.5
		c-1.6-1.2-2.6-1.9-3.7-2.7c0.4-0.4,0.6-0.8,1-0.9c2.6-1.3,5-2.9,7.7-3.9c2.9-1,5.1-3.2,8.1-3.9c1-0.3,1.8-1.3,3.1-1.6
		c1.2-0.2,2.1-1.5,3.2-2.1c4.2-2.1,8.5-4.2,12.7-6.3c1.9-1,3.8-2,6-0.5c0.3,0.2,1.5,0.6,1.7-0.7c1.3,0.5,2.6,1.4,3.9,1.4
		c2.3,0.1,3.8,1.2,5.1,2.8c0,5.6,0,11.2,0,16.8c-1,0-0.7-0.8-0.7-1.3c0-2.8,0-5.6,0-8.6c-0.7,0.2-1.3,0.3-1.3,0.4c0,2-1.1,3.8-1,5.9
		c0.1,4.7,0,9.4,0,14.1c-1.9,1.2-4.3,1.5-6,3c-0.1,0.1-0.5,0-0.7,0c1.1-1.7,1.7-3.6,1.5-5.7c-0.1-2,0-4,0-6c0-3.6,0.1-7.2,0-10.8
		c0-1.6-0.5-3.4-2.2-3.6c-1.7-0.2-2.1-1.2-2.8-2.5c-0.2,0.9-0.3,1.6-0.6,2.8c-0.3-0.9-0.5-1.3-0.7-1.9c-1.5,1.8-4.3,1.4-5.3,3.9
		c-0.3-0.7-0.5-1.1-0.9-1.8c-0.2,1-0.4,1.7-0.6,2.4c-1-0.6,0.4-2.8-1.9-2.1c0.9,1,1,1.9-0.2,2.6c-0.3,0.2-0.8,0.1-1,0.3
		c-0.9,0.7-1.8,1.5-0.4,2.6c0.2,0.1,0,0.7,0,1.1c-1.7,2.3-1.7,2.3-4.4,1.9c-0.8-1.4,1.7-2.6-0.3-4.7c0.7,2.8-1.4,2.8-2.5,3.3
		c-1.3,0.6-2,1.2-1.9,2.6c0,0.2-0.5,0.4-0.7,0.6c-0.3-0.6-0.5-1.3-0.8-1.9c-0.9-1.7-2-3.1-4.1-3.3c-0.4,0.4-0.7,0.7-1.3,1.3
		c1.1,0.9,2.2,1.8,3.6,2.9c-2,1-3.6,1.8-5.3,2.7c-0.3-1.7-1.3-2.5-2.6-2.8c-0.7-0.2-1.4-0.2-2.9-0.3c1.3,1.6,2.2,2.6,3,3.5
		c-0.3,0.8-0.6,1.5-0.9,2.2c1.5,0.2,2.7,0.2,3.1,1.7c0,0.7,0,1.4,0,2.1c1.2,0.1,2.1,0.2,3,0.3c0,3,0,5.8,0,8.6
		c0,0.3,0.5,0.6,0.7,0.9c-0.3,0.7,0.7,1.9-0.8,2.3c-0.1-1.1-0.9-0.6-1.5-0.8c-0.5-0.4-1-0.8-1.6-1.3c0-2.2,0-4.5,0-7.2
		c-0.5,0.5-1.1,0.8-1.1,1.2c-0.4,1.7-0.9,3.4-0.9,5.2c-0.1,3.5,0,6.9,0,10.4c0,2.5,0,5,0,7.5c-1.8-0.3-3.5-1-5.2-1.8
		c-2.1-1.1-4.2-2.5-6.4-3.3c-1.4-0.5-1.9-1.1-1.9-2.5C198.7,185.7,197.8,186.1,197.3,186z"/>
	<path id="XMLID_699_" class="st5" d="M89.3,150.8c-0.7-0.6-1.8-1.1-2.2-1.9c-1.5-3.1-4.3-4.8-6.9-6.7c-0.9-0.7-2.2-0.8-3.2-1.1
		c-0.7-0.2-1.3-0.5-1.9-0.7c-0.2-0.2-0.6-0.4-0.6-0.5c0.6-1.2,1.8-1,2.8-1c0,1,0.9,0.9,1.3,0.7c0.9-0.5,1.7-1.2,2.4-2
		c0.2-0.3-0.1-1.2-0.4-1.6c-0.5-0.7-1.2-1.3-1.8-1.9c1.7-1.9,4.5-2,6.3-3.9c0.3-0.3,1.4-0.1,2,0.1c2.6,1.2,5.1,2.5,7.1,4.7
		c2.8,3,5.9,5.7,8.6,8.8c2.1,2.4,4.8,4,7.5,5.6c1.6,1,3.7,1.3,5.7,1.5c3.8,0.5,7.3-0.4,10.8-1.7c4.1-1.6,8.1-3.4,12.4-4.3
		c0.4-0.1,0.8-0.6,1.2-0.7c1.8-0.3,3.5-0.6,5.3-0.7c1.9-0.1,3.7,0,5.6,0c2.4-0.1,4.8,0,7,1.1c-0.2,0.4-0.5,0.8-0.7,1.2
		c-2.7,1.4-5.4,2.8-8.3,3.8c-0.9-0.4-1.6-1.1-2.7-0.7c-3.9,1.3-7.9,1.7-11.7,3.3c-2.7,1.2-5.4,2.7-8.6,2.8c-0.1,0-0.2,0.4-0.3,0.6
		c-1.4,0.3-2.8,0.6-4.2,0.7c-1.5,0.1-3,0-4.5,0c-0.5,0-1-0.1-1.5,0c-3.6,0.7-6.5-1.4-9.3-2.8c-2.7-1.3-5.2-3.4-7.4-5.7
		c-1.2-1.3-2.3-2.7-3.8-3.6c-0.9-0.6-1.5-1.5-2.4-2.1c-1.1-0.8-2.2-0.8-3.4-0.6c-0.6,1.3-1.2,2.5-1.8,3.8
		C88.9,146.7,91.2,148.2,89.3,150.8z"/>
	<path id="XMLID_698_" class="st37" d="M198.8,177.8c0,0.8,0,1.5,0,2.3c-0.6,1.3-2.2,0.8-3.2,1.9c-0.8,1-2.4,1.3-3.6,1.9
		c-1.1,0.5-2.3,1-3.4,1.6c-1.2,0.6-2.4,1.4-3.6,2.1c-1.1,0.6-2.3,1.1-3.4,1.6c-0.2,0.1-0.5,0-0.7,0c-0.1-0.2-0.2-0.6-0.3-0.6
		c-2.7,0-4.3-2-5.9-3.7c-0.4-0.4-0.7-1.3-0.5-1.6c0.9-1.6,0.1-3.6,0.8-4.8c0.9-1.3,0.3-2.7,1.2-4c0.7-1.1,0.2-3.1,0.2-4.7
		c1.2-0.3,2,0.6,2.9,1.1c5.9,2.9,11.7,5.9,17.6,8.8C197.4,178.6,197.3,177.2,198.8,177.8z"/>
	<path id="XMLID_697_" class="st38" d="M134.3,126c-2.2-1.4-4.5-2.4-6.8-3.8c-1-0.8-2-1.5-3-2.3c0-0.3,0-0.5,0-0.8
		c1,0,0.8-0.8,0.7-1.3c-0.2-2.8-0.5-5.6-0.7-8.5c0.8-1.4,1.6-2.8,2.3-4.2c1-2.1,2.7-3.4,4.4-4.8c1.6,0.5,0.4,1.2,0.1,2
		c0.9,0.4,1.9,0.8,3,1.2c1.1-1.9,2.2-3.7,3.4-5.7c1.3,0.6,2.7,1.1,4.3,1.8c0.6-1.1,1.3-2.2,2-3.4c1.1-2.1,1.7-2.3,3.8-1.4
		c0.7,0.3,1.5,0.7,2.2,1c1.7-0.1,2.8,1.4,4.4,1.8c0.8,0.2,1.6,0.3,2.4,0.5c0.5,0.5,0.8,1.2,1.4,1.5c3.4,1.3,6.6,3.2,10,4.6
		c1.4,0.6,2.4,1.9,3.6,2.9c0,0.5,0,1,0,1.5c-1.1,0.9-2.1,0.9-3-0.3c-0.3-0.4-0.5-0.8-0.8-1.2c-1.5-1.7-3.7-2.1-5.6-3.1
		c-5.4-2.6-10.6-5.4-16-8.2c-1.1,1.8-2.1,3.4-3.3,5.1c2.3,1.1,4.4,2.1,6.5,3.1c2.1,1,4.3,2.1,6.4,3.1c-1,0.5-1.8,0.4-2.4,0.1
		c-2-0.9-3.9-1.9-5.9-2.9c-2.5-1.2-5-2.4-7.4-3.7c-0.9-0.5-1.7-0.8-2.2,0.1c-0.9,1.4-1.6,2.9-2.6,4.7c2.3-0.1,3.5,1.2,4.8,2.4
		c0,0.1,0,0.3,0,0.4c0,0.1-0.2,0.3-0.2,0.3c-3-1.5-5.9-3-9.2-4.6c-1.4,2.4-2.8,4.8-4.2,7.3c0.8,0.7,1.6,1.3,2.4,1.9
		c-0.7,0-1.4,0-2.2,0c0,2.1,0,3.9,0,5.7c2.4,2.6,6,3.3,9.5,5.5C134.5,124.2,134.2,124.9,134.3,126z"/>
	<path id="XMLID_696_" class="st39" d="M248.3,139.5c-0.1,1.3-1.4,0.9-1.7,0.7c-2.2-1.5-4-0.4-6,0.5c-4.2,2.1-8.5,4.1-12.7,6.3
		c-1.1,0.6-2.1,1.9-3.2,2.1c-1.3,0.2-2.1,1.3-3.1,1.6c-3,0.8-5.2,2.9-8.1,3.9c-2.7,0.9-5.2,2.5-7.7,3.9c-0.3,0.2-0.5,0.5-1,0.9
		c1.1,0.8,2.1,1.6,3.7,2.7c-0.9,0.7-1.4,1.1-2,1.5c-2.5-1.5-4.7-3.2-7.8-4.3c0,4.5,0,8.4,0,12.4c-0.2,0.3-0.5,0.5-0.8,0.8
		c0-4.4,0-8.7,0-13.2c14.4-7.2,28.9-14.4,43.3-21.5c2.5-2.4,4.7-0.5,6.9,0.6C248.4,138.5,248.3,139.1,248.3,139.5z"/>
	<path id="XMLID_695_" class="st5" d="M176.3,169.5c0,1.6,0.6,3.6-0.2,4.7c-0.9,1.3-0.3,2.7-1.2,4c-0.8,1.2,0.1,3.2-0.8,4.8
		c-0.2,0.3,0.2,1.2,0.5,1.6c1.6,1.7,3.2,3.7,5.9,3.7c0.1,0,0.2,0.4,0.3,0.6c-1.7,1.5-3.8,2.4-6,3c-2.4-0.2-3.4-2.1-4.5-3.8
		c-1.7-2.6-2.1-5.4-1-8.4c0.3-0.9,0.1-1.9,0.2-2.9c0.1-0.9,0.4-1.8,0.7-2.7c0.9-2.2,0.8-4.4,0.7-7c0.6,0,1,0,1.5,0
		C173.7,168.1,175.4,168.2,176.3,169.5z"/>
	<path id="XMLID_694_" class="st40" d="M161.3,150c0.8,0.1,1.3-0.3,1.9-0.7c2.3-1.8,4.1-1.7,6.1,0.2c2.3,2.2,4.9,4.4,6,7.5
		c0.4,1.2,1.2,2.3,1,3.7c-0.1,0.6,0.5,1.3,0.6,1.9c0,0.3-0.5,0.6-0.7,0.9c-2.2-0.6-4.3-1.5-6-3c0.4-2.2-1.3-3.4-2.4-4.9
		c-1.5-2.1-3.7-3.2-6.1-4.1C161,151.2,161.4,150.5,161.3,150z"/>
	<path id="XMLID_693_" class="st27" d="M196.6,173.3c0-4.6,0-9.2,0-13.9c0-1.4,0.4-2,1.7-2.7c11.9-5.9,23.8-11.9,35.7-17.9
		c2.2-1.1,4.6-1.8,6.5-3.2c2.8-2,5.3-1.5,7.8,0.2c0,0.3,0,0.5,0,0.8c-0.4,0-0.9,0.2-1.1,0c-2.1-2.2-4-1.2-6.3,0
		c-13.6,6.9-27.3,13.6-41,20.3c-2.6,1.3-2.6,1.3-2.6,4.5c0,4,0,8,0,12C197.1,173.3,196.8,173.3,196.6,173.3z"/>
	<path id="XMLID_692_" class="st41" d="M161.3,150c0.1,0.5-0.3,1.2,0.6,1.5c2.3,0.9,4.6,2,6.1,4.1c1,1.5,2.7,2.7,2.4,4.9
		c-0.8,0.1-1.3-0.4-1.9-0.7c-3-1.6-6.1-3.2-9.3-4.5c-1.1-0.5-1.5-2.1-3.1-1.6c0.5-0.5,0.8-1.1,1.4-1.5
		C158.7,151.4,160,150.8,161.3,150z"/>
	<path id="XMLID_689_" class="st13" d="M295.6,54.8c0.1,1.1,0.9,0.6,1.5,0.8c-0.4,0.5-0.6,1.2-1.1,1.4c-3.3,1.7-6.7,3.2-10.1,4.9
		c0,21.8,0,43.6,0,65.8c-1.4,0.8-2.8,1.5-4.3,2.3c-6.4,3.4-12.7,6.7-19.1,10c-1.4,0.7-3,1.3-4.5,1.9c-0.4-0.5-0.7-1.1-1.1-1.5
		c-0.4-0.4-1-0.5-1.5-0.8c-0.6-0.3-1.2-0.5-1.9-0.8c1.2-1.3,3-2.6,5.3-3.3c2.8-0.9,4.7-3.6,7.9-3.5c0.1,0,0.2-0.2,0.3-0.3
		c0.4-2.2,2.6-1.4,3.8-2.3c0.2-1.2-0.4-1.9-1.4-2.6c-2.7-1.8-5.8-3-8.7-4.4c-9.6-4.7-19.3-9.5-28.9-14.3c0.3-3.3-2-6.2-1.5-9.4
		c-1-1-1.7-1.9-2.6-2.5c-1.3-0.8-2.4-2.3-4.2-2.4c-0.2-0.2-0.4-0.6-0.5-0.6c-0.3,0.1-0.5,0.9-1,0.1c-0.6-0.8-2.6-1.3-3.6-0.8
		c-0.7,0.3-1.9,1.3-2,1.2c-1.3-1.4-1.1,0.1-1.4,0.6c0,0.1-0.2,0.1-0.2,0.1c-0.4-0.6-0.9-0.8-1.3,0c-0.3,0.5-0.4,1.1-0.5,1.6
		c-0.1,1.1-0.9,0.6-1.5,0.8c-0.5,0.2-1,0.5-1.5,0.8c-3-0.8-5.7-2.4-8.3-4.1c0.8-0.7,1.4-1.7,2.1-1.9c4.1-1.1,7.6-3.4,11.3-5.3
		c2.3-1.1,2.4-2.1,0.6-3.7c-0.4-0.4-1-0.5-1.5-0.8c-2.9-1.5-5.7-3-8.6-4.5c-2-1-4-1.9-6-2.8c0-0.5,0-1.1,0-1.7
		c0.4-0.2,1-0.8,1.1-0.7c1.4,1.4,3.4,1.2,4.9,2.2c0.3,0,0.5,0,0.8,0c0.3,0.5,0.7,1.3,1.1,1.4c2.1,0.2,3.6,1.4,5.3,2.4
		c1.8,1,3.7,1.8,5.6,2.6c2.9,1.2,5.3,3.3,8.3,4.2c0.8,1.2,1.9,1.5,3.3,1.5c1,0,1.9,0,2.6-1c0.2-0.3,0.9-0.6,1.2-0.5
		c1.1,0.3,1.8-0.5,2.7-0.8c2.3-0.8,4.3-2.3,6.5-3.4c3.6-1.9,7.3-3.6,10.8-5.6c7.1-4,14.6-7.1,21.6-11.3c3.8-2.2,7.8-4.2,11.7-6
		c2.1-0.9,3.3-2.2,3.6-4.7c0.8,0.2,1.4,0.4,2.1,0.6C293.6,53.9,294.3,55,295.6,54.8z M235.6,98.7c2.3,1.3,3.9-0.5,5.6-1.4
		c0.3-0.1,0.3-1.7,0-1.9c-1.7-0.9-3.3-2.6-5.6-1.4C235.6,95.6,235.6,97.2,235.6,98.7z"/>
	<path id="XMLID_688_" class="st42" d="M303.1,53.3c-1.6,0.1-3.1-0.1-4.5-1.1c0-3.3,0-6.6,0-9.9c0-0.3,0.5-0.6,0.7-1
		c0.8-0.1,1.3,0.4,1.9,0.7c3.7,1.8,7.4,3.5,11.2,5.3c0.4,0.2,0.7,0.7,1.1,1.1C310,50,306.5,51.6,303.1,53.3z"/>
	<path id="XMLID_687_" class="st17" d="M261.1,146.3c-0.9,1-0.8,2.2-0.8,3.4c0,7.5,0,15,0,22.4c-1.2,1.3-2.5,2.6-4.5,2.6
		c0.3-1.6,2.2-1.4,3-2.7c0-8.9,0-18.1,0-27.3c0.3,0.2,0.7,0.4,0.7,0.6C259.5,146.6,260.4,146.2,261.1,146.3z"/>
	<path id="XMLID_686_" class="st43" d="M124.6,109.5c0.3,2.8,0.5,5.6,0.7,8.5c0,0.5,0.3,1.3-0.7,1.3c-2.5,0-4.9,0-7.4,0
		c-2.6,0-5.1-0.6-7.4-1.8c-0.9-0.5-1.6-0.3-2.4-0.4c0.4-1.5,2-0.5,2.9-1.4c1-1,2.4-1.5,2.3-3.2c-0.1-1.8-1.2-2.7-2.8-1.9
		c-1.3,0.6-2.6,1.4-3.9,2c0-2.4,0-4.7,0-7.1c0-0.1,0.1-0.2,0.2-0.3c0.8,0.6,0.8,1.9,2.2,2.2c1.5,0.3,2.8,1.9,4.3,2
		c2.9,0.3,5.6,1.4,8.6,0.9C122.3,110.1,123.3,109.1,124.6,109.5z"/>
	<path id="XMLID_685_" class="st44" d="M135.8,96.8c-0.3,0.2-0.6,0.7-1,0.7c-1.9,0.1-3.7,0-5.6,0.1c-0.3,0-0.6,0.5-1,0.7
		c-3.6-1.1-7.2-1.9-11.1-1.4c0-1.6,0-3,0-4.9c2,2.5,4.5,3.7,7.2,4.3c0.8,0.2,1.6,0.5,2.4,0.5C129.8,96.8,132.8,96.8,135.8,96.8z"/>
	<path id="XMLID_683_" class="st12" d="M193.6,93c-0.3-0.1-0.6-0.3-1.3-0.6c-2,2.9-5.7,3.8-8.7,5.7c-1.7,1.1-3.6,1.1-5.5,0.8
		c-0.1,0-0.2-0.4-0.3-0.6c0.7-0.1,1.5,0,2.1-0.3c2-0.9,3.9-1.8,5.8-2.8c0.5-0.3,0.7-0.9,1.1-1.4c0.8-0.5,1.5-1,2.3-1.5
		c0.8-0.7,1.6-1.3,2.1-1.7c0.7-3.8-2-6.7-1.6-10.1c-1.7-2,0.2-3.2,0.9-4.7c0.5,0.1,1.4-0.3,1.5,0.6c0.1,1.3,0.9,0.9,1.5,0.9
		c-0.2,0.3-0.3,0.6-0.6,0.7c-1.6,1-2.3,1.9-1.6,3c1.1,1.5-0.1,3.4,1.2,4.7c1.4,1.4,0.5,3.4,1.3,5c0,0.1,0.2,0,0.4,0
		C194.1,91.5,193.8,92.3,193.6,93z"/>
	<path id="XMLID_682_" class="st30" d="M190.6,75.8c-0.8,1.5-2.7,2.7-0.9,4.7c-0.5,3.4,2.3,6.2,1.6,10.1c-0.5,0.4-1.3,1.1-2.1,1.7
		c-0.1-0.5,0.4-1.3-0.6-1.5c-0.6-0.1-1.1-0.1-1.7-0.2c0.3-1.1,0.6-1.9,0.8-2.7c-0.2-0.1-0.4-0.1-0.7-0.2c-0.4,1.3-0.8,2.5-1.2,3.8
		c-1.4-0.9-1.5-2.3-0.8-3.5c0.5-0.9,0.3-1.6,0.5-2.4c1.3,0,2.5-0.1,3.8-0.1c-0.6-0.9-1.1-1.5-1.6-2.2c0-0.3,0-0.5,0-0.8
		c0.2-0.2,0.7-0.4,0.7-0.6c0-2.2,0.4-4.5-1.1-6.9c1.2,0,1.9,0,2.6,0C190.1,75.3,190.3,75.5,190.6,75.8z"/>
	<path id="XMLID_681_" class="st26" d="M187.6,83.3c0.5,0.6,0.9,1.3,1.6,2.2c-1.3,0-2.6,0.1-3.8,0.1c-1.7,0.8-2.6,2-2.3,3.9
		c0,0.1-0.5,0.4-0.7,0.6c-0.2-0.1-0.4-0.2-0.6-0.3c-0.2-0.1-0.4-0.3-0.7-0.6c-0.1,0.8-0.2,1.5-0.4,2.2c-0.2-0.1-0.5-0.1-0.5-0.2
		c-0.1-0.6-0.3-1.4,0-1.8c1.8-2.9-0.1-5.4-0.9-8c-0.1-0.5-0.5-0.9-1.1-2c2.1,1.7,2.9,3.2,3.8,7.3C182.7,83.1,185.1,83.1,187.6,83.3z
		"/>
	<path id="XMLID_680_" class="st45" d="M182.3,90c0.3-0.2,0.7-0.4,0.7-0.6c-0.3-1.9,0.6-3.2,2.3-3.9c-0.1,0.8,0.1,1.6-0.5,2.4
		c-0.7,1.2-0.6,2.6,0.8,3.5c0.4-1.2,0.8-2.5,1.2-3.8c0.2,0.1,0.4,0.1,0.7,0.2c-0.2,0.8-0.5,1.6-0.8,2.7c0.6,0.1,1.2,0.1,1.7,0.2
		c0.9,0.2,0.5,1,0.6,1.5c-0.8,0.5-1.5,1-2.3,1.5c-0.4-0.2-2.1,0.6-0.7-1.3C184.4,92.3,182.9,91.7,182.3,90z"/>
	<path id="XMLID_679_" class="st46" d="M231.8,108c9.6,4.8,19.3,9.5,28.9,14.3c2.9,1.4,5.9,2.6,8.7,4.4c1.1,0.7,1.6,1.4,1.4,2.6
		c-1.2,0.9-3.4,0.1-3.8,2.3c0,0.1-0.2,0.3-0.3,0.3c-3.2-0.1-5.2,2.6-7.9,3.5c-2.3,0.8-4.1,2.1-5.3,3.3c-2.1,0-3.4-1.7-5.3-2.3
		c0-0.3,0-0.5,0-0.8c5.2-2.6,10.5-5.2,15.8-7.9c-11.2-5.2-21.8-11.3-33.1-16.1c-0.1-1.2-1.1-0.5-1.6-0.8c-0.6-0.4-1-1-1.4-1.5
		c-0.6-0.1-1.5,0.3-1.5-0.9c0-1.6,0.8-2.1,2.3-2.1c0.2,0.3,0.3,0.6,0.5,0.7C230.1,107.5,231,107.8,231.8,108z"/>
	<path id="XMLID_678_" class="st47" d="M247.6,174c0.2,0,0.6,0.1,0.7,0c1.8-1.5,4.1-1.8,6-3c1,0,0.7-0.8,0.7-1.3c0-2.5,0-5.1,0-8.4
		c0.9,0.9,1.4,1.2,1.5,1.6c0.1,3,0,5.9,0,8.9c-2.5,2.1-5.6,3-8.4,4.5c-5.3,2.8-10.7,5.5-16,8.3c-5.7,2.9-11.3,5.8-17,8.7
		c-0.4,0.2-0.9,0.2-1.4,0.3c-0.2-0.1-0.6-0.2-0.6-0.3c-0.2-1.4-0.3-2.8,0-4.2c0.6,0,1,0,1.3,0c0.6,1.6,2.1,0.9,2.7,0.6
		c1.6-1,3.3-1.7,4.8-2.8c2.7-1,5.3-2.2,7.7-3.7c0.8-0.5,0.4-1,0.5-1.5c0.3,0,0.5,0,0.8,0c0.6-0.3,0.7,0.8,1.7,0.3
		c2.5-1.2,4.8-3.1,7.8-3.5c0.1,0,0.2-0.9,0.3-1.3c0.2-0.5,0.5-1,0.8-1.5c0.8,0.3,1.8,0.9,2.3,0.7C245.1,175.5,246.7,175.3,247.6,174
		z"/>
	<path id="XMLID_677_" class="st48" d="M208.6,195c-1.3-0.4-2.7-0.7-3.9-1.3c-2.5-1.4-5-1.9-7.8-1.7c-3,0.2-5.9,0.1-8.9,0
		c-1.1,0-1.8,0.4-2.7,0.8c0.1-0.7-0.2-1.2,0.9-1.6c3.3-1.3,6.4-2.9,9.6-4.4c0.5-0.2,1-0.5,1.5-0.7c0,0.9,0,1.7,0,2.7
		c2.2,1.2,4.4,2.4,6.7,3.5c1,0.5,2.2,0.7,3.2,1.3C207.7,193.8,208.1,194.5,208.6,195z"/>
	<path id="XMLID_676_" class="st49" d="M256.6,171.8c0-3,0-5.9,0-8.9c0-0.3-0.6-0.7-1.5-1.6c0,3.3,0,5.9,0,8.4
		c0,0.5,0.3,1.3-0.7,1.3c0-4.7,0.1-9.4,0-14.1c-0.1-2.1,1-3.9,1-5.9c0-0.1,0.6-0.2,1.3-0.4c0,3,0,5.8,0,8.6c0,0.5-0.3,1.3,0.7,1.3
		c0,3.3,0,6.6,0,9.9C257.3,171,257.6,171.7,256.6,171.8z"/>
	<path id="XMLID_675_" class="st50" d="M214.6,189c-0.4,0-0.7,0-1.3,0c-0.3,1.4-0.2,2.8,0,4.2c0,0.1,0.4,0.2,0.6,0.3
		c-0.1,1.1-0.9,0.6-1.5,0.8c0-2.5,0-5,0-7.5c1.6-0.6,0.6-1.9,0.7-2.8c0.2-1.2,0.3-2.1,1.6-2.5C214.6,184,214.6,186.5,214.6,189z"/>
	<path id="XMLID_674_" class="st3" d="M107.3,117c0.8,0.1,1.6,0,2.4,0.4c2.3,1.2,4.8,1.8,7.4,1.8c2.5,0,4.9,0,7.4,0
		c0,0.2,0,0.5,0,0.8c0,1-0.8,0.7-1.3,0.7c-2.1,0-4.2,0.1-6.2,0c-2-0.1-4-0.5-5.9-0.7c-1.1-1.1-2-2.4-3.8-2.3
		c-0.2-0.2-0.4-0.3-0.6-0.5C106.9,117.2,107.1,117.1,107.3,117z"/>
	<path id="XMLID_673_" class="st51" d="M324.1,123c1.2-1.4,3-2,4.6-2.6c1.2-0.5,1.5-1.4,2-2.2c0.7-1.3-0.2-2.6-1.8-2.7
		c-2-0.1-3.8,0.1-4.8,2.2c-0.8,0.2-1.6,0.2-2.3,0.5c-2.2,1-4.4,2.2-6.7,3.2c-0.7-1.7-2.5-2.1-3.8-3c-2-1.3-3-2.9-3-5.3
		c0-4.2,0-8.5,0-12.7c1.2,1.1,2.3,2.3,3.6,3.1c1.2,0.8,2.7,1.3,4.1,1.9c1.3,0.6,2.6,1,4.1,1.1c2,0.1,4.1,0.3,6,0.9
		c2.2,0.8,4.4,0.2,6.5,0.5c0.8-1,2-0.6,3.1-0.8c1.2-0.2,2.3-0.7,3.4-0.7c2.6,0.1,4.6-1,6.5-2.4c1.6-1.1,3.2-2.3,4.8-3.4
		c0.4-0.9-0.7-2.1,0.8-2.5c0,4.2-0.1,8.5,0,12.7c0.1,4.2-1.9,7-5.5,8.9c-4,2-8.2,3.4-12.9,3.2c-1,0-2.1-0.4-3.1,0.6
		c-0.4,0.4-1.8,0.2-2.4-0.2C326.2,122.7,325.1,123.2,324.1,123z"/>
	<path id="XMLID_672_" class="st52" d="M351.1,98.3c-1.5,0.4-0.4,1.7-0.8,2.5c-1.6,1.1-3.2,2.3-4.8,3.4c-2,1.4-4,2.5-6.5,2.4
		c-1.1-0.1-2.3,0.5-3.4,0.7c-1.1,0.1-2.2-0.2-3.1,0.8c-2.1-0.3-4.3,0.3-6.5-0.5c-1.8-0.6-4-0.8-6-0.9c-1.5-0.1-2.8-0.5-4.1-1.1
		c-1.4-0.6-2.8-1.1-4.1-1.9c-1.3-0.9-2.4-2.1-3.6-3.1c0-0.6,0.3-1.4,0-1.8c-1.5-1.8-0.4-3,0.8-4.2c0,0.5,0,0.9,0,1.5
		c1-0.6,1.8-1,2.6-1.5c1.6-0.9,3.2-1.8,5-2.3c1.9-0.5,3.7-1.7,5.8-1.4c2,0.3,3.8-0.5,5.7-0.8c3.7-0.5,7.3,1,10.9,0.8
		c0.2,0,0.4,0.2,0.6,0.3c3.7,1.4,7.6,2.5,10.6,6.2c0-1.1,0-1.5,0-2c0.2,0.3,0.7,0.6,0.7,0.9C351.1,96.8,351.1,97.5,351.1,98.3z"/>
	<path id="XMLID_671_" class="st53" d="M350.3,95.3c0,0.5,0,0.9,0,2c-3-3.7-6.9-4.8-10.6-6.2c-0.2-0.1-0.4-0.3-0.6-0.3
		c-3.7,0.2-7.2-1.3-10.9-0.8c-1.9,0.3-3.7,1.1-5.7,0.8c-2.1-0.3-3.9,0.8-5.8,1.4c-1.9,0.5-3.4,1.4-5,2.3c-0.8,0.5-1.6,0.9-2.6,1.5
		c0-0.5,0-1,0-1.5c2.2-2.6,4.5-4.1,8.5-5.2c3-0.8,6-1.7,9.1-1.5c2.1,0.1,4.2,0,6.4,0c2.2,0,8.9,1.6,11.3,2.6
		C346.7,91.5,348.9,92.9,350.3,95.3z"/>
	<path id="XMLID_667_" class="st54" d="M202.6,40.5c0,2.5-0.1,5,0,7.5c0,0.8,0.4,1.5,0.8,2.7c2.6-2.8,0.8-5.8,1.7-8.7
		c1.6-0.9,3.6-2,5.5-3c0.6-0.3,1.4,0.3,2,1.4c0.9-1,1.8-2,2.7-2.9c-0.2,1.2,0.3,1.7,1.5,1.5c-1.1,2.4-3.7,2-5.6,3
		c0,0-0.2-0.1-0.3-0.2c0.1-0.2,0.2-0.3,0.3-0.5c0.1-0.2,0.2-0.3,0.2-0.5c-1.5,0.3-2.2,0.6-3.7,1.7c0.5,0.2,1,0.5,1.5,0.7
		c-0.2,0.2-0.5,0.4-0.5,0.6c-0.1,3.2-0.2,6.4-0.2,9.6c0,0.3,0,0.5,0,0.8c1,1.2,2.5,1.6,3.9,2.3c0.9,0.4,1.5,1.1,1.3,2.2
		c0.1,1,0.2,1.9,0.3,2.9c0,0.3,0.3,0.6,0.2,0.8c-0.6,0.8-1.3,1.6-1.9,2.3c-1.1,1.3-1.3,2.6-0.8,3.8c0.7,1.1-1.4,2.3,0.1,3.5
		c-0.4,0.1-0.7,0.1-1,0.3c-2.3,1-2.3,1-3.5-0.9c-0.5-0.8-1.2-1.5-1.8-2.2c-0.9,1.4-2.3,0.6-3.4,0.8c0.1-2.2-1.8-2.6-3.1-3.5
		c-0.1-0.1-0.3,0-0.7,0c0.2,0.9,0.4,1.7,0.6,2.5c-0.4,0.1-0.9,0.3-1.3,0.4c0,1.5,0,2.8,0,4.2c-0.8-0.5-1.5-1-2.3-1.5
		c0.5,0,0.9,0,1.6,0c0-7.9,0-15.6,0-23.2c1.4-0.2,2.3-0.1,2.9,1.6c-0.9-0.3-1.5-0.5-2.3-0.7c0.1,2-0.2,4,0.5,5.6
		c0.4,1,2.3,1.5,3.5,2.2c0.1,0.1,0.3,0.1,0.7,0.2c-0.3-2.2,0.5-4.4-0.7-6.4c-0.2-0.8,2,0.6,0.9-1.1c-0.3-0.4-0.1-1.2-0.4-1.7
		c-0.3-0.5-1-0.8-1.5-1.2c0.5,0,0.9,0,1.5,0c0-2.1,0-3.9,0-5.8C201.8,41.1,202.3,40.8,202.6,40.5z M206.3,60.8
		c0.8,1.3,1.8,2.4,2.6,2.9c0.4-0.4,1.1-0.7,1.1-1c0.1-1.9,0.2-3.8,0-5.6c-0.1-0.6-1-1.1-1.9-2.2c-0.1,1.2-0.2,1.8-0.3,2.3
		c-0.2,1-1,0.5-1.5,0.6c-0.5,0-0.9,0-1.5,0c0-1.6,0-2.9,0-4.2c-0.8-0.3-1.5-0.6-2.3-1c0,2.1,0,4.1,0,6.1c0,1.5,0.6,2,2.3,2.1
		C205.3,60.8,205.8,60.8,206.3,60.8z M197.4,64.5c1.3,0.7,2.8,1.5,4.3,2.2c0-1.6,0-2.9,0-4.4c-1.4-0.7-2.8-1.5-4.3-2.3
		C197.4,61.5,197.4,62.9,197.4,64.5z"/>
	<path id="XMLID_666_" class="st55" d="M219.1,37.5c0.3-0.9,0.9-1.2,1.7-1.6c3.6-1.6,7-3.4,10.5-5.2c3.5-1.7,7-3.5,10.5-5.2
		c3.5-1.7,7-3.5,10.5-5.3c0.4-0.2,0.8-0.5,1.2-0.7c1.1,1.2,2,1.7,3,1.5c2.3-0.4,1-2.6,1.7-3.8c0.5,0,0.9,0,1.3,0
		c1.1,2.3,1.1,2.7-0.6,4c-1.2,0.9-2.5,1.7-3.9,2.4c-6.2,3.3-12.7,6.2-18.8,9.8c-4.3,2.5-8.9,4.5-13.3,6.6c-0.7,0.3-1.5,0.3-3.1,0.7
		C222.4,38,218.9,38.8,219.1,37.5z"/>
	<path id="XMLID_665_" class="st44" d="M259.6,17.3c-0.4,0-0.7,0-1.3,0c-0.7,1.1,0.6,3.4-1.7,3.8c-0.9,0.2-1.9-0.3-3-1.5
		c0.3-1.1,0.6-2.2,0.7-3.3c0.1-1.2,0-2.4,0-3.6c0-0.5-0.2-1.3,0.7-1.3c0,3,0,5.9,0,8.9c1.7-0.3,1.8-0.7,2.6-7.5
		c0.3,0.6,0.5,1.1,0.7,1.4c0.9-0.3,1.9-0.4,2.7-0.8c0.8-0.4,1.6-1,2.6-1.7c-1.2-0.2-1.9-0.3-2.8-0.5c1.1-0.5,1.9-0.9,2.8-1.4
		c0.7,1.1,0.2,2.9,1.9,3.2c-1,0.7-2,1.4-2.9,2c0,2.8,0,5.6,0,8.4c0.5,0,0.8,0,1.4,0c0-1.5,0.2-3,0-4.4c-0.3-1.8,0.7-2.9,1.9-3.6
		c1.6-1,3.5-1.6,5.4-2.5c0.2,1.2,0.3,2.1,0.4,3.2c0.6-0.3,1-1.4,1.3,0c0,0.1,0,0.3,0,0.4c-3.5,0.8-4.2,3.3-3.8,6.4
		c0,0.2,0,0.5,0,0.7c0,2.5,0,2.5,1.5,4.5c-1.5,0.5-1.9-1.3-2.9-1.5c-1.6,0.8-3.1,1.5-4.6,2.3c-0.6-0.1-1.4,0.4-1.5-0.8
		c0.2-0.3,0.3-0.6,0.6-0.7c1.5-0.9,3.1-1.5,4.5-2.5c1.8-1.4,1.5-2.2-0.9-3.5c-0.6,2.2-0.6,2.2-2.9,3.9c-0.4-0.5-0.8-1.1-1.2-1.6
		c-1.2-1.9-1.1-3.8-0.1-6C260.9,17.3,260.2,17.3,259.6,17.3z"/>
	<path id="XMLID_664_" class="st56" d="M259.6,17.3c0.7,0,1.4,0,2.2,0c-1,2.2-1.1,4.1,0.1,6c-1.3,0-2.6-0.1-3.8,0.7
		c-1.5,1.1-2.9,2.4-5,2.4c-1,1.6-3.1,1.6-4.4,2.9c-2.2-0.3-3.3,1.6-5,2.4c-5.3,2.3-10.3,5-15.5,7.6c-0.8,0.4-1.6,1-2.7,1.6
		c2.2,0.9,1.8,2.6,1.8,4.1c-0.3,0-0.5,0-0.8,0c0-1.2,0.2-2.5-1.4-3c-2,1-4,2-6.1,3c-0.2-0.3-0.4-0.7-0.6-0.7c-1.3,0-0.9-0.9-0.9-1.5
		c0.7,0.3,1.4,0.5,2,0.8c0-1.7,0-3.1,0-4.5c-1.1,0-1.9,0-2.8,0c0.8-0.5,1.5-1,2.3-1.5c-0.2,1.3,3.3,0.5,0.7,3.2
		c1.6-0.4,2.5-0.4,3.1-0.7c4.5-2.2,9.1-4.2,13.3-6.6c6.1-3.6,12.6-6.5,18.8-9.8c1.3-0.7,2.7-1.5,3.9-2.4
		C260.7,19.9,260.6,19.6,259.6,17.3z"/>
	<path id="XMLID_663_" class="st39" d="M265.6,12.8c-1.8-0.3-1.2-2.1-1.9-3.2c-0.9,0.5-1.8,0.9-2.8,1.4c0.9,0.2,1.6,0.3,2.8,0.5
		c-1.1,0.7-1.8,1.3-2.6,1.7c-0.8,0.4-1.7,0.5-2.7,0.8c-0.1-0.3-0.4-0.8-0.7-1.4c-0.8,6.7-0.9,7.2-2.6,7.5c0-3,0-5.9,0-8.9
		c0-0.3,0-0.5,0-0.8c2.3-0.7,4.6-1.5,6.7-2.6c1.6-0.9,3.2-1.5,5.3-0.9c0,1.4,0,2.8,0,4.3C266.6,11.8,266.1,12.3,265.6,12.8z"/>
	<path id="XMLID_662_" class="st57" d="M295.6,54.8c-1.2,0.3-1.9-0.8-2.9-1.1c-0.7-0.2-1.3-0.4-2.1-0.6c-0.3,2.4-1.5,3.7-3.6,4.7
		c-4,1.8-8,3.8-11.7,6c-7,4.2-14.5,7.3-21.6,11.3c-3.5,2-7.2,3.7-10.8,5.6c-2.1,1.1-4.1,2.6-6.5,3.4c-0.9,0.3-1.6,1-2.7,0.8
		c-0.4-0.1-1,0.2-1.2,0.5c-0.7,1-1.6,1-2.6,1c-1.3,0-2.5-0.3-3.3-1.5c1.7-0.1,3.6,0.5,4.9-1.4c0.2-0.3,1.1,0,1.7-0.1
		c0.3-0.1,0.6-0.5,0.9-0.7c0.5-0.1,1-0.1,1.4-0.3c10.3-5.2,20.6-10.5,30.8-15.8c1-0.5,2.6-0.5,3.1-1.9c0.5-0.1,1-0.1,1.4-0.3
		c3.4-1.6,6.9-3.2,10.2-5c2.5-1.4,5.6-2.2,7.4-5.4c0-0.6,0-1.7,0-2.8c2.3,0.7,4.4,1.5,6.6,2.2C295.1,53.8,295.3,54.2,295.6,54.8z"/>
	<path id="XMLID_661_" class="st58" d="M294.8,53.3c-2.2-0.7-4.3-1.4-6.6-2.2c0,1.1,0,2.1,0,2.8c-1.8,3.2-4.8,3.9-7.4,5.4
		c-3.3,1.9-6.8,3.4-10.2,5c-0.4,0.2-0.9,0.2-1.4,0.3c0.3-0.5,0.5-1,0.8-1.5c0.5-0.1,1-0.1,1.4-0.3c3.4-1.6,6.9-3.2,10.2-5
		c2.1-1.1,4.4-2,5.7-4.4c-0.8-0.5,0.9-1.9-0.8-2.3c0-0.8,0-1.5,0-2.3c0.3,0.2,0.6,0.4,0.9,0.5c1,0.3,2.1,0.8,2.9-0.5
		c0-1.6-0.1-3.2,0-4.8c0.1-0.7,0.6-1.3,0.9-2c0.2,0,0.4,0.1,0.5,0.1c0,1.3,0,2.7,0,4c0,1.4-0.1,2.7,0,4.1c0.1,1.5,1.4,1.8,3,0.8
		c1,0,0.7-0.8,0.7-1.3c0-9.2,0-18.4,0-27.6c0-2.1-0.3-2.3-3-2.5c0-0.3,0-0.5,0-0.8c1,0,2,0,3,0c0.4,0.9,0.8,1.6,0.8,2.7
		c-0.1,9.4-0.1,18.9,0.1,28.3C296.4,51.5,295.1,52,294.8,53.3z"/>
	<path id="XMLID_660_" class="st3" d="M202.6,40.5c-0.3,0.3-0.7,0.6-0.7,1c-0.1,1.8,0,3.7,0,5.8c-0.6,0-1,0-1.5,0
		c-0.4-0.2-0.7-0.7-1.1-0.7c-1.3,0.1-1.2-0.8-1.2-1.6c3,0.6,3,0.6,3-2.2c0-0.9,0-1.7,0-2.6c1.6-1.9,3.4-3,6-2.7
		C205.8,38.8,203.9,39.3,202.6,40.5z"/>
	<path id="XMLID_659_" class="st39" d="M265.6,12.8c0.5-0.5,1-1,1.5-1.5c1.4-0.3,2.9-0.6,4.3-1c0.2-0.1,0.2-0.8,0.2-1.3
		c0.8,0.3,1.5,0.5,2.3,0.8c0.4,0.8,1,1.6,0.8,2.7c-0.2,0.8,0,1.7,0,2.6c-0.5,0.3-1,0.5-1.5,0.8c-0.2-1.4-0.7-0.3-1.3,0
		c-0.1-1-0.3-2-0.4-3.2c-1.9,0.9-3.8,1.5-5.4,2.5c-1.2,0.7-2.2,1.8-1.9,3.6c0.2,1.4,0,2.9,0,4.4c-0.6,0-0.9,0-1.4,0
		c0-2.8,0-5.6,0-8.4C263.6,14.1,264.6,13.4,265.6,12.8z"/>
	<path id="XMLID_658_" class="st59" d="M274.6,15c0-0.9-0.1-1.8,0-2.6c0.2-1.1-0.4-1.8-0.8-2.7c0.4,0,0.7,0,1.3,0
		c0.1,1,0.2,2,0.3,3.1c3.9-1.5,3.9-1.5,6.6-0.8c0.3,1.2,0.6,2.4,1,3.9c0.5-0.3,1-0.5,1.5-0.7c0.1,0,0.3,0.4,0.5,0.6
		c-0.1,0.9-0.1,0.9-1.3,0.9c-0.1,0-0.2,0.4-0.2,0.6c-0.7,0.2-1.5,0.3-2.3,0.5c0-1.6,0-3.2,0-5c-2,0.1-3.9-0.4-5.2,1.5
		C275.6,14.5,275.1,14.8,274.6,15z"/>
	<path id="XMLID_657_" class="st3" d="M189.8,74.3c-0.8,0-1.7,0.2-1.6-1.2c0-0.3-0.4-0.7-0.7-1.1c1.8,0.1,2.9-1.4,4.4-1.9
		c0.4-0.1,0.8-1,0.8-1.5c0.1-5.5,0.1-10.9,0-16.4c0-0.9-0.6-1.8-0.7-2.7c-0.1-1-0.1-2,0-3c0.1-0.8,0.5-1.5,0.7-2.3c0.5,0,1,0,1.5,0
		c-0.8,1-0.8,2.2-0.8,3.4c0,7.5,0,15.1,0,22.8c-1.1,0.5-2.1,1.1-3.2,1.5c-0.9,0.3-0.5,1-0.6,1.5C189.8,73.8,189.8,74,189.8,74.3z"/>
	<path id="XMLID_656_" class="st39" d="M292.6,18.8c0,0.3,0,0.5,0,0.8c0.3,0.3,0.6,0.5,1,0.7c0.7,0.5,1.3,0.9,1.3,2
		c-0.1,5.3,0,10.6,0,15.9c-0.9,0-1.4,0-2.3,0c0-5,0-9.9,0-14.9c-0.9,0.5-1.6,1-2.3,1.1c-2.6,0.4-3.4,2-3.8,4.3
		c-0.1,0.8-1.2,1.7-0.4,2.6c1,1.1-0.9,1.6-0.2,2.5c-0.7,0-1.4,0-2.3,0c0-3.2,0-6.1,0-9c1.5-0.9,3-1.8,4.5-2.8c0-0.5,0-1.1,0-1.7
		C289.8,20.6,291.1,19.3,292.6,18.8z"/>
	<path id="XMLID_655_" class="st60" d="M288.1,20.3c0,0.6,0,1.2,0,1.7c-1.5,1-3,1.9-4.5,2.8c-0.6-1.6-1.8-0.4-2.8-0.7
		c-0.3,1-0.6,2-0.9,3c-0.4,0.8-0.8,1.6-0.8,2.6c-0.1,2.1-1.5,2.4-3.7,1.1c0.3-0.3,0.7-0.6,0.7-0.9c0.1-2.9,0-5.9,0-8.8
		c2.5-0.2,5.7-1.8,7.5-3.8c0.1-0.2,0.2-0.6,0.2-0.6c1.2,0,1.2,0,1.3-0.9c0.6,0,1.2,0,1.8,0C288.2,17,288.1,18.6,288.1,20.3z"/>
	<path id="XMLID_654_" class="st15" d="M198.1,45c0,0.8-0.2,1.7,1.2,1.6c0.3,0,0.7,0.4,1.1,0.7c0.5,0.4,1.1,0.7,1.5,1.2
		c0.3,0.5,0.1,1.2,0.4,1.7c1.1,1.7-1.1,0.3-0.9,1.1c1.2,2,0.3,4.2,0.7,6.4c-0.4-0.1-0.6-0.1-0.7-0.2c-1.2-0.7-3-1.1-3.5-2.2
		c-0.7-1.6-0.4-3.6-0.5-5.6c0.8,0.2,1.5,0.4,2.3,0.7c-0.6-1.6-1.5-1.8-2.9-1.6c0,7.6,0,15.3,0,23.2c-0.7,0-1.2,0-1.6,0
		c-0.5,0-1,0-1.5,0c1.1-1.4,1.6-2.8,1.6-4.6c-0.1-1.8-0.7-3.5-0.8-5.3c-0.1-4.9,0-9.7-0.1-14.6c0-0.9,0.1-1.7,1-2.2
		c1.2-0.7-0.5-1.1-0.2-1.7c0.5,0.2,1.1,0.3,1.6,0.5C197.2,44.3,197.6,44.7,198.1,45z"/>
	<path id="XMLID_653_" class="st61" d="M195.1,43.5c-0.3,0.6,1.4,1,0.2,1.7c-0.8,0.5-1,1.3-1,2.2c0,4.9-0.1,9.7,0.1,14.6
		c0,1.8,0.7,3.5,0.8,5.3c0.1,1.8-0.5,3.3-1.6,4.6c-0.8-0.1-1.4,0-1.9,0.8c-0.4,0.7-1.1,0.8-1.9,0.7c0.1-0.5-0.3-1.2,0.6-1.5
		c1.1-0.4,2.1-1,3.2-1.5c0-7.7,0-15.3,0-22.8c0-1.2-0.1-2.4,0.8-3.4C194.6,44,194.8,43.8,195.1,43.5z"/>
	<path id="XMLID_652_" class="st6" d="M189.8,73.5c0.8,0.1,1.4,0,1.9-0.7c0.4-0.7,1.1-0.8,1.9-0.8c0.5,0,1,0,1.5,0
		c0.8,0.5,1.5,1,2.3,1.5c0.8-0.3,1.5-0.5,2.3-0.8c0,0.6,0,1.2,0,1.7c2,0.9,4.1,1.8,6,2.8c2.9,1.5,5.7,3,8.6,4.5
		c0.5,0.3,1.1,0.4,1.5,0.8c1.8,1.6,1.6,2.5-0.6,3.7c-3.7,1.9-7.2,4.2-11.3,5.3c-0.7,0.2-1.3,1.1-2.1,1.9c2.7,1.7,5.3,3.3,8.3,4.1
		c0,0.2,0,0.5,0,0.8c-0.3,0.2-0.7,0.4-0.7,0.6c-0.1,1,0,1.9,0,3.4c-0.8-0.4-1.4-0.7-2-0.9c-3.2-1.5-6.5-3-9.7-4.5
		c-1.3-0.7-2.6-1.5-3.8-2.4c-0.3-0.2-0.2-0.9-0.3-1.3c0.3-0.8,0.5-1.5,0.8-2.3c1.4,0.4,1.8-1.2,2.8-1.5c3.2-0.8,5.6-3.3,8.9-3.9
		c0.9-0.2,1.8-1.1,2.7-1.7c-3.6-1.8-7.2-3.5-10.6-5.4c-1.4-0.8-2.9-1.2-4.5-1c-0.7-0.1-1.5,0.3-1.5-0.9c0-0.9-0.9-0.5-1.5-0.6
		c-0.3-0.3-0.5-0.5-0.8-0.8c0-0.3,0-0.5,0-0.8S189.8,73.8,189.8,73.5z"/>
	<path id="XMLID_647_" class="st62" d="M134.3,126c-0.1-1.1,0.2-1.8,2.1-1.5c-3.5-2.2-7.1-2.9-9.5-5.5c0-1.9,0-3.7,0-5.7
		c0.8,0,1.5,0,2.2,0c2.5,0.8,5.1,1.6,7.3,3.2c0.4,0.3,0.8,0.4,1.2,0.6c1.6,0.8,3.1,1.6,4.7,2.3c2,1,3.9,2,5.9,2.9
		c0.2,0.1,0.5,0,0.8,0c0.9-1.7,1.7-3.5,2.6-5.3c0.4-0.2,1.1-0.7,1.1-0.7c0.8,0.9,2.1,1.4,1.9,2.9c-0.1,1,0,2,0,3c0,0.5,0,0.9,0,1.4
		c-1.2,0.1-2.1,0.2-2.9,0.3c-0.4,2,1.7,1.7,2.5,3c-1.2,0.9-2.2,1.6-3.3,2.4c0.1,0.1,0.1,0.3,0.2,0.4c0.9-0.3,1.9-0.5,2.8-0.8
		c-1.7,2.3-4,3.1-6.8,3c-1.3-0.4-2.3-1.6-3.8-1.5c-0.5,0-1.1-0.4-1.5-0.7c-1.5-1.4-3.3-2-5.2-2.7C135.7,126.8,135,126.3,134.3,126z"
		/>
	<path id="XMLID_646_" class="st63" d="M63.1,138.8c-0.5-0.3-1-0.5-1.5-0.8c-0.3-1,0.3-1.9,1.1-2.1c2-0.6,3.3-2.1,4-3.6
		c0.7-1.3,1.3-1.1,2.2-0.9c0.3,0.1,0.6,0.4,0.9,0.6c1.5,0.9,2.9,1.3,4-0.5c0.1-0.2,0.6-0.2,1.4-0.5c-0.3,1.1-0.6,1.9-0.8,2.8
		c2,1,2.4,1.4,3.1,2.5c-1.2,0-2.2,0-3.3,0c-0.9,1-1.7,1.9-2.7,3.1c0.2,0.5,0.5,1.3,1,2.8c-2.1-1-3.6-1.6-4.9-2.4
		C66.1,138.9,64.6,138.6,63.1,138.8z"/>
	<path id="XMLID_645_" class="st53" d="M147.1,132c2.7,0.1,5.1-0.7,6.8-3c0.5-0.1,1.3-0.1,1.3-0.3c0.1-1.1,0.7-1.3,1.7-1.3
		c0.4,0,1-0.1,1.4-0.3c4.6-2.4,9.2-4.8,13.5-7.1c0.4-3.4-0.5-6.5,0.8-9.4c0.2-0.5-0.4-1.3-0.7-1.9c0-0.5,0-1,0-1.5
		c1,1.1,2,2.2,3,3.4c0.2,0.2,0.2,0.8,0,1.1c-1.5,2.8-0.2,5.8-1,9c-0.9,0.6-1.9,1.7-3.2,2.2c-6.1,2.5-11.6,6.3-17.5,9
		c-0.2,0.1-0.4,0.1-0.6,0.3C149.8,134,149.8,134,147.1,132z"/>
	<path id="XMLID_644_" class="st25" d="M111.1,120c2,0.2,4,0.6,5.9,0.7c2.1,0.1,4.2,0,6.2,0c0.5,0,1.3,0.3,1.3-0.7
		c1,0.8,2,1.5,3,2.3c-0.8-0.1-1.7,0.2-2.4-0.5c-0.3-0.3-1.5-0.4-1.7-0.2c-0.9,1.1-2.1,0.6-3.1,0.7c-3.3,0.3-6.3-0.9-9.3-1.9
		C111,120.3,111.1,120.1,111.1,120z"/>
	<path id="XMLID_643_" class="st25" d="M77.3,138.8c-1.1,0-2.2-0.2-2.8,1c0,0.1,0.4,0.3,0.6,0.5c0,1.4,0.3,2.9-1.2,3.9
		c-0.3,0.2-0.2,0.9-0.3,1.3c-0.7-0.7-1.4-1.4-2-2.1c0,0.1-0.1,0.5-0.2,0.8c-0.2,0.2-0.5,0.4-0.7,0.6c-0.1-0.6,0.4-1.4-0.8-1.5
		c0.2-0.3,0.4-0.7,0.6-0.7c1-0.1,1.9,0,3.3,0c-0.3-1.2-0.5-2.1-0.8-3.2c0.6-0.6,1.4-1.4,2-2.1c1,0.3,2,0.6,3,1c0,0,0.1,0.2,0,0.2
		C77.7,138.6,77.5,138.7,77.3,138.8z"/>
	<path id="XMLID_642_" class="st29" d="M89.3,150.8c1.9-2.6-0.4-4.1-1.5-5.9c0.6-1.3,1.2-2.5,1.8-3.8c1.2-0.2,2.3-0.2,3.4,0.6
		c0.9,0.6,1.5,1.5,2.4,2.1c1.4,1,2.6,2.4,3.8,3.6c2.2,2.3,4.7,4.4,7.4,5.7c2.9,1.4,5.7,3.6,9.3,2.8c0.5-0.1,1,0,1.5,0
		c1.5,0,3,0.1,4.5,0c1.4-0.1,2.8-0.5,4.2-0.7c-1.3,1.9-3,2.9-5.4,1.8c-1.8-0.9-3.2,0.1-4.5,1.1c-0.3,0.2-0.3,0.9-0.6,1.2
		c-0.7,0.8,1.3,1.2,0.3,2.1c-0.5,0.5-0.7,1.4-1.1,2.4c0.8,0.8,1.6,1.6,2.8,2.8c-1.9-0.2-3.2-1.4-4.4-0.1c-0.2,0.2-1.1,0.2-1.4,0
		c-2.2-1.3-4.7-1.9-6.9-3.1c-2.8-1.4-5.3-3.4-7.9-5.2c-0.3-0.4-0.5-0.9-0.8-1.1c-0.8-0.7-1.6-1.4-2.6-1.8c-1-0.4-2.1-0.5-2.6-1.8
		C90.4,152.5,89.8,151.7,89.3,150.8z"/>
	<path id="XMLID_641_" class="st64" d="M70.6,144.8c0.3-0.2,0.6-0.3,0.7-0.6c0.2-0.3,0.2-0.6,0.2-0.8c0.7,0.7,1.3,1.4,2,2.1
		c0.5,0.7,1,1.3,1.6,2.2c-0.9,1.3-2.5,2.5-1.2,5c-2.8-0.9-2.2-3.1-3.2-4.2C69.9,147.5,69.9,147.5,70.6,144.8z"/>
	<path id="XMLID_1_" class="st65" d="M38.3,129.8"/>
	<path id="XMLID_639_" class="st4" d="M210.1,98.3c0-0.3,0-0.5,0-0.8c0.5-0.3,1-0.5,1.5-0.8c0.1,1.2,1.1,0.6,1.7,0.7
		c1,0.2,2,0,3.1,0.6c3.1,1.7,4.5,4.3,4.9,7.7c0.3,2.6-1.2,4.9-0.7,7.5c-0.9-0.3-1.4-0.6-2.6-1c1.6,1.8,1.6,1.8,4,1.8
		c-0.3,0.3-0.6,0.7-0.9,0.7c-0.9,0.1-1.9,0-2.9,0c-0.8-0.4-1.6-1-2.4-1.3c-2.6-0.9-4.5-2.2-4.7-5.4c-0.1-1.3-1-2.6-1.1-3.9
		C209.9,102.2,210.1,100.2,210.1,98.3z"/>
	<path id="XMLID_638_" class="st66" d="M218.3,114.8c1,0,1.9,0.1,2.9,0c0.3,0,0.6-0.5,0.9-0.7c2.3-0.7,4.7-1.3,6-3.8
		c0-0.3,0-0.5,0-0.8c0.5,0.5,0.9,1.1,1.4,1.5c0.5,0.3,1.5-0.4,1.6,0.8c-0.5,0.1-1.1,0-1.3,0.3c-1.6,1.9-3.8,2.6-5.9,3.6
		C221.7,116.8,219.9,116.4,218.3,114.8z"/>
	<path id="XMLID_637_" class="st67" d="M194.4,152.8c0-1.6,0-3.1,0-5c1.4,0.3,2.8-0.7,4,0.7c0.6,0.7,0.6,3,0.1,3.7
		C198,152.9,197.4,153,194.4,152.8z"/>
	<path id="XMLID_636_" class="st68" d="M189.1,153c-0.1,0-0.2,0-0.4,0c-4.2,0-4.2,0-4-4.5c0.8,0,1.8,0.3,2.4-0.1
		c0.6-0.3,1.2-0.8,1.9-0.7C189.1,149.5,189.1,151.3,189.1,153z"/>
	<path id="XMLID_635_" class="st69" d="M189.1,153c0-1.8,0-3.5,0-5.3c0.9,0,1.7-0.1,2.6,0c1.5,0.1,2.1,0.9,1.4,2.3
		c-0.5,1.1-0.1,1.9,0.6,3.4c-1.4-0.9-2.3-1.5-3.2-2.1C190,151.9,189.5,152.5,189.1,153z"/>
	<path id="XMLID_634_" class="st70" d="M247.6,174c-0.9,1.3-2.5,1.5-3.7,2.2c-0.5,0.3-1.5-0.4-2.3-0.7c0.3-0.5,0.5-1,0.8-1.5
		c0.9-0.3,1.8-1.4,2.9-0.5c1,0.9,1-0.5,1.6-0.6c-0.2-0.4-1.2-0.7-0.2-1.3c1-0.6,1-1.5,1-2.5c0-1.4,0-2.7,0-4.1
		c0.2-0.3,0.4-0.6,0.5-0.9c0.3-0.8,0.9-1.7-0.5-2.1c0-1.6,0-3.2,0-4.8c-0.1-1.7,0.2-3.3-0.2-4.8c-2,0.3-3.8,0.5-5.6,0.8
		c-0.3,0.8-1.3,1.7-0.2,2.8c-2.5-0.2-4.9,1.3-7.5,0.8c-0.5-0.5-1-1-1.5-1.5c0-0.4,0.2-0.9,0-1.1c-1.4-1.1-0.5-1.9,0.4-2.6
		c0.2-0.2,0.7-0.1,1-0.3c1.2-0.7,1.1-1.6,0.2-2.6c2.3-0.7,1,1.5,1.9,2.1c0.2-0.8,0.3-1.5,0.6-2.4c0.3,0.7,0.5,1.1,0.9,1.8
		c1.1-2.4,3.9-2.1,5.3-3.9c0.2,0.5,0.4,1,0.7,1.9c0.2-1.2,0.4-1.9,0.6-2.8c0.7,1.3,1.1,2.3,2.8,2.5c1.7,0.2,2.2,2.1,2.2,3.6
		c0.1,3.6,0,7.2,0,10.8c0,2-0.1,4,0,6C249.2,170.4,248.7,172.3,247.6,174z"/>
	<path id="XMLID_633_" class="st71" d="M232.6,155.3c0.5,0.5,1,1,1.5,1.5c0,1,0,2,0,3c-1.4-1.1-2.5,1.8-3.9,0.2
		c-1.4,0.3-2.9,0.6-4,0.8c-0.4,1-0.7,1.9-1.1,2.7c-1.8,1.4-4,0.3-6,1c0,3.4,0,6.8,0,10.3c-1.4,0.4-0.5,1.5-0.8,2.3
		c-0.3-0.3-0.7-0.6-0.7-0.9c-0.1-2.8,0-5.6,0-8.6c-0.9-0.1-1.8-0.2-3-0.3c0-0.7,0-1.4,0-2.1c0.3-0.2,0.7-0.4,0.7-0.6
		c-0.2-0.8-0.5-1.5-0.7-2.3c-0.1-0.3,0.2-0.6,0.4-1.2c1,0.7,1.8,1.3,2.3,1.7c2.1-0.7,3.8-1.3,5.7-1.9c-0.3-0.4-0.6-0.8-0.8-1.2
		c0-0.1,0.4-0.3,0.6-0.5c0.3-0.2,0.7-0.4,0.7-0.6c-0.1-1.4,0.6-2,1.9-2.6c1.1-0.5,3.2-0.5,2.5-3.3c2,2.1-0.6,3.3,0.3,4.7
		C230.8,157.5,230.8,157.5,232.6,155.3z"/>
	<path id="XMLID_632_" class="st72" d="M230.3,181.5c-0.1,0.5,0.2,1.1-0.5,1.5c-2.4,1.5-5,2.7-7.7,3.7c-1.4-2-2.9,0.1-4.5,0
		c0-2.6,0-5,0-7.5c1.4-0.4,0.5-1.5,0.8-2.3c1.2,0,2.5,0.1,3.7,0c1.3-0.1,2.5-0.5,3.8-0.7c0.1,1.7-0.2,3.5,0.3,6
		c0.6-2.4,1.1-0.9,1.7-0.8C228.6,181.6,229.5,181.5,230.3,181.5z"/>
	<path id="XMLID_631_" class="st46" d="M222.8,159c-0.2,0.2-0.6,0.4-0.6,0.5c0.2,0.4,0.5,0.8,0.8,1.2c-1.9,0.6-3.6,1.2-5.7,1.9
		c-0.5-0.3-1.3-1-2.3-1.7c-0.2,0.6-0.5,0.9-0.4,1.2c0.2,0.8,0.5,1.5,0.7,2.3c0,0.1-0.5,0.4-0.7,0.6c-0.4-1.5-1.7-1.5-3.1-1.7
		c0.3-0.8,0.6-1.5,0.9-2.2c-0.8-1-1.6-2-3-3.5c1.5,0.2,2.2,0.1,2.9,0.3c1.3,0.4,2.3,1.1,2.6,2.8c1.7-0.9,3.3-1.7,5.3-2.7
		c-1.4-1.1-2.5-2-3.6-2.9c0.6-0.6,1-1,1.3-1.3c2.1,0.2,3.2,1.6,4.1,3.3C222.3,157.7,222.5,158.4,222.8,159z"/>
	<path id="XMLID_630_" class="st73" d="M217.6,179.3c0,2.4,0,4.9,0,7.5c1.6,0.1,3.1-2,4.5,0c-1.5,1.1-3.3,1.8-4.8,2.8
		c-0.5,0.3-2.1,1-2.7-0.6c0-2.5,0-5,0-7.5c0.5-1,1-2,1.5-3C216.6,178.6,217.5,178.1,217.6,179.3z"/>
	<path id="XMLID_629_" class="st74" d="M216.1,178.5c-0.5,1-1,2-1.5,3c-1.3,0.3-1.4,1.3-1.6,2.5c-0.1,0.9,0.9,2.2-0.7,2.8
		c0-3.5-0.1-6.9,0-10.4c0.1-1.7,0.5-3.5,0.9-5.2c0.1-0.4,0.6-0.6,1.1-1.2c0,2.7,0,5,0,7.2C215.1,177.7,215.6,178.1,216.1,178.5z"/>
	<path id="XMLID_628_" class="st55" d="M140.3,108c-1.3-1.1-2.5-2.4-4.8-2.4c1-1.8,1.7-3.3,2.6-4.7c0.5-0.8,1.4-0.5,2.2-0.1
		c2.4,1.3,4.9,2.5,7.4,3.7c2,1,3.9,2,5.9,2.9c0.7,0.3,1.5,0.4,2.4-0.1c-2.1-1-4.3-2.1-6.4-3.1c-2.1-1-4.2-2-6.5-3.1
		c1.1-1.8,2.1-3.4,3.3-5.1c5.4,2.8,10.6,5.6,16,8.2c1.9,0.9,4.1,1.3,5.6,3.1c-0.5,0.2-1.3,0.2-1.5,0.6c-1,1.8-1.5,3.9-3,5.4
		c-1.2-1.3-2.4-2.8-3.7-4c-0.5-0.4-1.4-0.4-2.2-0.5c-0.1,0.2-0.1,0.3-0.2,0.5c0.8,0.5,1.5,0.9,2.2,1.4c-1,0.6-0.7,1.7-0.7,2.6
		c-0.3,0.7-0.6,2-1,2c-1.8,0.3-1.1,1.5-1.2,2.5c-1.5-1.3-3-2.5-4.5-3.8C148.3,112,144.3,110,140.3,108z"/>
	<path id="XMLID_627_" class="st8" d="M140.3,108c4,2,8,4,12,6c-0.7,0.9-0.8,1.9-0.8,3c-0.9,1.8-1.7,3.5-2.6,5.3
		c-0.3,0-0.6,0.1-0.8,0c-2-1-3.9-1.9-5.9-2.9c-1.6-0.8-3.1-1.6-4.7-2.3c-0.4-0.2-0.9-0.3-1.2-0.6c-2.2-1.6-4.8-2.3-7.3-3.2
		c-0.8-0.6-1.5-1.3-2.4-1.9c1.4-2.5,2.8-4.9,4.2-7.3c3.2,1.6,6.2,3.1,9.2,4.6c0,0,0.2-0.1,0.2-0.3
		C140.3,108.3,140.3,108.1,140.3,108z"/>
	<path id="XMLID_626_" class="st62" d="M163.6,113.3c1.5-1.5,2.1-3.6,3-5.4c0.2-0.3,1-0.4,1.5-0.6c0.3,0.4,0.5,0.8,0.8,1.2
		c0.9,1.3,1.9,1.2,3,0.3c0.3,0.6,0.9,1.4,0.7,1.9c-1.3,2.9-0.4,6-0.8,9.4c-4.3,2.3-8.9,4.7-13.5,7.1c-0.4,0.2-0.9,0.3-1.4,0.3
		c-1-0.1-1.6,0.1-1.7,1.3c0,0.1-0.9,0.2-1.3,0.3c-0.9,0.3-1.9,0.5-2.8,0.8c-0.1-0.1-0.1-0.3-0.2-0.4c1.1-0.8,2.1-1.5,3.3-2.4
		c-0.7-1.3-2.9-1-2.5-3c0.9-0.1,1.8-0.2,2.9-0.3c0-0.5,0-0.9,0-1.4c0.5-0.2,1.3-0.2,1.4-0.5c0.4-1.3,0.6-2.6,0.8-4
		c0.2-0.9-0.6-2.2,1.2-2.5c0.4-0.1,0.7-1.3,1-2c0.4-0.5,0.8-1,1.1-1.4c1.8,1.1,2.5,3.1,3,5.3C163.8,115.7,164.8,114.6,163.6,113.3z"
		/>
	<path id="XMLID_625_" class="st75" d="M228.1,109.5c0,0.2,0,0.5,0,0.8c-2.6,0.5-3.7,0.2-6-1.7c0.1,1.4-0.3,2.9,0.3,3.6
		c0.8,1-0.6,1.1-0.3,1.8c-2.4,0-2.4,0-4-1.8c1.1,0.4,1.7,0.7,2.6,1c-0.5-2.6,1.1-4.9,0.7-7.5c-0.4-3.3-1.8-5.9-4.9-7.7
		c-1.1-0.6-2.1-0.4-3.1-0.6c-0.6-0.1-1.6,0.5-1.7-0.7c0.6-0.1,1.4,0.4,1.5-0.8c1-0.2,1.9-0.5,3.4-0.9c-0.6,0.7-0.8,1-1.2,1.4
		c2.5-0.1,3.5,2,5.1,3.2c1.7,1.4,1.6,3.5,2.5,6.4c1.1-2.7,2.8-2.9,4.5-2.7c-0.4-1.5-0.6-2.8-1.1-3.9c-0.6-1.2-1.5-2.3-2.5-3.7
		c0.5,0,1,0,1.5,0c2,0.9,3,2.6,3.4,4.6c0.3,1.3-0.2,2.9,0.4,3.9c0.6,1-0.1,1.4-0.1,2c-1.4-0.1-2.3,0.5-2.3,2.1
		C226.5,109.8,227.4,109.4,228.1,109.5z"/>
	<path id="XMLID_624_" class="st76" d="M225.1,96c-0.5,0-0.9,0-1.5,0c0.9,1.4,1.9,2.4,2.5,3.7c0.5,1.1,0.7,2.4,1.1,3.9
		c-1.7-0.3-3.3-0.1-4.5,2.7c-0.8-2.9-0.8-5.1-2.5-6.4c-1.6-1.3-2.5-3.3-5.1-3.2c0.4-0.5,0.6-0.7,1.2-1.4c-1.5,0.4-2.4,0.6-3.4,0.9
		c0.2-0.5,0.3-1.1,0.5-1.6c0.4-0.8,0.9-0.5,1.3,0c0,0,0.2,0,0.2-0.1c0.3-0.5,0.1-2.1,1.4-0.6c0.1,0.1,1.3-0.8,2-1.2
		c0.9-0.4,3,0,3.6,0.8c0.5,0.7,0.7,0,1-0.1c0.1,0,0.3,0.4,0.5,0.6C224.1,94.5,224.6,95.3,225.1,96z"/>
	<path id="XMLID_623_" class="st77" d="M201.8,69.8c1.1-0.2,2.5,0.6,3.4-0.8c0.6,0.8,1.3,1.4,1.8,2.2c1.3,1.8,1.2,1.9,3.5,0.9
		c0.3-0.1,0.7-0.2,1-0.3c-1.4-1.2,0.6-2.3-0.1-3.5c1.4-0.2,2,0.6,2.3,1.8c-0.6,0.3-1.1,0.5-1.6,0.8c0.6,0.3,1.1,0.5,1.6,0.7
		c-0.2,1-0.6,1.7-0.1,2.8c0.5,1.1-0.4,1.5-1.4,1.3c-0.5-0.2-1.2-0.2-1.6-0.5c-1.4-0.9-2.8-1.1-4.4-1c-0.3,0-0.5,0-0.8,0
		c0.1-1.4-0.5-2.2-2.1-2.3C202.3,71.9,201.6,71,201.8,69.8z"/>
	<path id="XMLID_622_" class="st51" d="M206.3,74.3c1.6-0.1,3,0.1,4.4,1c0.4,0.3,1.1,0.4,1.6,0.5c1.9,1.8,4.4,2.6,6.7,3.7
		c1.2,0.6,2.2,1.7,3.8,1.5c0.2,1.6,1.8,0.2,2.5,1.2c0.5,0.7,1.8,0.7,2.7,1c0.3,0.3,0.6,0.5,0.9,0.8c1.3-1.8,3.2-1.5,5.1-1.5
		c-0.3,0.3-0.6,0.6-0.9,0.7c-0.6,0.1-1.5-0.2-1.7,0.1c-1.3,1.9-3.1,1.3-4.9,1.4c-3-0.9-5.4-3-8.3-4.2c-1.9-0.8-3.8-1.6-5.6-2.6
		c-1.7-0.9-3.3-2.1-5.3-2.4C207,75.6,206.6,74.7,206.3,74.3z"/>
	<path id="XMLID_621_" class="st78" d="M225.1,96c-0.5-0.8-1-1.5-1.5-2.3c1.8,0,2.8,1.5,4.2,2.4c0.9,0.6,1.6,1.5,2.6,2.5
		c-0.5,3.1,1.8,6,1.5,9.4c-0.8-0.3-1.7-0.5-2.5-0.8c-0.2-0.1-0.4-0.5-0.5-0.7c0.1-0.7,0.7-1,0.1-2c-0.6-1-0.1-2.6-0.4-3.9
		C228,98.6,227,96.9,225.1,96z"/>
	<path id="XMLID_620_" class="st51" d="M201.8,69.8c-0.2,1.3,0.5,2.1,1.7,2.2c1.6,0.1,2.1,0.9,2.1,2.3c-1.5-1-3.6-0.8-4.9-2.2
		c-0.1-0.1-0.7,0.5-1.1,0.7c-0.8,0.2-1.5,0.5-2.3,0.7c0-1.4,0-2.7,0-4.2c0.4-0.1,0.8-0.3,1.3-0.4c-0.2-0.8-0.4-1.7-0.6-2.5
		c0.4,0,0.6-0.1,0.7,0C200,67.2,201.9,67.5,201.8,69.8z"/>
	<path id="XMLID_619_" class="st79" d="M235.6,98.7c0-1.5,0-3.1,0-4.6c2.3-1.2,3.9,0.5,5.6,1.4c0.3,0.1,0.3,1.7,0,1.9
		C239.5,98.2,238,100,235.6,98.7z"/>
	<path id="XMLID_618_" class="st37" d="M193.6,77.3c1.6-0.2,3,0.2,4.5,1c3.5,1.9,7,3.6,10.6,5.4c-0.9,0.6-1.7,1.5-2.7,1.7
		c-3.3,0.6-5.7,3.1-8.9,3.9c-1,0.3-1.4,1.9-2.8,1.5c-0.1,0-0.3,0-0.4,0c-0.8-1.6,0.1-3.6-1.3-5c-1.3-1.3-0.2-3.2-1.2-4.7
		c-0.8-1.2,0-2,1.6-3C193.2,77.8,193.4,77.5,193.6,77.3z"/>
	<path id="XMLID_617_" class="st80" d="M230.3,181.5c-0.8,0-1.7,0.1-2.5,0c-0.5-0.1-1-1.6-1.7,0.8c-0.5-2.5-0.2-4.3-0.3-6
		c0-1,0-2,0-3c1.2,0,2.5,0.1,3.7,0c1.3-0.1,2.5-0.5,3.8-0.7c0,1.6,0,3.2,0,4.8c0.1,1.3-0.1,2.4-1.7,2.7c-0.9,0.2-0.5,1-0.6,1.5
		C230.8,181.5,230.6,181.5,230.3,181.5z"/>
	<path id="XMLID_616_" class="st73" d="M242.3,174c-0.2,0.5-0.5,1-0.8,1.5c-0.3,0.5-0.5,1-0.8,1.5c-2.2-0.3-4.4-0.7-6.8-1
		c0-1.1,0-2.3,0-3.5c0-1,0-2,0-3c1.1,0,2.2,0.1,3.3,0c1.1-0.1,2.3-0.5,3.4-0.7c1.2,0.1,0.7,1,0.7,1.6
		C241.6,171.6,241.4,172.9,242.3,174z"/>
	<path id="XMLID_615_" class="st81" d="M234.1,172.5c0,1.2,0,2.4,0,3.5c2.4,0.4,4.6,0.7,6.8,1c-0.1,0.5-0.1,1.3-0.3,1.3
		c-2.9,0.4-5.2,2.3-7.8,3.5c-1.1,0.5-1.1-0.7-1.7-0.3c0.1-0.5-0.4-1.3,0.6-1.5c1.6-0.3,1.7-1.4,1.7-2.7c-0.1-1.6,0-3.2,0-4.8
		C233.6,172.5,233.8,172.5,234.1,172.5z"/>
	<path id="XMLID_614_" class="st82" d="M222.8,81c-1.5,0.2-2.6-1-3.8-1.5c-2.3-1.1-4.8-1.9-6.7-3.7c1,0.2,2-0.2,1.4-1.3
		c-0.5-1.1-0.1-1.9,0.1-2.8c-0.5-0.2-1-0.5-1.6-0.7c0.6-0.3,1.1-0.5,1.6-0.8c-0.3-1.2-1-2-2.3-1.8c-0.6-1.1-0.3-2.5,0.8-3.8
		c0.3,1.5,2.3,0.1,2.8,1.6c0.3,1,1.4,0.8,2.2,0.4c0.8-0.4,1.1-1.2,1-2.1c-0.1-1,0-2,0-2.9c0.9-0.7,1.9-0.8,3-0.8
		c0.1,0.2,0.2,0.6,0.3,0.6c1.6-0.2,2.3,1,2.7,2.1c1.3,3.4,1.1,4.2-1.4,7.4c-0.1,0.1,0,0.5,0,0.6c1.4,0.7,2.7,1.4,4.1,2
		c0.8,0.4,1.8,0.5,2.7,0.8c0.3,0,0.5,0,0.8,0c-0.2,1.4-1.5,0.4-2,0.9c-0.3,0.8-0.6,1.5-0.8,2.3c-0.2,0.9-0.3,1.9-0.4,2.8
		c-0.9-0.6-1.7-1.1-2.5-1.5c-0.2-0.1-0.5-0.1-0.7,0c-0.6,0.3-1.2,0.7-1.6,1C222.5,80.4,222.7,80.7,222.8,81z"/>
	<path id="XMLID_613_" class="st83" d="M226.6,45c0.3,0,0.5,0,0.8,0c1.5,0.1,2.5-1.1,3.8-1.5c0.5,0.3,1,0.5,1.5,0.8
		c0,0.3,0,0.5,0,0.8c-3.9,1.4-7.6,3.3-11.1,5.3c-0.3,8-0.3,8,1.1,9.6c2.1-1.6,0.4-4,1.2-5.7c1.2-0.6,2.3-1.1,3.5-1.7
		c0,2.8,0,5.4,0,8.1c-0.4,0-0.7,0.1-0.9,0.1c-0.7-0.2-1.3-0.7-1.9-0.7s-1.3,0.5-1.9,0.7c-0.3,0.1-0.7,0-1.1,0
		c-0.2-0.4-0.6-0.8-0.7-1.2c-0.6-1.8-1.3-2.5-2.9-2.6c-0.6,0-1.2,0-1.9,0c-1.2,0.1-1.7-0.5-2-1.6c-0.5-1.7-1.4-2-3.4-1.4
		c-0.6,0.2-1.2,0-1.8,0c0-0.3,0-0.5,0-0.8c1.4,0.1,2.3-0.5,2.2-2.1c-0.1-1.3,0.9-0.9,1.5-0.9c1.9,1.5,1.9,1.5,2.2,4.2
		c0.1,1.1,0.7,1.7,2.2,1.9c-0.8-2.6,1.4-1.1,2.3-1.9c-0.1-0.9-0.1-1.8-0.2-2.9c-0.9,0.4-1.4,0.6-2,0.8c-0.3-1.5,0.1-2.5,1.6-2.9
		c1.9-0.4,3.6-1.2,5.3-2.8c-1-0.1-1.7-0.2-2.8-0.4c1.2-0.6,2.1-1,3.1-1.5c0.2,1,0.4,1.7,0.6,2.7C225.9,46.9,226.7,46.4,226.6,45z"/>
	<path id="XMLID_612_" class="st60" d="M212.3,50.3c-0.6,0.1-1.6-0.3-1.5,0.9c0.1,1.6-0.8,2.1-2.2,2.1c0.1-3.2,0.1-6.4,0.2-9.6
		c0-0.2,0.3-0.4,0.5-0.6c-0.5-0.2-1-0.5-1.5-0.7c1.5-1.1,2.1-1.4,3.7-1.7c-0.1,0.2-0.2,0.4-0.2,0.5c-0.1,0.2-0.2,0.3-0.3,0.5
		c0.1,0.1,0.2,0.3,0.3,0.2c1.9-1,4.5-0.6,5.6-3c0.9,0,1.7,0,2.8,0c0,1.4,0,2.8,0,4.5c-0.7-0.3-1.4-0.5-2-0.8
		c-0.3-1.1-0.8-0.9-1.5-0.4c1.1,1.8,1,1.9-0.8,2.2c-0.8,0.1-1.5,0.7-2.3,0.9c-0.6,0.1-1.3-0.1-2.1-0.2c0.1,1.2,0.1,2.3,0.2,3.5
		c0.6,0,1,0,1.4,0C212.3,49.3,212.3,49.8,212.3,50.3z"/>
	<path id="XMLID_611_" class="st39" d="M218.3,61.5c0,1-0.1,2,0,2.9c0.1,1-0.2,1.7-1,2.1c-0.7,0.4-1.9,0.5-2.2-0.4
		c-0.5-1.5-2.5-0.1-2.8-1.6c0.7-0.8,1.3-1.5,1.9-2.3c0.1-0.1-0.1-0.5-0.2-0.8c-0.1-1-0.2-1.9-0.3-2.9c2.9,0,2.9,0,4.3,2.4
		C218.2,61.1,218.2,61.3,218.3,61.5z"/>
	<path id="XMLID_610_" class="st84" d="M218.3,61.5c-0.1-0.2-0.1-0.4-0.2-0.6c-1.4-2.3-1.4-2.3-4.3-2.4c0.2-1.1-0.4-1.8-1.3-2.2
		c-1.4-0.6-2.9-1-3.9-2.3c0.6,0,1.3,0.1,1.8,0c2-0.5,2.9-0.3,3.4,1.4c0.3,1.1,0.9,1.7,2,1.6c0.6,0,1.2,0,1.9,0
		c1.6,0.1,2.3,0.8,2.9,2.6c0.1,0.4,0.5,0.8,0.7,1.2C220.2,60.7,219.2,60.8,218.3,61.5z"/>
	<path id="XMLID_609_" class="st39" d="M206.3,57.8c0.5-0.1,1.3,0.4,1.5-0.6c0.1-0.6,0.1-1.1,0.3-2.3c1,1,1.9,1.6,1.9,2.2
		c0.2,1.9,0.1,3.7,0,5.6c0,0.4-0.7,0.7-1.1,1c-0.8-0.5-1.8-1.6-2.6-2.9C206.3,59.8,206.3,58.8,206.3,57.8z"/>
	<path id="XMLID_608_" class="st85" d="M206.3,57.8c0,1,0,2,0,3c-0.5,0-1,0-1.5,0c-1.7-0.1-2.2-0.6-2.3-2.1c-0.1-2,0-3.9,0-6.1
		c0.8,0.3,1.5,0.6,2.3,1c0,1.3,0,2.6,0,4.2C205.4,57.8,205.8,57.8,206.3,57.8z"/>
	<path id="XMLID_607_" class="st4" d="M197.4,64.5c0-1.6,0-2.9,0-4.5c1.5,0.8,2.9,1.5,4.3,2.3c0,1.5,0,2.8,0,4.4
		C200.2,65.9,198.7,65.2,197.4,64.5z"/>
	<path id="XMLID_606_" class="st55" d="M232.6,45c0-0.2,0-0.5,0-0.7c4-2,8.1-4,12.1-6c1.2-0.6,2.5-1.3,3.7-1.9
		c1.2-0.6,2.5-1.2,3.7-1.8c1.3-0.7,2.6-1.5,4-2.2c1.2-0.6,3-0.7,3.7-1.7c1-1.3,2.7-0.9,3.5-2.1c1.5-0.8,3-1.5,4.6-2.3
		c1.1,0.3,1.4,2,2.9,1.5c1.7-0.4,1.6-1.7,1.5-3c1.6-0.2,2.1,1.1,3,2c-0.6,0.3-1.4,0.4-1.4,0.6c-0.1,1.5-1.4,1.7-2.3,2.3
		c-1.5,0.9-3.4,1.2-4.5,2.7c-0.5,0.1-1,0.1-1.4,0.3c-6.8,3.5-13.8,6.8-20.5,10.7c-2.4,1.4-5.3,2.1-7.4,4c-1.2,0-2.6-0.2-3.6,0.7
		c0,0-0.6-0.5-0.9-0.7C233.1,46.5,232.8,45.7,232.6,45z"/>
	<path id="XMLID_605_" class="st55" d="M231.1,43.5c-1.3,0.4-2.2,1.6-3.8,1.5c0-1.6,0.4-3.3-1.8-4.1c1.1-0.7,1.8-1.2,2.7-1.6
		c5.1-2.6,10.2-5.3,15.5-7.6c1.7-0.7,2.8-2.7,5-2.4c1.3-1.2,3.4-1.3,4.4-2.9c2,0,3.5-1.3,5-2.4c1.2-0.8,2.5-0.7,3.8-0.7
		c0.4,0.5,0.8,1.1,1.2,1.6c2.3-1.7,2.3-1.7,2.9-3.9c2.5,1.2,2.7,2,0.9,3.5c-1.3,1.1-3,1.7-4.5,2.5c-0.3,0.1-0.4,0.5-0.6,0.7
		c-0.5,0.1-1,0.1-1.4,0.3c-2.4,1.1-4.8,2.3-7.2,3.5c-2.5,1.2-5.1,2.3-7.4,3.8c-2.3,1.5-4.9,2.2-7.1,3.8
		C236.4,40.9,233.3,41.4,231.1,43.5z"/>
	<path id="XMLID_604_" class="st75" d="M231.1,43.5c2.2-2.1,5.3-2.6,7.7-4.4c2.2-1.6,4.8-2.3,7.1-3.8c2.3-1.5,4.9-2.6,7.4-3.8
		c2.4-1.2,4.8-2.3,7.2-3.5c0.4-0.2,0.9-0.2,1.4-0.3c0.1,1.1,0.9,0.6,1.5,0.8c-0.8,1.3-2.5,0.9-3.5,2.1c-0.7,1-2.5,1.1-3.7,1.7
		c-1.4,0.7-2.6,1.5-4,2.2c-1.2,0.6-2.5,1.2-3.7,1.8c-1.2,0.6-2.5,1.3-3.7,1.9c-4,2-8.1,4-12.1,6C232.1,44,231.6,43.8,231.1,43.5z"/>
	<path id="XMLID_603_" class="st86" d="M272.3,24.8c0.1,1.3,0.2,2.6-1.5,3c-1.5-2-1.5-2-1.5-4.5c0-0.2,0-0.5,0-0.7
		c-0.4-3.1,0.2-5.6,3.8-6.4c0,0,0-0.2,0-0.4c0.5-0.2,1-0.5,1.5-0.8c0.5-0.2,1-0.5,1.5-0.8c1.5-0.3,2.9-0.5,4.6-0.8
		c-0.2,2,0.2,3.7-0.2,5.2c-0.9,0-1.4,0-2,0c-0.2-1.7-0.2-1.7-1.3-2.1c0.8,2.6,0.7,2.9-1.1,4.4c-1.7-0.5,0-2.3-1.1-3
		c-3.4,1.4-3.4,1.4-3.3,4.7C271.6,23.4,270.9,24.5,272.3,24.8z"/>
	<path id="XMLID_602_" class="st86" d="M212.3,50.3c0-0.5,0-1,0-1.5c1.8-1.5,3.9-2.6,6-3.7c0.2-0.1,0.5,0,0.7,0c2-1,4.1-2,6.1-3
		c1.6,0.5,1.4,1.8,1.4,3c0.2,1.4-0.6,1.9-1.9,2.5c-0.2-1-0.4-1.7-0.6-2.7c-1,0.5-1.8,0.9-3.1,1.5c1.1,0.2,1.8,0.3,2.8,0.4
		c-1.6,1.6-3.4,2.4-5.3,2.8c-1.5,0.3-1.9,1.3-1.6,2.9c0.6-0.2,1.2-0.5,2-0.8c0.1,1.1,0.1,2,0.2,2.9c-0.9,0.8-3.1-0.7-2.3,1.9
		c-1.5-0.2-2.1-0.8-2.2-1.9C214.2,51.7,214.2,51.7,212.3,50.3z"/>
	<path id="XMLID_601_" class="st87" d="M219.1,45c-0.2,0-0.5-0.1-0.7,0c-2.1,1.1-4.2,2.2-6,3.7c-0.4,0-0.7,0-1.4,0
		c-0.1-1.1-0.1-2.3-0.2-3.5c0.8,0.1,1.5,0.3,2.1,0.2c0.8-0.2,1.5-0.8,2.3-0.9c1.8-0.3,1.9-0.4,0.8-2.2c0.7-0.6,1.2-0.8,1.5,0.4
		c0.1,0.7-0.3,1.6,0.9,1.5C218.7,44.3,218.9,44.8,219.1,45z"/>
	<path id="XMLID_600_" class="st51" d="M270.1,63c-0.3,0.5-0.5,1-0.8,1.5c-0.5,1.4-2.1,1.3-3.1,1.9C256,71.8,245.7,77,235.4,82.2
		c-0.4,0.2-0.9,0.2-1.4,0.3c0.7-0.7,1.4-1.3,2.1-2c-0.1-0.2-0.3-0.6-0.6-1c4.2-1,7.7-3.6,11.6-5.3c1.9-0.8,3.6-2,5.5-3
		c2.2-1.1,4.7-1.7,6.5-3.1c2-1.6,4.5-1.9,6.4-3.6C266.7,63.6,268.2,62.6,270.1,63z"/>
	<path id="XMLID_599_" class="st43" d="M285.8,33.8c-0.7-0.9,1.2-1.4,0.2-2.5c-0.8-0.8,0.3-1.7,0.4-2.6c0.4-2.3,1.2-3.9,3.8-4.3
		c0.7-0.1,1.4-0.7,2.3-1.1c0,5,0,9.9,0,14.9c0.8,0,1.4,0,2.3,0c0-5.3,0-10.6,0-15.9c0-1.1-0.6-1.5-1.3-2c-0.3-0.2-0.6-0.5-1-0.7
		c2.6,0.2,3,0.4,3,2.5c0,9.2,0,18.4,0,27.6c0,0.5,0.3,1.3-0.7,1.3c0-1.7,0-3.4,0-5.2c0-1.8,0.2-3.6-0.1-5.3c-0.9,0-1.5,0-2.1,0
		c-0.8-0.4-1.6-1.2-2.6-0.7c-0.8,0.4-1.6,0.9-2.3,1.5c-0.2,0.2-0.2,0.8-0.2,1.2c0.5,0.1,0.9,0.2,1.4,0.2c-1.2,1.8-2.7,3.5-2.3,6
		c0,0.8,0,1.5,0,2.3c-0.3,0.3-0.5,0.5-0.8,0.8c-1.3,0-2.6,0.2-3.8-0.8c1-1.3,1-2.5,0-3.8c2.1-0.5,4.2-1,4.5-3.8
		c-0.8-1-0.8-2.2-0.8-3.4s0.1-2.4-0.8-3.4c1.4-0.9,2.8-1.7,2-3.7C286.6,33.3,286.2,33.5,285.8,33.8z"/>
	<path id="XMLID_598_" class="st82" d="M288.8,42.8c-0.5-0.1-0.9-0.2-1.4-0.2c0.1-0.4,0-1,0.2-1.2c0.7-0.6,1.4-1.1,2.3-1.5
		c1-0.4,1.8,0.3,2.6,0.7c0,2.8,0,5.6,0,8.4c0,1.6,0.8,2.1,2.3,2.1c-1.6,1-2.8,0.7-3-0.8c-0.1-1.3,0-2.7,0-4.1c0-1.3,0-2.7,0-4
		c-0.2,0-0.4-0.1-0.5-0.1c-0.3,0.7-0.9,1.3-0.9,2c-0.1,1.6,0,3.2,0,4.8c-0.3-0.3-0.7-0.6-0.7-1c-0.1-1.4,0-2.7-0.1-4.1
		C289.5,43.4,289.1,43.1,288.8,42.8z"/>
	<path id="XMLID_597_" class="st77" d="M285.8,51.8c0.3-0.2,0.5-0.5,0.8-0.8c1.8,0.4,0,1.8,0.8,2.3c-1.3,2.4-3.6,3.3-5.7,4.4
		c-3.3,1.8-6.8,3.4-10.2,5c-0.4,0.2-0.9,0.2-1.4,0.3c0.3-0.9,0.9-1.2,1.7-1.6c3.5-1.6,6.9-3.5,10.4-5.2c1.7-0.8,3-2,4.2-3.3
		C286.8,52.5,286.7,51.8,285.8,51.8z"/>
	<path id="XMLID_596_" class="st88" d="M288.8,42.8c0.3,0.3,0.7,0.6,0.7,1c0.1,1.4,0,2.7,0.1,4.1c0,0.3,0.5,0.6,0.7,1
		c-0.8,1.2-1.9,0.8-2.9,0.5c-0.3-0.1-0.6-0.3-0.9-0.5C286.1,46.3,287.6,44.6,288.8,42.8z"/>
	<path id="XMLID_595_" class="st54" d="M276.1,21c1.8-1.5,1.8-1.8,1.1-4.4c1.1,0.4,1.1,0.4,1.3,2.1c0.6,0,1.1,0,2,0
		c0.4-1.5,0-3.2,0.2-5.2c-1.7,0.3-3.1,0.5-4.6,0.8c1.3-1.9,3.2-1.4,5.2-1.5c0,1.8,0,3.4,0,5c0.9-0.2,1.6-0.3,2.3-0.5
		C281.8,19.2,278.6,20.8,276.1,21z"/>
	<path id="XMLID_594_" class="st43" d="M279.8,27c0.3-1,0.6-1.9,0.9-3c1,0.3,2.2-0.9,2.8,0.7c0,2.9,0,5.8,0,9c0.8,0,1.5,0,2.3,0
		c-0.5,0.6-1,1.1-1.7,1.9c-0.8-1.1-1.4-1.9-2.1-2.9c-1.4,1.7-3.3,2.3-5.2,2.6c0.3-0.5,0.5-1,0.8-1.5c1.4-0.7,3-1.3,3.8-3
		c-0.1-1.2-0.1-2.5-0.2-3.8C280.5,27,280.2,27,279.8,27z"/>
	<path id="XMLID_593_" class="st55" d="M279.8,27c0.4,0,0.7,0,1.4,0c0.1,1.3,0.1,2.5,0.2,3.8c-0.8,1.7-2.4,2.3-3.8,3
		c-0.6,0.2-1.1,0.3-1.6,0.5c-1.5,0.8-3,1.7-4.6,2.5c-3.2,1.6-6.3,3.4-9.6,4.9c-3.2,1.5-6.2,3.5-9.6,4.9c-1.6,0.6-2.8,2-4.6,2.4
		c-1.6,0.3-3,1.8-4.5,2.5c-1.5,0.6-2.7,2-4.4,1.9c0-1.4,0-2.9,0-4.3c0-0.3,0.5-0.6,0.7-0.9c3.2-1.3,5.8-3.8,9.3-4.5
		c3.2-2.8,7.3-3.9,10.9-6c2.7-1.6,5.9-2.4,8.3-4.5c0.5-0.1,1-0.1,1.4-0.3c1.6-0.8,3.2-1.7,4.9-2.6c0.6-0.3,1.2-0.4,1.3,0.6
		c2.2,1.3,3.5,1,3.7-1.1C279,28.6,279.4,27.8,279.8,27z"/>
	<path id="XMLID_592_" class="st54" d="M275.3,30.8c-0.1-0.9-0.7-0.9-1.3-0.6c-1.6,0.8-3.2,1.7-4.9,2.6c-0.4,0.2-0.9,0.2-1.4,0.3
		c-0.3-0.2-0.5-0.5-0.8-0.7c1.2-1.5,3.1-1.7,4.5-2.7c0.9-0.6,2.3-0.7,2.3-2.3c0-0.2,0.8-0.3,1.4-0.6c-0.9-0.9-1.4-2.2-3-2
		c-1.4-0.2-0.7-1.4-0.7-2c-0.1-3.3-0.1-3.3,3.3-4.7c1.1,0.7-0.6,2.5,1.1,3c0,2.9,0,5.9,0,8.8C276,30.1,275.6,30.4,275.3,30.8z"/>
	<path id="XMLID_591_" class="st60" d="M156.8,117.8c-0.3,1.3-0.4,2.7-0.8,4c-0.1,0.3-0.9,0.4-1.4,0.5c0-1-0.1-2,0-3
		c0.2-1.6-1.2-2.1-1.9-2.9c0-0.1-0.7,0.4-1.1,0.7c-0.1-1.1,0-2.1,0.8-3C153.8,115.3,155.3,116.5,156.8,117.8z"/>
	<path id="XMLID_590_" class="st30" d="M222.1,114c-0.3-0.6,1.1-0.7,0.3-1.8c-0.6-0.7-0.2-2.2-0.3-3.6c2.3,1.9,3.4,2.2,6,1.7
		C226.8,112.7,224.4,113.3,222.1,114z"/>
	<path id="XMLID_589_" class="st73" d="M234.1,159.8c0-1,0-2,0-3c2.6,0.6,5-1,7.5-0.8c0,2.5,0,5,0,7.5c-1.4,0.4-0.5,1.5-0.8,2.3
		c-2,1.4-4.3,1.7-6.8,1.5C234.1,164.8,234.1,162.3,234.1,159.8z"/>
	<path id="XMLID_588_" class="st80" d="M241.6,163.5c0-2.5,0-5,0-7.5c-1.1-1.1-0.1-2,0.2-2.8c1.8-0.3,3.6-0.5,5.6-0.8
		c0.4,1.4,0.1,3.1,0.2,4.8c0.1,1.6,0,3.2,0,4.8c-0.1,0.2-0.1,0.5-0.3,0.6C245.5,163.8,243.5,163.5,241.6,163.5z"/>
	<path id="XMLID_587_" class="st36" d="M242.3,174c-0.9-1.1-0.7-2.4-0.8-3.6c0-0.6,0.5-1.5-0.7-1.6c0.2-0.5,0.4-1.1,0.5-1.6
		c0.1-0.4,0.2-0.9,0.3-1.4c1,0,2,0.1,3,0c1-0.1,2-0.5,3-0.7c0,1.4,0,2.7,0,4.1c0,1,0,2-1,2.5c-1,0.6,0,0.9,0.2,1.3
		c-0.6,0.1-0.5,1.5-1.6,0.6C244.1,172.6,243.2,173.7,242.3,174z"/>
	<path id="XMLID_586_" class="st89" d="M247.6,165c-1,0.3-2,0.6-3,0.7c-1,0.1-2,0-3,0c-0.3,0-0.5,0-0.8,0c0.3-0.7-0.7-1.9,0.8-2.3
		c2,0,4,0.3,5.7-0.9c0.2-0.1,0.2-0.4,0.3-0.6c1.3,0.5,0.8,1.3,0.5,2.1C247.9,164.4,247.7,164.7,247.6,165z"/>
	<path id="XMLID_585_" class="st80" d="M234.1,159.8c0,2.5,0,5,0,7.5c-1.4,0.4-0.5,1.5-0.8,2.3c-0.7,1.2-1.8,1.5-3.1,1.5
		c-1.5,0-2.9,0-4.4,0c0-2.2,0-4.4,0-6.6c0-0.3-0.5-0.6-0.7-0.9c0.3-0.9,0.7-1.7,1.1-2.7c1.1-0.2,2.6-0.5,4-0.8
		C231.5,161.5,232.7,158.7,234.1,159.8z"/>
	<path id="XMLID_584_" class="st80" d="M225.1,163.5c0.2,0.3,0.7,0.6,0.7,0.9c0.1,2.2,0,4.4,0,6.6c-1,0.2-0.9,0.7-0.5,1.4
		c0.2,0.3,0.3,0.6,0.5,0.8c-2,1.5-2,1.5-4.5,1.5c-0.7,0-1.5,0-2.2,0c0-3.4,0-6.8,0-10.3C221.1,163.8,223.3,164.9,225.1,163.5z"/>
	<path id="XMLID_583_" class="st90" d="M219.1,174.8c0.7,0,1.5,0,2.2,0c2.6,0,2.6,0,4.5-1.5c0,1,0,2,0,3c-1.3,0.2-2.5,0.6-3.8,0.7
		c-1.2,0.1-2.5,0-3.7,0C218.6,176.3,217.6,175.1,219.1,174.8z"/>
	<path id="XMLID_582_" class="st85" d="M163.6,113.3c1.2,1.3,0.3,2.5-0.4,3.9c-0.5-2.3-1.1-4.2-3-5.3c-0.3,0.4-0.7,0.9-1.1,1.4
		c0-0.9-0.3-2,0.7-2.6c-0.7-0.5-1.5-0.9-2.2-1.4c0.1-0.2,0.1-0.3,0.2-0.5c0.7,0.2,1.7,0.1,2.2,0.5
		C161.2,110.5,162.3,111.9,163.6,113.3z"/>
	<path id="XMLID_581_" class="st86" d="M222.8,81c-0.1-0.3-0.3-0.6-0.5-1.2c0.5-0.3,1-0.7,1.6-1c0.2-0.1,0.5-0.1,0.7,0
		c0.8,0.4,1.6,0.9,2.5,1.5c0.1-1,0.2-1.9,0.4-2.8c0.2-0.8,0.5-1.5,0.8-2.3c0.5-0.5,1.8,0.6,2-0.9c0.3-0.3,0.6-0.7,0.9-0.7
		c0.9-0.1,1.9,0,2.9,0c0.3,0.3,0.5,0.5,0.8,0.8c-0.5,0.8-1,1.5-1.5,2.3c-0.8,0-1.5,0-2.3,0c-0.9,0.3-1.5,0.7-1.5,1.7c0,1,0,2,0,2.9
		c0.1,1.1-0.4,1.8-1.5,2.1c-0.9-0.3-2.3-0.4-2.7-1C224.6,81.2,223,82.6,222.8,81z"/>
	<path id="XMLID_580_" class="st91" d="M228.1,83.3c1.1-0.3,1.6-1,1.5-2.1c0-1,0-2,0-2.9c0-1,0.6-1.5,1.5-1.7c-0.2,1-0.5,2-0.7,3
		c-0.2,1,0.2,1.7,1,2.1c0.7,0.4,1.5,0.3,2.3-0.4c1-0.9,1.5-1.9,1.2-3.2c1.1,0.1,0.6,0.9,0.8,1.5c0.2,0.4,0.4,0.8,0.6,1
		c-0.7,0.6-1.4,1.3-2.1,2c-1.9,0-3.8-0.3-5.1,1.5C228.7,83.8,228.4,83.5,228.1,83.3z"/>
	<path id="XMLID_579_" class="st92" d="M225.8,173.3c-0.2-0.3-0.3-0.6-0.5-0.8c-0.4-0.7-0.6-1.2,0.5-1.4c1.5,0,2.9,0,4.4,0
		c1.3,0,2.4-0.3,3.1-1.5c0.3,0,0.5,0,0.8,0c0,1,0,2,0,3c-0.3,0-0.5,0-0.8,0c-1.3,0.3-2.5,0.6-3.8,0.7
		C228.3,173.3,227,173.3,225.8,173.3z"/>
	<path id="XMLID_578_" class="st93" d="M234.1,169.5c-0.3,0-0.5,0-0.8,0c0.3-0.7-0.7-1.9,0.8-2.3c2.4,0.2,4.7-0.1,6.8-1.5
		c0.3,0,0.5,0,0.8,0c-0.1,0.5-0.1,0.9-0.3,1.4c-0.1,0.6-0.3,1.1-0.5,1.6c-1.1,0.3-2.3,0.6-3.4,0.7
		C236.3,169.6,235.2,169.5,234.1,169.5z"/>
	<path id="XMLID_577_" class="st60" d="M232.6,45c0.3,0.7,0.5,1.5,0.8,2.2c-0.6,0.8-1.2,1.5-1.8,2.2c-2.8-1.2-3.6-1-5.6,1.8
		c1.4-0.7,2.5-1.2,3.5-1.7c0.2,0.6,0.3,1,0.6,1.6c2.2-1.1,4.4-2.2,6.5-3.3c1,0.5,1.5,1.3,1.4,2.4c-0.1,2.5,0,4.9,0,7.4
		c-0.8,0-1.5,0-2.3,0c0-2,0.1-4-0.1-6.1c-0.9,0.2-1.5,0.3-2,0.4c0.2,0.2,0.4,0.3,0.6,0.5c-0.5,0.5-2.7,1.3-3.8,1.5
		c-0.2,0.3-0.7,0.6-0.7,0.9c-0.1,2.8,0,5.6,0,8.5c-0.5,0.3-0.9,0.9-1.5,1c-1.1,0.3-1,0.8-0.4,1.5c1.9-1.2,2.2-1.3,5.4-1.5
		c1-0.1,1.5-0.6,1.7-1.5c1.2-0.2,2.4-0.4,3.8-0.7c0,1.4,0,2.6,0,3.8c0,0.2,0.5,0.4,0.7,0.6c-0.3,1.1-1,1.6-2.2,1.5
		c-1.8-0.2-1.3-2-2-3.2c-0.7,0.9-1.3,1.7-1.9,2.4c-0.8,0-1.5,0-2.3,0c-0.5,0-0.9,0-1.5,0c0,2.4,0,4.6,0,6.8
		c-0.9-0.3-1.8-0.4-2.7-0.8c-1.4-0.6-2.7-1.3-4.1-2c0-0.1-0.1-0.4,0-0.6c2.6-3.2,2.8-3.9,1.4-7.4c-0.4-1.1-1.1-2.3-2.7-2.1
		c-0.1,0-0.2-0.4-0.3-0.6c0.4,0,0.8,0.1,1.1,0c0.7-0.2,1.3-0.7,1.9-0.7s1.3,0.5,1.9,0.7c0.2,0.1,0.5,0,0.9-0.1c0-2.7,0-5.3,0-8.1
		c-1.2,0.6-2.2,1.1-3.5,1.7c-0.8,1.7,0.9,4.1-1.2,5.7c-1.4-1.6-1.4-1.6-1.1-9.6C224.9,48.3,228.6,46.4,232.6,45z"/>
	<path id="XMLID_576_" class="st54" d="M229.6,74.3c0-2.2,0-4.3,0-6.8c0.6,0,1,0,1.5,0c-0.2,1-0.5,2-0.7,3c-0.2,1,0.2,1.7,1,2.1
		c0.7,0.4,1.5,0.3,2.3-0.4c1-0.9,1.5-1.9,1.2-3.2c1.6,0.2,0.1,1.8,0.7,2.1c1.5-0.5,2.6-0.9,3.8-1.3c0,0.5,0,0.9,0,1.8
		c2.5-1.2,4.6-2.3,6.8-3.3c0.6,0.1,1.4-0.4,1.5,0.8c-0.4,0-0.9-0.2-1.1,0c-1.3,1.3-2.8,2-4.6,2.4c-0.9,0.2-2.4,0.6-2.6,2.1
		c-1.6-0.1-0.1-1.9-1.4-2.3c-1.3,0.6-2.7,1.2-3.9,2.3c-1,0-1.9-0.1-2.9,0c-0.3,0-0.6,0.5-0.9,0.7C230.1,74.3,229.8,74.3,229.6,74.3z
		"/>
	<path id="XMLID_575_" class="st94" d="M267.1,32.3c0.3,0.2,0.5,0.5,0.8,0.8c-2.5,2.1-5.6,2.9-8.3,4.5c-3.6,2.1-7.7,3.2-10.9,6
		c-3.5,0.7-6.1,3.2-9.3,4.5c-0.1-1.1-0.9-0.6-1.5-0.8c2.1-1.9,5-2.6,7.4-4c6.7-3.8,13.6-7.2,20.5-10.7
		C266.1,32.3,266.6,32.3,267.1,32.3z"/>
	<path id="XMLID_574_" class="st95" d="M237.8,47.3c0.6,0.1,1.4-0.4,1.5,0.8c-0.3,0.3-0.7,0.6-0.7,0.9c-0.1,1.4,0,2.9,0,4.3
		c0.2,0.5,0.5,1,0.8,1.5c-0.3,0.3-0.7,0.6-0.7,0.9c-0.1,0.7,0,1.4,0,2.1c-0.3,0-0.5,0-0.8,0c0-2.5-0.1-4.9,0-7.4
		c0-1.1-0.4-1.8-1.4-2.4c-2.1,1-4.2,2.1-6.5,3.3c-0.2-0.6-0.4-1-0.6-1.6c-1.1,0.5-2.1,1-3.5,1.7c2-2.8,2.8-3,5.6-1.8
		c0.6-0.7,1.2-1.5,1.8-2.2c0.3,0.3,0.8,0.8,0.9,0.7C235.2,47,236.6,47.3,237.8,47.3z"/>
	<path id="XMLID_573_" class="st55" d="M239.3,73.5c0.2-1.5,1.7-1.9,2.6-2.1c1.8-0.4,3.3-1.1,4.6-2.4c0.2-0.2,0.7,0,1.1,0
		c4-2.4,8.2-4.2,12.2-6.5c4.5-2.6,9.3-4.6,13.9-7c2.8-1.4,5.9-2.4,8.4-4.5c1.1,1,2.5,0.7,3.8,0.8c0.9,0.1,1,0.8,0.6,1.2
		c-1.2,1.3-2.5,2.5-4.2,3.3c-3.5,1.6-6.9,3.5-10.4,5.2c-0.8,0.4-1.5,0.7-1.7,1.6c-1.8-0.4-3.4,0.6-4.5,1.6c-1.9,1.7-4.4,2-6.4,3.6
		c-1.8,1.5-4.3,2-6.5,3.1c-1.9,0.9-3.6,2.2-5.5,3c-3.9,1.6-7.4,4.2-11.6,5.3c-0.1-0.6,0.4-1.4-0.8-1.5c-0.5-0.5-1-1-1.5-1.5
		c0.5-0.7,1-1.5,1.5-2.3c1.3,0.1,0.5,1.2,0.8,1.7c0.4,0.7,0.9,1.5,2,1.3c1-0.2,1.8-0.7,1.8-1.9C239.3,74.7,239.3,74.1,239.3,73.5z"
		/>
	<path id="XMLID_572_" class="st55" d="M238.6,57.8c0-0.7-0.1-1.4,0-2.1c0.1-0.3,0.5-0.6,0.7-0.9c0.3-0.2,0.6-0.4,0.9-0.5
		c11.2-5.6,22.4-11.1,33.6-16.8c1.1-0.5,2.6-0.7,3-2.2c2-0.2,3.8-0.9,5.2-2.6c0.7,1,1.3,1.8,2.1,2.9c0.7-0.7,1.2-1.3,1.7-1.9
		c0.4-0.2,0.8-0.4,1.3-0.7c0.8,2-0.6,2.9-2,3.7c-0.8,0.5-1.5,1-2.3,1.5c-1.3-0.1-2.2,0.5-3,1.5c-4.6,2.4-9,5.1-13.7,7.4
		c-2.5,1.2-5.1,2.1-7.3,3.9c-0.2,0.1-0.5,0-0.7,0c-0.4,0-0.8-0.1-1.1,0c-5.4,2.7-10.8,5.5-16.2,8.2c-0.8,0.5-1.5,1-2.3,1.5
		c-0.6,0.3-1.2,0.6-2.1,1c0-1.2-0.9-2.3,1-2.6C237.9,59.1,238.2,58.2,238.6,57.8z"/>
	<path id="XMLID_571_" class="st55" d="M239.3,69.8c-1.2,0.4-2.3,0.8-3.8,1.3c-0.6-0.3,0.8-1.9-0.7-2.1c-0.5-0.5-1-1-1.5-1.5
		c0.6-0.8,1.2-1.5,1.9-2.4c0.6,1.2,0.2,3,2,3.2c1.2,0.1,1.8-0.4,2.2-1.5c-0.2-2,0.7-3.1,2.6-3.8c2.1-0.8,4.1-2,6.2-3.1
		c2.1-1,4.1-2.1,6.2-3.2c2-1.1,3.9-2.9,6.1-3.3c2.5-0.5,4-2.3,6.2-3.2c4.4-1.8,8.5-4.2,12.7-6.3c1.1-0.6,2.3-1.3,3.7-1.1
		c0.1,0.6-0.3,1.5,0.9,1.5c1.1,0,2-0.1,2.9-0.8c-0.3,2.7-2.4,3.2-4.5,3.8c-3.2,1.3-6.2,3.1-9.3,4.7c-3.1,1.5-6.2,3.1-9.2,5
		c-3.7,2.3-7.8,4-11.7,5.9c-2.5,1.1-4.6,2.7-7,3.9c-0.9,0.4-1.9,0.7-2.8,1.4C241.3,68.8,239.8,68.5,239.3,69.8z"/>
	<path id="XMLID_570_" class="st96" d="M239.3,69.8c0.5-1.3,2-1,2.8-1.7c0.8-0.7,1.8-1,2.8-1.4c2.4-1.1,4.5-2.7,7-3.9
		c4-1.8,8.1-3.5,11.7-5.9c3-1.9,6.1-3.5,9.2-5c3.1-1.5,6-3.4,9.3-4.7c1,1.3,1,2.5,0,3.8c-2-0.4-2-0.4-4,0.6
		c-3.6,1.8-7.2,3.7-10.8,5.5c-4.3,2.2-8.6,4.4-12.9,6.6c-2.8,1.5-5.9,2.4-8.4,4.5c-2.1,1-4.3,2.1-6.8,3.3
		C239.3,70.7,239.3,70.2,239.3,69.8z"/>
	<path id="XMLID_569_" class="st86" d="M294.8,51c-1.4,0.1-2.3-0.5-2.3-2.1c0-2.8,0-5.6,0-8.4c0.6,0,1.2,0,2.1,0
		c0.3,1.7,0.1,3.6,0.1,5.3C294.8,47.6,294.8,49.3,294.8,51z"/>
	<path id="XMLID_568_" class="st88" d="M286.6,43.5c-0.9,0.6-1.8,0.8-2.9,0.8c-1.2-0.1-0.8-0.9-0.9-1.5c1.7-0.2-0.3-0.9,0.2-1.3
		c1.3-1.1,0.3-2.1-0.2-3.2c0.8-0.5,1.5-1,2.3-1.5c0.8,1,0.8,2.2,0.8,3.4S285.7,42.5,286.6,43.5z"/>
	<path id="XMLID_567_" class="st94" d="M276.8,35.3c-0.4,1.6-1.9,1.7-3,2.2c-11.2,5.6-22.4,11.2-33.6,16.8c-0.3,0.2-0.6,0.3-0.9,0.5
		c-0.3-0.5-0.5-1-0.8-1.5c1.8,0.1,3-1.3,4.4-1.9c1.6-0.7,2.9-2.2,4.5-2.5c1.9-0.4,3-1.7,4.6-2.4c3.3-1.3,6.3-3.3,9.6-4.9
		c3.2-1.5,6.4-3.2,9.6-4.9c1.5-0.8,3-1.7,4.6-2.5c0.5-0.3,1.1-0.4,1.6-0.5C277.3,34.3,277.1,34.8,276.8,35.3z"/>
	<path id="XMLID_566_" class="st52" d="M239.3,73.5c0,0.6,0,1.2,0,1.9c0,1.2-0.7,1.7-1.8,1.9c-1.1,0.2-1.6-0.6-2-1.3
		c-0.3-0.5,0.5-1.6-0.8-1.7c-0.3-0.3-0.5-0.5-0.8-0.8c1.1-1.2,2.6-1.7,3.9-2.3C239.2,71.6,237.7,73.4,239.3,73.5z"/>
	<path id="XMLID_565_" class="st97" d="M233.3,76.5c0.5,0.5,1,1,1.5,1.5c0.2,1.3-0.3,2.3-1.2,3.2c-0.8,0.7-1.5,0.8-2.3,0.4
		c-0.8-0.4-1.3-1.1-1-2.1c0.2-1,0.5-2,0.7-3C231.8,76.5,232.6,76.5,233.3,76.5z"/>
	<path id="XMLID_564_" class="st98" d="M282.8,38.3c0.4,1,1.5,2.1,0.2,3.2c-0.5,0.4,1.5,1.1-0.2,1.3c-1.4-0.3-2.5,0.5-3.7,1.1
		c-4.2,2.1-8.3,4.5-12.7,6.3c-2.2,0.9-3.7,2.7-6.2,3.2c-2.2,0.4-4,2.2-6.1,3.3c-2,1.1-4.1,2.1-6.2,3.2c-2.1,1-4,2.3-6.2,3.1
		c-1.9,0.7-2.8,1.8-2.6,3.8c-0.3-0.2-0.7-0.4-0.7-0.6c-0.1-1.2,0-2.4,0-3.8c-1.3,0.2-2.5,0.5-3.8,0.7c0.2-0.8,0.5-1.5,0.8-2.6
		c-0.7-0.6-1.5-1.2-2.3-1.9c0.4-1.4,1.1-1.6,2.3-0.8c0.8,0,1.5,0,2.3,0c0.3,0,0.5,0,0.8,0c-0.4,0.5-0.7,1.3-1.1,1.4
		c-1.9,0.3-1,1.4-1,2.6c0.8-0.4,1.5-0.7,2.1-1c0.4,0.5,0.8,1,1.2,1.6c2.1-1.2,4.2-2.4,6.3-3.5c10.6-5.4,21.2-10.7,31.8-16.1
		c0.9-0.5,1.8-1.2,2.6-1.7c-0.3-0.5-0.5-0.9-0.7-1.3C280.6,38.8,281.5,38.2,282.8,38.3z"/>
	<path id="XMLID_563_" class="st19" d="M235.6,57.8c-1.1-0.8-1.9-0.6-2.3,0.8c-1.4-0.3-2,0.8-2.6,1.6c-0.9,1.1-0.2,2.8,1.2,2.9
		c1,0.1,1.9,0,2.9,0c-0.3,0.9-0.7,1.4-1.7,1.5c-3.2,0.2-3.5,0.3-5.4,1.5c-0.5-0.7-0.7-1.2,0.4-1.5c0.5-0.1,1-0.6,1.5-1
		c0-2.9,0-5.7,0-8.5c0-0.3,0.5-0.6,0.7-0.9c0.2,1.2-0.4,2.6,0.4,3.9c1.2-0.7,2.2-1.2,3.2-1.9c1.3-0.9,1.3-1.7,0.2-3.5
		c-0.2-0.2-0.4-0.3-0.6-0.5c0.6-0.1,1.1-0.2,2-0.4C235.6,53.7,235.5,55.7,235.6,57.8z"/>
	<path id="XMLID_562_" class="st97" d="M233.3,67.5c0.5,0.5,1,1,1.5,1.5c0.2,1.3-0.3,2.3-1.2,3.2c-0.8,0.7-1.5,0.8-2.3,0.4
		c-0.8-0.4-1.3-1.1-1-2.1c0.2-1,0.5-2,0.7-3C231.8,67.5,232.6,67.5,233.3,67.5z"/>
	<path id="XMLID_561_" class="st99" d="M234.1,52.5c1.1,1.8,1.1,2.7-0.2,3.5c-0.9,0.7-2,1.2-3.2,1.9c-0.8-1.3-0.2-2.7-0.4-3.9
		C231.3,53.8,233.6,53,234.1,52.5z"/>
	<path id="XMLID_560_" class="st48" d="M246.1,68.3c2.5-2.1,5.6-3,8.4-4.5c4.3-2.3,8.6-4.4,12.9-6.6c3.6-1.8,7.2-3.7,10.8-5.5
		c1.9-1,2-1,4-0.6c-2.5,2.1-5.6,3-8.4,4.5c-4.6,2.4-9.4,4.4-13.9,7c-4,2.3-8.3,4.1-12.2,6.5C247.5,67.9,246.6,68.4,246.1,68.3z"/>
	<path id="XMLID_559_" class="st31" d="M279.8,39.7c0.2,0.4,0.5,0.8,0.7,1.3c-0.9,0.6-1.7,1.2-2.6,1.7
		c-10.6,5.4-21.2,10.7-31.8,16.1c-2.2,1.1-4.2,2.3-6.3,3.5c-0.5-0.6-0.9-1.1-1.2-1.6c0.8-0.5,1.5-1,2.3-1.5c0.1,1,0.7,0.9,1.3,0.6
		c4.9-2.4,9.7-4.9,14.6-7.4c0.6-0.3,1-1,1.4-1.5c0.2,0,0.6,0.1,0.7,0c2.2-1.7,4.8-2.7,7.3-3.9C270.8,44.9,275.2,42.1,279.8,39.7z"/>
	<path id="XMLID_558_" class="st52" d="M258.1,51c-0.5,0.5-0.8,1.2-1.4,1.5c-4.8,2.5-9.7,4.9-14.6,7.4c-0.6,0.3-1.2,0.4-1.3-0.6
		c5.4-2.8,10.8-5.5,16.2-8.2C257.2,50.9,257.7,51,258.1,51z"/>
	<path id="XMLID_557_" class="st100" d="M234.8,63c-1,0-2,0.1-2.9,0c-1.4-0.2-2.1-1.9-1.2-2.9c0.7-0.8,1.3-1.9,2.6-1.6
		c0.8,0.7,1.6,1.3,2.3,1.9C235.3,61.5,235,62.2,234.8,63z"/>
</g>
<g id="XMLID_31_">
</g>
<g id="XMLID_32_">
</g>
<g id="XMLID_33_">
</g>
<g id="XMLID_34_">
</g>
<g id="XMLID_35_">
</g>
<g id="XMLID_36_">
</g>
</svg>
