<?xml version="1.0" encoding="UTF-8" standalone="no"?>
<!DOCTYPE svg PUBLIC "-//W3C//DTD SVG 1.1//EN" "http://www.w3.org/Graphics/SVG/1.1/DTD/svg11.dtd">
<svg width="100%" height="100%" viewBox="0 0 681 304" version="1.1" xmlns="http://www.w3.org/2000/svg" xmlns:xlink="http://www.w3.org/1999/xlink" xml:space="preserve" xmlns:serif="http://www.serif.com/" style="fill-rule:evenodd;clip-rule:evenodd;stroke-linejoin:round;stroke-miterlimit:2;">
    <path id="XMLID_851_" d="M325.4,291C318.2,290.7 311.1,290.4 303.9,290.2C298.9,290.1 293.8,290.2 288.8,290.2L288.8,289.5C290,288.6 291.3,287.7 292.5,286.9C292.8,286.7 293.3,286.5 293.8,286.6C300.1,286.7 306.5,286.6 312.8,287.1C320.5,287.7 328.2,289 335.9,289.7C340.5,290.1 345.1,289.9 349.7,290.2C357.8,290.6 365.8,291.1 373.9,291.6" style="fill:rgb(110,110,110);fill-opacity:0.18;fill-rule:nonzero;"/>
    <path id="XMLID_9_" d="M627,291.8C628.7,291.7 630.2,291.6 631.7,291.5" style="fill:rgb(146,146,146);fill-opacity:0.18;fill-rule:nonzero;"/>
    <path id="XMLID_844_" d="M680.3,224.7C667.5,224.5 654.7,223.8 642,224.5C634.2,224.9 626.6,223.5 618.9,223.9C618.5,223.9 618.1,223.3 617.6,223C618,222.8 618.3,222.4 618.6,222.4C621.7,222.9 624.6,222.9 627.8,222C631,221.1 634.6,221.3 637.9,221.8C651.9,223.7 666.1,223.3 680.1,223.3C680.3,223.8 680.3,224.2 680.3,224.7Z" style="fill:rgb(102,102,102);fill-opacity:0.18;fill-rule:nonzero;"/>
    <path id="XMLID_838_" d="M0,264.7C4.1,264.8 8.1,264.9 12.2,265C13.4,265 14.5,265.2 15.7,265.3L15.7,266.1L0.1,266.1C0,265.6 0,265.1 0,264.7Z" style="fill:rgb(125,125,125);fill-opacity:0.18;fill-rule:nonzero;"/>
    <path id="XMLID_8_" d="M0,302.9L0,301.5C1.6,301.5 3.2,301.4 4.7,301.7C5.4,301.8 5.9,302.9 6.5,303.6" style="fill:rgb(96,96,96);fill-opacity:0.18;fill-rule:nonzero;"/>
    <path id="XMLID_832_" d="M378.7,239.6C385.6,239.7 392.5,239.9 399.4,240C400,240 400.7,240.3 401.3,240.5L380.5,240.5L380.5,241.4L388.2,241.4C393.9,241.6 399.7,241.7 405.4,241.9C404.9,242.3 404.5,242.8 403.5,243.7C405.8,243.1 407.4,242.7 409.1,242.3L410,242.3C411.7,242.7 413.4,243.5 415.1,243.5C419.3,243.7 423.6,243.7 427.9,243.6C434.7,243.5 441.4,243.3 448.2,243.1L450,243.1C452.2,243.4 454.1,245.7 456.5,243.8C456.6,243.7 457.1,244 457.3,244C458.2,244.1 459,244.4 459.9,244.3C462.1,244.1 464.2,243.5 466.4,243.7C469.6,243.9 472.7,244.6 475.9,245.1C476.3,245.2 476.8,245.1 477.3,245.1L484.6,245.1L484.6,245.8C483.9,245.9 483.3,246.1 482.6,246.1C476.1,246.1 469.5,246 463,246L454.4,246C452.2,246 449.7,246.7 448.1,244.2C448.1,244.1 447.8,244.2 447.5,244.2C447.6,244.7 447.7,245.1 447.9,245.8C445.5,245.9 443.3,243.8 440.9,245.3C440.8,245.4 440.4,244.9 440.2,244.8C439.5,244.7 438.8,244.4 438.2,244.6C433.7,246.2 429.2,244.7 424.7,244.7L413.4,244.7L413.4,245.5L420.1,245.5C420.1,245.7 420.1,245.9 420.2,246.2C419.7,246.4 419.1,246.7 418.6,246.7C413.5,246.7 408.4,246.8 403.3,246.7C402.4,246.7 401.5,245.9 400.6,245.5C400.7,245.2 400.8,244.9 400.9,244.7C403.1,244.9 405.2,245 407.4,245.2C407.4,244.9 407.4,244.7 407.5,244.4C405.1,244.3 402.7,244.2 400.3,244.1C400.1,244.1 399.8,244.3 399.8,244.5C399.7,247.1 397.8,246.1 396.5,246.2C394.8,246.3 393,246.1 391.3,246.2C387,246.4 382.8,246.8 378.6,247.1C378.2,247.1 377.9,247.3 377.4,247.4C377.8,247.8 378,248.1 378.3,248.4C375.7,249 375.6,248.9 375.1,247C372.7,247.7 369.7,245.8 367.6,248.6C367.5,248.8 366.5,248.7 366.4,248.5C365.3,246.7 364,247.7 362.7,248C362.2,248.1 361.6,248.1 361,248C360.2,247.9 359.4,247.8 358.6,247.7C358.5,247.9 358.5,248.2 358.4,248.4C359.3,248.7 360.1,249.2 361,249.3C362.9,249.6 364.9,249.6 366.9,249.8C367.1,249.8 367.2,250.4 367.3,250.7C363.8,250.7 360.2,250.6 356.7,250.6C355,250.6 353.2,250.9 351.5,251.1C349,250.8 346.4,250.3 343.9,250.1C341.7,249.9 339.5,249.8 337.2,249.7C336.6,249.7 336,249.8 335.4,249.8C332.3,249.9 329.2,250.1 326.1,250C324.9,249.9 323.8,249 322.4,248.3C321.5,248.7 320.2,249.3 318.6,250C320.3,250.6 321.8,251.1 323.2,251.6C316.7,251.5 310.3,251.3 303.8,251.2C302.8,251.2 301.9,251.4 300.9,251.4C300,251.4 298.9,251.6 298.3,251.2C296.6,249.7 294.9,249.9 292.9,250.3C291.5,250.6 289.8,251 289.2,248.7C289.1,248.3 288.1,248.1 287.3,247.7C288.1,247.4 288.6,247.1 289.2,246.9C289.2,246.7 289.1,246.5 289.1,246.3C287.8,246.5 286.5,246.7 284.7,247C282.2,244 279.7,247.6 276.9,248C275.9,248.1 274.9,248.4 273.9,248.6C273.6,246.7 273.4,245.1 273.1,243.3C271.3,243.2 270.1,242.4 271,240C270.2,239.9 269.6,239.8 268.9,239.7C268.6,239.4 268.3,239.1 268,238.9C272.1,238.6 276.2,238.3 280.3,238.2C281.6,238.1 283,238.4 284.3,238.5C285,238.9 285.7,239.2 286.7,239.7C287.2,239.5 288,239 289,238.9C291.2,238.7 293.5,238.7 295.7,238.6C296.5,238.6 297.4,238.3 298.2,238.3C301.7,238.5 305.2,239 308.6,239.1C312.6,239.3 316.5,238.9 320.5,239.3C323.6,239.6 326.7,240 329.8,239.1C330.7,238.8 331.8,239.4 332.9,239.5C336.1,239.9 339.4,240.2 342.6,240.6C342.8,240.6 343,240.5 343.7,240.3C342.3,239.9 341.7,239.7 341.4,239.6L360.7,239.6L360.7,240.1C360.2,240.2 359.8,240.4 359.3,240.5L359.3,241L372.6,241L372.6,240.5C371.9,240.4 371.2,240.3 370.5,240.2L370.5,239.8C373.7,239.6 376.2,239.6 378.7,239.6Z" style="fill:rgb(126,126,126);fill-opacity:0.18;fill-rule:nonzero;"/>
    <path id="XMLID_829_" d="M323.4,251.5C322,251 320.6,250.5 318.8,249.9C320.3,249.2 321.7,248.6 322.6,248.2C324,248.9 325.1,249.9 326.3,249.9C329.4,250.1 332.5,249.8 335.6,249.7C336.2,249.7 336.8,249.6 337.4,249.6C339.6,249.7 341.8,249.8 344.1,250C346.6,250.3 349.2,250.7 351.7,251C352.7,251.3 353.7,251.7 354.7,251.8C357.8,252 360.9,252 364,252.1C364.5,252.1 365.1,252.2 365.6,252C366.3,251.6 366.9,251 367.6,250.5C367.5,250.2 367.3,249.6 367.2,249.6C365.2,249.4 363.3,249.3 361.3,249.1C360.4,249 359.6,248.5 358.7,248.2C358.8,248 358.8,247.7 358.9,247.5C359.7,247.6 360.5,247.7 361.3,247.8C361.9,247.8 362.4,247.9 363,247.8C364.3,247.5 365.7,246.6 366.7,248.3C366.8,248.5 367.8,248.6 367.9,248.4C370,245.6 372.9,247.5 375.4,246.8C375.9,248.8 376,248.8 378.6,248.2C378.3,247.9 378,247.6 377.7,247.2C378.2,247.1 378.5,246.9 378.9,246.9C383.1,246.6 387.4,246.2 391.6,246C393.3,245.9 395.1,246.1 396.8,246C398.1,246 400,247 400.1,244.3C400.1,244.2 400.4,243.9 400.6,243.9C403,244 405.4,244.1 407.8,244.2C407.8,244.5 407.8,244.7 407.7,245C405.5,244.8 403.4,244.7 401.2,244.5C401.1,244.8 401,245.1 400.9,245.3C401.8,245.7 402.7,246.5 403.6,246.5C408.7,246.6 413.8,246.6 418.9,246.5C419.4,246.5 420,246.2 420.5,246C420.5,245.8 420.5,245.6 420.4,245.3L413.7,245.3L413.7,244.5L425,244.5C429.5,244.5 434,246 438.5,244.4C439.1,244.2 439.8,244.5 440.5,244.6C440.8,244.7 441.1,245.1 441.2,245.1C443.6,243.7 445.7,245.7 448.2,245.6C448.1,244.9 448,244.5 447.8,244C448.1,244 448.3,243.9 448.4,244C450,246.5 452.5,245.7 454.7,245.8C457.6,245.9 460.4,245.8 463.3,245.8C469.8,245.8 476.4,245.9 482.9,245.9C483.6,245.9 484.2,245.7 484.9,245.6L484.9,244.9L477.6,244.9C477.1,244.9 476.7,245 476.2,244.9C473,244.4 469.9,243.7 466.7,243.5C464.6,243.4 462.4,244 460.2,244.1C459.3,244.2 458.5,243.9 457.6,243.8C457.3,243.8 456.9,243.5 456.8,243.6C454.4,245.5 452.4,243.1 450.3,242.9C450.9,241.2 452,240.2 453.9,240.2C456.8,240.2 459.7,239.9 462.5,240.2C465,240.4 467.5,241.6 470,241.8C475.6,242.3 481.2,242.4 486.9,242.7C487.5,242.7 488.1,242.7 488.7,242.8C492.7,244.1 496.8,244.3 501,243.9C501.7,243.8 502.4,243.9 503,244C504,244.1 504.9,244.4 505.9,244.4C509.5,244.5 513,244.4 517,244.2C516.4,244 515.9,243.8 515.3,243.6C515.4,243.3 515.6,243.1 515.7,242.8C518.2,243 520.7,243 523.2,243.6C525.1,244 526.9,245.3 528.8,245.7C530.9,246.2 533.1,246.1 535.2,246.3L536.7,246.3L536.7,246.9C535.3,246.9 533.8,246.8 532.4,246.9C527.6,247.3 522.8,247.9 518,248.1C513.1,248.3 508.2,248.1 503.2,248.2C502.5,248.2 501.8,248.3 501.1,248.4L501.1,249C502,249 503,249.1 503.9,249.1C514.2,249.2 524.4,249.2 534.7,249.5C535.6,249.5 537.1,250.6 537.3,251.4C537.6,252.7 536.9,254.1 535.1,254.2C532,254.3 528.9,254.5 525.9,254.5C525.3,254.5 524.8,253.8 524.2,253.4C524.8,253.1 525.4,252.6 526,252.6C528.4,252.7 530.8,253.1 533.2,253.2C533.9,253.2 534.7,252.5 535.5,252.1C534.8,251.6 534.1,251.2 533.4,250.8C533.1,250.6 532.7,250.6 532.3,250.7C526.2,250.9 520.1,251.1 514,251.2C512.5,251.2 511.1,250.9 509.6,250.6C509.3,250.6 509,250.3 508.7,250.3C504.8,250.4 500.9,250.5 497,250.5C495.9,250.5 494.8,250.4 493.7,250.3C490.2,249.9 486.8,249.5 482.8,249C483.3,250.3 483.6,251.1 484,251.9C480.8,253.8 468,253.4 465.9,251.2C463.7,253.9 460.8,252 458.1,252.5C456.9,252.8 455.5,252.7 454.3,252.5C453,252.3 451.7,251.7 450.4,251.3C449.5,251.1 448.1,250.6 447.6,251C445.5,252.5 443.3,252.7 440.9,252.6C438.2,252.5 435.6,252.6 432.9,252.6L432.9,252C434.5,251.7 436,251.4 438,251.1C435.2,249.8 432.8,250.3 430.3,251.2C429.6,251.5 428.9,251.8 428.2,251.8C421.8,251.6 415.4,251.3 409,251C408.7,251 408.3,251 408.1,251.1C405.8,252.4 404.2,252.5 403.1,249.5C402.7,248.3 397.4,248.1 395.8,248.8C395.2,249 394.4,248.7 393.7,248.7C393.7,248.2 393.8,247.7 393.9,247.1C391.4,247.8 388.9,245.7 386.4,247.5C387.3,248 388,248.3 388.7,248.7C388.1,249.4 387.5,250.1 386.6,251.1C385.1,249 383,250.3 380.9,250.3C377.6,250.2 374.4,252.3 371.1,250.8C370.8,250.7 370.3,250.9 369.9,251L369.9,251.8L380,251.8L380,252.9L370.9,252.9C367.2,253 363.4,253.1 359.7,253.2C355.8,253.3 351.9,253.4 348,253.2C340.7,252.9 333.4,252.5 326.1,252C325.2,252.3 324.3,251.8 323.4,251.5ZM516.7,247.6L516.7,247.2L502.4,247.2L502.4,247.6L516.7,247.6Z" style="fill:rgb(108,108,108);fill-opacity:0.18;fill-rule:nonzero;"/>
    <path id="XMLID_825_" d="M152.1,258.3C152.2,256.6 150.9,256.8 149.9,256.8C145.7,256.8 141.6,257 137.4,256.9C133.9,256.8 130.4,256.4 126.9,256.1C126.9,255.8 126.9,255.6 126.8,255.3C128.8,255 130.7,254.6 132.7,254.5C134.8,254.4 137,254.6 139.1,254.5C139.7,254.5 140.3,254 140.9,253.7C140.7,252.2 137.1,254.7 138.7,251.5C138.1,250.8 137.4,250 136.7,249.2C138.9,249.5 141.1,249.7 143.7,250.1C143,249.1 142.5,248.3 142,247.6C145.4,246.2 146,246.2 146.4,247.3C147.9,247.2 149.2,247 150.6,247C155.5,247 160.3,247.1 165.2,247.2C167.1,247.2 169,247.1 170.9,247.1C171.4,247.1 171.9,247.6 172.9,248.3C170.9,248.5 169.5,248.7 168.1,248.9C168.1,249.1 168.1,249.4 168.2,249.6C170.5,249.5 172.7,249.4 175.3,249.3C174.8,248.4 174.4,247.9 174.1,247.3L185.2,247.3C185.2,247.5 185.2,247.7 185.3,248C182.7,249.3 179.6,248.1 176.8,249L176.8,249.9C177.7,249.9 178.7,250.2 179.6,250C181.3,249.5 182.9,248.9 184.3,250.6C184.5,250.8 185.7,250.7 185.8,250.5C186.5,248.7 187.8,249.4 189,249.5C190.4,249.7 191.9,249.7 193.9,249.8C193,248.8 192.6,248.3 191.8,247.5C193.4,247.6 194.5,247.6 195.6,247.7C195.9,251.4 198.6,249 200,249.7C201.3,250.4 203,250.9 201.4,252.8C202.1,253.7 202.8,254.5 203.4,255.4C203.7,255.9 204,256.3 204.2,256.8C204.5,257.3 204.6,258.3 204.9,258.3C205.7,258.4 206.5,258.2 207.3,258.1C205.7,256 204.5,254.3 203.2,252.6C203.8,252.4 204.5,252 205.1,252C206.7,252 208.3,252.2 209.8,252.2L209.8,251.9C208.2,251.2 206.6,250.6 204.9,249.9L214.9,249.9C215.8,252 217.3,250.5 218.6,250.6C218.9,250.6 219.2,250.1 219.6,249.8C219.1,249.2 218.7,248.7 218,248C218.9,248.1 219.4,248.1 219.9,248.1C220.8,248 221.7,247.8 222.6,247.7C222.4,250.1 224.2,249.5 225.5,249.4L225.5,251.9C224.1,252.2 222.9,252.4 221.6,252.7C221.5,253.1 221.3,253.6 221.2,254L211.6,254L211.6,254.4C212.2,254.6 212.8,254.7 213.5,254.9C214.4,255.2 215.3,255.6 216.2,255.9C217.1,256.2 217.9,256.5 218.8,256.7L218.8,257.6C216.9,257.9 215,258.1 213.2,258.4L213.2,258.8C222.9,259.5 232.6,260.1 242.3,260.8L242.3,261.2C241.7,261.3 241.1,261.4 240.5,261.4C234.5,261.2 228.6,261.1 222.6,260.8C220.7,260.7 218.5,261.6 216.8,260C216.6,259.9 215.9,260.2 215.6,260.4C214.2,261.6 212.9,261.8 211.9,259.7C210,262.3 207.3,261.5 205.1,261.2C203.6,261 201.2,261.9 200.4,259.4C200.4,259.3 200,259.2 199.8,259.2C197.6,259.3 195.3,259.1 193.1,259.5C190.8,260 188.7,260.8 186.6,259.2C186.5,259.1 186.2,259.2 185.9,259.2C181.4,260.1 177.3,259.4 173.4,257C173,256.7 172,256.6 171.8,256.9C169.7,258.9 167.3,257.8 165,257.9C165,257.7 164.9,257.5 164.9,257.3C165.7,257.2 166.4,256.9 167.2,257C168,257 168.9,257.2 169.7,257.3C169.7,257.1 169.7,256.8 169.8,256.6L161.8,256.6C162.2,256.8 162.6,257 163,257.2C162.9,257.4 162.8,257.7 162.8,257.9C160.1,258.5 157.4,259.2 154.8,259.8L154.8,260.5C153.6,259.9 152.9,259.1 152.1,258.3ZM177.8,256.7L177.8,257.4C179,257.6 180.5,258.4 181.5,258C184.8,256.7 187.8,257.4 191,258.2C192.8,258.7 194.8,258.6 196.6,258.6C198.2,258.6 199.9,258.3 201.5,258.1L201.5,257.1C200.8,257 200.1,257 199.4,256.9C197.3,256.7 195.4,258 193,257C188,254.8 182.9,256.8 177.8,256.7Z" style="fill:rgb(107,107,107);fill-opacity:0.18;fill-rule:nonzero;"/>
    <path id="XMLID_824_" d="M292,226.5C291.5,226.9 291,227.2 290.3,227.7C295.3,229.8 299.9,232 305.5,230.4C306.1,229 307.2,228.6 309.1,229.7C310.5,230.5 312.2,231 313.8,231.2C314.7,231.3 315.8,230.7 316.8,230.3C317.8,229.9 318.8,229.1 319.8,228.9C321,228.7 322.4,228.7 323.6,229C324.3,229.1 325,229.8 325.6,230.4C327.4,230.4 329.5,229.1 331,231.6C331.1,231.7 331.6,231.6 331.8,231.5C335.4,229.5 339.2,230.4 342.9,230.5C345.2,230.5 347.5,231 349.8,231.1C350.6,231.1 351.5,230.5 352.7,230.1C356.6,231.8 359.4,231.6 361.1,229.3C362.2,231.1 363.6,231.4 365.7,231C367.3,230.7 369.2,231.5 371.4,231.8C371.4,231.8 372.1,231 372.5,231.1C375.2,231.9 377.9,230.3 380.6,231.6C381.5,232 382.9,231.3 384.1,231.3C388.3,231.3 392.5,231.3 396.6,231.4C397.9,231.4 399.1,231.7 400.4,231.8C399,233.9 396.7,233.3 394.7,233.8C396,234.2 397.3,234.2 398.5,234.5C399.1,234.6 399.5,235.4 399.9,235.9C396.3,236.1 392.6,236.2 389,236.4C387.6,235.5 385.2,235.6 386,232.2C384.9,233.1 384.4,233.5 383.8,233.8C382.2,234.7 380.7,236.2 379,236.4C377.1,236.6 375.2,235.5 373.2,235.3C371.2,235.1 369,234.8 367.2,235.4C362.5,236.8 357.8,235.7 353.1,235.9C349.4,236.1 345.7,235.6 342.1,235.4C341.2,235.3 340.2,235.2 339.3,235.2C335.2,235.2 331.1,235.4 327,235.4C318.9,235.3 310.9,235.2 302.8,234.9C298.7,234.8 294.6,234.6 290.5,234.3C289,234.2 287.3,233.8 286.4,232.3C286.5,232.1 286.5,231.8 286.6,231.6C288.5,231.9 290.4,232.1 292.3,232.4C291.1,231.5 289.8,231.1 288.5,230.6C286.9,229.9 285.4,229.5 284.7,231.8C284.6,232.1 284,232.4 283.7,232.5C281.6,232.8 279.4,233.1 277.3,233.3C275.9,233.3 274.3,234 273.4,232.1C274.1,231.8 274.7,231.5 275.5,231.1C274,230.4 272.8,229.9 271.6,229.4C271.7,229.2 271.7,229 271.8,228.9C272.5,229 273.1,229 273.8,229.1C273.8,229 273.9,228.9 273.9,228.7C272.8,228.3 271.7,227.9 270,227.2C271.9,226.8 273.5,225.9 274.3,226.3C275.4,226.9 275.8,226.5 276.6,226.3C277.7,225.9 279.1,225.2 279.9,225.5C281.7,226.3 283,225.9 284.5,224.9C285.6,224.1 286.8,223.6 288.2,222.9C288.6,223.6 289.3,224.2 289.4,224.8C289.8,226.5 290.9,226.5 292,226.5Z" style="fill:rgb(126,126,126);fill-opacity:0.18;fill-rule:nonzero;"/>
    <path id="XMLID_821_" d="M562.7,230.1C553.6,229.9 544.6,229.8 535.5,229.6C527.6,229.4 519.6,228.9 511.7,229.2C503.3,229.5 495,229.2 486.7,228.2C484.8,228 482.8,228 480.9,227.9C478.6,227.7 476.3,227.4 473.9,227.4C472.9,227.4 471.9,228 470.9,228.4C469.7,228.1 468.4,227.8 469.5,226.2C474.2,226.4 478.8,226.7 483.5,226.9C486.9,227 490.3,226.9 493.7,226.7C496.8,226.6 499.9,226.3 503,226.3C506.8,226.3 510.6,226.7 514.5,226.8C521.4,227 528.3,227.4 535.2,227.4C541.1,227.4 546.9,226.8 552.8,226.8C558.1,226.7 563.5,227.1 568.8,227.2C572.8,227.3 576.8,227.1 580.8,227.1C586.8,227.1 592.7,227.2 598.7,227.4C602.7,227.5 606.6,228 610.6,227.9C614,227.8 617.3,227.2 620.7,226.9C623.9,226.7 627.2,226.6 630.4,226.5C631,226.5 631.7,226.8 632.3,227C631.4,227.3 630.5,227.5 628.8,228C630,228.4 630.5,228.6 631.1,228.8C631.2,228.8 631.2,228.8 631.3,228.9C631.4,228.9 631.4,229 631.5,229C631.2,229.3 630.9,229.6 630.7,229.9C631.3,230.6 631.8,231.1 632.3,231.6C632,232.2 631.7,232.7 631.4,233.3C631.1,233.5 630.8,233.6 630.5,233.8C629.9,233.9 629.3,234 628.6,234.1L628.6,235.6C624.8,233 620.8,232.9 616.3,233.6C611.5,234.4 606.5,234 601.6,234.2C599.8,234.3 598,234.2 596.2,234.6C590.1,235.7 584.2,235.5 578.4,233.3C577.4,232.9 576.2,233 575,232.9C577.7,232.8 580.5,232.6 583.2,232.6L595.3,232.6C593.3,231.8 591.2,231 589,230.2L600.3,230.2L600.3,229.4C596.9,229.3 593.5,229.1 590,229.1C589.7,229.1 589.3,229.9 589,230.3C584.5,230.4 579.9,230.6 575.4,230.7C576.4,230.4 577.3,230 578.3,229.9C581.1,229.8 583.9,229.9 586.7,229.9C586.7,229.6 586.8,229.2 586.8,228.9C585.5,228.6 584.3,228.1 583,228.1C576.8,228.2 570.7,228.3 564.5,228.6C563.9,228.5 563.3,229.5 562.7,230.1ZM606.9,230.1L606.9,230.8L626.4,230.8C625.1,229 609.4,228.6 606.9,230.1Z" style="fill:rgb(108,108,108);fill-opacity:0.18;fill-rule:nonzero;"/>
    <path id="XMLID_819_" d="M277.5,233.4C279.6,233.1 281.8,232.9 283.9,232.6C284.3,232.5 284.8,232.2 284.9,231.9C285.6,229.6 287,230 288.7,230.7C290,231.2 291.3,231.6 292.5,232.5C290.6,232.2 288.7,232 286.8,231.7C286.7,231.9 286.7,232.2 286.6,232.4C287.5,233.9 289.2,234.2 290.7,234.4C294.8,234.8 298.9,234.9 303,235C311.1,235.2 319.1,235.4 327.2,235.5C331.3,235.5 335.4,235.4 339.5,235.3C340.4,235.3 341.4,235.5 342.3,235.5C346,235.7 349.7,236.2 353.3,236C358,235.7 362.7,236.8 367.4,235.5C369.3,235 371.4,235.2 373.4,235.4C375.4,235.6 377.3,236.7 379.2,236.5C380.9,236.3 382.4,234.9 384,233.9C384.6,233.6 385,233.1 386.2,232.3C385.4,235.7 387.8,235.6 389.2,236.5C387.4,236.8 385.5,237 383.7,237.3C381.2,237.8 378.6,238.3 375.9,238.9C376.9,239.2 377.8,239.4 378.7,239.7L371.1,239.7L371.1,240.1C371.8,240.2 372.5,240.3 373.2,240.4L373.2,240.9L359.9,240.9L359.9,240.4C360.4,240.3 360.8,240.1 361.3,240L361.3,239.5L342,239.5C342.3,239.6 342.9,239.8 344.3,240.2C343.6,240.4 343.4,240.5 343.2,240.5C339.9,240.1 336.7,239.8 333.5,239.4C332.5,239.3 331.3,238.7 330.4,239C327.3,239.9 324.3,239.5 321.1,239.2C317.2,238.8 313.2,239.2 309.2,239C305.7,238.9 302.2,238.4 298.8,238.2C298,238.1 297.2,238.4 296.3,238.5C294.1,238.6 291.8,238.6 289.6,238.8C288.7,238.9 287.8,239.4 287.3,239.6C286.3,239.1 285.6,238.7 284.9,238.4C285.9,236.8 285.5,235.9 283.6,235.7C281.5,235.5 279.4,235.3 277.2,235C277.1,234.4 277.3,233.9 277.5,233.4Z" style="fill:rgb(103,103,103);fill-opacity:0.18;fill-rule:nonzero;"/>
    <path id="XMLID_816_" d="M221.6,252.9C222.8,252.6 224.1,252.4 225.5,252.1L225.5,249.6C224.2,249.7 222.4,250.2 222.6,247.9C222.5,247.3 222.4,246.8 222.4,246.6C224.1,247.3 225.9,248 227.6,248.6C227.7,248.4 227.9,248.1 228,247.9C227.3,247.3 226.6,246.8 225.9,246.2C226.8,244.7 230.7,243.6 232.5,244.6C232,245.1 231.5,245.4 230.5,246.3C235.1,245.5 239.3,247.2 243.4,244.8C243.2,245.1 243,245.5 242.8,245.9C243.8,246.2 244.7,246.6 246.2,247.1C244.9,247.6 244.2,247.8 243.4,248.1C243.4,248.3 243.4,248.4 243.5,248.6L258.3,248.6L258.3,247.8C256.1,247.8 253.8,247.6 251.6,247.9C249.1,248.2 247.2,247.7 245.6,244.9C247.3,244.9 248.9,244.6 250.2,245C251.5,245.4 252.3,246.9 253.7,244.9C254.1,244.4 255.7,244.6 256.8,244.6C258.3,244.6 259.8,244.7 261.3,244.8C261.4,244.9 261.5,245.1 261.6,245.2C262.2,245.8 262.8,246.3 263.5,246.8C262.8,247.5 262.1,248.2 261.3,248.8C259.8,249.8 258.2,250.9 256.5,251.6C255.3,252.1 253.8,251.9 252.1,252.1C252.6,253 252.9,253.6 253.5,254.7C249.7,252.9 246.1,253.9 242.5,253.8C235.4,253.5 228.5,253.1 221.6,252.9ZM237.1,251.8L237.1,252.3L245.8,252.3L245.8,251.8L237.1,251.8Z" style="fill:rgb(120,120,120);fill-opacity:0.18;fill-rule:nonzero;"/>
    <path id="XMLID_7_" d="M411.5,291.9C402.6,291.5 393.7,291.3 384.8,291C379.5,290.8 374.3,290.4 369,290.1C368.4,290.1 367.7,290 367.1,289.9L367.1,289.3L377.3,289.3C379,289.3 380.8,289.6 382.5,289.6C390.1,289.8 397.7,289.4 405.2,290.2C416.6,291.4 428,290.3 439.4,291.1" style="fill:rgb(129,129,129);fill-opacity:0.18;fill-rule:nonzero;"/>
    <path id="XMLID_814_" d="M266.1,250.6C266.7,251.2 267.3,251.7 267.8,252.2C269.5,251.9 271,251.7 272.8,251.5C273.1,252.6 272.1,254.9 275.5,254.5C274.4,255.3 273.9,255.8 273.1,256.3C275.5,257.7 275.6,259.1 273.4,260.7C273.1,261 273.3,262.1 273.5,262.8C273.6,263.2 274.2,263.5 274.2,264.4C273.5,264.3 272.9,264.2 271.9,264C272.7,265.3 273.3,266.4 274.1,267.6C273.5,267.9 272.9,268.2 272.3,268.5C272.8,269.1 273.4,269.7 274.2,270.5C273.3,270.9 272.7,271.3 272.1,271.6C272.9,273.6 271.5,273.6 270.2,273.7C270.5,272.7 270.8,271.7 271.1,270.7C271.4,270.6 271.8,270.4 272.5,270.1C269.2,269.6 266.3,269.1 263.3,268.7C263.3,268.4 263.2,268.1 263.2,267.8C263.8,267.4 264.4,266.9 265.1,266.4C264.2,265.9 263.2,265.3 262,264.5C263.9,264.1 265.3,263.8 266.7,263.5L266.7,263.1C265.6,263 264.5,262.9 263.3,262.9C263.5,259.7 260.5,261.6 259,259.9C261.9,259.5 264.5,259.2 267.1,258.9L267.1,258.7C265.3,258.5 263.6,258.4 261.8,258.2C261.6,257.2 261.4,256.3 261.1,255.3C262.5,255.1 264,254.8 265.5,254.6C265.5,254.4 265.5,254.3 265.6,254.1C264.4,253.6 263.3,253.1 261.7,252.5C263.6,251.8 264.8,251.2 266.1,250.6Z" style="fill:rgb(63,63,63);fill-opacity:0.18;fill-rule:nonzero;"/>
    <path id="XMLID_6_" d="M259.8,289.9C239.6,289 219.4,288.1 199.2,287.2L199.2,286.4C201.6,286.3 203.9,286.2 206.3,286.2C208.3,286.2 210.2,286.4 212.2,286.5C225.5,286.8 238.8,287 252.1,287.6C255.3,287.7 258.2,287.4 261.2,285.9C260.4,285.3 259.6,284.7 258.6,284C259.5,283.3 260.3,282.7 261.5,281.8C261.1,281.1 260.7,280.1 260.1,279.4C259.4,278.5 258.6,277.7 257.9,276.8C258.1,276.6 258.3,276.4 258.5,276.2C259.4,276.6 260.3,277 261.3,277.4C261.8,277.5 262.3,277.6 262.8,277.8C261.8,279.9 264.2,279.3 265,280.3C264.1,280.7 263.4,281 262.3,281.5C263.2,281.7 263.7,281.8 264.4,282C263.8,283.5 260.9,284.8 264.4,286.4C263.2,286.7 262.4,286.9 261.6,287.1C261.9,287.4 262.2,287.7 262.5,287.9C264,288.5 265.6,289.2 267.1,289.8C265.7,290.4 264.3,291 263,291.6C262.9,291.9 262.7,292.2 262.6,292.5" style="fill:rgb(129,129,129);fill-opacity:0.18;fill-rule:nonzero;"/>
    <path id="XMLID_812_" d="M631.7,277C631.3,276.8 630.9,276.6 630.5,276.3C628.2,275 628.2,274.5 630.4,272.9C630.1,272.3 629.7,271.7 629.4,271.1C629.7,271 630.1,270.8 630.6,270.6C629.4,269.6 628.5,268.9 627.6,268.1C628.1,266.1 628.6,264.1 629.2,261.6C621.4,261.3 613.8,260.9 606.1,260.6L606.1,260.3L627.7,260.3C627.4,259.5 627.1,258.8 626.6,257.7C628.1,257.9 629.3,258.1 630.6,258.3C630.1,259.8 631.1,260.3 632.3,260.5C633.4,260.6 634.5,260.5 635.6,260.5C636.8,260.6 638,260.8 639.2,260.9L639.2,261.3C637.9,261.5 636.5,261.7 635.2,261.9L630.9,261.9C631.4,263.2 631.8,264.2 632.2,265.5C632.2,265.5 631.7,265.7 631.2,265.9C631.7,266.6 632.1,267.1 632.5,267.6C631.8,267.7 631.2,267.8 630.2,268C631.4,269.1 632.1,269.8 632.9,270.5C632.6,270.9 632.3,271.3 632,271.8C633.3,272 634.5,272.2 635.6,272.3L635.6,273.3C634.7,273.7 633.7,274.1 632.8,274.5C632.3,274.7 631.9,275 631.4,275.2C631.7,275.8 631.7,276.4 631.7,277Z" style="fill:rgb(146,146,146);fill-opacity:0.18;fill-rule:nonzero;"/>
    <path id="XMLID_809_" d="M448.2,243.3C441.4,243.5 434.7,243.7 427.9,243.8C423.6,243.9 419.4,243.9 415.1,243.7C413.4,243.6 411.7,242.9 410,242.5C411.6,242.3 413.8,242.8 414.7,241.9C416.4,240.2 417.9,241.2 419.5,241.1L425,241.1C424.1,241.4 423.2,241.6 422.3,241.9L422.3,242.3L429,242.3C428.3,241.9 427.5,241.5 426.8,241.2L432.7,241.2C433.9,241.3 435,241.3 436.2,241.4L436.2,241.9C435.4,242.1 434.5,242.2 433.4,242.4C433.9,242.7 434.1,242.9 434.2,242.9C436.9,242.3 439.9,244 442.4,241.8C442.5,241.7 442.9,241.7 443,241.7C444.8,242.2 446.5,242.7 448.2,243.3Z" style="fill:rgb(108,108,108);fill-opacity:0.18;fill-rule:nonzero;"/>
    <path id="XMLID_808_" d="M261.5,286.9C262.3,286.7 263.1,286.5 264.3,286.2C260.8,284.6 263.7,283.3 264.3,281.8C263.6,281.6 263.1,281.5 262.2,281.3C263.3,280.8 264,280.5 264.9,280.1C264.1,279.2 261.7,279.8 262.7,277.6C262.2,277.5 261.7,277.4 261.2,277.2C262.1,277 263,276.6 264,276.6C266.1,276.5 268.3,276.6 270.3,276.6C269.3,277.5 268,278.8 270.5,280.4C269.3,281.8 268.2,283.1 267.1,284.5C267.7,284.6 268.6,284.9 269.9,285.1C269.3,285.7 268.8,286.1 268.4,286.5C266.2,286.6 263.9,286.7 261.5,286.9Z" style="fill:rgb(26,26,26);fill-opacity:0.18;fill-rule:nonzero;"/>
    <path id="XMLID_807_" d="M429.2,232.4C427,233.6 424.8,235.1 422.1,233.3C421.8,233.1 421.3,233.1 421,233.2C417.7,235.2 414.1,233.7 410.8,233.6C408.8,233.5 406.9,234 404.6,233.7C405,234.4 405.3,235 405.6,235.5L404.3,235.5C403.8,235.1 403.3,234.6 402.9,234.1C402.5,233.6 402.3,233 401.9,232.5C402,232.4 402.2,232.2 402.3,232.1C401.9,232 401.4,231.9 401,231.8C403.9,231.3 406.7,230.5 409.6,231.3C410.2,231.5 410.8,231.5 411.4,231.4C416.8,231.4 422.2,231.3 427.6,231.4C428.1,231.5 428.7,232.1 429.2,232.4Z" style="fill:rgb(126,126,126);fill-opacity:0.18;fill-rule:nonzero;"/>
    <path id="XMLID_805_" d="M598.9,259.6C574.1,259 549.4,258.4 524.6,257.8L524.6,256.9L531.3,256.9C540.7,257 550.1,257.1 559.4,257.4C563.2,257.5 567,258.4 570.9,258.5C579.4,258.7 587.8,258.7 596.3,258.7L599,258.7C598.9,259 598.9,259.3 598.9,259.6Z" style="fill:rgb(134,134,134);fill-opacity:0.18;fill-rule:nonzero;"/>
    <path id="XMLID_804_" d="M531.3,291C533.7,291.2 536.2,291.4 538.6,291.7L538.6,292.4L527.2,292.4C515.6,291.9 504,291.3 492.4,290.8C505.4,289.6 518.4,290.7 531.3,291Z" style="fill:rgb(140,140,140);fill-opacity:0.18;fill-rule:nonzero;"/>
    <path id="XMLID_803_" d="M448.2,243.3C446.5,242.7 444.8,242.2 443.1,241.6C442.9,241.5 442.6,241.5 442.5,241.7C440,243.9 437,242.2 434.3,242.8C434.2,242.8 434,242.6 433.5,242.3C434.6,242.1 435.5,241.9 436.3,241.8L436.3,241.3C435.1,241.2 434,241.2 432.8,241.1C432.2,240.7 431.6,240.3 431,239.9L431,239.5C433.8,239.7 436.6,240 439.5,240.2C440.2,240.3 441,240.2 441.7,240.3C445.7,240.4 449.8,240.6 453.8,240.7C451.9,240.7 450.8,241.7 450.2,243.4C449.5,243.3 448.8,243.3 448.2,243.3Z" style="fill:rgb(103,103,103);fill-opacity:0.18;fill-rule:nonzero;"/>
    <path id="XMLID_802_" d="M395.6,275.4C376.6,274.8 357.5,274.1 338.5,273.5L338.5,272.8C357.5,273.3 376.6,273.8 395.6,274.4L395.6,275.4Z" style="fill:rgb(143,143,143);fill-opacity:0.18;fill-rule:nonzero;"/>
    <path id="XMLID_801_" d="M419.6,241C418,241.1 416.5,240.1 414.8,241.8C413.9,242.7 411.7,242.2 410.1,242.4L409.2,242.4C408.7,241.7 408.2,241 407.7,240.2C407,240.8 406.3,241.4 405.6,241.9C399.9,241.7 394.1,241.6 388.4,241.4L388.4,240.5L401.5,240.5C405.3,239.5 409.1,238.8 413,239.7C413.9,239.9 415,239.4 415.9,239.6C417.1,240 418.4,240.6 419.6,241Z" style="fill:rgb(103,103,103);fill-opacity:0.18;fill-rule:nonzero;"/>
    <path id="XMLID_800_" d="M634,241.9C634.3,242.1 634.7,242.2 635,242.4C635.2,244.5 635.5,246.6 635.6,248.7C635.7,250 635.5,251.4 633.7,251.5C632.1,251.6 631.4,250.8 631.3,249.2C631.3,247.2 631.3,245.3 631.2,243.3C631.6,241.8 632.8,241.8 634,241.9Z" style="fill:rgb(37,37,37);fill-opacity:0.18;fill-rule:nonzero;"/>
    <path id="XMLID_799_" d="M268.4,238.8C268.7,239.1 269,239.4 269.3,239.6C269,239.9 268.5,240.4 268.4,240.4C266.4,239.1 265.1,240.1 263.7,241.5C263.4,241.9 262.8,242.1 262.4,242.4C260.9,242.1 259.5,241.9 258,241.6C258.6,240.2 259.1,239.1 259.7,237.9L259.8,237.8C261.1,237.6 262.9,236.7 263.7,237.2C265.4,238.4 266.9,238.5 268.9,237.6C268.6,238.2 268.5,238.5 268.4,238.8Z" style="fill:rgb(116,116,116);fill-opacity:0.18;fill-rule:nonzero;"/>
    <path id="XMLID_798_" d="M453.7,238.3C452.2,237.7 450.8,237.1 449.3,236.7C449,236.6 448.5,237.1 448.1,237.3C448.1,237.6 448.1,237.8 448.2,238.1C447.2,237.5 446.3,236.9 445.3,236.3C445.3,236.2 445.3,236 445.4,235.9L448.9,235.9C449.7,235.9 450.8,236.5 450.8,234.9C450.8,234.9 452.2,234.6 452.4,234.8C454.6,237 457.2,237.4 460.1,236.9C460.9,236.8 461.8,237.3 462.7,237.5L462.7,237.9C461.6,238.2 460.6,238.5 459.5,238.8C457.6,238.6 455.7,238.5 453.7,238.3Z" style="fill:rgb(103,103,103);fill-opacity:0.18;fill-rule:nonzero;"/>
    <path id="XMLID_796_" d="M271.1,270.7C270.8,271.7 270.5,272.7 270.2,273.7C269.5,274.1 268.8,274.6 268,275C268.1,275.2 268.1,275.4 268.2,275.7C266.2,275.4 264.3,275.1 262.3,274.9L262.3,274.4C263.6,274.2 265,274 266.6,273.7C265.5,272.8 264.6,272.2 263.8,271.5C263.8,271.3 263.9,271 263.9,270.8C266.3,270.7 268.7,270.7 271.1,270.7Z" style="fill:rgb(25,25,25);fill-opacity:0.18;fill-rule:nonzero;"/>
    <path id="XMLID_795_" d="M631.2,243.3C631.2,245.3 631.2,247.2 631.3,249.2C630.7,249.8 630.1,250.5 629,251.7C628.5,249.8 628,248.4 627.8,246.9C627.7,245.6 627.9,244.2 628,242.9C628.1,242.3 628.5,241.8 628.8,241.2C629.3,241.2 629.8,241.1 630.3,241.1C630.7,241.8 630.9,242.6 631.2,243.3Z" style="fill:rgb(140,140,140);fill-opacity:0.18;fill-rule:nonzero;"/>
    <path id="XMLID_794_" d="M401,232C401.4,232.1 401.9,232.2 402.3,232.3C402.2,232.4 402,232.6 401.9,232.7C402.2,233.2 402.5,233.8 402.9,234.3C403.3,234.8 403.8,235.2 404.3,235.7C402.9,235.8 401.6,236 400.2,236.1C399.7,235.6 399.3,234.9 398.8,234.7C397.6,234.4 396.3,234.4 395,234C397,233.5 399.4,234.1 400.7,232C400.7,231.9 400.9,231.9 401,232Z" style="fill:rgb(108,108,108);fill-opacity:0.18;fill-rule:nonzero;"/>
    <path id="XMLID_793_" d="M635.7,260.5C634.6,260.5 633.5,260.6 632.4,260.5C631.2,260.4 630.3,259.8 630.7,258.3C631.4,258.1 632,257.8 632.9,257.5C632.2,257.3 631.7,257.1 631.2,256.9C632,256.8 632.7,256.6 633.5,256.5C635.5,257.1 635.6,258.8 635.7,260.5Z" style="fill:rgb(47,47,47);fill-opacity:0.18;fill-rule:nonzero;"/>
    <path id="XMLID_792_" d="M630.4,241.1C629.9,241.1 629.4,241.2 628.9,241.2C628.7,240.3 628.6,239.4 628.4,238.5C628.3,238.5 628.2,238.5 628.2,238.6C628.3,237.6 628.4,236.7 628.5,235.7L628.5,234.2C629.2,234.1 629.8,234 630.4,233.9C630.1,235.4 632.2,237 630.2,238.4C630.6,238.9 630.9,239.4 631.3,239.9C630.9,240.1 630.7,240.6 630.4,241.1Z" style="fill:rgb(162,162,162);fill-opacity:0.18;fill-rule:nonzero;"/>
    <path id="XMLID_791_" d="M633.5,256.6C632.7,256.7 632,256.9 631.2,257C629.1,258.3 629,256.2 628.2,255.2C629.7,253.7 631.4,253.1 633.5,253.6C632.7,254.2 632,254.7 631.2,255.3C631.2,255.5 631.3,255.7 631.3,256L639.1,256C637.2,256.2 635.3,256.4 633.5,256.6Z" style="fill:rgb(146,146,146);fill-opacity:0.18;fill-rule:nonzero;"/>
    <path id="XMLID_790_" d="M421.5,237.9C421.2,237.6 420.9,237.3 420.5,237C420.5,236.8 420.6,236.5 420.6,236.3C425,236.5 429.3,236.7 433.7,236.9L433.7,237.4C430.8,237.4 427.8,237.3 424.9,237.4C424,237.4 423.2,238 422.3,238.2C422.1,238.1 421.8,238 421.5,237.9Z" style="fill:rgb(103,103,103);fill-opacity:0.18;fill-rule:nonzero;"/>
    <path id="XMLID_789_" d="M262.9,291.4C264.3,290.8 265.7,290.2 267,289.6L270.1,289.6L270.1,290.5C267.9,292 265.5,292.2 262.9,291.4Z" style="fill:rgb(32,32,32);fill-opacity:0.18;fill-rule:nonzero;"/>
    <path id="XMLID_788_" d="M388.8,249.2C388.1,248.8 387.4,248.5 386.5,248C389,246.2 391.5,248.2 394,247.6C393.9,248.3 393.9,248.7 393.8,249.2L388.8,249.2Z" style="fill:rgb(126,126,126);fill-opacity:0.18;fill-rule:nonzero;"/>
    <path id="XMLID_787_" d="M459.6,238.8C460.7,238.5 461.7,238.2 462.8,237.9C466.3,238.1 469.8,238.2 473.3,238.4L473.3,238.8L459.6,238.8Z" style="fill:rgb(108,108,108);fill-opacity:0.18;fill-rule:nonzero;"/>
    <path id="XMLID_786_" d="M635.3,256L631.2,256C631.2,255.8 631.1,255.6 631.1,255.3C631.9,254.7 632.6,254.2 633.4,253.6C634.2,253.8 635.1,254 635.9,254.2C635.8,254.8 635.6,255.4 635.3,256Z" style="fill:rgb(50,50,50);fill-opacity:0.18;fill-rule:nonzero;"/>
    <path id="XMLID_785_" d="M213.4,255.1C212.8,254.9 212.2,254.8 211.5,254.6L211.5,254.2L221.1,254.2C221.9,254.4 222.6,254.7 224,255.1L213.4,255.1Z" style="fill:rgb(120,120,120);fill-opacity:0.18;fill-rule:nonzero;"/>
    <path id="XMLID_784_" d="M266.1,250.6C268,249.5 269.8,248.3 272.3,248.6C270.7,251.2 268.3,250.4 266.1,250.6Z" style="fill:rgb(63,63,63);fill-opacity:0.18;fill-rule:nonzero;"/>
    <path id="XMLID_783_" d="M426.9,241C427.7,241.4 428.4,241.8 429.1,242.1L422.4,242.1L422.4,241.7C423.3,241.4 424.2,241.2 425.1,240.9C425.7,241 426.3,241 426.9,241Z" style="fill:rgb(103,103,103);fill-opacity:0.18;fill-rule:nonzero;"/>
    <path id="XMLID_782_" d="M439.6,238.3C440.6,237.5 441.6,236.8 443.1,235.6C443.2,237 443.2,237.7 443.3,238.3L439.6,238.3Z" style="fill:rgb(103,103,103);fill-opacity:0.18;fill-rule:nonzero;"/>
    <path id="XMLID_781_" d="M261.5,286.9C263.8,286.8 266.1,286.6 268.5,286.5C267.7,288.2 266.2,287.8 264.8,287.8C264,287.8 263.2,287.8 262.4,287.7C262.1,287.4 261.8,287.2 261.5,286.9Z" style="fill:rgb(19,19,19);fill-opacity:0.18;fill-rule:nonzero;"/>
    <path id="XMLID_778_" d="M320.8,8.6C321,8.4 321.3,8.1 321.5,7.9C323.7,5.9 325.8,3.8 328,1.8C328.6,1.3 329.2,0.8 330,-0C330,0.8 330.1,1.3 330.1,1.8C325.8,6 321.5,10.3 317.2,14.5C317,14.7 316.7,14.9 316.5,15.1C302.6,28.1 288.7,41.1 274.9,54.2C272.9,56.1 272.1,58.8 273,61.7C274.6,66.7 276.3,71.7 278,76.7C278.3,77.6 278.6,78.6 278.9,79.5C279.5,81.6 280.1,83.7 280.8,85.8C281.3,87.9 281.7,90.1 282.2,92.2C282.8,94.6 283.4,97 284,99.4C284.2,100.5 284.3,101.7 284.6,102.7C288,115.2 291.4,127.8 294.8,140.3C295,141.1 295.2,141.8 295.4,142.6C295.2,142.7 295,142.7 294.8,142.8C294.1,140.8 293.4,138.8 292.7,136.7C289.3,126.4 286,116.2 282.6,105.9C280.8,100.5 279,95.2 277.3,89.8C276.4,86.6 275.4,83.5 274.5,80.3C274.4,79.6 274.3,79 274.2,78.3C272.8,72.7 271.4,67.2 270,61.6C269.8,60.7 270,59.8 270,58.5C269.6,57.9 268.8,56.9 268,55.9C268,56.1 267.9,56.3 267.9,56.5C266.8,56.1 265.6,55.8 264.5,55.4C263,54.7 261.5,53.9 259.4,52.9C260,54 260.2,54.4 260.4,54.9C255.9,53.2 251.3,51.8 246.9,49.7C241.2,46.9 235.8,43.6 230.2,40.5C225,37.7 219.7,34.9 214.5,32.1C211.9,30.9 209.3,29.6 206.7,28.4C206.1,28.1 205.5,27.8 205,27.6C201.8,26.2 198.5,24.8 195.4,23.2C194.4,22.7 193.6,21.7 192.8,20.9C196.7,22.3 200.7,23.5 204.4,25.1C222,32.7 239.5,40.4 257.1,48.1C260.1,49.4 262.9,50.9 265.8,52.4C268.1,53.6 271.2,53.3 272.6,51.2C279.4,41.2 289.1,34.3 298.2,26.7C298.5,26.5 298.7,26.2 299,25.9C299.6,25.7 300.2,25.6 300.7,25.3C304.2,22.6 307.6,19.9 311,17.2C312,16.3 313,15.5 314.1,14.6C316.2,12.7 318.5,10.6 320.8,8.6Z" style="fill:rgb(4,4,4);fill-opacity:0.48;fill-rule:nonzero;"/>
    <path id="XMLID_777_" d="M261,212C260.5,210.9 260,209.9 259.6,208.8C259.5,208.6 259.8,208 260,207.9C260.4,207.8 260.9,208 261.1,208L261.1,179.3C261.3,159.9 261.4,140.6 261.7,121.2C261.9,108 262.5,94.9 263,81.7C263.1,82.9 263.4,84.1 263.4,85.3C263.5,90.5 263.4,95.7 263.4,100.9C263.4,101.5 263.5,102.1 263.5,102.7C263.3,136.6 263.1,170.5 262.9,204.4C262.9,205.7 262.7,206.9 262.6,208.4C265.1,208.6 267.4,208.7 269.7,208.9C269.7,209 269.7,209.2 269.6,209.3C269.2,209.3 268.7,209.4 268.3,209.4C265.8,208.2 265.1,211.7 262.8,211.5C262.9,212.7 263,214 263.1,215.3C263.1,216.7 263.7,217.6 265.3,217.6C266.8,217.5 268.8,218.3 269.3,215.8C269.4,215.3 269.8,214.9 270.1,214.5C270,215.7 269.8,216.8 269.7,218C266.9,218.2 264,218.4 261.2,218.6C261.1,216.3 261.1,214.1 261,212Z" style="fill:rgb(185,185,185);fill-opacity:0.48;fill-rule:nonzero;"/>
    <path id="XMLID_776_" d="M165.8,205.2C165.8,209 166.5,210 169.5,210.1C168.9,210.4 168.2,210.9 167.6,210.8C165.8,210.7 164,210.3 162.1,210C162.1,209.9 162.1,209.7 162,209.6C162.1,208.9 162.2,208.1 162.2,207.4C162.6,184.7 163,161.9 163.4,139.2C163.4,138.6 163.5,137.9 163.6,136.8C164.2,137.5 164.5,137.9 164.8,138.3C164.9,139.3 165.2,140.4 165.2,141.4C165.4,157.7 165.5,174 165.7,190.4C165.7,191.2 165.8,192.1 165.8,192.9L165.8,205.2Z" style="fill:rgb(6,6,6);fill-opacity:0.48;fill-rule:nonzero;"/>
    <path id="XMLID_775_" d="M170.8,108C171.2,106.9 171.7,105.9 172.1,104.8C173.7,99.5 175.3,94.1 176.9,88.8C177,88.8 177.1,88.8 177.3,88.9C176.4,93.3 175.5,97.7 174.4,102C172.2,111 169.9,120 167.6,129.1C167.1,131.1 167.5,132.8 169.1,134.3C174.3,139.3 179.4,144.3 184.5,149.4C188.5,153.4 192.4,157.5 196.3,161.6C196.8,162.1 197.3,162.7 197.5,163.5C193.8,160.2 190.1,156.9 186.5,153.5C181.1,148.4 175.7,143.1 170.3,138C168.5,136.3 166.6,134.7 164.8,133C164.6,132.4 164.5,131.7 164.3,131.1C166.1,129.5 166.3,127.5 165.7,125.3C167.2,120.1 168.7,115 170.2,109.8C170.4,109.2 170.6,108.6 170.8,108Z" style="fill:rgb(6,6,6);fill-opacity:0.48;fill-rule:nonzero;"/>
    <path id="XMLID_774_" d="M263.5,100.9L263.5,85.3C263.5,84.1 263.2,82.9 263.1,81.7C263.2,76.8 263.3,71.9 263.4,67L263.4,79.4C263.8,79 263.9,78.6 263.9,78.1C263.9,73.2 263.9,68.3 264,63.4C264,62.8 264.6,62.2 264.9,61.5C265.4,61.9 266,62.3 266.5,62.8C266.7,63 266.8,63.5 267,63.8C267.3,68 267.8,72.2 268,76.4C268.3,83.9 268.4,91.5 268.6,99C268.6,100.9 268.6,102.7 268.5,104.6C267.9,100 267.3,95.5 266.6,90.9C266.1,88 265.4,85.1 264.8,82.3C264.5,82.3 264.2,82.4 264,82.4L264,85.7C263.8,90.9 263.6,95.9 263.5,100.9Z" style="fill:rgb(150,150,150);fill-opacity:0.48;fill-rule:nonzero;"/>
    <path id="XMLID_773_" d="M164.9,133C166.7,134.7 168.6,136.3 170.4,138C169.5,137.4 168.7,136.8 167.8,136.2C167.1,135.6 166.4,135 165.3,134.1C165.1,135.9 165,137.2 164.9,138.5C164.6,138.1 164.3,137.7 163.7,137C163.6,138.1 163.5,138.7 163.5,139.4C163.1,162.1 162.7,184.9 162.3,207.6C162.3,208.4 162.2,209.1 162.1,209.8C161.8,208.7 161.3,207.7 161.3,206.6C161.3,201 161.5,195.4 161.6,189.8L161.6,182.1C162,167 162.4,151.9 162.8,136.7C162.8,135.9 162.4,135.2 162.1,134.4C163,133.9 163.9,133.4 164.9,133Z" style="fill:rgb(165,165,165);fill-opacity:0.48;fill-rule:nonzero;"/>
    <path id="XMLID_771_" d="M267,64C266.8,63.7 266.8,63.2 266.5,63C266,62.5 265.4,62.1 264.9,61.7C264.6,62.3 264,62.9 264,63.6C263.9,68.5 263.9,73.4 263.9,78.3C263.9,78.7 263.9,79.1 263.4,79.6L263.4,67.2C263.4,66.1 263.6,65 263.4,64C263.2,63.1 262.5,62.4 262.1,61.5C261.6,60.5 261.1,59.4 260.9,58.3C260.8,57.5 261.1,56.6 261.3,55.5C261.6,56 261.9,56.3 262,56.6C262.8,56.2 263.5,55.9 264.3,55.5C265.4,55.9 266.6,56.2 267.7,56.6C267.7,56.4 267.8,56.2 267.8,56C268.6,57 269.4,58.1 269.8,58.6C269.8,59.9 269.6,60.9 269.8,61.7C271.1,67.3 272.6,72.8 274,78.4C274.2,79.1 274.2,79.7 274.3,80.4C274.2,80.4 274,80.4 273.9,80.3C272.1,73.9 270.2,67.5 268.4,61.2L267.7,61.2C267.5,62.1 267.2,63 267,64Z" style="fill:rgb(183,183,183);fill-opacity:0.48;fill-rule:nonzero;"/>
    <path id="XMLID_770_" d="M165.8,205.2L165.8,193C165.9,193 166,193 166.1,192.9C166,197 165.9,201.1 165.8,205.2Z" style="fill:rgb(82,82,82);fill-opacity:0.48;fill-rule:nonzero;"/>
    <path id="XMLID_760_" d="M256.6,233.3C256.3,230.5 256.3,230.5 253.9,231.7C253.6,231.9 253.2,231.9 252.8,231.8C250.5,231.3 248.3,230.7 245.4,229.9C249.5,229.6 253.8,230.8 256.4,226.1C255.1,226 254.1,225.8 253,225.7C253,226 252.9,226.2 252.9,226.5C253.2,226.8 253.5,227 253.9,227.3C253.7,227.4 253.5,227.7 253.3,227.6C251.6,227.4 249.9,227.2 248.2,227C247.1,226.9 246,226.7 244.9,226.8C243.3,227 242.1,227.8 243,230C242,230.1 241.3,230.2 240.3,230.3C240.6,229.8 240.7,229.7 240.8,229.5C241.2,228.6 241.5,227.8 241.8,226.9C240.9,226.7 240,226.2 239.1,226.2C235.9,226.2 232.6,226.2 229.4,226.4C228.4,226.5 227.4,227 226.5,226.8C225.2,226.6 223.9,226.2 222.7,226.1C217.8,225.8 212.8,225.5 207.9,225.3C206.6,225.3 205.3,225.8 203.6,226.1C200.6,224.4 196.9,226.1 193.3,225.9C188.2,225.6 183.1,225.2 178,225C176.3,224.9 174.6,225.2 172.9,225.4C172,225.5 171.1,225.6 169.8,225.7C169.8,227.3 168.4,227.2 166.9,226.8C165.6,226.5 165,226.9 164.5,228.2C163.7,230.2 163.6,230.2 160.8,229.5C161.7,229.1 162.4,228.7 163.1,228.4C162.3,226 161.2,225.4 159.1,225.8C158.8,225.9 158.4,225.6 158.1,225.5C156.7,225.2 155.3,224.8 153.9,224.7C150,224.5 146.1,224.5 142.1,224.5C139.8,224.5 137.5,224.9 135.1,225C133.6,225 132,224.8 130.5,224.5C130,224.4 129.7,223.5 129.3,223C129.9,222.7 130.5,222.4 131.1,222.1C131.4,222.6 131.6,223.2 132,224C132.1,224 132.9,223.9 133.1,223.6C134,221.8 135.6,221.8 137.2,221.7C138,221.6 138.8,222.1 139.6,222.3C140.9,222.5 142.2,223 143.5,222.9C146.9,222.6 150.3,221.3 153.5,221.8C155.9,222.2 158.3,222.2 160.7,222.3C162.4,222.4 164.1,221.8 165.7,221.5C166.1,221.4 166.6,221.3 167,221.4C170.4,222 173.9,222.8 177.3,223.1C179,223.3 180.7,222.5 182.4,222.2C182.8,222.1 183.2,221.8 183.5,222C185.3,223 187,222.6 188.6,221.4C188.9,221.2 189.4,221.4 189.8,221.5C191.3,221.9 192.5,221.6 193.1,220C193.6,218.7 194.6,218.6 195.3,219.6C196.3,221 197.5,220.8 198.9,220.5C201.1,220 201.8,220.9 201.5,223.3C202.9,222 204.3,220.7 205.7,219.4C205.7,219.1 205.6,218.8 205.6,218.6C204.2,218.5 202.9,218.5 201.5,218.4C198.7,218.3 195.9,218.3 193.1,218.2C193.1,217.9 193,217.6 193,217.2C193.5,217 194.1,216.7 194.6,216.7C198.7,216.7 202.7,216.8 206.8,216.8C211.1,216.8 215.4,216.5 219.7,216.6C224.2,216.7 228.7,217.2 233.2,217.6L234.1,217.6C238.4,217.2 242.9,217.2 247.1,216.2C249.6,215.6 251.8,216.5 254.1,216.4C255.8,216.3 257.5,215.8 259,215.2C259.5,215 259.3,213.5 259.5,212.9C260.7,212.2 261.9,211.4 263.1,210.7C265.2,211.1 265.6,211.7 264.9,214.1C266.8,214.3 268.7,214.5 269.9,212.5C270.7,212.9 271.4,213.4 272.2,213.8C272,214 271.9,214.3 271.8,214.3C268.2,213.9 265.8,218 261.9,216.9C261.2,216.7 260.4,217.2 259.7,217.4C260,219 260.2,220.4 260.5,222.1C260.7,222.2 261.3,222.4 262.2,222.7C261.1,223.6 260.2,224.3 258.8,225.4C260.5,225.6 261.9,225.3 262.8,225.9C264.6,226.9 263.1,227.8 261.9,228.6C263.3,228.8 264.4,228.9 265.4,229.1L265.4,229.6C263.9,229.8 262.5,229.9 260.5,230.1C261.8,230.7 262.5,231 263.2,231.3C263.2,231.5 263.1,231.6 263.1,231.8C262.7,231.9 262.2,231.9 261.8,232C262.1,232.5 262.3,232.9 262.5,233.4C260.2,233.3 258.4,233.3 256.6,233.3ZM238.1,218.6C238.2,221.4 240.8,219 241.7,220.2C241.9,220.4 242.8,220.2 243.4,220C243.6,219.9 243.7,219.1 243.6,218.9C243.3,218.5 242.7,218.1 242.2,218.1C240.8,218 239.5,218.3 238.1,218.6ZM216.7,219.5C216.1,219.2 215.7,218.7 215.1,218.6C214.4,218.5 213.7,218.6 213,218.6C213.4,219.4 213.5,220.4 214.1,220.8C215.3,221.6 216.1,220.9 216.7,219.5ZM228.2,221.5C229.7,221.1 230.7,220.9 232.4,220.4C230.9,219.8 230,219.4 228.9,219C228.7,219.9 228.5,220.5 228.2,221.5ZM204.7,221.8C204.7,222.1 204.8,222.4 204.8,222.7C206.1,222.5 207.3,222.3 208.6,222.1C208.6,221.9 208.5,221.6 208.5,221.4C207.2,221.6 205.9,221.7 204.7,221.8Z" style="fill:rgb(116,116,116);fill-opacity:0.18;fill-rule:nonzero;"/>
    <path id="XMLID_759_" d="M259.7,237.9C254.5,237.6 249.3,237.2 244.1,237.1C242,237 239.8,237.7 237.7,237.7C235.7,237.8 233.7,237 232,238.8C231.7,239.1 230.8,238.7 229.8,238.7C231.1,238 231.9,237.5 232.8,237.1C224.4,237.9 216.3,236.9 208,236C207.7,236.4 207.4,236.9 207,237.4C206.7,237.4 206.5,237.5 206.4,237.4C204.8,235.9 203.2,236 201.3,236.7C199.5,237.3 197.5,237.2 195.3,237.4C195.6,236.5 195.8,236 196,235.3C192.2,235 188.5,236.1 184.9,234.7C184.9,235 184.8,235.3 184.8,235.6C185.8,235.8 186.8,235.9 188.4,236.2C186.7,237.3 185.5,237.1 184.4,236.4C183.3,235.7 182.4,235.2 181.1,236.1C180.7,236.4 179.8,236.1 179.3,235.9C178.1,235.2 177.3,235.5 177,236.9C175.7,236.5 174.4,236.2 172.5,235.7C169.9,238.1 166.1,236.8 162.4,236.8C159.6,236.8 156.8,236.8 154,236.7C153,236.7 152,236.4 150.8,236.2C151.5,235 151.9,234.3 152.4,233.4C151.8,233 151.3,232.6 150.6,232.1C153.3,231.9 155.7,234.5 158,231.6C158.9,233.6 160,233.7 161.6,232.9C162.4,232.5 163.8,232.9 164.9,233C165.7,233.1 166.5,233.4 168,233.7C167.2,233 167,232.8 166.7,232.6C166.8,232.4 166.8,232.2 166.9,231.9C168.7,232.2 170.4,232.7 172.2,232.8C173.2,232.9 174.3,232.5 175.4,232.3C176,232.2 176.7,232.3 177.3,232.3C178.4,232.4 179.5,232.4 180.6,232.5C181.9,232.7 183.2,233.2 184.6,233.4C185.2,233.5 185.8,233.4 186.4,233.4C186.2,233 186.1,232.6 185.9,232C189.5,232.3 193.1,234 196.9,232.9C200.7,231.8 204.8,234.4 208.4,231.8C210.5,233 212.5,233.8 214.7,232.2C215,232 215.6,231.8 216,231.9C217.7,232.3 219.3,232.8 220.9,233.2C221.6,233.4 222.7,233.9 223,233.6C224.8,232 226.6,233.2 228.5,233.3C231.3,233.4 234.2,232.9 237.1,232.8C239.6,232.7 242.1,232.9 244.6,233C248.6,233.1 252.5,233.2 256.5,233.4L256.6,233.5C258,233.9 259.3,234.4 261,234.9C256.8,235.1 253,235.3 249.1,235.5L249.1,236.4C249.7,236.4 250.4,236.5 251,236.5C253.5,236.6 256,236.6 258.5,236.7C259.3,236.6 260.5,236.3 259.7,237.9Z" style="fill:rgb(116,116,116);fill-opacity:0.18;fill-rule:nonzero;"/>
    <path id="XMLID_758_" d="M204.8,250.1C206.4,250.8 208,251.4 209.7,252.1L209.7,252.4C208.1,252.3 206.5,252.1 205,252.2C204.3,252.2 203.7,252.6 203.1,252.8L201.3,252.8C202.9,250.9 201.3,250.3 199.9,249.7C200.3,249 200.3,249 199.2,248L202,248C203.5,247.9 205.3,249.5 206.4,247C206.6,246.6 207.9,246.6 208.7,246.6C211.9,246.6 215.1,246.7 218.3,246.6C219.8,246.5 220,247.2 219.8,248.3C219.3,248.3 218.8,248.2 217.9,248.2C218.6,249 219,249.4 219.5,250C219.1,250.3 218.8,250.9 218.5,250.8C217.3,250.7 215.7,252.2 214.8,250.1C214.7,249.9 214.6,249.5 214.5,249.5C211.3,249.4 208.1,249.4 205,249.4C204.9,249.4 204.9,249.9 204.8,250.1Z" style="fill:rgb(120,120,120);fill-opacity:0.18;fill-rule:nonzero;"/>
    <path id="XMLID_757_" d="M269.8,224.3C268.6,226.3 266.7,226.1 264.8,225.9C265.4,223.5 265.1,222.8 263,222.5C261.7,221.6 260.4,220.8 259.1,219.9C259.8,219.4 260.5,218.9 261.2,218.4C264,218.2 266.9,218 269.7,217.8C270.5,217.8 271.2,217.9 272,217.9C271.5,218.9 270.8,219.9 270.4,220.9C270,222 270,223.2 269.8,224.3Z" style="fill:rgb(96,96,96);fill-opacity:0.04;fill-rule:nonzero;"/>
    <path id="XMLID_756_" d="M228,214.3C229.9,212.1 231.6,212.1 232.5,214.3L228,214.3Z" style="fill:rgb(120,120,120);fill-opacity:0.48;fill-rule:nonzero;"/>
    <path id="XMLID_752_" d="M328,1.8C325.8,3.8 323.7,5.9 321.5,7.9C321.9,7.2 322.4,6.5 322.8,5.9C324.6,4.5 326.3,3.2 328,1.8Z" style="fill:rgb(81,81,81);fill-opacity:0.48;fill-rule:nonzero;"/>
    <path id="XMLID_744_" d="M310.8,17.2C307.4,19.9 304,22.6 300.5,25.3C300.1,25.6 299.4,25.7 298.8,25.9C299.7,25.1 300.6,24.3 301.5,23.5C303.8,21.7 306.2,20 308.5,18.3C309.2,17.9 310,17.6 310.8,17.2Z" style="fill:rgb(81,81,81);fill-opacity:0.48;fill-rule:nonzero;"/>
    <path id="XMLID_742_" d="M206.6,28.5C209.2,29.7 211.8,31 214.4,32.2C211.8,30.9 209.2,29.7 206.6,28.5Z" style="fill:rgb(70,70,70);fill-opacity:0.48;fill-rule:nonzero;"/>
    <path id="XMLID_735_" d="M627.5,213.4C626.4,209.7 627.7,206.1 627.5,202.4C627.3,198.6 627.2,194.9 627.1,191.1C627,186.3 626.9,181.4 626.8,176.6C626.8,165.1 626.7,153.7 626.7,142.2C626.7,136.8 626.8,131.4 626.8,126C626.9,120.4 627,114.7 627.1,109.1C627.1,107.4 626.9,105.7 626.8,104C623.4,102.7 625.6,99.8 624.6,97.7C624.8,97.5 624.9,97.4 625.1,97.2C625.9,97.5 626.8,97.8 628,98.3C626.9,99 626.3,99.3 625.7,99.6C625.8,99.8 625.9,100 625.9,100.1C627.4,99.6 628.9,99.1 630.5,98.5C630.1,97.7 629.8,97.2 629.5,96.6C629.6,96.5 629.7,96.5 629.8,96.4C630.6,97.1 631.4,97.7 632.2,98.4C633.2,99.5 634.2,100.6 635.2,101.7C635.2,101.8 635.2,101.9 635.3,101.9C634.7,101.9 634.2,101.8 633.2,101.8C633.3,104.5 633.4,107.2 633.6,109.8L633.6,114.1L633.2,114.1C632.9,110.5 632.5,106.9 632.1,103.2C629.3,103.5 630.1,105.3 629.9,106.6C629.4,111.3 629,116 628.5,120.7C628.4,121.4 628.2,122.2 628.2,122.9C628.2,127.8 628.2,132.7 628.3,137.7C628.7,160.4 629,183.1 629.4,205.8C629.4,206.7 629.7,207.5 629.8,208.4C631,208.6 632.1,208.8 633.2,209C632.1,209.6 630.9,210.2 629.7,210.8C629.8,211.3 629.7,212.1 630,212.5C630.6,213.3 631.4,213.9 632.1,214.7C632.7,214 633.3,213.3 633.9,212.6C633.9,212.6 633.9,212.5 634,212.4C634.1,212.6 634.2,212.7 634.4,212.9C634.4,213.6 634.3,214.4 634.3,215.1C632.5,215.2 630.7,215.3 628.9,215.3C628.5,214.7 628,214 627.5,213.4Z" style="fill:rgb(181,181,181);fill-opacity:0.48;fill-rule:nonzero;"/>
    <path id="XMLID_734_" d="M397.3,179.3C397.2,180.3 397,181.4 396.9,182.4C396.8,181.7 396.5,181 396.5,180.3C397,173.3 397.6,166.3 398.2,159.4C398.2,156.8 398.3,154.3 398.3,151.7C398.3,151 398.3,149.8 398.5,149.8C400,149.4 399.6,148 400.2,147.2C400.5,148.1 401,149 401,149.9C400.8,153.4 400.5,156.9 400.2,160.4C400.4,164.2 400.5,168 400.7,171.8L400.7,195.6C400.7,198.6 400.9,201.6 401,204.6L401,209.4C400.9,209.7 400.8,210.1 400.6,210.4C399.9,210.4 399.2,210.3 398.5,210.3L398.5,170.4C398.4,170.4 398.3,170.4 398.2,170.3C398,172.2 397.7,174 397.5,175.9C397.4,176.9 397.3,178.1 397.3,179.3Z" style="fill:rgb(8,8,8);fill-opacity:0.48;fill-rule:nonzero;"/>
    <path id="XMLID_733_" d="M631,228.7C630.4,228.5 629.9,228.3 628.7,227.9C630.3,227.5 631.2,227.2 632.2,226.9L635.3,226.9C637.3,227.2 639.2,227.7 641.2,227.8C644.9,228 648.7,228.1 652.4,228.2C653.5,228.2 654.5,228.2 655.7,228.5C652.9,231.5 649,228.7 645.9,231.1C648.4,231.3 650.8,231.6 653.3,231.8C652.1,233.6 648.2,234.9 645.8,234.3C643.3,233.7 642.4,234.4 641.6,236.9C641.4,237.6 640.3,238.4 639.4,238.5C637.9,238.8 636.2,238.6 634.7,238.5C634.9,236.5 635.1,234.5 635.3,232C633.8,232.4 632.5,232.7 631.2,233C631.5,232.4 631.8,231.9 632.1,231.3C633.1,231.2 634.2,231.2 635.2,231.1C635.4,230.1 635.5,229.2 635.7,228C634.1,228.4 632.6,228.5 631,228.7Z" style="fill:rgb(96,96,96);fill-opacity:0.18;fill-rule:nonzero;"/>
    <path id="XMLID_732_" d="M629,215.4C630.8,215.3 632.6,215.2 634.4,215.2C638,216 641.6,216.6 645.1,217.6C646.6,218 647.9,219.2 649.8,220.3C644.7,222.6 639.1,219.2 635.1,223.5C635,223.3 634.9,223 634.7,222.3C634.1,223.1 633.6,223.8 632.9,224.7C631.8,221.2 628.2,222.2 625.6,220.6C626.7,220.3 627.4,220.2 628.5,219.9C627.3,219.2 626.4,218.6 625.4,218.1C626.8,217 627.9,216.2 629,215.4Z" style="fill:rgb(125,125,125);fill-opacity:0.48;fill-rule:nonzero;"/>
    <path id="XMLID_731_" d="M566.7,200.8C566.7,203.1 566.8,205.5 566.7,207.8C566.7,208.5 566.2,209.2 565.9,209.9C565.6,209.9 565.3,209.8 565,209.8C564.8,194.8 564.6,179.8 564.4,164.8C564.5,162.2 564.6,159.7 564.7,157.1L565.3,157.1C565.4,157.7 565.4,158.2 565.5,158.8C565.8,167.4 566.1,176 566.3,184.6C566.5,190 566.6,195.4 566.7,200.8Z" style="fill:rgb(22,22,22);fill-opacity:0.48;fill-rule:nonzero;"/>
    <path id="XMLID_730_" d="M400.6,210.3C400.7,210 400.8,209.6 401,209.3C401.3,208.8 401.7,208.2 402.2,207.5C402.6,208.5 402.9,209.5 403.3,210.5C402.6,210.7 401.8,211 401.1,211.2C400.9,210.8 400.7,210.6 400.6,210.3Z" style="fill:rgb(90,90,90);fill-opacity:0.48;fill-rule:nonzero;"/>
    <path id="XMLID_729_" d="M401,213.8C401.4,214 401.7,214.3 402.1,214.5C402,214.7 401.9,214.9 401.9,215.1C400.4,215.3 398.9,215.4 397.3,215.6C397.2,215.4 397.2,215.2 397.1,215C397.9,214.6 398.8,214.2 399.6,213.8C400.1,213.9 400.5,213.8 401,213.8Z" style="fill:rgb(125,125,125);fill-opacity:0.48;fill-rule:nonzero;"/>
    <path id="XMLID_728_" d="M401,213.8C400.6,213.8 400.1,213.9 399.7,213.9C399.3,213.4 399,212.8 398.6,212.3C399.4,211.9 400.2,211.5 401,211.1C401,211.3 401.1,211.4 401.1,211.6C401.1,212.3 401,213.1 401,213.8Z" style="fill:rgb(90,90,90);fill-opacity:0.48;fill-rule:nonzero;"/>
    <path id="XMLID_726_" d="M632.2,98.5C631.2,97.5 630.1,96.5 629.2,95.4C628,94.1 626.7,92.9 625.9,91.5C621.5,83.8 617.3,76 613.1,68.3C612.4,67.1 611.7,66 611,64.8C609.7,62.9 608.5,61 607.2,59C607.4,58.9 607.5,58.7 607.7,58.6C615.9,70.9 624.2,83.2 632.4,95.5C634.2,98.2 635.1,98 637.9,96.4C641.6,94.2 645.6,92.4 649.7,90.8C657.3,87.8 665,85.1 672.6,82.3C672.8,82.2 673,82.2 673.4,82.6C668.9,84.9 664.4,87.2 659.9,89.5C652.7,92.8 645.4,96.1 638.2,99.6C637.1,100.1 636.2,101.1 635.2,101.9C634.2,100.7 633.2,99.6 632.2,98.5Z" style="fill:rgb(5,5,5);fill-opacity:0.48;fill-rule:nonzero;"/>
    <path id="XMLID_724_" d="M604,54C604.4,54.3 604.9,54.6 605.3,54.9C606.1,56.1 606.8,57.3 607.6,58.6C607.4,58.7 607.3,58.9 607.1,59C606.2,57.3 603.6,56.6 604,54Z" style="fill:rgb(67,67,67);fill-opacity:0.48;fill-rule:nonzero;"/>
    <path id="XMLID_722_" d="M164.9,133C164,133.5 163.1,133.9 162.2,134.4C159.1,135.5 156.2,136.8 153,137.5C144,139.5 135,141.1 125.8,142.8C127.8,142.1 129.7,141.4 131.7,140.7C136.4,139.2 141.1,137.8 145.8,136.3C148.8,135.5 151.8,134.7 154.8,133.9C158,133 161.2,132 164.3,131.1C164.5,131.7 164.7,132.3 164.9,133Z" style="fill:rgb(5,5,5);fill-opacity:0.48;fill-rule:nonzero;"/>
    <path id="XMLID_720_" d="M320.8,8.6C318.5,10.6 316.1,12.6 313.8,14.7C316.2,12.7 318.5,10.6 320.8,8.6Z" style="fill:rgb(81,81,81);fill-opacity:0.48;fill-rule:nonzero;"/>
    <path id="XMLID_719_" d="M631.2,282.8C630.8,282.5 630.4,282.3 629.9,282C630,281.8 630.1,281.6 630.1,281.4L607.4,281.4C607.4,281.1 607.3,280.8 607.3,280.5C608.1,280.4 608.8,280.2 609.6,280.2C615.2,280.3 620.8,280.4 626.3,280.5C627.7,280.5 628.7,280.1 629.1,278.5C629.3,277.9 630.7,277.6 631.6,277.2C631.9,277.4 632.1,277.6 632.4,277.8C631.9,278 631.4,278.1 630.5,278.5C631.8,278.8 632.4,279 633.6,279.3C632.4,279.8 631.7,280.1 630.4,280.6C633.5,280.8 635.9,280.9 638.3,281C638.4,281 638.5,281 638.5,281.1C638.6,281.2 638.6,281.3 638.6,281.4C637.1,281.5 635.5,281.5 634,281.8C633.2,281.9 632.2,282.4 631.2,282.8Z" style="fill:rgb(148,148,148);fill-opacity:0.18;fill-rule:nonzero;"/>
    <path id="XMLID_718_" d="M632.6,277.8C632.3,277.6 632.1,277.4 631.8,277.2L631.8,277C631.8,276.4 631.7,275.9 631.7,275.3C634.4,276.6 637.2,277.3 640.5,276C637.8,275.5 635.4,275.1 633.1,274.6C634,274.2 635,273.8 635.9,273.4C637.2,273.4 638.6,273.3 639.9,273.4C642.1,273.5 642.6,274.2 642,276.3C642.1,276.4 642.2,276.6 642.3,276.6C643.1,276.8 643.8,277 644.6,277.3C643.8,277.7 643,278.5 642.2,278.5C640.5,278.5 638.8,278.2 637.1,278C635.6,277.8 634.1,277.8 632.6,277.8Z" style="fill:rgb(96,96,96);fill-opacity:0.18;fill-rule:nonzero;"/>
    <path id="XMLID_717_" d="M631.3,233.3C632.6,233 633.9,232.6 635.4,232.3C635.2,234.7 635,236.7 634.8,238.8C634.6,239.8 636.2,241.2 634.1,241.6C633.4,241.4 632.7,241.3 632,241.1C632.1,240.9 632.3,240.6 632.4,240.4C632,240.2 631.7,240 631.3,239.8C630.9,239.3 630.6,238.8 630.2,238.3C632.2,236.9 630.1,235.3 630.4,233.8C630.7,233.6 631,233.4 631.3,233.3Z" style="fill:rgb(29,29,29);fill-opacity:0.18;fill-rule:nonzero;"/>
    <path id="XMLID_716_" d="M632.7,267.5C632.3,267 631.9,266.4 631.4,265.8C631.9,265.6 632.4,265.4 632.4,265.4C632,264.2 631.6,263.1 631.1,261.8L635.4,261.8C635.5,262.2 635.4,262.8 635.6,263.1C636.5,264.5 636.1,265.5 634.7,266.4C634.4,266.6 634.2,267.1 633.9,267.5L632.7,267.5Z" style="fill:rgb(66,66,66);fill-opacity:0.18;fill-rule:nonzero;"/>
    <path id="XMLID_715_" d="M632.7,267.5C633.1,267.5 633.5,267.4 634,267.4C635.6,268.6 636.8,270.1 635.8,272.3C634.7,272.1 633.6,272 632.2,271.8C632.5,271.3 632.8,270.9 633.1,270.5C632.4,269.8 631.6,269 630.4,268C631.4,267.8 632,267.6 632.7,267.5Z" style="fill:rgb(43,43,43);fill-opacity:0.18;fill-rule:nonzero;"/>
    <path id="XMLID_714_" d="M632.6,277.8L637.1,277.8C636.5,277.9 635.8,278 635,278.1C636.3,280.6 638.3,280.1 640.7,279.7C639.7,280.3 639.1,280.7 638.6,281C636.2,280.9 633.7,280.8 630.7,280.6C632,280 632.7,279.8 633.9,279.3C632.7,279 632.1,278.8 630.8,278.5C631.6,278.1 632.1,277.9 632.6,277.8Z" style="fill:rgb(49,49,49);fill-opacity:0.18;fill-rule:nonzero;"/>
    <path id="XMLID_713_" d="M641.5,264.4C638.9,266.4 638.2,263.9 636.6,263.2C638.9,261.4 639.9,263.3 641.5,264.4Z" style="fill:rgb(66,66,66);fill-opacity:0.18;fill-rule:nonzero;"/>
    <path id="XMLID_712_" d="M631.2,239.7C631.6,239.9 631.9,240.1 632.3,240.3C632.2,240.5 632,240.8 631.9,241C632.6,241.2 633.3,241.3 634,241.5L634,241.9C632.8,241.8 631.6,241.9 631.2,243.3C630.9,242.5 630.7,241.8 630.4,241C630.7,240.6 630.9,240.1 631.2,239.7Z" style="fill:rgb(96,96,96);fill-opacity:0.18;fill-rule:nonzero;"/>
    <path id="XMLID_4_" d="M559.9,292.4C559.1,292.2 558.3,292 557.5,292C553.9,291.9 550.4,292 546.8,291.9C546,291.9 545.1,291.7 544.3,291.6C544.3,291.3 544.3,291.1 544.4,290.8C556,290.3 567.5,291.5 579.1,291.5" style="fill:rgb(138,138,138);fill-opacity:0.18;fill-rule:nonzero;"/>
    <path id="XMLID_708_" d="M573.1,283.5C561.2,283.4 549.2,282.8 537.3,283.8L537.3,284.6C540.2,284.8 543.2,285 546.1,285.2C546.1,285.4 546.1,285.6 546,285.8C540.1,285.9 534.2,286.5 528.5,284.6L528.5,284C529.3,283.9 530.1,283.8 530.9,283.8L530.9,283.4C523.9,283 517,282.6 510,282.3L510,281.9C531,282.2 552,282.5 573,282.8C573.1,283 573.1,283.3 573.1,283.5Z" style="fill:rgb(96,96,96);fill-opacity:0.18;fill-rule:nonzero;"/>
    <path id="XMLID_707_" d="M597.2,286C598.8,286.1 600.3,286.4 601.9,286.4L620.7,286.4C620.7,286.7 620.8,287 620.8,287.2C619.6,287.4 618.3,287.7 617.1,287.7C611.7,287.7 606.2,287.6 600.8,287.4C595.2,287.3 589.7,287 584.1,286.8C574.7,286.5 565.3,286.2 555.9,285.8C558.1,285.4 560.3,284.8 562.6,284.7C565.2,284.6 567.8,285.1 570.4,285.3C579.3,285.7 588.3,285.8 597.2,286Z" style="fill:rgb(139,139,139);fill-opacity:0.18;fill-rule:nonzero;"/>
    <path id="XMLID_705_" d="M555.9,286C565.3,286.3 574.7,286.6 584.1,287C584.6,287.2 585,287.4 585.5,287.7C585.5,287.9 585.4,288.2 585.4,288.4C582.8,288.3 580.2,288.2 577.7,288C576.2,287.9 574.7,287.5 573.2,287.5C568.1,287.3 562.9,287.2 557.8,287C557.1,286.8 556.5,286.3 555.9,286Z" style="fill:rgb(96,96,96);fill-opacity:0.18;fill-rule:nonzero;"/>
    <path id="XMLID_704_" d="M597.2,286C588.3,285.8 579.3,285.7 570.4,285.5C569.5,285.3 568.5,285.1 567,284.7C573.7,284.7 579.8,284.6 585.9,284.7C588.8,284.7 591.7,285 594.6,285.3C595.5,285.4 596.3,285.8 597.2,286Z" style="fill:rgb(96,96,96);fill-opacity:0.18;fill-rule:nonzero;"/>
    <path id="XMLID_702_" d="M525.9,284.6C522.8,285.3 519.7,285.4 516.7,284.5L516.7,283.8L525.9,283.8L525.9,284.6Z" style="fill:rgb(96,96,96);fill-opacity:0.18;fill-rule:nonzero;"/>
    <path id="XMLID_701_" d="M529.1,280.7L537.1,280.7L537.1,281.1L529.2,281.1C529.1,281 529.1,280.9 529.1,280.7Z" style="fill:rgb(96,96,96);fill-opacity:0.18;fill-rule:nonzero;"/>
    <path id="XMLID_700_" d="M536.8,268.8C538.8,269 540.7,269.2 542.7,269.4C542.7,269.7 542.6,269.9 542.6,270.2C540.6,270.1 538.6,270 536.7,269.9C536.7,269.5 536.8,269.1 536.8,268.8Z" style="fill:rgb(96,96,96);fill-opacity:0.18;fill-rule:nonzero;"/>
    <path id="XMLID_699_" d="M633.6,109.8C633.5,107.2 633.4,104.6 633.2,101.8C634.1,101.9 634.7,101.9 635.3,101.9C635.6,109.1 635.9,116.2 636.3,123.4C636.7,130 637.1,136.6 637.5,143.3C637.6,144.3 637.8,145.2 637.9,146.2C638.2,151.2 638.6,156.2 638.9,161.2L638.5,161.2C638,156.8 637.5,152.4 637,148.1C636.1,138.6 635.1,129.2 634.2,119.7C634,116.5 633.8,113.1 633.6,109.8Z" style="fill:rgb(6,6,6);fill-opacity:0.48;fill-rule:nonzero;"/>
    <path id="XMLID_695_" d="M42.9,289.8C43.9,289.7 45,289.6 46,289.6C51.6,289.6 57.1,289.5 62.7,289.5C63.2,289.5 63.7,289.4 64,289.6C64.4,289.8 64.7,290.2 65.1,290.6C64.7,290.9 64.4,291.5 64,291.6C61.8,291.8 59.6,292.2 57.5,291.9C53.8,291.4 50.1,290.4 46.3,291.2C45.2,291.4 43.9,290.8 42.7,290.5C42.8,290.3 42.9,290.1 42.9,289.8Z" style="fill:rgb(96,96,96);fill-opacity:0.18;fill-rule:nonzero;"/>
    <path id="XMLID_1_" d="M121.7,291.8C123.9,291.6 126.2,291.7 128.4,291.7" style="fill:rgb(96,96,96);fill-opacity:0.18;fill-rule:nonzero;"/>
    <path id="XMLID_690_" d="M69.5,290.7C71.7,289.3 73.9,289.5 76.1,289.9C76.5,290 76.8,290.9 77,291.5C77,291.7 76.4,292.3 76.1,292.3C74.1,292.2 72.2,292 70.3,291.8C70,291.7 69.8,291.2 69.5,290.7Z" style="fill:rgb(96,96,96);fill-opacity:0.18;fill-rule:nonzero;"/>
    <path id="XMLID_685_" d="M12.6,251.5C19.7,251.8 26.7,252.1 34.3,252.4C33.4,251.9 33.1,251.7 32.6,251.4C35.8,251.7 38.8,252 41.8,252.2C41.9,252.3 41.9,252.5 42,252.6C41.2,253 40.4,253.6 39.6,253.7C35.7,253.9 31.9,254 28,254C27.3,254 26.6,254.1 26,253.8C24.3,252.9 23.2,253.5 22.3,255.3C20.7,254.5 19.3,253.8 17.8,253.1C17.2,252.9 16.4,252.7 15.8,252.9C14,253.8 13.3,252.5 12.6,251.5Z" style="fill:rgb(141,141,141);fill-opacity:0.18;fill-rule:nonzero;"/>
    <path id="XMLID_684_" d="M108.1,257.7C106.6,259.9 109.5,259.1 109.6,260.4C108.2,260.8 107.1,260.9 105.9,259.4C105.2,258.6 103.2,258.7 101.8,258.5C101.3,258.4 100.7,258.9 99.8,259.2C100.7,257.3 103,256.9 108.1,257.7Z" style="fill:rgb(96,96,96);fill-opacity:0.18;fill-rule:nonzero;"/>
    <path id="XMLID_683_" d="M98.8,252.7C95.2,251.9 92,251.2 88.4,250.4C90.7,250.3 92.8,250.4 94.7,249.9C97.2,249.4 97.4,251.4 98.8,252.7Z" style="fill:rgb(141,141,141);fill-opacity:0.18;fill-rule:nonzero;"/>
    <path id="XMLID_682_" d="M119.8,253.4C118.3,254 116.5,254.7 114.7,255.4C115.8,253 116.2,252.9 119.8,253.4Z" style="fill:rgb(96,96,96);fill-opacity:0.18;fill-rule:nonzero;"/>
    <path id="XMLID_681_" d="M628.6,120.8C629.1,116.1 629.5,111.4 630,106.7C630.2,107.4 630.5,108.1 630.5,108.8C631,118.7 631.3,128.5 631.8,138.4C632,142.7 632.3,147 632.6,151.2C632.8,162.2 633,173.2 633.2,184.2C633.2,184.9 633.4,185.5 633.5,186.2L633.5,208.2C632.8,208.2 632.1,208.3 631.4,208.3C631.2,206.9 631,205.4 630.9,204C630.4,191 629.9,177.9 629.6,164.9C629.3,153.3 629.2,141.6 629,130C628.9,127 628.7,123.9 628.6,120.8Z" style="fill:rgb(7,7,7);fill-opacity:0.48;fill-rule:nonzero;"/>
    <path id="XMLID_679_" d="M628.6,120.8C628.7,123.9 629,127 629,130.1C629.2,141.7 629.3,153.4 629.6,165C629.9,178 630.4,191.1 630.9,204.1C631,205.5 631.2,207 631.4,208.4C630.9,208.4 630.4,208.5 630,208.5C629.8,207.6 629.6,206.8 629.6,205.9C629.2,183.2 628.8,160.5 628.5,137.8C628.4,132.9 628.4,128 628.4,123C628.2,122.3 628.4,121.5 628.6,120.8Z" style="fill:rgb(56,56,56);fill-opacity:0.48;fill-rule:nonzero;"/>
    <path id="XMLID_677_" d="M272,213.8C273.1,214 274.1,214.1 275.2,214.3C274.5,216.5 275,217 277.6,217.2C279.2,217.3 280.8,218 282.3,218.4C282.3,218.6 282.2,218.9 282.2,219.1C281.5,219.4 280.8,219.7 280.1,220L280.1,220.5C281.7,220.8 283.3,221 285.2,221.4C285.1,220.4 285,219.7 284.8,218.5C287.1,219.4 288.5,222.7 291.6,220.4L291.6,225.1C292,225.6 292.4,226.1 292.8,226.6C292.5,226.6 292.2,226.6 291.9,226.7C290.7,226.6 289.6,226.7 289.6,225C289.6,224.4 288.9,223.8 288.4,223.1C287,223.8 285.8,224.4 284.7,225.1C283.2,226.2 282,226.5 280.1,225.7C279.3,225.3 277.9,226.1 276.8,226.5C276,226.8 275.5,227.2 274.5,226.5C273.7,226 272.1,226.9 270.2,227.4C271.9,228.1 273,228.5 274.1,228.9C274.1,229 274,229.1 274,229.3C273.3,229.2 272.7,229.2 272,229.1C271.9,229.3 271.9,229.5 271.8,229.6C273,230.1 274.2,230.7 275.7,231.3C274.9,231.7 274.3,231.9 273.6,232.3C274.5,234.2 276.1,233.5 277.5,233.5C277.3,234 277.2,234.6 277,235.1C279.3,235.3 281.4,235.6 283.4,235.8C285.3,236 285.8,236.9 284.7,238.5C283.4,238.4 282,238.2 280.7,238.2C276.6,238.4 272.5,238.7 268.4,238.9C268.5,238.6 268.6,238.4 268.9,237.8C267,238.7 265.4,238.5 263.7,237.4C262.9,236.9 261.1,237.7 259.8,238C260.5,236.5 259.2,236.7 258.5,236.7C256,236.6 253.5,236.6 251,236.5C250.4,236.5 249.7,236.4 249.1,236.4L249.1,235.5C252.9,235.3 256.8,235.1 261,234.9C259.3,234.4 258,234 256.6,233.5L262.2,233.5C262,233.1 261.8,232.7 261.5,232.1C262,232 262.4,232 262.8,231.9C262.8,231.7 262.9,231.6 262.9,231.4C262.2,231.1 261.5,230.8 260.2,230.2C262.1,230 263.6,229.8 265.1,229.7L265.1,229.2C264.1,229.1 263,228.9 261.6,228.7C262.8,227.9 264.3,227.1 262.5,226C261.6,225.5 260.2,225.7 258.5,225.5C259.9,224.4 260.8,223.7 261.9,222.8C261,222.5 260.5,222.3 260.2,222.2C259.9,220.5 259.6,219.1 259.4,217.5C260.1,217.3 260.9,216.8 261.6,217C265.4,218.1 267.9,214.1 271.5,214.4C271.7,214.3 271.9,213.9 272,213.8Z" style="fill:rgb(96,96,96);fill-opacity:0.18;fill-rule:nonzero;"/>
    <path id="XMLID_676_" d="M367.4,250.6C366.8,251.1 366.2,251.7 365.4,252.1C365,252.3 364.4,252.2 363.8,252.2C360.7,252.1 357.6,252.1 354.5,251.9C353.5,251.8 352.5,251.4 351.5,251.1C353.2,250.9 355,250.6 356.7,250.6C360.3,250.5 363.9,250.6 367.4,250.6Z" style="fill:rgb(96,96,96);fill-opacity:0.18;fill-rule:nonzero;"/>
    <path id="XMLID_675_" d="M405.5,242C406.2,241.4 406.9,240.8 407.6,240.3C408.1,241 408.6,241.7 409.1,242.5C407.5,242.9 405.8,243.3 403.5,243.9C404.6,242.8 405.1,242.4 405.5,242Z" style="fill:rgb(108,108,108);fill-opacity:0.18;fill-rule:nonzero;"/>
    <rect id="XMLID_674_" x="380.6" y="240.6" width="7.7" height="0.9" style="fill:rgb(108,108,108);fill-opacity:0.18;fill-rule:nonzero;"/>
    <rect id="XMLID_673_" x="502.4" y="247.2" width="14.3" height="0.4" style="fill:rgb(96,96,96);fill-opacity:0.18;fill-rule:nonzero;"/>
    <path id="XMLID_672_" d="M562.7,230.1C563.3,229.5 563.9,228.5 564.5,228.5C570.7,228.2 576.8,228.1 583,228C584.3,228 585.5,228.5 586.8,228.8C586.8,229.1 586.7,229.5 586.7,229.8C583.9,229.8 581.1,229.7 578.3,229.8C577.3,229.8 576.4,230.3 575.4,230.6C571.2,230.4 567,230.2 562.7,230.1Z" style="fill:rgb(96,96,96);fill-opacity:0.18;fill-rule:nonzero;"/>
    <path id="XMLID_671_" d="M441.9,232.4C441.2,232.8 440.5,233.5 439.9,233.5C437.8,233.4 435.8,233.1 433.7,232.8C435.2,231.2 439,231 441.9,232.4Z" style="fill:rgb(126,126,126);fill-opacity:0.18;fill-rule:nonzero;"/>
    <path id="XMLID_670_" d="M471,228.3C472,228 473,227.3 474,227.3C476.3,227.3 478.6,227.6 481,227.8C480.7,228.1 480.3,228.7 480,228.6C477,228.2 473.9,230.1 471,228.3Z" style="fill:rgb(126,126,126);fill-opacity:0.18;fill-rule:nonzero;"/>
    <path id="XMLID_669_" d="M177.8,256.7C182.9,256.7 188.1,254.8 193,257C195.4,258 197.3,256.8 199.4,256.9C200.1,257 200.8,257 201.5,257.1L201.5,258.1C199.9,258.3 198.2,258.5 196.6,258.6C194.7,258.6 192.8,258.7 191,258.2C187.8,257.3 184.8,256.7 181.5,258C180.5,258.4 179.1,257.6 177.8,257.4L177.8,256.7Z" style="fill:rgb(96,96,96);fill-opacity:0.18;fill-rule:nonzero;"/>
    <path id="XMLID_668_" d="M201.2,252.8L203,252.8C204.3,254.5 205.6,256.2 207.1,258.3C206.3,258.4 205.5,258.6 204.7,258.5C204.4,258.4 204.3,257.5 204,257C203.8,256.5 203.5,256 203.2,255.6C202.5,254.6 201.9,253.7 201.2,252.8Z" style="fill:rgb(96,96,96);fill-opacity:0.18;fill-rule:nonzero;"/>
    <path id="XMLID_667_" d="M204.8,250.1C204.8,249.8 204.9,249.4 204.9,249.4C208.1,249.4 211.3,249.5 214.4,249.5C214.5,249.5 214.6,249.9 214.7,250.1L204.8,250.1Z" style="fill:rgb(141,141,141);fill-opacity:0.18;fill-rule:nonzero;"/>
    <path id="XMLID_666_" d="M606.9,230.1C609.4,228.6 625.1,229 626.4,230.8L606.9,230.8L606.9,230.1Z" style="fill:rgb(96,96,96);fill-opacity:0.18;fill-rule:nonzero;"/>
    <path id="XMLID_665_" d="M631,228.7C632.5,228.5 634.1,228.4 635.7,228.2C635.5,229.4 635.4,230.3 635.2,231.3C634.2,231.4 633.1,231.4 632.1,231.5C631.6,231 631.1,230.5 630.5,229.8C630.7,229.5 631,229.2 631.3,228.9C631.2,228.9 631.2,228.8 631.1,228.8C631.2,228.7 631.1,228.7 631,228.7Z" style="fill:rgb(38,38,38);fill-opacity:0.18;fill-rule:nonzero;"/>
    <path id="XMLID_664_" d="M589,230.2C589.3,229.8 589.7,229 590,229C593.4,229 596.8,229.2 600.3,229.3L600.3,230.1C596.5,230.2 592.8,230.2 589,230.2Z" style="fill:rgb(96,96,96);fill-opacity:0.18;fill-rule:nonzero;"/>
    <rect id="XMLID_663_" x="237.1" y="251.8" width="8.7" height="0.5" style="fill:rgb(96,96,96);fill-opacity:0.18;fill-rule:nonzero;"/>
    <path id="XMLID_662_" d="M633,274.5C635.4,274.9 637.7,275.4 640.4,275.9C637.1,277.2 634.3,276.5 631.6,275.2C632.1,275 632.5,274.8 633,274.5Z" style="fill:rgb(49,49,49);fill-opacity:0.18;fill-rule:nonzero;"/>
    <path id="XMLID_653_" d="M277.1,89.8C276,86.6 275,83.4 273.9,80.2C274,80.2 274.2,80.2 274.3,80.3C275.2,83.5 276.2,86.7 277.1,89.8Z" style="fill:rgb(121,121,121);fill-opacity:0.48;fill-rule:nonzero;"/>
    <path id="XMLID_652_" d="M268.5,104.8C268.8,109.8 269.2,114.7 269.3,119.7C269.6,130.7 269.7,141.7 269.9,152.7L269.9,182.6C269.9,185.3 269.9,188 269.8,190.7L269.8,208.9C267.5,208.7 265.2,208.6 262.7,208.4C262.8,206.9 263,205.6 263,204.4C263.2,170.5 263.4,136.6 263.6,102.7C263.6,102.1 263.6,101.5 263.5,100.9C263.7,95.9 263.9,90.9 264,85.9L264,82.6C264.3,82.6 264.6,82.5 264.8,82.5C265.4,85.4 266.1,88.2 266.6,91.1C267.3,95.7 267.9,100.2 268.5,104.8Z" style="fill:rgb(5,5,5);fill-opacity:0.48;fill-rule:nonzero;"/>
    <path id="XMLID_651_" d="M269.7,209.2L272.3,209.2C272.1,208.3 272,207.8 271.9,207.2C272,207.1 272.2,207 272.3,206.9C272.8,207.4 273.2,208.1 273.8,208.5C274.3,208.8 275.1,208.7 276.4,208.9C273.4,210.3 271,209.9 268.5,209.3C268.9,209.3 269.3,209.3 269.7,209.2Z" style="fill:rgb(53,53,53);fill-opacity:0.48;fill-rule:nonzero;"/>
    <path id="XMLID_650_" d="M238.1,230.4C239.6,230.2 240.9,229.9 242.2,229.8C242.7,229.8 243.3,230.2 243.6,230.6C243.8,230.8 243.6,231.6 243.4,231.7C242.9,231.9 242,232.2 241.7,231.9C240.7,230.9 238.2,233.3 238.1,230.4Z" style="fill:rgb(141,141,141);fill-opacity:0.04;fill-rule:nonzero;"/>
    <path id="XMLID_649_" d="M216.7,231.4C216.2,232.8 215.3,233.5 214.1,232.7C213.5,232.3 213.4,231.2 213,230.5C213.7,230.5 214.4,230.4 215.1,230.5C215.6,230.7 216.1,231.1 216.7,231.4Z" style="fill:rgb(141,141,141);fill-opacity:0.04;fill-rule:nonzero;"/>
    <path id="XMLID_648_" d="M228.2,233.4C228.5,232.4 228.7,231.7 228.9,230.9C230,231.3 230.9,231.7 232.4,232.3C230.7,232.8 229.7,233 228.2,233.4Z" style="fill:rgb(141,141,141);fill-opacity:0.18;fill-rule:nonzero;"/>
    <path id="XMLID_647_" d="M204.7,221.8C206,221.7 207.2,221.6 208.5,221.5C208.5,221.7 208.6,222 208.6,222.2C207.3,222.4 206.1,222.6 204.8,222.8C204.8,222.5 204.7,222.1 204.7,221.8Z" style="fill:rgb(141,141,141);fill-opacity:0.18;fill-rule:nonzero;"/>
    <path id="XMLID_644_" d="M563.1,192L563.1,177.5C563.2,171.2 563.4,165 563.4,158.7C563.4,157.9 563,157 562.7,156.2C562.1,154.9 562.8,153.6 564.4,153.5C565.9,154.5 566.4,155.8 566.2,157.6C566.1,158.9 566.2,160.3 566.3,161.6C566,160.7 565.7,159.7 565.5,158.8C565.4,158.2 565.4,157.7 565.3,157.1L564.7,157.1C564.6,159.7 564.5,162.2 564.4,164.8C564.3,166.1 564,167.5 564,168.8C564.1,181 564.3,193.3 564.4,205.5L564.4,208.3L563.8,208.3C563.6,202.9 563.4,197.4 563.1,192Z" style="fill:rgb(176,176,176);fill-opacity:0.48;fill-rule:nonzero;"/>
    <path id="XMLID_642_" d="M397.3,179.3C397.4,178.1 397.4,177 397.5,175.8C397.6,176.5 397.9,177.1 397.9,177.8L397.9,207.5C397.9,207.7 397.8,207.9 397.4,208.1C397.3,198.5 397.3,188.9 397.3,179.3Z" style="fill:rgb(201,201,201);fill-opacity:0.48;fill-rule:nonzero;"/>
    <path id="XMLID_641_" d="M269.7,203.9L269.7,190.7C269.7,192.1 269.7,193.4 269.8,194.8C269.9,195.9 270.2,197 270.5,198.3C268.9,199.7 270.1,201.9 269.7,203.9Z" style="fill:rgb(85,85,85);fill-opacity:0.48;fill-rule:nonzero;"/>
    <path id="XMLID_640_" d="M454.3,225.7C453.4,225 452.4,224.3 451.5,223.5C451.5,223.3 451.5,223.1 451.6,222.9C452.5,223 453.5,222.9 454.3,223.3C454.7,223.5 454.8,224.6 455,225.2C454.7,225.4 454.5,225.6 454.3,225.7Z" style="fill:rgb(141,141,141);fill-opacity:0.18;fill-rule:nonzero;"/>
    <path id="XMLID_639_" d="M399.6,229.3C399.4,230 399.3,230.7 399.1,231.4C398.4,231.2 397.7,231 397,230.8L397,230.2C397.9,229.9 398.8,229.6 399.6,229.3C399.7,229.3 399.6,229.3 399.6,229.3Z" style="fill:rgb(141,141,141);fill-opacity:0.04;fill-rule:nonzero;"/>
    <path id="XMLID_636_" d="M626.8,126L626.8,104C626.9,105.7 627.1,107.4 627.1,109.1C627,114.7 626.9,120.3 626.8,126Z" style="fill:rgb(67,67,67);fill-opacity:0.48;fill-rule:nonzero;"/>
    <path id="XMLID_632_" d="M400.6,146.2C400.5,146.5 400.3,146.8 400.2,147.1C399.6,147.9 400,149.3 398.5,149.7C398.3,149.8 398.3,151 398.3,151.6C398.2,154.2 398.2,156.7 398.2,159.3C398,159.6 397.7,159.8 397.5,160.1C397.6,156.6 397.7,153.1 397.8,149.6C397.8,149 397.9,148.2 397.6,147.9C396.5,146.8 396.6,146.1 397.7,145.2C398.1,144.9 398.1,144.1 398.3,143.5C399.1,144.3 399.8,145.3 400.6,146.2Z" style="fill:rgb(183,183,183);fill-opacity:0.48;fill-rule:nonzero;"/>
    <path id="XMLID_631_" d="M400.6,146.2C399.8,145.3 399.1,144.4 398.3,143.4C396.9,142.2 395.2,141.2 394.1,139.7C389.6,133.6 385.4,127.3 381,121C383.3,123.5 385.5,126 387.8,128.5C391.8,133.4 395.8,138.3 400,143.1C400.6,143.8 402.4,144.2 403.2,143.8C408.6,141.2 414.6,140.8 420.3,139.5C424.2,138.6 428.1,137.5 431.9,136.6C432.2,136.5 432.6,136.5 433,136.8C432.3,137.1 431.5,137.4 430.8,137.7C422.2,140.1 413.7,142.6 405.1,145C403.6,145.5 402.1,145.8 400.6,146.2Z" style="fill:rgb(6,6,6);fill-opacity:0.48;fill-rule:nonzero;"/>
    <path id="XMLID_630_" d="M564.5,153.5C563.1,152.8 561.8,152.2 560.4,151.5C559.1,150.2 557.7,148.9 556.4,147.5C555,146 553.6,144.4 552.3,142.9C550.5,141.1 548.7,139.3 546.9,137.5C547.6,137.8 548.3,137.9 548.8,138.4C554,142.9 559.1,147.5 564.3,152C566.4,153.9 566.8,153.9 569,152C569.5,151.6 569.9,151.2 570.4,150.9C576.7,147.6 582.9,144.4 589.2,141.2C589.3,141.3 589.5,141.5 589.6,141.6C589.1,142 588.6,142.4 588.2,142.8C583.9,145.4 579.5,148 575.2,150.6C573.3,151.7 571.4,152.8 569.5,153.8C568,154.6 567.3,155.8 567.4,157.5C567.9,163.7 568.4,170 568.9,176.2C568.9,176.5 569.1,176.8 569.2,177.1C569.4,179.9 569.7,182.8 569.9,185.6C569.8,185.6 569.6,185.6 569.5,185.7C569,181.7 568.4,177.7 567.9,173.8C567.4,169.8 567,165.7 566.5,161.7C566.5,160.4 566.3,159 566.4,157.7C566.5,155.9 566,154.5 564.5,153.5Z" style="fill:rgb(8,8,8);fill-opacity:0.48;fill-rule:nonzero;"/>
</svg>
