<?xml version="1.0" encoding="UTF-8" standalone="no"?><!DOCTYPE svg PUBLIC "-//W3C//DTD SVG 1.1//EN" "http://www.w3.org/Graphics/SVG/1.1/DTD/svg11.dtd"><svg width="100%" height="100%" viewBox="0 0 580 263" version="1.1" xmlns="http://www.w3.org/2000/svg" xmlns:xlink="http://www.w3.org/1999/xlink" xml:space="preserve" xmlns:serif="http://www.serif.com/" style="fill-rule:evenodd;clip-rule:evenodd;stroke-linejoin:round;stroke-miterlimit:2;"><rect id="Artboard1" x="0" y="0" width="579.596" height="262.433" style="fill:none;"/><path id="XMLID_844_" d="M577.3,231.7c-12.8,-0.2 -25.6,-0.9 -38.3,-0.2c-7.8,0.4 -15.4,-1 -23.1,-0.6c-0.4,0 -0.8,-0.6 -1.3,-0.9c0.4,-0.2 0.7,-0.6 1,-0.6c3.1,0.5 6,0.5 9.2,-0.4c3.2,-0.9 6.8,-0.7 10.1,-0.2c14,1.9 28.2,1.5 42.2,1.5c0.2,0.5 0.2,0.9 0.2,1.4Z" style="fill:#666;fill-opacity:0.1;fill-rule:nonzero;"/><path id="XMLID_824_" d="M189,233.5c-0.5,0.4 -1,0.7 -1.7,1.2c5,2.1 9.6,4.3 15.2,2.7c0.6,-1.4 1.7,-1.8 3.6,-0.7c1.4,0.8 3.1,1.3 4.7,1.5c0.9,0.1 2,-0.5 3,-0.9c1,-0.4 2,-1.2 3,-1.4c1.2,-0.2 2.6,-0.2 3.8,0.1c0.7,0.1 1.4,0.8 2,1.4c1.8,0 3.9,-1.3 5.4,1.2c0.1,0.1 0.6,0 0.8,-0.1c3.6,-2 7.4,-1.1 11.1,-1c2.3,0 4.6,0.5 6.9,0.6c0.8,0 1.7,-0.6 2.9,-1c3.9,1.7 6.7,1.5 8.4,-0.8c1.1,1.8 2.5,2.1 4.6,1.7c1.6,-0.3 3.5,0.5 5.7,0.8c0,0 0.7,-0.8 1.1,-0.7c2.7,0.8 5.4,-0.8 8.1,0.5c0.9,0.4 2.3,-0.3 3.5,-0.3c4.2,0 8.4,0 12.5,0.1c1.3,0 2.5,0.3 3.8,0.4c-1.4,2.1 -3.7,1.5 -5.7,2c1.3,0.4 2.6,0.4 3.8,0.7c0.6,0.1 1,0.9 1.4,1.4c-3.6,0.2 -7.3,0.3 -10.9,0.5c-1.4,-0.9 -3.8,-0.8 -3,-4.2c-1.1,0.9 -1.6,1.3 -2.2,1.6c-1.6,0.9 -3.1,2.4 -4.8,2.6c-1.9,0.2 -3.8,-0.9 -5.8,-1.1c-2,-0.2 -4.2,-0.5 -6,0.1c-4.7,1.4 -9.4,0.3 -14.1,0.5c-3.7,0.2 -7.4,-0.3 -11,-0.5c-0.9,-0.1 -1.9,-0.2 -2.8,-0.2c-4.1,0 -8.2,0.2 -12.3,0.2c-8.1,-0.1 -16.1,-0.2 -24.2,-0.5c-4.1,-0.1 -8.2,-0.3 -12.3,-0.6c-1.5,-0.1 -3.2,-0.5 -4.1,-2c0.1,-0.2 0.1,-0.5 0.2,-0.7c1.9,0.3 3.8,0.5 5.7,0.8c-1.2,-0.9 -2.5,-1.3 -3.8,-1.8c-1.6,-0.7 -3.1,-1.1 -3.8,1.2c-0.1,0.3 -0.7,0.6 -1,0.7c-2.1,0.3 -4.3,0.6 -6.4,0.8c-1.4,0 -3,0.7 -3.9,-1.2c0.7,-0.3 1.3,-0.6 2.1,-1c-1.5,-0.7 -2.7,-1.2 -3.9,-1.7c0.1,-0.2 0.1,-0.4 0.2,-0.5c0.7,0.1 1.3,0.1 2,0.2c0,-0.1 0.1,-0.2 0.1,-0.4c-1.1,-0.4 -2.2,-0.8 -3.9,-1.5c1.9,-0.4 3.5,-1.3 4.3,-0.9c1.1,0.6 1.5,0.2 2.3,0c1.1,-0.4 2.5,-1.1 3.3,-0.8c1.8,0.8 3.1,0.4 4.6,-0.6c1.1,-0.8 2.3,-1.3 3.7,-2c0.4,0.7 1.1,1.3 1.2,1.9c0.4,1.7 1.5,1.7 2.6,1.7Z" style="fill:#7e7e7e;fill-opacity:0.1;fill-rule:nonzero;"/><path id="XMLID_821_" d="M459.7,237.1c-9.1,-0.2 -18.1,-0.3 -27.2,-0.5c-7.9,-0.2 -15.9,-0.7 -23.8,-0.4c-8.4,0.3 -16.7,0 -25,-1c-1.9,-0.2 -3.9,-0.2 -5.8,-0.3c-2.3,-0.2 -4.6,-0.5 -7,-0.5c-1,0 -2,0.6 -3,1c-1.2,-0.3 -2.5,-0.6 -1.4,-2.2c4.7,0.2 9.3,0.5 14,0.7c3.4,0.1 6.8,0 10.2,-0.2c3.1,-0.1 6.2,-0.4 9.3,-0.4c3.8,0 7.6,0.4 11.5,0.5c6.9,0.2 13.8,0.6 20.7,0.6c5.9,0 11.7,-0.6 17.6,-0.6c5.3,-0.1 10.7,0.3 16,0.4c4,0.1 8,-0.1 12,-0.1c6,0 11.9,0.1 17.9,0.3c4,0.1 7.9,0.6 11.9,0.5c3.4,-0.1 6.7,-0.7 10.1,-1c3.2,-0.2 6.5,-0.3 9.7,-0.4c0.6,0 1.3,0.3 1.9,0.5c-0.9,0.3 -1.8,0.5 -3.5,1c1.2,0.4 1.7,0.6 2.3,0.8c0.1,0 0.1,0 0.2,0.1c0.1,0 0.1,0.1 0.2,0.1c-0.3,0.3 -0.6,0.6 -0.8,0.9c0.6,0.7 1.1,1.2 1.6,1.7c-0.3,0.6 -0.6,1.1 -0.9,1.7c-0.3,0.2 -0.6,0.3 -0.9,0.5c-0.6,0.1 -1.2,0.2 -1.9,0.3l0,1.5c-3.8,-2.6 -7.8,-2.7 -12.3,-2c-4.8,0.8 -9.8,0.4 -14.7,0.6c-1.8,0.1 -3.6,0 -5.4,0.4c-6.1,1.1 -12,0.9 -17.8,-1.3c-1,-0.4 -2.2,-0.3 -3.4,-0.4c2.7,-0.1 5.5,-0.3 8.2,-0.3l12.1,0c-2,-0.8 -4.1,-1.6 -6.3,-2.4l11.3,0l0,-0.8c-3.4,-0.1 -6.8,-0.3 -10.3,-0.3c-0.3,0 -0.7,0.8 -1,1.2c-4.5,0.1 -9.1,0.3 -13.6,0.4c1,-0.3 1.9,-0.7 2.9,-0.8c2.8,-0.1 5.6,0 8.4,0c0,-0.3 0.1,-0.7 0.1,-1c-1.3,-0.3 -2.5,-0.8 -3.8,-0.8c-6.2,0.1 -12.3,0.2 -18.5,0.5c-0.6,-0.1 -1.2,0.9 -1.8,1.5Zm44.2,0l0,0.7l19.5,0c-1.3,-1.8 -17,-2.2 -19.5,-0.7Z" style="fill:#6c6c6c;fill-opacity:0.1;fill-rule:nonzero;"/><path id="XMLID_819_" d="M174.5,240.4c2.1,-0.3 4.3,-0.5 6.4,-0.8c0.4,-0.1 0.9,-0.4 1,-0.7c0.7,-2.3 2.1,-1.9 3.8,-1.2c1.3,0.5 2.6,0.9 3.8,1.8c-1.9,-0.3 -3.8,-0.5 -5.7,-0.8c-0.1,0.2 -0.1,0.5 -0.2,0.7c0.9,1.5 2.6,1.8 4.1,2c4.1,0.4 8.2,0.5 12.3,0.6c8.1,0.2 16.1,0.4 24.2,0.5c4.1,0 8.2,-0.1 12.3,-0.2c0.9,0 1.9,0.2 2.8,0.2c3.7,0.2 7.4,0.7 11,0.5c4.7,-0.3 9.4,0.8 14.1,-0.5c1.9,-0.5 4,-0.3 6,-0.1c2,0.2 3.9,1.3 5.8,1.1c1.7,-0.2 3.2,-1.6 4.8,-2.6c0.6,-0.3 1,-0.8 2.2,-1.6c-0.8,3.4 1.6,3.3 3,4.2c-1.8,0.3 -3.7,0.5 -5.5,0.8c-2.5,0.5 -5.1,1 -7.8,1.6c1,0.3 1.9,0.5 2.8,0.8l-7.6,0l0,0.4c0.7,0.1 1.4,0.2 2.1,0.3l0,0.5l-13.3,0l0,-0.5c0.5,-0.1 0.9,-0.3 1.4,-0.4l0,-0.5l-19.3,0c0.3,0.1 0.9,0.3 2.3,0.7c-0.7,0.2 -0.9,0.3 -1.1,0.3c-3.3,-0.4 -6.5,-0.7 -9.7,-1.1c-1,-0.1 -2.2,-0.7 -3.1,-0.4c-3.1,0.9 -6.1,0.5 -9.3,0.2c-3.9,-0.4 -7.9,0 -11.9,-0.2c-3.5,-0.1 -7,-0.6 -10.4,-0.8c-0.8,-0.1 -1.6,0.2 -2.5,0.3c-2.2,0.1 -4.5,0.1 -6.7,0.3c-0.9,0.1 -1.8,0.6 -2.3,0.8c-1,-0.5 -1.7,-0.9 -2.4,-1.2c1,-1.6 0.6,-2.5 -1.3,-2.7c-2.1,-0.2 -4.2,-0.4 -6.4,-0.7c-0.1,-0.6 0.1,-1.1 0.3,-1.6Z" style="fill:#676767;fill-opacity:0.1;fill-rule:nonzero;"/><path id="XMLID_809_" d="M345.2,250.3c-6.8,0.2 -13.5,0.4 -20.3,0.5c-4.3,0.1 -8.5,0.1 -12.8,-0.1c-1.7,-0.1 -3.4,-0.8 -5.1,-1.2c1.6,-0.2 3.8,0.3 4.7,-0.6c1.7,-1.7 3.2,-0.7 4.8,-0.8l5.5,0c-0.9,0.3 -1.8,0.5 -2.7,0.8l0,0.4l6.7,0c-0.7,-0.4 -1.5,-0.8 -2.2,-1.1l5.9,0c1.2,0.1 2.3,0.1 3.5,0.2l0,0.5c-0.8,0.2 -1.7,0.3 -2.8,0.5c0.5,0.3 0.7,0.5 0.8,0.5c2.7,-0.6 5.7,1.1 8.2,-1.1c0.1,-0.1 0.5,-0.1 0.6,-0.1c1.8,0.5 3.5,1 5.2,1.6Z" style="fill:#6c6c6c;fill-opacity:0.1;fill-rule:nonzero;"/><path id="XMLID_807_" d="M326.2,239.4c-2.2,1.2 -4.4,2.7 -7.1,0.9c-0.3,-0.2 -0.8,-0.2 -1.1,-0.1c-3.3,2 -6.9,0.5 -10.2,0.4c-2,-0.1 -3.9,0.4 -6.2,0.1c0.4,0.7 0.7,1.3 1,1.8l-1.3,0c-0.5,-0.4 -1,-0.9 -1.4,-1.4c-0.4,-0.5 -0.6,-1.1 -1,-1.6c0.1,-0.1 0.3,-0.3 0.4,-0.4c-0.4,-0.1 -0.9,-0.2 -1.3,-0.3c2.9,-0.5 5.7,-1.3 8.6,-0.5c0.6,0.2 1.2,0.2 1.8,0.1c5.4,0 10.8,-0.1 16.2,0c0.5,0.1 1.1,0.7 1.6,1Z" style="fill:#7e7e7e;fill-opacity:0.1;fill-rule:nonzero;"/><path id="XMLID_803_" d="M345.2,250.3c-1.7,-0.6 -3.4,-1.1 -5.1,-1.7c-0.2,-0.1 -0.5,-0.1 -0.6,0.1c-2.5,2.2 -5.5,0.5 -8.2,1.1c-0.1,0 -0.3,-0.2 -0.8,-0.5c1.1,-0.2 2,-0.4 2.8,-0.5l0,-0.5c-1.2,-0.1 -2.3,-0.1 -3.5,-0.2c-0.6,-0.4 -1.2,-0.8 -1.8,-1.2l0,-0.4c2.8,0.2 5.6,0.5 8.5,0.7c0.7,0.1 1.5,0 2.2,0.1c4,0.1 8.1,0.3 12.1,0.4c-1.9,0 -3,1 -3.6,2.7c-0.7,-0.1 -1.4,-0.1 -2,-0.1Z" style="fill:#676767;fill-opacity:0.1;fill-rule:nonzero;"/><path id="XMLID_801_" d="M316.6,248c-1.6,0.1 -3.1,-0.9 -4.8,0.8c-0.9,0.9 -3.1,0.4 -4.7,0.6l-0.9,0c-0.5,-0.7 -1,-1.4 -1.5,-2.2c-0.7,0.6 -1.4,1.2 -2.1,1.7c-5.7,-0.2 -11.5,-0.3 -17.2,-0.5l0,-0.9l13.1,0c3.8,-1 7.6,-1.7 11.5,-0.8c0.9,0.2 2,-0.3 2.9,-0.1c1.2,0.4 2.5,1 3.7,1.4Z" style="fill:#676767;fill-opacity:0.1;fill-rule:nonzero;"/><path id="XMLID_799_" d="M165.4,245.8c0.3,0.3 0.6,0.6 0.9,0.8c-0.3,0.3 -0.8,0.8 -0.9,0.8c-2,-1.3 -3.3,-0.3 -4.7,1.1c-0.3,0.4 -0.9,0.6 -1.3,0.9c-1.5,-0.3 -2.9,-0.5 -4.4,-0.8c0.6,-1.4 1.1,-2.5 1.7,-3.7l0.1,-0.1c1.3,-0.2 3.1,-1.1 3.9,-0.6c1.7,1.2 3.2,1.3 5.2,0.4c-0.3,0.6 -0.4,0.9 -0.5,1.2Z" style="fill:#747474;fill-opacity:0.1;fill-rule:nonzero;"/><path id="XMLID_798_" d="M350.7,245.3c-1.5,-0.6 -2.9,-1.2 -4.4,-1.6c-0.3,-0.1 -0.8,0.4 -1.2,0.6c0,0.3 0,0.5 0.1,0.8c-1,-0.6 -1.9,-1.2 -2.9,-1.8c0,-0.1 0,-0.3 0.1,-0.4l3.5,0c0.8,0 1.9,0.6 1.9,-1c0,0 1.4,-0.3 1.6,-0.1c2.2,2.2 4.8,2.6 7.7,2.1c0.8,-0.1 1.7,0.4 2.6,0.6l0,0.4c-1.1,0.3 -2.1,0.6 -3.2,0.9c-1.9,-0.2 -3.8,-0.3 -5.8,-0.5Z" style="fill:#676767;fill-opacity:0.1;fill-rule:nonzero;"/><path id="XMLID_794_" d="M298,239c0.4,0.1 0.9,0.2 1.3,0.3c-0.1,0.1 -0.3,0.3 -0.4,0.4c0.3,0.5 0.6,1.1 1,1.6c0.4,0.5 0.9,0.9 1.4,1.4c-1.4,0.1 -2.7,0.3 -4.1,0.4c-0.5,-0.5 -0.9,-1.2 -1.4,-1.4c-1.2,-0.3 -2.5,-0.3 -3.8,-0.7c2,-0.5 4.4,0.1 5.7,-2c0,-0.1 0.2,-0.1 0.3,-0Z" style="fill:#6c6c6c;fill-opacity:0.1;fill-rule:nonzero;"/><path id="XMLID_792_" d="M527.4,248.1c-0.5,0 -1,0.1 -1.5,0.1c-0.2,-0.9 -0.3,-1.8 -0.5,-2.7c-0.1,0 -0.2,0 -0.2,0.1c0.1,-1 0.2,-1.9 0.3,-2.9l0,-1.5c0.7,-0.1 1.3,-0.2 1.9,-0.3c-0.3,1.5 1.8,3.1 -0.2,4.5c0.4,0.5 0.7,1 1.1,1.5c-0.4,0.2 -0.6,0.7 -0.9,1.2Z" style="fill:#a2a2a2;fill-opacity:0.1;fill-rule:nonzero;"/><path id="XMLID_790_" d="M318.5,244.9c-0.3,-0.3 -0.6,-0.6 -1,-0.9c0,-0.2 0.1,-0.5 0.1,-0.7c4.4,0.2 8.7,0.4 13.1,0.6l0,0.5c-2.9,0 -5.9,-0.1 -8.8,0c-0.9,0 -1.7,0.6 -2.6,0.8c-0.2,-0.1 -0.5,-0.2 -0.8,-0.3Z" style="fill:#676767;fill-opacity:0.1;fill-rule:nonzero;"/><path id="XMLID_787_" d="M356.6,245.8c1.1,-0.3 2.1,-0.6 3.2,-0.9c3.5,0.2 7,0.3 10.5,0.5l0,0.4l-13.7,0Z" style="fill:#6c6c6c;fill-opacity:0.1;fill-rule:nonzero;"/><path id="XMLID_783_" d="M323.9,248c0.8,0.4 1.5,0.8 2.2,1.1l-6.7,0l0,-0.4c0.9,-0.3 1.8,-0.5 2.7,-0.8c0.6,0.1 1.2,0.1 1.8,0.1Z" style="fill:#676767;fill-opacity:0.1;fill-rule:nonzero;"/><path id="XMLID_782_" d="M336.6,245.3c1,-0.8 2,-1.5 3.5,-2.7c0.1,1.4 0.1,2.1 0.2,2.7l-3.7,0Z" style="fill:#676767;fill-opacity:0.1;fill-rule:nonzero;"/><path id="XMLID_778_" d="M217.8,15.6c0.2,-0.2 0.5,-0.5 0.7,-0.7c2.2,-2 4.3,-4.1 6.5,-6.1c0.6,-0.5 1.2,-1 2,-1.8c0,0.8 0.1,1.3 0.1,1.8c-4.3,4.2 -8.6,8.5 -12.9,12.7c-0.2,0.2 -0.5,0.4 -0.7,0.6c-13.9,13 -27.8,26 -41.6,39.1c-2,1.9 -2.8,4.6 -1.9,7.5c1.6,5 3.3,10 5,15c0.3,0.9 0.6,1.9 0.9,2.8c0.6,2.1 1.2,4.2 1.9,6.3c0.5,2.1 0.9,4.3 1.4,6.4c0.6,2.4 1.2,4.8 1.8,7.2c0.2,1.1 0.3,2.3 0.6,3.3c3.4,12.5 6.8,25.1 10.2,37.6c0.2,0.8 0.4,1.5 0.6,2.3c-0.2,0.1 -0.4,0.1 -0.6,0.2c-0.7,-2 -1.4,-4 -2.1,-6.1c-3.4,-10.3 -6.7,-20.5 -10.1,-30.8c-1.8,-5.4 -3.6,-10.7 -5.3,-16.1c-0.9,-3.2 -1.9,-6.3 -2.8,-9.5c-0.1,-0.7 -0.2,-1.3 -0.3,-2c-1.4,-5.6 -2.8,-11.1 -4.2,-16.7c-0.2,-0.9 0,-1.8 0,-3.1c-0.4,-0.6 -1.2,-1.6 -2,-2.6c0,0.2 -0.1,0.4 -0.1,0.6c-1.1,-0.4 -2.3,-0.7 -3.4,-1.1c-1.5,-0.7 -3,-1.5 -5.1,-2.5c0.6,1.1 0.8,1.5 1,2c-4.5,-1.7 -9.1,-3.1 -13.5,-5.2c-5.7,-2.8 -11.1,-6.1 -16.7,-9.2c-5.2,-2.8 -10.5,-5.6 -15.7,-8.4c-2.6,-1.2 -5.2,-2.5 -7.8,-3.7c-0.6,-0.3 -1.2,-0.6 -1.7,-0.8c-3.2,-1.4 -6.5,-2.8 -9.6,-4.4c-1,-0.5 -1.8,-1.5 -2.6,-2.3c3.9,1.4 7.9,2.6 11.6,4.2c17.6,7.6 35.1,15.3 52.7,23c3,1.3 5.8,2.8 8.7,4.3c2.3,1.2 5.4,0.9 6.8,-1.2c6.8,-10 16.5,-16.9 25.6,-24.5c0.3,-0.2 0.5,-0.5 0.8,-0.8c0.6,-0.2 1.2,-0.3 1.7,-0.6c3.5,-2.7 6.9,-5.4 10.3,-8.1c1,-0.9 2,-1.7 3.1,-2.6c2.1,-1.9 4.4,-4 6.7,-6Z" style="fill:#040404;fill-opacity:0.27;fill-rule:nonzero;"/><path id="XMLID_777_" d="M158,219c-0.5,-1.1 -1,-2.1 -1.4,-3.2c-0.1,-0.2 0.2,-0.8 0.4,-0.9c0.4,-0.1 0.9,0.1 1.1,0.1l0,-28.7c0.2,-19.4 0.3,-38.7 0.6,-58.1c0.2,-13.2 0.8,-26.3 1.3,-39.5c0.1,1.2 0.4,2.4 0.4,3.6c0.1,5.2 0,10.4 0,15.6c0,0.6 0.1,1.2 0.1,1.8c-0.2,33.9 -0.4,67.8 -0.6,101.7c0,1.3 -0.2,2.5 -0.3,4c2.5,0.2 4.8,0.3 7.1,0.5c0,0.1 0,0.3 -0.1,0.4c-0.4,0 -0.9,0.1 -1.3,0.1c-2.5,-1.2 -3.2,2.3 -5.5,2.1c0.1,1.2 0.2,2.5 0.3,3.8c0,1.4 0.6,2.3 2.2,2.3c1.5,-0.1 3.5,0.7 4,-1.8c0.1,-0.5 0.5,-0.9 0.8,-1.3c-0.1,1.2 -0.3,2.3 -0.4,3.5c-2.8,0.2 -5.7,0.4 -8.5,0.6c-0.1,-2.3 -0.1,-4.5 -0.2,-6.6Z" style="fill:#b9b9b9;fill-opacity:0.27;fill-rule:nonzero;"/><path id="XMLID_776_" d="M62.8,212.2c0,3.8 0.7,4.8 3.7,4.9c-0.6,0.3 -1.3,0.8 -1.9,0.7c-1.8,-0.1 -3.6,-0.5 -5.5,-0.8c0,-0.1 0,-0.3 -0.1,-0.4c0.1,-0.7 0.2,-1.5 0.2,-2.2c0.4,-22.7 0.8,-45.5 1.2,-68.2c0,-0.6 0.1,-1.3 0.2,-2.4c0.6,0.7 0.9,1.1 1.2,1.5c0.1,1 0.4,2.1 0.4,3.1c0.2,16.3 0.3,32.6 0.5,49c0,0.8 0.1,1.7 0.1,2.5l0,12.3Z" style="fill:#060606;fill-opacity:0.27;fill-rule:nonzero;"/><path id="XMLID_775_" d="M67.8,115c0.4,-1.1 0.9,-2.1 1.3,-3.2c1.6,-5.3 3.2,-10.7 4.8,-16c0.1,0 0.2,0 0.4,0.1c-0.9,4.4 -1.8,8.8 -2.9,13.1c-2.2,9 -4.5,18 -6.8,27.1c-0.5,2 -0.1,3.7 1.5,5.2c5.2,5 10.3,10 15.4,15.1c4,4 7.9,8.1 11.8,12.2c0.5,0.5 1,1.1 1.2,1.9c-3.7,-3.3 -7.4,-6.6 -11,-10c-5.4,-5.1 -10.8,-10.4 -16.2,-15.5c-1.8,-1.7 -3.7,-3.3 -5.5,-5c-0.2,-0.6 -0.3,-1.3 -0.5,-1.9c1.8,-1.6 2,-3.6 1.4,-5.8c1.5,-5.2 3,-10.3 4.5,-15.5c0.2,-0.6 0.4,-1.2 0.6,-1.8Z" style="fill:#060606;fill-opacity:0.27;fill-rule:nonzero;"/><path id="XMLID_774_" d="M160.5,107.9l0,-15.6c0,-1.2 -0.3,-2.4 -0.4,-3.6c0.1,-4.9 0.2,-9.8 0.3,-14.7l0,12.4c0.4,-0.4 0.5,-0.8 0.5,-1.3c0,-4.9 0,-9.8 0.1,-14.7c0,-0.6 0.6,-1.2 0.9,-1.9c0.5,0.4 1.1,0.8 1.6,1.3c0.2,0.2 0.3,0.7 0.5,1c0.3,4.2 0.8,8.4 1,12.6c0.3,7.5 0.4,15.1 0.6,22.6c0,1.9 0,3.7 -0.1,5.6c-0.6,-4.6 -1.2,-9.1 -1.9,-13.7c-0.5,-2.9 -1.2,-5.8 -1.8,-8.6c-0.3,0 -0.6,0.1 -0.8,0.1l0,3.3c-0.2,5.2 -0.4,10.2 -0.5,15.2Z" style="fill:#969696;fill-opacity:0.27;fill-rule:nonzero;"/><path id="XMLID_773_" d="M61.9,140c1.8,1.7 3.7,3.3 5.5,5c-0.9,-0.6 -1.7,-1.2 -2.6,-1.8c-0.7,-0.6 -1.4,-1.2 -2.5,-2.1c-0.2,1.8 -0.3,3.1 -0.4,4.4c-0.3,-0.4 -0.6,-0.8 -1.2,-1.5c-0.1,1.1 -0.2,1.7 -0.2,2.4c-0.4,22.7 -0.8,45.5 -1.2,68.2c0,0.8 -0.1,1.5 -0.2,2.2c-0.3,-1.1 -0.8,-2.1 -0.8,-3.2c0,-5.6 0.2,-11.2 0.3,-16.8l0,-7.7c0.4,-15.1 0.8,-30.2 1.2,-45.4c0,-0.8 -0.4,-1.5 -0.7,-2.3c0.9,-0.5 1.8,-1 2.8,-1.4Z" style="fill:#a5a5a5;fill-opacity:0.27;fill-rule:nonzero;"/><path id="XMLID_771_" d="M164,71c-0.2,-0.3 -0.2,-0.8 -0.5,-1c-0.5,-0.5 -1.1,-0.9 -1.6,-1.3c-0.3,0.6 -0.9,1.2 -0.9,1.9c-0.1,4.9 -0.1,9.8 -0.1,14.7c0,0.4 0,0.8 -0.5,1.3l0,-12.4c0,-1.1 0.2,-2.2 0,-3.2c-0.2,-0.9 -0.9,-1.6 -1.3,-2.5c-0.5,-1 -1,-2.1 -1.2,-3.2c-0.1,-0.8 0.2,-1.7 0.4,-2.8c0.3,0.5 0.6,0.8 0.7,1.1c0.8,-0.4 1.5,-0.7 2.3,-1.1c1.1,0.4 2.3,0.7 3.4,1.1c0,-0.2 0.1,-0.4 0.1,-0.6c0.8,1 1.6,2.1 2,2.6c0,1.3 -0.2,2.3 0,3.1c1.3,5.6 2.8,11.1 4.2,16.7c0.2,0.7 0.2,1.3 0.3,2c-0.1,0 -0.3,0 -0.4,-0.1c-1.8,-6.4 -3.7,-12.8 -5.5,-19.1l-0.7,0c-0.2,0.9 -0.5,1.8 -0.7,2.8Z" style="fill:#b7b7b7;fill-opacity:0.27;fill-rule:nonzero;"/><path id="XMLID_770_" d="M62.8,212.2l0,-12.2c0.1,0 0.2,0 0.3,-0.1c-0.1,4.1 -0.2,8.2 -0.3,12.3Z" style="fill:#525252;fill-opacity:0.27;fill-rule:nonzero;"/><path id="XMLID_760_" d="M153.6,240.3c-0.3,-2.8 -0.3,-2.8 -2.7,-1.6c-0.3,0.2 -0.7,0.2 -1.1,0.1c-2.3,-0.5 -4.5,-1.1 -7.4,-1.9c4.1,-0.3 8.4,0.9 11,-3.8c-1.3,-0.1 -2.3,-0.3 -3.4,-0.4c0,0.3 -0.1,0.5 -0.1,0.8c0.3,0.3 0.6,0.5 1,0.8c-0.2,0.1 -0.4,0.4 -0.6,0.3c-1.7,-0.2 -3.4,-0.4 -5.1,-0.6c-1.1,-0.1 -2.2,-0.3 -3.3,-0.2c-1.6,0.2 -2.8,1 -1.9,3.2c-1,0.1 -1.7,0.2 -2.7,0.3c0.3,-0.5 0.4,-0.6 0.5,-0.8c0.4,-0.9 0.7,-1.7 1,-2.6c-0.9,-0.2 -1.8,-0.7 -2.7,-0.7c-3.2,0 -6.5,0 -9.7,0.2c-1,0.1 -2,0.6 -2.9,0.4c-1.3,-0.2 -2.6,-0.6 -3.8,-0.7c-4.9,-0.3 -9.9,-0.6 -14.8,-0.8c-1.3,0 -2.6,0.5 -4.3,0.8c-3,-1.7 -6.7,0 -10.3,-0.2c-5.1,-0.3 -10.2,-0.7 -15.3,-0.9c-1.7,-0.1 -3.4,0.2 -5.1,0.4c-0.9,0.1 -1.8,0.2 -3.1,0.3c0,1.6 -1.4,1.5 -2.9,1.1c-1.3,-0.3 -1.9,0.1 -2.4,1.4c-0.8,2 -0.9,2 -3.7,1.3c0.9,-0.4 1.6,-0.8 2.3,-1.1c-0.8,-2.4 -1.9,-3 -4,-2.6c-0.3,0.1 -0.7,-0.2 -1,-0.3c-1.4,-0.3 -2.8,-0.7 -4.2,-0.8c-3.9,-0.2 -7.8,-0.2 -11.8,-0.2c-2.3,0 -4.6,0.4 -7,0.5c-1.5,0 -3.1,-0.2 -4.6,-0.5c-0.5,-0.1 -0.8,-1 -1.2,-1.5c0.6,-0.3 1.2,-0.6 1.8,-0.9c0.3,0.5 0.5,1.1 0.9,1.9c0.1,0 0.9,-0.1 1.1,-0.4c0.9,-1.8 2.5,-1.8 4.1,-1.9c0.8,-0.1 1.6,0.4 2.4,0.6c1.3,0.2 2.6,0.7 3.9,0.6c3.4,-0.3 6.8,-1.6 10,-1.1c2.4,0.4 4.8,0.4 7.2,0.5c1.7,0.1 3.4,-0.5 5,-0.8c0.4,-0.1 0.9,-0.2 1.3,-0.1c3.4,0.6 6.9,1.4 10.3,1.7c1.7,0.2 3.4,-0.6 5.1,-0.9c0.4,-0.1 0.8,-0.4 1.1,-0.2c1.8,1 3.5,0.6 5.1,-0.6c0.3,-0.2 0.8,0 1.2,0.1c1.5,0.4 2.7,0.1 3.3,-1.5c0.5,-1.3 1.5,-1.4 2.2,-0.4c1,1.4 2.2,1.2 3.6,0.9c2.2,-0.5 2.9,0.4 2.6,2.8c1.4,-1.3 2.8,-2.6 4.2,-3.9c0,-0.3 -0.1,-0.6 -0.1,-0.8c-1.4,-0.1 -2.7,-0.1 -4.1,-0.2c-2.8,-0.1 -5.6,-0.1 -8.4,-0.2c0,-0.3 -0.1,-0.6 -0.1,-1c0.5,-0.2 1.1,-0.5 1.6,-0.5c4.1,0 8.1,0.1 12.2,0.1c4.3,0 8.6,-0.3 12.9,-0.2c4.5,0.1 9,0.6 13.5,1l0.9,0c4.3,-0.4 8.8,-0.4 13,-1.4c2.5,-0.6 4.7,0.3 7,0.2c1.7,-0.1 3.4,-0.6 4.9,-1.2c0.5,-0.2 0.3,-1.7 0.5,-2.3c1.2,-0.7 2.4,-1.5 3.6,-2.2c2.1,0.4 2.5,1 1.8,3.4c1.9,0.2 3.8,0.4 5,-1.6c0.8,0.4 1.5,0.9 2.3,1.3c-0.2,0.2 -0.3,0.5 -0.4,0.5c-3.6,-0.4 -6,3.7 -9.9,2.6c-0.7,-0.2 -1.5,0.3 -2.2,0.5c0.3,1.6 0.5,3 0.8,4.7c0.2,0.1 0.8,0.3 1.7,0.6c-1.1,0.9 -2,1.6 -3.4,2.7c1.7,0.2 3.1,-0.1 4,0.5c1.8,1 0.3,1.9 -0.9,2.7c1.4,0.2 2.5,0.3 3.5,0.5l0,0.5c-1.5,0.2 -2.9,0.3 -4.9,0.5c1.3,0.6 2,0.9 2.7,1.2c0,0.2 -0.1,0.3 -0.1,0.5c-0.4,0.1 -0.9,0.1 -1.3,0.2c0.3,0.5 0.5,0.9 0.7,1.4c-2.3,-0.1 -4.1,-0.1 -5.9,-0.1Zm-18.5,-14.7c0.1,2.8 2.7,0.4 3.6,1.6c0.2,0.2 1.1,0 1.7,-0.2c0.2,-0.1 0.3,-0.9 0.2,-1.1c-0.3,-0.4 -0.9,-0.8 -1.4,-0.8c-1.4,-0.1 -2.7,0.2 -4.1,0.5Zm-21.4,0.9c-0.6,-0.3 -1,-0.8 -1.6,-0.9c-0.7,-0.1 -1.4,0 -2.1,0c0.4,0.8 0.5,1.8 1.1,2.2c1.2,0.8 2,0.1 2.6,-1.3Zm11.5,2c1.5,-0.4 2.5,-0.6 4.2,-1.1c-1.5,-0.6 -2.4,-1 -3.5,-1.4c-0.2,0.9 -0.4,1.5 -0.7,2.5Zm-23.5,0.3c0,0.3 0.1,0.6 0.1,0.9c1.3,-0.2 2.5,-0.4 3.8,-0.6c0,-0.2 -0.1,-0.5 -0.1,-0.7c-1.3,0.2 -2.6,0.3 -3.8,0.4Z" style="fill:#747474;fill-opacity:0.1;fill-rule:nonzero;"/><path id="XMLID_759_" d="M156.7,244.9c-5.2,-0.3 -10.4,-0.7 -15.6,-0.8c-2.1,-0.1 -4.3,0.6 -6.4,0.6c-2,0.1 -4,-0.7 -5.7,1.1c-0.3,0.3 -1.2,-0.1 -2.2,-0.1c1.3,-0.7 2.1,-1.2 3,-1.6c-8.4,0.8 -16.5,-0.2 -24.8,-1.1c-0.3,0.4 -0.6,0.9 -1,1.4c-0.3,0 -0.5,0.1 -0.6,0c-1.6,-1.5 -3.2,-1.4 -5.1,-0.7c-1.8,0.6 -3.8,0.5 -6,0.7c0.3,-0.9 0.5,-1.4 0.7,-2.1c-3.8,-0.3 -7.5,0.8 -11.1,-0.6c0,0.3 -0.1,0.6 -0.1,0.9c1,0.2 2,0.3 3.6,0.6c-1.7,1.1 -2.9,0.9 -4,0.2c-1.1,-0.7 -2,-1.2 -3.3,-0.3c-0.4,0.3 -1.3,0 -1.8,-0.2c-1.2,-0.7 -2,-0.4 -2.3,1c-1.3,-0.4 -2.6,-0.7 -4.5,-1.2c-2.6,2.4 -6.4,1.1 -10.1,1.1c-2.8,0 -5.6,0 -8.4,-0.1c-1,0 -2,-0.3 -3.2,-0.5c0.7,-1.2 1.1,-1.9 1.6,-2.8c-0.6,-0.4 -1.1,-0.8 -1.8,-1.3c2.7,-0.2 5.1,2.4 7.4,-0.5c0.9,2 2,2.1 3.6,1.3c0.8,-0.4 2.2,0 3.3,0.1c0.8,0.1 1.6,0.4 3.1,0.7c-0.8,-0.7 -1,-0.9 -1.3,-1.1c0.1,-0.2 0.1,-0.4 0.2,-0.7c1.8,0.3 3.5,0.8 5.3,0.9c1,0.1 2.1,-0.3 3.2,-0.5c0.6,-0.1 1.3,0 1.9,0c1.1,0.1 2.2,0.1 3.3,0.2c1.3,0.2 2.6,0.7 4,0.9c0.6,0.1 1.2,0 1.8,0c-0.2,-0.4 -0.3,-0.8 -0.5,-1.4c3.6,0.3 7.2,2 11,0.9c3.8,-1.1 7.9,1.5 11.5,-1.1c2.1,1.2 4.1,2 6.3,0.4c0.3,-0.2 0.9,-0.4 1.3,-0.3c1.7,0.4 3.3,0.9 4.9,1.3c0.7,0.2 1.8,0.7 2.1,0.4c1.8,-1.6 3.6,-0.4 5.5,-0.3c2.8,0.1 5.7,-0.4 8.6,-0.5c2.5,-0.1 5,0.1 7.5,0.2c4,0.1 7.9,0.2 11.9,0.4l0.1,0.1c1.4,0.4 2.7,0.9 4.4,1.4c-4.2,0.2 -8,0.4 -11.9,0.6l0,0.9c0.6,0 1.3,0.1 1.9,0.1c2.5,0.1 5,0.1 7.5,0.2c0.8,-0.1 2,-0.4 1.2,1.2Z" style="fill:#747474;fill-opacity:0.1;fill-rule:nonzero;"/><path id="XMLID_757_" d="M166.8,231.3c-1.2,2 -3.1,1.8 -5,1.6c0.6,-2.4 0.3,-3.1 -1.8,-3.4c-1.3,-0.9 -2.6,-1.7 -3.9,-2.6c0.7,-0.5 1.4,-1 2.1,-1.5c2.8,-0.2 5.7,-0.4 8.5,-0.6c0.8,0 1.5,0.1 2.3,0.1c-0.5,1 -1.2,2 -1.6,3c-0.4,1.1 -0.4,2.3 -0.6,3.4Z" style="fill:#606060;fill-opacity:0.02;fill-rule:nonzero;"/><path id="XMLID_756_" d="M125,221.3c1.9,-2.2 3.6,-2.2 4.5,0l-4.5,0Z" style="fill:#787878;fill-opacity:0.27;fill-rule:nonzero;"/><path id="XMLID_752_" d="M225,8.8c-2.2,2 -4.3,4.1 -6.5,6.1c0.4,-0.7 0.9,-1.4 1.3,-2c1.8,-1.4 3.5,-2.7 5.2,-4.1Z" style="fill:#515151;fill-opacity:0.27;fill-rule:nonzero;"/><path id="XMLID_744_" d="M207.8,24.2c-3.4,2.7 -6.8,5.4 -10.3,8.1c-0.4,0.3 -1.1,0.4 -1.7,0.6c0.9,-0.8 1.8,-1.6 2.7,-2.4c2.3,-1.8 4.7,-3.5 7,-5.2c0.7,-0.4 1.5,-0.7 2.3,-1.1Z" style="fill:#515151;fill-opacity:0.27;fill-rule:nonzero;"/><path id="XMLID_742_" d="M103.6,35.5c2.6,1.2 5.2,2.5 7.8,3.7c-2.6,-1.3 -5.2,-2.5 -7.8,-3.7Z" style="fill:#464646;fill-opacity:0.27;fill-rule:nonzero;"/><path id="XMLID_735_" d="M524.5,220.4c-1.1,-3.7 0.2,-7.3 0,-11c-0.2,-3.8 -0.3,-7.5 -0.4,-11.3c-0.1,-4.8 -0.2,-9.7 -0.3,-14.5c0,-11.5 -0.1,-22.9 -0.1,-34.4c0,-5.4 0.1,-10.8 0.1,-16.2c0.1,-5.6 0.2,-11.3 0.3,-16.9c0,-1.7 -0.2,-3.4 -0.3,-5.1c-3.4,-1.3 -1.2,-4.2 -2.2,-6.3c0.2,-0.2 0.3,-0.3 0.5,-0.5c0.8,0.3 1.7,0.6 2.9,1.1c-1.1,0.7 -1.7,1 -2.3,1.3c0.1,0.2 0.2,0.4 0.2,0.5c1.5,-0.5 3,-1 4.6,-1.6c-0.4,-0.8 -0.7,-1.3 -1,-1.9c0.1,-0.1 0.2,-0.1 0.3,-0.2c0.8,0.7 1.6,1.3 2.4,2c1,1.1 2,2.2 3,3.3c0,0.1 0,0.2 0.1,0.2c-0.6,0 -1.1,-0.1 -2.1,-0.1c0.1,2.7 0.2,5.4 0.4,8l0,4.3l-0.4,0c-0.3,-3.6 -0.7,-7.2 -1.1,-10.9c-2.8,0.3 -2,2.1 -2.2,3.4c-0.5,4.7 -0.9,9.4 -1.4,14.1c-0.1,0.7 -0.3,1.5 -0.3,2.2c0,4.9 0,9.8 0.1,14.8c0.4,22.7 0.7,45.4 1.1,68.1c0,0.9 0.3,1.7 0.4,2.6c1.2,0.2 2.3,0.4 3.4,0.6c-1.1,0.6 -2.3,1.2 -3.5,1.8c0.1,0.5 0,1.3 0.3,1.7c0.6,0.8 1.4,1.4 2.1,2.2c0.6,-0.7 1.2,-1.4 1.8,-2.1c0,0 0,-0.1 0.1,-0.2c0.1,0.2 0.2,0.3 0.4,0.5c0,0.7 -0.1,1.5 -0.1,2.2c-1.8,0.1 -3.6,0.2 -5.4,0.2c-0.4,-0.6 -0.9,-1.3 -1.4,-1.9Z" style="fill:#b5b5b5;fill-opacity:0.27;fill-rule:nonzero;"/><path id="XMLID_734_" d="M294.3,186.3c-0.1,1 -0.3,2.1 -0.4,3.1c-0.1,-0.7 -0.4,-1.4 -0.4,-2.1c0.5,-7 1.1,-14 1.7,-20.9c0,-2.6 0.1,-5.1 0.1,-7.7c0,-0.7 0,-1.9 0.2,-1.9c1.5,-0.4 1.1,-1.8 1.7,-2.6c0.3,0.9 0.8,1.8 0.8,2.7c-0.2,3.5 -0.5,7 -0.8,10.5c0.2,3.8 0.3,7.6 0.5,11.4l0,23.8c0,3 0.2,6 0.3,9l0,4.8c-0.1,0.3 -0.2,0.7 -0.4,1c-0.7,0 -1.4,-0.1 -2.1,-0.1l0,-39.9c-0.1,0 -0.2,0 -0.3,-0.1c-0.2,1.9 -0.5,3.7 -0.7,5.6c-0.1,1 -0.2,2.2 -0.2,3.4Z" style="fill:#080808;fill-opacity:0.27;fill-rule:nonzero;"/><path id="XMLID_733_" d="M528,235.7c-0.6,-0.2 -1.1,-0.4 -2.3,-0.8c1.6,-0.4 2.5,-0.7 3.5,-1l3.1,0c2,0.3 3.9,0.8 5.9,0.9c3.7,0.2 7.5,0.3 11.2,0.4c1.1,0 2.1,0 3.3,0.3c-2.8,3 -6.7,0.2 -9.8,2.6c2.5,0.2 4.9,0.5 7.4,0.7c-1.2,1.8 -5.1,3.1 -7.5,2.5c-2.5,-0.6 -3.4,0.1 -4.2,2.6c-0.2,0.7 -1.3,1.5 -2.2,1.6c-1.5,0.3 -3.2,0.1 -4.7,0c0.2,-2 0.4,-4 0.6,-6.5c-1.5,0.4 -2.8,0.7 -4.1,1c0.3,-0.6 0.6,-1.1 0.9,-1.7c1,-0.1 2.1,-0.1 3.1,-0.2c0.2,-1 0.3,-1.9 0.5,-3.1c-1.6,0.4 -3.1,0.5 -4.7,0.7Z" style="fill:#606060;fill-opacity:0.1;fill-rule:nonzero;"/><path id="XMLID_732_" d="M526,222.4c1.8,-0.1 3.6,-0.2 5.4,-0.2c3.6,0.8 7.2,1.4 10.7,2.4c1.5,0.4 2.8,1.6 4.7,2.7c-5.1,2.3 -10.7,-1.1 -14.7,3.2c-0.1,-0.2 -0.2,-0.5 -0.4,-1.2c-0.6,0.8 -1.1,1.5 -1.8,2.4c-1.1,-3.5 -4.7,-2.5 -7.3,-4.1c1.1,-0.3 1.8,-0.4 2.9,-0.7c-1.2,-0.7 -2.1,-1.3 -3.1,-1.8c1.4,-1.1 2.5,-1.9 3.6,-2.7Z" style="fill:#7d7d7d;fill-opacity:0.27;fill-rule:nonzero;"/><path id="XMLID_731_" d="M463.7,207.8c0,2.3 0.1,4.7 0,7c0,0.7 -0.5,1.4 -0.8,2.1c-0.3,0 -0.6,-0.1 -0.9,-0.1c-0.2,-15 -0.4,-30 -0.6,-45c0.1,-2.6 0.2,-5.1 0.3,-7.7l0.6,0c0.1,0.6 0.1,1.1 0.2,1.7c0.3,8.6 0.6,17.2 0.8,25.8c0.2,5.4 0.3,10.8 0.4,16.2Z" style="fill:#161616;fill-opacity:0.27;fill-rule:nonzero;"/><path id="XMLID_730_" d="M297.6,217.3c0.1,-0.3 0.2,-0.7 0.4,-1c0.3,-0.5 0.7,-1.1 1.2,-1.8c0.4,1 0.7,2 1.1,3c-0.7,0.2 -1.5,0.5 -2.2,0.7c-0.2,-0.4 -0.4,-0.6 -0.5,-0.9Z" style="fill:#5a5a5a;fill-opacity:0.27;fill-rule:nonzero;"/><path id="XMLID_729_" d="M298,220.8c0.4,0.2 0.7,0.5 1.1,0.7c-0.1,0.2 -0.2,0.4 -0.2,0.6c-1.5,0.2 -3,0.3 -4.6,0.5c-0.1,-0.2 -0.1,-0.4 -0.2,-0.6c0.8,-0.4 1.7,-0.8 2.5,-1.2c0.5,0.1 0.9,0 1.4,0Z" style="fill:#7d7d7d;fill-opacity:0.27;fill-rule:nonzero;"/><path id="XMLID_728_" d="M298,220.8c-0.4,0 -0.9,0.1 -1.3,0.1c-0.4,-0.5 -0.7,-1.1 -1.1,-1.6c0.8,-0.4 1.6,-0.8 2.4,-1.2c0,0.2 0.1,0.3 0.1,0.5c0,0.7 -0.1,1.5 -0.1,2.2Z" style="fill:#5a5a5a;fill-opacity:0.27;fill-rule:nonzero;"/><path id="XMLID_726_" d="M529.2,105.5c-1,-1 -2.1,-2 -3,-3.1c-1.2,-1.3 -2.5,-2.5 -3.3,-3.9c-4.4,-7.7 -8.6,-15.5 -12.8,-23.2c-0.7,-1.2 -1.4,-2.3 -2.1,-3.5c-1.3,-1.9 -2.5,-3.8 -3.8,-5.8c0.2,-0.1 0.3,-0.3 0.5,-0.4c8.2,12.3 16.5,24.6 24.7,36.9c1.8,2.7 2.7,2.5 5.5,0.9c3.7,-2.2 7.7,-4 11.8,-5.6c7.6,-3 15.3,-5.7 22.9,-8.5c0.2,-0.1 0.4,-0.1 0.8,0.3c-4.5,2.3 -9,4.6 -13.5,6.9c-7.2,3.3 -14.5,6.6 -21.7,10.1c-1.1,0.5 -2,1.5 -3,2.3c-1,-1.2 -2,-2.3 -3,-3.4Z" style="fill:#050505;fill-opacity:0.27;fill-rule:nonzero;"/><path id="XMLID_724_" d="M501,61c0.4,0.3 0.9,0.6 1.3,0.9c0.8,1.2 1.5,2.4 2.3,3.7c-0.2,0.1 -0.3,0.3 -0.5,0.4c-0.9,-1.7 -3.5,-2.4 -3.1,-5Z" style="fill:#434343;fill-opacity:0.27;fill-rule:nonzero;"/><path id="XMLID_722_" d="M61.9,140c-0.9,0.5 -1.8,0.9 -2.7,1.4c-3.1,1.1 -6,2.4 -9.2,3.1c-9,2 -18,3.6 -27.2,5.3c2,-0.7 3.9,-1.4 5.9,-2.1c4.7,-1.5 9.4,-2.9 14.1,-4.4c3,-0.8 6,-1.6 9,-2.4c3.2,-0.9 6.4,-1.9 9.5,-2.8c0.2,0.6 0.4,1.2 0.6,1.9Z" style="fill:#050505;fill-opacity:0.27;fill-rule:nonzero;"/><path id="XMLID_720_" d="M217.8,15.6c-2.3,2 -4.7,4 -7,6.1c2.4,-2 4.7,-4.1 7,-6.1Z" style="fill:#515151;fill-opacity:0.27;fill-rule:nonzero;"/><path id="XMLID_717_" d="M528.3,240.3c1.3,-0.3 2.6,-0.7 4.1,-1c-0.2,2.4 -0.4,4.4 -0.6,6.5c-0.2,1 1.4,2.4 -0.7,2.8c-0.7,-0.2 -1.4,-0.3 -2.1,-0.5c0.1,-0.2 0.3,-0.5 0.4,-0.7c-0.4,-0.2 -0.7,-0.4 -1.1,-0.6c-0.4,-0.5 -0.7,-1 -1.1,-1.5c2,-1.4 -0.1,-3 0.2,-4.5c0.3,-0.2 0.6,-0.4 0.9,-0.5Z" style="fill:#1d1d1d;fill-opacity:0.1;fill-rule:nonzero;"/><path id="XMLID_712_" d="M528.2,246.7c0.4,0.2 0.7,0.4 1.1,0.6c-0.1,0.2 -0.3,0.5 -0.4,0.7c0.7,0.2 1.4,0.3 2.1,0.5l0,0.4c-1.2,-0.1 -2.4,0 -2.8,1.4c-0.3,-0.8 -0.5,-1.5 -0.8,-2.3c0.3,-0.4 0.5,-0.9 0.8,-1.3Z" style="fill:#606060;fill-opacity:0.1;fill-rule:nonzero;"/><path id="XMLID_699_" d="M530.6,116.8c-0.1,-2.6 -0.2,-5.2 -0.4,-8c0.9,0.1 1.5,0.1 2.1,0.1c0.3,7.2 0.6,14.3 1,21.5c0.4,6.6 0.8,13.2 1.2,19.9c0.1,1 0.3,1.9 0.4,2.9c0.3,5 0.7,10 1,15l-0.4,0c-0.5,-4.4 -1,-8.8 -1.5,-13.1c-0.9,-9.5 -1.9,-18.9 -2.8,-28.4c-0.2,-3.2 -0.4,-6.6 -0.6,-9.9Z" style="fill:#060606;fill-opacity:0.27;fill-rule:nonzero;"/><path id="XMLID_681_" d="M525.6,127.8c0.5,-4.7 0.9,-9.4 1.4,-14.1c0.2,0.7 0.5,1.4 0.5,2.1c0.5,9.9 0.8,19.7 1.3,29.6c0.2,4.3 0.5,8.6 0.8,12.8c0.2,11 0.4,22 0.6,33c0,0.7 0.2,1.3 0.3,2l0,22c-0.7,0 -1.4,0.1 -2.1,0.1c-0.2,-1.4 -0.4,-2.9 -0.5,-4.3c-0.5,-13 -1,-26.1 -1.3,-39.1c-0.3,-11.6 -0.4,-23.3 -0.6,-34.9c-0.1,-3 -0.3,-6.1 -0.4,-9.2Z" style="fill:#070707;fill-opacity:0.27;fill-rule:nonzero;"/><path id="XMLID_679_" d="M525.6,127.8c0.1,3.1 0.4,6.2 0.4,9.3c0.2,11.6 0.3,23.3 0.6,34.9c0.3,13 0.8,26.1 1.3,39.1c0.1,1.4 0.3,2.9 0.5,4.3c-0.5,0 -1,0.1 -1.4,0.1c-0.2,-0.9 -0.4,-1.7 -0.4,-2.6c-0.4,-22.7 -0.8,-45.4 -1.1,-68.1c-0.1,-4.9 -0.1,-9.8 -0.1,-14.8c-0.2,-0.7 0,-1.5 0.2,-2.2Z" style="fill:#383838;fill-opacity:0.27;fill-rule:nonzero;"/><path id="XMLID_677_" d="M169,220.8c1.1,0.2 2.1,0.3 3.2,0.5c-0.7,2.2 -0.2,2.7 2.4,2.9c1.6,0.1 3.2,0.8 4.7,1.2c0,0.2 -0.1,0.5 -0.1,0.7c-0.7,0.3 -1.4,0.6 -2.1,0.9l0,0.5c1.6,0.3 3.2,0.5 5.1,0.9c-0.1,-1 -0.2,-1.7 -0.4,-2.9c2.3,0.9 3.7,4.2 6.8,1.9l0,4.7c0.4,0.5 0.8,1 1.2,1.5c-0.3,0 -0.6,0 -0.9,0.1c-1.2,-0.1 -2.3,0 -2.3,-1.7c0,-0.6 -0.7,-1.2 -1.2,-1.9c-1.4,0.7 -2.6,1.3 -3.7,2c-1.5,1.1 -2.7,1.4 -4.6,0.6c-0.8,-0.4 -2.2,0.4 -3.3,0.8c-0.8,0.3 -1.3,0.7 -2.3,0c-0.8,-0.5 -2.4,0.4 -4.3,0.9c1.7,0.7 2.8,1.1 3.9,1.5c0,0.1 -0.1,0.2 -0.1,0.4c-0.7,-0.1 -1.3,-0.1 -2,-0.2c-0.1,0.2 -0.1,0.4 -0.2,0.5c1.2,0.5 2.4,1.1 3.9,1.7c-0.8,0.4 -1.4,0.6 -2.1,1c0.9,1.9 2.5,1.2 3.9,1.2c-0.2,0.5 -0.3,1.1 -0.5,1.6c2.3,0.2 4.4,0.5 6.4,0.7c1.9,0.2 2.4,1.1 1.3,2.7c-1.3,-0.1 -2.7,-0.3 -4,-0.3c-4.1,0.2 -8.2,0.5 -12.3,0.7c0.1,-0.3 0.2,-0.5 0.5,-1.1c-1.9,0.9 -3.5,0.7 -5.2,-0.4c-0.8,-0.5 -2.6,0.3 -3.9,0.6c0.7,-1.5 -0.6,-1.3 -1.3,-1.3c-2.5,-0.1 -5,-0.1 -7.5,-0.2c-0.6,0 -1.3,-0.1 -1.9,-0.1l0,-0.9c3.8,-0.2 7.7,-0.4 11.9,-0.6c-1.7,-0.5 -3,-0.9 -4.4,-1.4l5.6,0c-0.2,-0.4 -0.4,-0.8 -0.7,-1.4c0.5,-0.1 0.9,-0.1 1.3,-0.2c0,-0.2 0.1,-0.3 0.1,-0.5c-0.7,-0.3 -1.4,-0.6 -2.7,-1.2c1.9,-0.2 3.4,-0.4 4.9,-0.5l0,-0.5c-1,-0.1 -2.1,-0.3 -3.5,-0.5c1.2,-0.8 2.7,-1.6 0.9,-2.7c-0.9,-0.5 -2.3,-0.3 -4,-0.5c1.4,-1.1 2.3,-1.8 3.4,-2.7c-0.9,-0.3 -1.4,-0.5 -1.7,-0.6c-0.3,-1.7 -0.6,-3.1 -0.8,-4.7c0.7,-0.2 1.5,-0.7 2.2,-0.5c3.8,1.1 6.3,-2.9 9.9,-2.6c0.2,-0.1 0.4,-0.5 0.5,-0.6Z" style="fill:#606060;fill-opacity:0.1;fill-rule:nonzero;"/><path id="XMLID_675_" d="M302.5,249c0.7,-0.6 1.4,-1.2 2.1,-1.7c0.5,0.7 1,1.4 1.5,2.2c-1.6,0.4 -3.3,0.8 -5.6,1.4c1.1,-1.1 1.6,-1.5 2,-1.9Z" style="fill:#6c6c6c;fill-opacity:0.1;fill-rule:nonzero;"/><rect id="XMLID_674_" x="277.6" y="247.6" width="7.7" height="0.9" style="fill:#6c6c6c;fill-opacity:0.1;fill-rule:nonzero;"/><path id="XMLID_672_" d="M459.7,237.1c0.6,-0.6 1.2,-1.6 1.8,-1.6c6.2,-0.3 12.3,-0.4 18.5,-0.5c1.3,0 2.5,0.5 3.8,0.8c0,0.3 -0.1,0.7 -0.1,1c-2.8,0 -5.6,-0.1 -8.4,0c-1,0 -1.9,0.5 -2.9,0.8c-4.2,-0.2 -8.4,-0.4 -12.7,-0.5Z" style="fill:#606060;fill-opacity:0.1;fill-rule:nonzero;"/><path id="XMLID_671_" d="M338.9,239.4c-0.7,0.4 -1.4,1.1 -2,1.1c-2.1,-0.1 -4.1,-0.4 -6.2,-0.7c1.5,-1.6 5.3,-1.8 8.2,-0.4Z" style="fill:#7e7e7e;fill-opacity:0.1;fill-rule:nonzero;"/><path id="XMLID_670_" d="M368,235.3c1,-0.3 2,-1 3,-1c2.3,0 4.6,0.3 7,0.5c-0.3,0.3 -0.7,0.9 -1,0.8c-3,-0.4 -6.1,1.5 -9,-0.3Z" style="fill:#7e7e7e;fill-opacity:0.1;fill-rule:nonzero;"/><path id="XMLID_666_" d="M503.9,237.1c2.5,-1.5 18.2,-1.1 19.5,0.7l-19.5,0l0,-0.7Z" style="fill:#606060;fill-opacity:0.1;fill-rule:nonzero;"/><path id="XMLID_665_" d="M528,235.7c1.5,-0.2 3.1,-0.3 4.7,-0.5c-0.2,1.2 -0.3,2.1 -0.5,3.1c-1,0.1 -2.1,0.1 -3.1,0.2c-0.5,-0.5 -1,-1 -1.6,-1.7c0.2,-0.3 0.5,-0.6 0.8,-0.9c-0.1,0 -0.1,-0.1 -0.2,-0.1c0.1,-0.1 0,-0.1 -0.1,-0.1Z" style="fill:#262626;fill-opacity:0.1;fill-rule:nonzero;"/><path id="XMLID_664_" d="M486,237.2c0.3,-0.4 0.7,-1.2 1,-1.2c3.4,0 6.8,0.2 10.3,0.3l0,0.8c-3.8,0.1 -7.5,0.1 -11.3,0.1Z" style="fill:#606060;fill-opacity:0.1;fill-rule:nonzero;"/><path id="XMLID_653_" d="M174.1,96.8c-1.1,-3.2 -2.1,-6.4 -3.2,-9.6c0.1,0 0.3,0 0.4,0.1c0.9,3.2 1.9,6.4 2.8,9.5Z" style="fill:#797979;fill-opacity:0.27;fill-rule:nonzero;"/><path id="XMLID_652_" d="M165.5,111.8c0.3,5 0.7,9.9 0.8,14.9c0.3,11 0.4,22 0.6,33l0,29.9c0,2.7 0,5.4 -0.1,8.1l0,18.2c-2.3,-0.2 -4.6,-0.3 -7.1,-0.5c0.1,-1.5 0.3,-2.8 0.3,-4c0.2,-33.9 0.4,-67.8 0.6,-101.7c0,-0.6 0,-1.2 -0.1,-1.8c0.2,-5 0.4,-10 0.5,-15l0,-3.3c0.3,0 0.6,-0.1 0.8,-0.1c0.6,2.9 1.3,5.7 1.8,8.6c0.7,4.6 1.3,9.1 1.9,13.7Z" style="fill:#050505;fill-opacity:0.27;fill-rule:nonzero;"/><path id="XMLID_651_" d="M166.7,216.2l2.6,0c-0.2,-0.9 -0.3,-1.4 -0.4,-2c0.1,-0.1 0.3,-0.2 0.4,-0.3c0.5,0.5 0.9,1.2 1.5,1.6c0.5,0.3 1.3,0.2 2.6,0.4c-3,1.4 -5.4,1 -7.9,0.4c0.4,0 0.8,0 1.2,-0.1Z" style="fill:#353535;fill-opacity:0.27;fill-rule:nonzero;"/><path id="XMLID_650_" d="M135.1,237.4c1.5,-0.2 2.8,-0.5 4.1,-0.6c0.5,0 1.1,0.4 1.4,0.8c0.2,0.2 0,1 -0.2,1.1c-0.5,0.2 -1.4,0.5 -1.7,0.2c-1,-1 -3.5,1.4 -3.6,-1.5Z" style="fill:#8d8d8d;fill-opacity:0.02;fill-rule:nonzero;"/><path id="XMLID_649_" d="M113.7,238.4c-0.5,1.4 -1.4,2.1 -2.6,1.3c-0.6,-0.4 -0.7,-1.5 -1.1,-2.2c0.7,0 1.4,-0.1 2.1,0c0.5,0.2 1,0.6 1.6,0.9Z" style="fill:#8d8d8d;fill-opacity:0.02;fill-rule:nonzero;"/><path id="XMLID_648_" d="M125.2,240.4c0.3,-1 0.5,-1.7 0.7,-2.5c1.1,0.4 2,0.8 3.5,1.4c-1.7,0.5 -2.7,0.7 -4.2,1.1Z" style="fill:#8d8d8d;fill-opacity:0.1;fill-rule:nonzero;"/><path id="XMLID_647_" d="M101.7,228.8c1.3,-0.1 2.5,-0.2 3.8,-0.3c0,0.2 0.1,0.5 0.1,0.7c-1.3,0.2 -2.5,0.4 -3.8,0.6c0,-0.3 -0.1,-0.7 -0.1,-1Z" style="fill:#8d8d8d;fill-opacity:0.1;fill-rule:nonzero;"/><path id="XMLID_644_" d="M460.1,199l0,-14.5c0.1,-6.3 0.3,-12.5 0.3,-18.8c0,-0.8 -0.4,-1.7 -0.7,-2.5c-0.6,-1.3 0.1,-2.6 1.7,-2.7c1.5,1 2,2.3 1.8,4.1c-0.1,1.3 0,2.7 0.1,4c-0.3,-0.9 -0.6,-1.9 -0.8,-2.8c-0.1,-0.6 -0.1,-1.1 -0.2,-1.7l-0.6,0c-0.1,2.6 -0.2,5.1 -0.3,7.7c-0.1,1.3 -0.4,2.7 -0.4,4c0.1,12.2 0.3,24.5 0.4,36.7l0,2.8l-0.6,0c-0.2,-5.4 -0.4,-10.9 -0.7,-16.3Z" style="fill:#b0b0b0;fill-opacity:0.27;fill-rule:nonzero;"/><path id="XMLID_642_" d="M294.3,186.3c0.1,-1.2 0.1,-2.3 0.2,-3.5c0.1,0.7 0.4,1.3 0.4,2l0,29.7c0,0.2 -0.1,0.4 -0.5,0.6c-0.1,-9.6 -0.1,-19.2 -0.1,-28.8Z" style="fill:#c9c9c9;fill-opacity:0.27;fill-rule:nonzero;"/><path id="XMLID_641_" d="M166.7,210.9l0,-13.2c0,1.4 0,2.7 0.1,4.1c0.1,1.1 0.4,2.2 0.7,3.5c-1.6,1.4 -0.4,3.6 -0.8,5.6Z" style="fill:#555;fill-opacity:0.27;fill-rule:nonzero;"/><path id="XMLID_640_" d="M351.3,232.7c-0.9,-0.7 -1.9,-1.4 -2.8,-2.2c0,-0.2 0,-0.4 0.1,-0.6c0.9,0.1 1.9,0 2.7,0.4c0.4,0.2 0.5,1.3 0.7,1.9c-0.3,0.2 -0.5,0.4 -0.7,0.5Z" style="fill:#8d8d8d;fill-opacity:0.1;fill-rule:nonzero;"/><path id="XMLID_639_" d="M296.6,236.3c-0.2,0.7 -0.3,1.4 -0.5,2.1c-0.7,-0.2 -1.4,-0.4 -2.1,-0.6l0,-0.6c0.9,-0.3 1.8,-0.6 2.6,-0.9c0.1,0 0,0 0,0Z" style="fill:#8d8d8d;fill-opacity:0.02;fill-rule:nonzero;"/><path id="XMLID_636_" d="M523.8,133l0,-22c0.1,1.7 0.3,3.4 0.3,5.1c-0.1,5.6 -0.2,11.2 -0.3,16.9Z" style="fill:#434343;fill-opacity:0.27;fill-rule:nonzero;"/><path id="XMLID_632_" d="M297.6,153.2c-0.1,0.3 -0.3,0.6 -0.4,0.9c-0.6,0.8 -0.2,2.2 -1.7,2.6c-0.2,0.1 -0.2,1.3 -0.2,1.9c-0.1,2.6 -0.1,5.1 -0.1,7.7c-0.2,0.3 -0.5,0.5 -0.7,0.8c0.1,-3.5 0.2,-7 0.3,-10.5c0,-0.6 0.1,-1.4 -0.2,-1.7c-1.1,-1.1 -1,-1.8 0.1,-2.7c0.4,-0.3 0.4,-1.1 0.6,-1.7c0.8,0.8 1.5,1.8 2.3,2.7Z" style="fill:#b7b7b7;fill-opacity:0.27;fill-rule:nonzero;"/><path id="XMLID_631_" d="M297.6,153.2c-0.8,-0.9 -1.5,-1.8 -2.3,-2.8c-1.4,-1.2 -3.1,-2.2 -4.2,-3.7c-4.5,-6.1 -8.7,-12.4 -13.1,-18.7c2.3,2.5 4.5,5 6.8,7.5c4,4.9 8,9.8 12.2,14.6c0.6,0.7 2.4,1.1 3.2,0.7c5.4,-2.6 11.4,-3 17.1,-4.3c3.9,-0.9 7.8,-2 11.6,-2.9c0.3,-0.1 0.7,-0.1 1.1,0.2c-0.7,0.3 -1.5,0.6 -2.2,0.9c-8.6,2.4 -17.1,4.9 -25.7,7.3c-1.5,0.5 -3,0.8 -4.5,1.2Z" style="fill:#060606;fill-opacity:0.27;fill-rule:nonzero;"/><path id="XMLID_630_" d="M461.5,160.5c-1.4,-0.7 -2.7,-1.3 -4.1,-2c-1.3,-1.3 -2.7,-2.6 -4,-4c-1.4,-1.5 -2.8,-3.1 -4.1,-4.6c-1.8,-1.8 -3.6,-3.6 -5.4,-5.4c0.7,0.3 1.4,0.4 1.9,0.9c5.2,4.5 10.3,9.1 15.5,13.6c2.1,1.9 2.5,1.9 4.7,0c0.5,-0.4 0.9,-0.8 1.4,-1.1c6.3,-3.3 12.5,-6.5 18.8,-9.7c0.1,0.1 0.3,0.3 0.4,0.4c-0.5,0.4 -1,0.8 -1.4,1.2c-4.3,2.6 -8.7,5.2 -13,7.8c-1.9,1.1 -3.8,2.2 -5.7,3.2c-1.5,0.8 -2.2,2 -2.1,3.7c0.5,6.2 1,12.5 1.5,18.7c0,0.3 0.2,0.6 0.3,0.9c0.2,2.8 0.5,5.7 0.7,8.5c-0.1,0 -0.3,0 -0.4,0.1c-0.5,-4 -1.1,-8 -1.6,-11.9c-0.5,-4 -0.9,-8.1 -1.4,-12.1c0,-1.3 -0.2,-2.7 -0.1,-4c0.1,-1.8 -0.4,-3.2 -1.9,-4.2Z" style="fill:#080808;fill-opacity:0.27;fill-rule:nonzero;"/></svg>